M48
; DRILL file {KiCad 9.0.4-9.0.4-0~ubuntu24.04.1} date 2025-09-14T23:54:21+0200
; FORMAT={-:-/ absolute / metric / decimal}
; #@! TF.CreationDate,2025-09-14T23:54:21+02:00
; #@! TF.GenerationSoftware,Kicad,Pcbnew,9.0.4-9.0.4-0~ubuntu24.04.1
; #@! TF.FileFunction,Plated,1,2,PTH
FMAT,2
METRIC
; #@! TA.AperFunction,Plated,PTH,ComponentDrill
T1C0.800
; #@! TA.AperFunction,Plated,PTH,ComponentDrill
T2C0.900
; #@! TA.AperFunction,Plated,PTH,ComponentDrill
T3C1.000
; #@! TA.AperFunction,Plated,PTH,ComponentDrill
T4C1.100
; #@! TA.AperFunction,Plated,PTH,ComponentDrill
T5C1.520
%
G90
G05
T1
X134.89Y-96.155
X136.89Y-96.155
X138.89Y-96.155
T2
X132.445Y-102.505
X134.985Y-102.505
T3
X133.35Y-68.205
X133.35Y-120.3
X135.89Y-68.205
X135.89Y-120.3
X138.43Y-68.205
X138.43Y-120.3
X155.305Y-70.115
X155.305Y-72.655
X155.305Y-115.84
X155.305Y-118.38
T4
X133.42Y-78.985
X133.461Y-108.474
X135.96Y-78.985
X136.001Y-108.474
X138.5Y-78.985
X138.541Y-108.474
T5
X144.51Y-70.485
X144.51Y-118.07
X149.59Y-70.485
X149.59Y-118.07
T3
G00X137.775Y-85.665
M15
G01X137.775Y-87.665
M16
G05
G00X139.775Y-91.365
M15
G01X141.775Y-91.365
M16
G05
G00X143.975Y-85.415
M15
G01X143.975Y-87.915
M16
G05
M30
