%TF.GenerationSoftware,KiCad,Pcbnew,9.0.4-9.0.4-0~ubuntu24.04.1*%
%TF.CreationDate,2025-09-14T23:54:28+02:00*%
%TF.ProjectId,breadboard_power_supply,62726561-6462-46f6-9172-645f706f7765,rev?*%
%TF.SameCoordinates,Original*%
%TF.FileFunction,Legend,Top*%
%TF.FilePolarity,Positive*%
%FSLAX46Y46*%
G04 Gerber Fmt 4.6, Leading zero omitted, Abs format (unit mm)*
G04 Created by KiCad (PCBNEW 9.0.4-9.0.4-0~ubuntu24.04.1) date 2025-09-14 23:54:28*
%MOMM*%
%LPD*%
G01*
G04 APERTURE LIST*
%ADD10C,0.120000*%
%ADD11C,0.200000*%
%ADD12C,0.160000*%
%ADD13C,0.100000*%
%ADD14C,0.127000*%
G04 APERTURE END LIST*
D10*
X153300287Y-117984661D02*
X152633620Y-118127518D01*
X152633620Y-118127518D02*
X153300287Y-118270375D01*
X153157430Y-118698947D02*
X153109811Y-118784661D01*
X153109811Y-118784661D02*
X153062192Y-118813232D01*
X153062192Y-118813232D02*
X152966954Y-118841804D01*
X152966954Y-118841804D02*
X152824097Y-118841804D01*
X152824097Y-118841804D02*
X152728859Y-118813232D01*
X152728859Y-118813232D02*
X152681240Y-118784661D01*
X152681240Y-118784661D02*
X152633620Y-118727518D01*
X152633620Y-118727518D02*
X152633620Y-118498947D01*
X152633620Y-118498947D02*
X153633620Y-118498947D01*
X153633620Y-118498947D02*
X153633620Y-118698947D01*
X153633620Y-118698947D02*
X153586001Y-118756090D01*
X153586001Y-118756090D02*
X153538382Y-118784661D01*
X153538382Y-118784661D02*
X153443144Y-118813232D01*
X153443144Y-118813232D02*
X153347906Y-118813232D01*
X153347906Y-118813232D02*
X153252668Y-118784661D01*
X153252668Y-118784661D02*
X153205049Y-118756090D01*
X153205049Y-118756090D02*
X153157430Y-118698947D01*
X153157430Y-118698947D02*
X153157430Y-118498947D01*
X153014573Y-119098947D02*
X153014573Y-119556090D01*
X152633620Y-119327518D02*
X153395525Y-119327518D01*
D11*
X143537780Y-95580149D02*
X143537780Y-95770625D01*
X143537780Y-95770625D02*
X143490161Y-95865863D01*
X143490161Y-95865863D02*
X143394923Y-95961101D01*
X143394923Y-95961101D02*
X143204447Y-96008720D01*
X143204447Y-96008720D02*
X142871114Y-96008720D01*
X142871114Y-96008720D02*
X142680638Y-95961101D01*
X142680638Y-95961101D02*
X142585400Y-95865863D01*
X142585400Y-95865863D02*
X142537780Y-95770625D01*
X142537780Y-95770625D02*
X142537780Y-95580149D01*
X142537780Y-95580149D02*
X142585400Y-95484911D01*
X142585400Y-95484911D02*
X142680638Y-95389673D01*
X142680638Y-95389673D02*
X142871114Y-95342054D01*
X142871114Y-95342054D02*
X143204447Y-95342054D01*
X143204447Y-95342054D02*
X143394923Y-95389673D01*
X143394923Y-95389673D02*
X143490161Y-95484911D01*
X143490161Y-95484911D02*
X143537780Y-95580149D01*
X142537780Y-96437292D02*
X143537780Y-96437292D01*
X143537780Y-96437292D02*
X142537780Y-97008720D01*
X142537780Y-97008720D02*
X143537780Y-97008720D01*
D10*
X141640338Y-67195287D02*
X141497481Y-66528620D01*
X141497481Y-66528620D02*
X141354624Y-67195287D01*
X141154624Y-66814335D02*
X140868910Y-66814335D01*
X141211767Y-66528620D02*
X141011767Y-67528620D01*
X141011767Y-67528620D02*
X140811767Y-66528620D01*
X140611766Y-66909573D02*
X140154624Y-66909573D01*
D11*
X131237780Y-95180149D02*
X131237780Y-95370625D01*
X131237780Y-95370625D02*
X131190161Y-95465863D01*
X131190161Y-95465863D02*
X131094923Y-95561101D01*
X131094923Y-95561101D02*
X130904447Y-95608720D01*
X130904447Y-95608720D02*
X130571114Y-95608720D01*
X130571114Y-95608720D02*
X130380638Y-95561101D01*
X130380638Y-95561101D02*
X130285400Y-95465863D01*
X130285400Y-95465863D02*
X130237780Y-95370625D01*
X130237780Y-95370625D02*
X130237780Y-95180149D01*
X130237780Y-95180149D02*
X130285400Y-95084911D01*
X130285400Y-95084911D02*
X130380638Y-94989673D01*
X130380638Y-94989673D02*
X130571114Y-94942054D01*
X130571114Y-94942054D02*
X130904447Y-94942054D01*
X130904447Y-94942054D02*
X131094923Y-94989673D01*
X131094923Y-94989673D02*
X131190161Y-95084911D01*
X131190161Y-95084911D02*
X131237780Y-95180149D01*
X130761590Y-96370625D02*
X130761590Y-96037292D01*
X130237780Y-96037292D02*
X131237780Y-96037292D01*
X131237780Y-96037292D02*
X131237780Y-96513482D01*
X130761590Y-97227768D02*
X130761590Y-96894435D01*
X130237780Y-96894435D02*
X131237780Y-96894435D01*
X131237780Y-96894435D02*
X131237780Y-97370625D01*
D10*
X153300287Y-72284661D02*
X152633620Y-72427518D01*
X152633620Y-72427518D02*
X153300287Y-72570375D01*
X152919335Y-72770375D02*
X152919335Y-73056090D01*
X152633620Y-72713232D02*
X153633620Y-72913232D01*
X153633620Y-72913232D02*
X152633620Y-73113232D01*
X153014573Y-73313233D02*
X153014573Y-73770376D01*
X152633620Y-73541804D02*
X153395525Y-73541804D01*
D11*
X133837564Y-71008180D02*
X133218517Y-71008180D01*
X133218517Y-71008180D02*
X133551850Y-70627228D01*
X133551850Y-70627228D02*
X133408993Y-70627228D01*
X133408993Y-70627228D02*
X133313755Y-70579609D01*
X133313755Y-70579609D02*
X133266136Y-70531990D01*
X133266136Y-70531990D02*
X133218517Y-70436752D01*
X133218517Y-70436752D02*
X133218517Y-70198657D01*
X133218517Y-70198657D02*
X133266136Y-70103419D01*
X133266136Y-70103419D02*
X133313755Y-70055800D01*
X133313755Y-70055800D02*
X133408993Y-70008180D01*
X133408993Y-70008180D02*
X133694707Y-70008180D01*
X133694707Y-70008180D02*
X133789945Y-70055800D01*
X133789945Y-70055800D02*
X133837564Y-70103419D01*
X132885183Y-70674847D02*
X132647088Y-70008180D01*
X132647088Y-70008180D02*
X132408993Y-70674847D01*
X132123278Y-71008180D02*
X131504231Y-71008180D01*
X131504231Y-71008180D02*
X131837564Y-70627228D01*
X131837564Y-70627228D02*
X131694707Y-70627228D01*
X131694707Y-70627228D02*
X131599469Y-70579609D01*
X131599469Y-70579609D02*
X131551850Y-70531990D01*
X131551850Y-70531990D02*
X131504231Y-70436752D01*
X131504231Y-70436752D02*
X131504231Y-70198657D01*
X131504231Y-70198657D02*
X131551850Y-70103419D01*
X131551850Y-70103419D02*
X131599469Y-70055800D01*
X131599469Y-70055800D02*
X131694707Y-70008180D01*
X131694707Y-70008180D02*
X131980421Y-70008180D01*
X131980421Y-70008180D02*
X132075659Y-70055800D01*
X132075659Y-70055800D02*
X132123278Y-70103419D01*
D10*
X153835338Y-67195287D02*
X153692481Y-66528620D01*
X153692481Y-66528620D02*
X153549624Y-67195287D01*
X153349624Y-66814335D02*
X153063910Y-66814335D01*
X153406767Y-66528620D02*
X153206767Y-67528620D01*
X153206767Y-67528620D02*
X153006767Y-66528620D01*
X152806766Y-66909573D02*
X152349624Y-66909573D01*
X152578195Y-66528620D02*
X152578195Y-67290525D01*
D11*
X131617835Y-117459819D02*
X132236882Y-117459819D01*
X132236882Y-117459819D02*
X131903549Y-117840771D01*
X131903549Y-117840771D02*
X132046406Y-117840771D01*
X132046406Y-117840771D02*
X132141644Y-117888390D01*
X132141644Y-117888390D02*
X132189263Y-117936009D01*
X132189263Y-117936009D02*
X132236882Y-118031247D01*
X132236882Y-118031247D02*
X132236882Y-118269342D01*
X132236882Y-118269342D02*
X132189263Y-118364580D01*
X132189263Y-118364580D02*
X132141644Y-118412200D01*
X132141644Y-118412200D02*
X132046406Y-118459819D01*
X132046406Y-118459819D02*
X131760692Y-118459819D01*
X131760692Y-118459819D02*
X131665454Y-118412200D01*
X131665454Y-118412200D02*
X131617835Y-118364580D01*
X132570216Y-117793152D02*
X132808311Y-118459819D01*
X132808311Y-118459819D02*
X133046406Y-117793152D01*
X133332121Y-117459819D02*
X133951168Y-117459819D01*
X133951168Y-117459819D02*
X133617835Y-117840771D01*
X133617835Y-117840771D02*
X133760692Y-117840771D01*
X133760692Y-117840771D02*
X133855930Y-117888390D01*
X133855930Y-117888390D02*
X133903549Y-117936009D01*
X133903549Y-117936009D02*
X133951168Y-118031247D01*
X133951168Y-118031247D02*
X133951168Y-118269342D01*
X133951168Y-118269342D02*
X133903549Y-118364580D01*
X133903549Y-118364580D02*
X133855930Y-118412200D01*
X133855930Y-118412200D02*
X133760692Y-118459819D01*
X133760692Y-118459819D02*
X133474978Y-118459819D01*
X133474978Y-118459819D02*
X133379740Y-118412200D01*
X133379740Y-118412200D02*
X133332121Y-118364580D01*
X130518733Y-102189673D02*
X130518733Y-102951578D01*
D10*
X152469661Y-121124712D02*
X152612518Y-121791379D01*
X152612518Y-121791379D02*
X152755375Y-121124712D01*
X153183947Y-121267569D02*
X153269661Y-121315188D01*
X153269661Y-121315188D02*
X153298232Y-121362807D01*
X153298232Y-121362807D02*
X153326804Y-121458045D01*
X153326804Y-121458045D02*
X153326804Y-121600902D01*
X153326804Y-121600902D02*
X153298232Y-121696140D01*
X153298232Y-121696140D02*
X153269661Y-121743760D01*
X153269661Y-121743760D02*
X153212518Y-121791379D01*
X153212518Y-121791379D02*
X152983947Y-121791379D01*
X152983947Y-121791379D02*
X152983947Y-120791379D01*
X152983947Y-120791379D02*
X153183947Y-120791379D01*
X153183947Y-120791379D02*
X153241090Y-120838998D01*
X153241090Y-120838998D02*
X153269661Y-120886617D01*
X153269661Y-120886617D02*
X153298232Y-120981855D01*
X153298232Y-120981855D02*
X153298232Y-121077093D01*
X153298232Y-121077093D02*
X153269661Y-121172331D01*
X153269661Y-121172331D02*
X153241090Y-121219950D01*
X153241090Y-121219950D02*
X153183947Y-121267569D01*
X153183947Y-121267569D02*
X152983947Y-121267569D01*
X153583947Y-121410426D02*
X154041090Y-121410426D01*
X153812518Y-121791379D02*
X153812518Y-121029474D01*
X140164661Y-121124712D02*
X140307518Y-121791379D01*
X140307518Y-121791379D02*
X140450375Y-121124712D01*
X140878947Y-121267569D02*
X140964661Y-121315188D01*
X140964661Y-121315188D02*
X140993232Y-121362807D01*
X140993232Y-121362807D02*
X141021804Y-121458045D01*
X141021804Y-121458045D02*
X141021804Y-121600902D01*
X141021804Y-121600902D02*
X140993232Y-121696140D01*
X140993232Y-121696140D02*
X140964661Y-121743760D01*
X140964661Y-121743760D02*
X140907518Y-121791379D01*
X140907518Y-121791379D02*
X140678947Y-121791379D01*
X140678947Y-121791379D02*
X140678947Y-120791379D01*
X140678947Y-120791379D02*
X140878947Y-120791379D01*
X140878947Y-120791379D02*
X140936090Y-120838998D01*
X140936090Y-120838998D02*
X140964661Y-120886617D01*
X140964661Y-120886617D02*
X140993232Y-120981855D01*
X140993232Y-120981855D02*
X140993232Y-121077093D01*
X140993232Y-121077093D02*
X140964661Y-121172331D01*
X140964661Y-121172331D02*
X140936090Y-121219950D01*
X140936090Y-121219950D02*
X140878947Y-121267569D01*
X140878947Y-121267569D02*
X140678947Y-121267569D01*
X141278947Y-121410426D02*
X141736090Y-121410426D01*
X153300287Y-69784661D02*
X152633620Y-69927518D01*
X152633620Y-69927518D02*
X153300287Y-70070375D01*
X152919335Y-70270375D02*
X152919335Y-70556090D01*
X152633620Y-70213232D02*
X153633620Y-70413232D01*
X153633620Y-70413232D02*
X152633620Y-70613232D01*
X153014573Y-70813233D02*
X153014573Y-71270376D01*
D11*
X137618733Y-102189673D02*
X137618733Y-102951578D01*
X137237780Y-102570625D02*
X137999685Y-102570625D01*
X139616136Y-70957380D02*
X140092326Y-70957380D01*
X140092326Y-70957380D02*
X140139945Y-70481190D01*
X140139945Y-70481190D02*
X140092326Y-70528809D01*
X140092326Y-70528809D02*
X139997088Y-70576428D01*
X139997088Y-70576428D02*
X139758993Y-70576428D01*
X139758993Y-70576428D02*
X139663755Y-70528809D01*
X139663755Y-70528809D02*
X139616136Y-70481190D01*
X139616136Y-70481190D02*
X139568517Y-70385952D01*
X139568517Y-70385952D02*
X139568517Y-70147857D01*
X139568517Y-70147857D02*
X139616136Y-70052619D01*
X139616136Y-70052619D02*
X139663755Y-70005000D01*
X139663755Y-70005000D02*
X139758993Y-69957380D01*
X139758993Y-69957380D02*
X139997088Y-69957380D01*
X139997088Y-69957380D02*
X140092326Y-70005000D01*
X140092326Y-70005000D02*
X140139945Y-70052619D01*
X139235183Y-70624047D02*
X138997088Y-69957380D01*
X138997088Y-69957380D02*
X138758993Y-70624047D01*
X139072663Y-117487219D02*
X138596473Y-117487219D01*
X138596473Y-117487219D02*
X138548854Y-117963409D01*
X138548854Y-117963409D02*
X138596473Y-117915790D01*
X138596473Y-117915790D02*
X138691711Y-117868171D01*
X138691711Y-117868171D02*
X138929806Y-117868171D01*
X138929806Y-117868171D02*
X139025044Y-117915790D01*
X139025044Y-117915790D02*
X139072663Y-117963409D01*
X139072663Y-117963409D02*
X139120282Y-118058647D01*
X139120282Y-118058647D02*
X139120282Y-118296742D01*
X139120282Y-118296742D02*
X139072663Y-118391980D01*
X139072663Y-118391980D02*
X139025044Y-118439600D01*
X139025044Y-118439600D02*
X138929806Y-118487219D01*
X138929806Y-118487219D02*
X138691711Y-118487219D01*
X138691711Y-118487219D02*
X138596473Y-118439600D01*
X138596473Y-118439600D02*
X138548854Y-118391980D01*
X139453616Y-117820552D02*
X139691711Y-118487219D01*
X139691711Y-118487219D02*
X139929806Y-117820552D01*
D10*
X153300287Y-115484661D02*
X152633620Y-115627518D01*
X152633620Y-115627518D02*
X153300287Y-115770375D01*
X153157430Y-116198947D02*
X153109811Y-116284661D01*
X153109811Y-116284661D02*
X153062192Y-116313232D01*
X153062192Y-116313232D02*
X152966954Y-116341804D01*
X152966954Y-116341804D02*
X152824097Y-116341804D01*
X152824097Y-116341804D02*
X152728859Y-116313232D01*
X152728859Y-116313232D02*
X152681240Y-116284661D01*
X152681240Y-116284661D02*
X152633620Y-116227518D01*
X152633620Y-116227518D02*
X152633620Y-115998947D01*
X152633620Y-115998947D02*
X153633620Y-115998947D01*
X153633620Y-115998947D02*
X153633620Y-116198947D01*
X153633620Y-116198947D02*
X153586001Y-116256090D01*
X153586001Y-116256090D02*
X153538382Y-116284661D01*
X153538382Y-116284661D02*
X153443144Y-116313232D01*
X153443144Y-116313232D02*
X153347906Y-116313232D01*
X153347906Y-116313232D02*
X153252668Y-116284661D01*
X153252668Y-116284661D02*
X153205049Y-116256090D01*
X153205049Y-116256090D02*
X153157430Y-116198947D01*
X153157430Y-116198947D02*
X153157430Y-115998947D01*
X153014573Y-116598947D02*
X153014573Y-117056090D01*
D12*
X145243224Y-80653333D02*
X144671796Y-80653333D01*
X144671796Y-80653333D02*
X144557510Y-80615238D01*
X144557510Y-80615238D02*
X144481320Y-80539047D01*
X144481320Y-80539047D02*
X144443224Y-80424762D01*
X144443224Y-80424762D02*
X144443224Y-80348571D01*
X144443224Y-81453333D02*
X144443224Y-80996190D01*
X144443224Y-81224762D02*
X145243224Y-81224762D01*
X145243224Y-81224762D02*
X145128939Y-81148571D01*
X145128939Y-81148571D02*
X145052748Y-81072381D01*
X145052748Y-81072381D02*
X145014653Y-80996190D01*
X137043224Y-99329524D02*
X137843224Y-99329524D01*
X137843224Y-99329524D02*
X137843224Y-99520000D01*
X137843224Y-99520000D02*
X137805129Y-99634286D01*
X137805129Y-99634286D02*
X137728939Y-99710476D01*
X137728939Y-99710476D02*
X137652748Y-99748571D01*
X137652748Y-99748571D02*
X137500367Y-99786667D01*
X137500367Y-99786667D02*
X137386081Y-99786667D01*
X137386081Y-99786667D02*
X137233700Y-99748571D01*
X137233700Y-99748571D02*
X137157510Y-99710476D01*
X137157510Y-99710476D02*
X137081320Y-99634286D01*
X137081320Y-99634286D02*
X137043224Y-99520000D01*
X137043224Y-99520000D02*
X137043224Y-99329524D01*
X137043224Y-100548571D02*
X137043224Y-100091428D01*
X137043224Y-100320000D02*
X137843224Y-100320000D01*
X137843224Y-100320000D02*
X137728939Y-100243809D01*
X137728939Y-100243809D02*
X137652748Y-100167619D01*
X137652748Y-100167619D02*
X137614653Y-100091428D01*
D13*
X137040104Y-104634286D02*
X137040104Y-104348572D01*
X137040104Y-104348572D02*
X137840104Y-104348572D01*
X137459152Y-104834286D02*
X137459152Y-105034286D01*
X137040104Y-105120000D02*
X137040104Y-104834286D01*
X137040104Y-104834286D02*
X137840104Y-104834286D01*
X137840104Y-104834286D02*
X137840104Y-105120000D01*
X137040104Y-105377143D02*
X137840104Y-105377143D01*
X137840104Y-105377143D02*
X137840104Y-105520000D01*
X137840104Y-105520000D02*
X137802009Y-105605714D01*
X137802009Y-105605714D02*
X137725819Y-105662857D01*
X137725819Y-105662857D02*
X137649628Y-105691428D01*
X137649628Y-105691428D02*
X137497247Y-105720000D01*
X137497247Y-105720000D02*
X137382961Y-105720000D01*
X137382961Y-105720000D02*
X137230580Y-105691428D01*
X137230580Y-105691428D02*
X137154390Y-105662857D01*
X137154390Y-105662857D02*
X137078200Y-105605714D01*
X137078200Y-105605714D02*
X137040104Y-105520000D01*
X137040104Y-105520000D02*
X137040104Y-105377143D01*
D12*
X134414415Y-71966667D02*
X134376320Y-71928571D01*
X134376320Y-71928571D02*
X134338224Y-71814286D01*
X134338224Y-71814286D02*
X134338224Y-71738095D01*
X134338224Y-71738095D02*
X134376320Y-71623809D01*
X134376320Y-71623809D02*
X134452510Y-71547619D01*
X134452510Y-71547619D02*
X134528700Y-71509524D01*
X134528700Y-71509524D02*
X134681081Y-71471428D01*
X134681081Y-71471428D02*
X134795367Y-71471428D01*
X134795367Y-71471428D02*
X134947748Y-71509524D01*
X134947748Y-71509524D02*
X135023939Y-71547619D01*
X135023939Y-71547619D02*
X135100129Y-71623809D01*
X135100129Y-71623809D02*
X135138224Y-71738095D01*
X135138224Y-71738095D02*
X135138224Y-71814286D01*
X135138224Y-71814286D02*
X135100129Y-71928571D01*
X135100129Y-71928571D02*
X135062034Y-71966667D01*
X134338224Y-72728571D02*
X134338224Y-72271428D01*
X134338224Y-72500000D02*
X135138224Y-72500000D01*
X135138224Y-72500000D02*
X135023939Y-72423809D01*
X135023939Y-72423809D02*
X134947748Y-72347619D01*
X134947748Y-72347619D02*
X134909653Y-72271428D01*
D13*
X134335104Y-73514285D02*
X134335104Y-73171428D01*
X134335104Y-73342857D02*
X135135104Y-73342857D01*
X135135104Y-73342857D02*
X135020819Y-73285714D01*
X135020819Y-73285714D02*
X134944628Y-73228571D01*
X134944628Y-73228571D02*
X134906533Y-73171428D01*
X135135104Y-73885714D02*
X135135104Y-73942857D01*
X135135104Y-73942857D02*
X135097009Y-74000000D01*
X135097009Y-74000000D02*
X135058914Y-74028572D01*
X135058914Y-74028572D02*
X134982723Y-74057143D01*
X134982723Y-74057143D02*
X134830342Y-74085714D01*
X134830342Y-74085714D02*
X134639866Y-74085714D01*
X134639866Y-74085714D02*
X134487485Y-74057143D01*
X134487485Y-74057143D02*
X134411295Y-74028572D01*
X134411295Y-74028572D02*
X134373200Y-74000000D01*
X134373200Y-74000000D02*
X134335104Y-73942857D01*
X134335104Y-73942857D02*
X134335104Y-73885714D01*
X134335104Y-73885714D02*
X134373200Y-73828572D01*
X134373200Y-73828572D02*
X134411295Y-73800000D01*
X134411295Y-73800000D02*
X134487485Y-73771429D01*
X134487485Y-73771429D02*
X134639866Y-73742857D01*
X134639866Y-73742857D02*
X134830342Y-73742857D01*
X134830342Y-73742857D02*
X134982723Y-73771429D01*
X134982723Y-73771429D02*
X135058914Y-73800000D01*
X135058914Y-73800000D02*
X135097009Y-73828572D01*
X135097009Y-73828572D02*
X135135104Y-73885714D01*
X134868438Y-74600001D02*
X134335104Y-74600001D01*
X134868438Y-74342858D02*
X134449390Y-74342858D01*
X134449390Y-74342858D02*
X134373200Y-74371429D01*
X134373200Y-74371429D02*
X134335104Y-74428572D01*
X134335104Y-74428572D02*
X134335104Y-74514286D01*
X134335104Y-74514286D02*
X134373200Y-74571429D01*
X134373200Y-74571429D02*
X134411295Y-74600001D01*
X134754152Y-75085715D02*
X134754152Y-74885715D01*
X134335104Y-74885715D02*
X135135104Y-74885715D01*
X135135104Y-74885715D02*
X135135104Y-75171429D01*
D12*
X140405024Y-101266667D02*
X140785977Y-101000000D01*
X140405024Y-100809524D02*
X141205024Y-100809524D01*
X141205024Y-100809524D02*
X141205024Y-101114286D01*
X141205024Y-101114286D02*
X141166929Y-101190476D01*
X141166929Y-101190476D02*
X141128834Y-101228571D01*
X141128834Y-101228571D02*
X141052643Y-101266667D01*
X141052643Y-101266667D02*
X140938358Y-101266667D01*
X140938358Y-101266667D02*
X140862167Y-101228571D01*
X140862167Y-101228571D02*
X140824072Y-101190476D01*
X140824072Y-101190476D02*
X140785977Y-101114286D01*
X140785977Y-101114286D02*
X140785977Y-100809524D01*
X140405024Y-102028571D02*
X140405024Y-101571428D01*
X140405024Y-101800000D02*
X141205024Y-101800000D01*
X141205024Y-101800000D02*
X141090739Y-101723809D01*
X141090739Y-101723809D02*
X141014548Y-101647619D01*
X141014548Y-101647619D02*
X140976453Y-101571428D01*
D13*
X141201904Y-102528571D02*
X141201904Y-102899999D01*
X141201904Y-102899999D02*
X140897142Y-102699999D01*
X140897142Y-102699999D02*
X140897142Y-102785714D01*
X140897142Y-102785714D02*
X140859047Y-102842857D01*
X140859047Y-102842857D02*
X140820952Y-102871428D01*
X140820952Y-102871428D02*
X140744761Y-102899999D01*
X140744761Y-102899999D02*
X140554285Y-102899999D01*
X140554285Y-102899999D02*
X140478095Y-102871428D01*
X140478095Y-102871428D02*
X140440000Y-102842857D01*
X140440000Y-102842857D02*
X140401904Y-102785714D01*
X140401904Y-102785714D02*
X140401904Y-102614285D01*
X140401904Y-102614285D02*
X140440000Y-102557142D01*
X140440000Y-102557142D02*
X140478095Y-102528571D01*
X141201904Y-103100000D02*
X141201904Y-103471428D01*
X141201904Y-103471428D02*
X140897142Y-103271428D01*
X140897142Y-103271428D02*
X140897142Y-103357143D01*
X140897142Y-103357143D02*
X140859047Y-103414286D01*
X140859047Y-103414286D02*
X140820952Y-103442857D01*
X140820952Y-103442857D02*
X140744761Y-103471428D01*
X140744761Y-103471428D02*
X140554285Y-103471428D01*
X140554285Y-103471428D02*
X140478095Y-103442857D01*
X140478095Y-103442857D02*
X140440000Y-103414286D01*
X140440000Y-103414286D02*
X140401904Y-103357143D01*
X140401904Y-103357143D02*
X140401904Y-103185714D01*
X140401904Y-103185714D02*
X140440000Y-103128571D01*
X140440000Y-103128571D02*
X140478095Y-103100000D01*
X141201904Y-103842857D02*
X141201904Y-103900000D01*
X141201904Y-103900000D02*
X141163809Y-103957143D01*
X141163809Y-103957143D02*
X141125714Y-103985715D01*
X141125714Y-103985715D02*
X141049523Y-104014286D01*
X141049523Y-104014286D02*
X140897142Y-104042857D01*
X140897142Y-104042857D02*
X140706666Y-104042857D01*
X140706666Y-104042857D02*
X140554285Y-104014286D01*
X140554285Y-104014286D02*
X140478095Y-103985715D01*
X140478095Y-103985715D02*
X140440000Y-103957143D01*
X140440000Y-103957143D02*
X140401904Y-103900000D01*
X140401904Y-103900000D02*
X140401904Y-103842857D01*
X140401904Y-103842857D02*
X140440000Y-103785715D01*
X140440000Y-103785715D02*
X140478095Y-103757143D01*
X140478095Y-103757143D02*
X140554285Y-103728572D01*
X140554285Y-103728572D02*
X140706666Y-103700000D01*
X140706666Y-103700000D02*
X140897142Y-103700000D01*
X140897142Y-103700000D02*
X141049523Y-103728572D01*
X141049523Y-103728572D02*
X141125714Y-103757143D01*
X141125714Y-103757143D02*
X141163809Y-103785715D01*
X141163809Y-103785715D02*
X141201904Y-103842857D01*
X140401904Y-104642858D02*
X140782857Y-104442858D01*
X140401904Y-104300001D02*
X141201904Y-104300001D01*
X141201904Y-104300001D02*
X141201904Y-104528572D01*
X141201904Y-104528572D02*
X141163809Y-104585715D01*
X141163809Y-104585715D02*
X141125714Y-104614286D01*
X141125714Y-104614286D02*
X141049523Y-104642858D01*
X141049523Y-104642858D02*
X140935238Y-104642858D01*
X140935238Y-104642858D02*
X140859047Y-104614286D01*
X140859047Y-104614286D02*
X140820952Y-104585715D01*
X140820952Y-104585715D02*
X140782857Y-104528572D01*
X140782857Y-104528572D02*
X140782857Y-104300001D01*
D12*
X136792224Y-112966667D02*
X137173177Y-112700000D01*
X136792224Y-112509524D02*
X137592224Y-112509524D01*
X137592224Y-112509524D02*
X137592224Y-112814286D01*
X137592224Y-112814286D02*
X137554129Y-112890476D01*
X137554129Y-112890476D02*
X137516034Y-112928571D01*
X137516034Y-112928571D02*
X137439843Y-112966667D01*
X137439843Y-112966667D02*
X137325558Y-112966667D01*
X137325558Y-112966667D02*
X137249367Y-112928571D01*
X137249367Y-112928571D02*
X137211272Y-112890476D01*
X137211272Y-112890476D02*
X137173177Y-112814286D01*
X137173177Y-112814286D02*
X137173177Y-112509524D01*
X137592224Y-113233333D02*
X137592224Y-113728571D01*
X137592224Y-113728571D02*
X137287462Y-113461905D01*
X137287462Y-113461905D02*
X137287462Y-113576190D01*
X137287462Y-113576190D02*
X137249367Y-113652381D01*
X137249367Y-113652381D02*
X137211272Y-113690476D01*
X137211272Y-113690476D02*
X137135081Y-113728571D01*
X137135081Y-113728571D02*
X136944605Y-113728571D01*
X136944605Y-113728571D02*
X136868415Y-113690476D01*
X136868415Y-113690476D02*
X136830320Y-113652381D01*
X136830320Y-113652381D02*
X136792224Y-113576190D01*
X136792224Y-113576190D02*
X136792224Y-113347619D01*
X136792224Y-113347619D02*
X136830320Y-113271428D01*
X136830320Y-113271428D02*
X136868415Y-113233333D01*
D13*
X137589104Y-114871428D02*
X137589104Y-114585714D01*
X137589104Y-114585714D02*
X137208152Y-114557142D01*
X137208152Y-114557142D02*
X137246247Y-114585714D01*
X137246247Y-114585714D02*
X137284342Y-114642857D01*
X137284342Y-114642857D02*
X137284342Y-114785714D01*
X137284342Y-114785714D02*
X137246247Y-114842857D01*
X137246247Y-114842857D02*
X137208152Y-114871428D01*
X137208152Y-114871428D02*
X137131961Y-114899999D01*
X137131961Y-114899999D02*
X136941485Y-114899999D01*
X136941485Y-114899999D02*
X136865295Y-114871428D01*
X136865295Y-114871428D02*
X136827200Y-114842857D01*
X136827200Y-114842857D02*
X136789104Y-114785714D01*
X136789104Y-114785714D02*
X136789104Y-114642857D01*
X136789104Y-114642857D02*
X136827200Y-114585714D01*
X136827200Y-114585714D02*
X136865295Y-114557142D01*
X137589104Y-115414286D02*
X137589104Y-115300000D01*
X137589104Y-115300000D02*
X137551009Y-115242857D01*
X137551009Y-115242857D02*
X137512914Y-115214286D01*
X137512914Y-115214286D02*
X137398628Y-115157143D01*
X137398628Y-115157143D02*
X137246247Y-115128571D01*
X137246247Y-115128571D02*
X136941485Y-115128571D01*
X136941485Y-115128571D02*
X136865295Y-115157143D01*
X136865295Y-115157143D02*
X136827200Y-115185714D01*
X136827200Y-115185714D02*
X136789104Y-115242857D01*
X136789104Y-115242857D02*
X136789104Y-115357143D01*
X136789104Y-115357143D02*
X136827200Y-115414286D01*
X136827200Y-115414286D02*
X136865295Y-115442857D01*
X136865295Y-115442857D02*
X136941485Y-115471428D01*
X136941485Y-115471428D02*
X137131961Y-115471428D01*
X137131961Y-115471428D02*
X137208152Y-115442857D01*
X137208152Y-115442857D02*
X137246247Y-115414286D01*
X137246247Y-115414286D02*
X137284342Y-115357143D01*
X137284342Y-115357143D02*
X137284342Y-115242857D01*
X137284342Y-115242857D02*
X137246247Y-115185714D01*
X137246247Y-115185714D02*
X137208152Y-115157143D01*
X137208152Y-115157143D02*
X137131961Y-115128571D01*
X137589104Y-115842857D02*
X137589104Y-115900000D01*
X137589104Y-115900000D02*
X137551009Y-115957143D01*
X137551009Y-115957143D02*
X137512914Y-115985715D01*
X137512914Y-115985715D02*
X137436723Y-116014286D01*
X137436723Y-116014286D02*
X137284342Y-116042857D01*
X137284342Y-116042857D02*
X137093866Y-116042857D01*
X137093866Y-116042857D02*
X136941485Y-116014286D01*
X136941485Y-116014286D02*
X136865295Y-115985715D01*
X136865295Y-115985715D02*
X136827200Y-115957143D01*
X136827200Y-115957143D02*
X136789104Y-115900000D01*
X136789104Y-115900000D02*
X136789104Y-115842857D01*
X136789104Y-115842857D02*
X136827200Y-115785715D01*
X136827200Y-115785715D02*
X136865295Y-115757143D01*
X136865295Y-115757143D02*
X136941485Y-115728572D01*
X136941485Y-115728572D02*
X137093866Y-115700000D01*
X137093866Y-115700000D02*
X137284342Y-115700000D01*
X137284342Y-115700000D02*
X137436723Y-115728572D01*
X137436723Y-115728572D02*
X137512914Y-115757143D01*
X137512914Y-115757143D02*
X137551009Y-115785715D01*
X137551009Y-115785715D02*
X137589104Y-115842857D01*
X136789104Y-116642858D02*
X137170057Y-116442858D01*
X136789104Y-116300001D02*
X137589104Y-116300001D01*
X137589104Y-116300001D02*
X137589104Y-116528572D01*
X137589104Y-116528572D02*
X137551009Y-116585715D01*
X137551009Y-116585715D02*
X137512914Y-116614286D01*
X137512914Y-116614286D02*
X137436723Y-116642858D01*
X137436723Y-116642858D02*
X137322438Y-116642858D01*
X137322438Y-116642858D02*
X137246247Y-116614286D01*
X137246247Y-116614286D02*
X137208152Y-116585715D01*
X137208152Y-116585715D02*
X137170057Y-116528572D01*
X137170057Y-116528572D02*
X137170057Y-116300001D01*
D12*
X143243224Y-75610476D02*
X142595605Y-75610476D01*
X142595605Y-75610476D02*
X142519415Y-75648571D01*
X142519415Y-75648571D02*
X142481320Y-75686666D01*
X142481320Y-75686666D02*
X142443224Y-75762857D01*
X142443224Y-75762857D02*
X142443224Y-75915238D01*
X142443224Y-75915238D02*
X142481320Y-75991428D01*
X142481320Y-75991428D02*
X142519415Y-76029523D01*
X142519415Y-76029523D02*
X142595605Y-76067619D01*
X142595605Y-76067619D02*
X143243224Y-76067619D01*
X143167034Y-76410475D02*
X143205129Y-76448571D01*
X143205129Y-76448571D02*
X143243224Y-76524761D01*
X143243224Y-76524761D02*
X143243224Y-76715237D01*
X143243224Y-76715237D02*
X143205129Y-76791428D01*
X143205129Y-76791428D02*
X143167034Y-76829523D01*
X143167034Y-76829523D02*
X143090843Y-76867618D01*
X143090843Y-76867618D02*
X143014653Y-76867618D01*
X143014653Y-76867618D02*
X142900367Y-76829523D01*
X142900367Y-76829523D02*
X142443224Y-76372380D01*
X142443224Y-76372380D02*
X142443224Y-76867618D01*
D13*
X141340104Y-75277142D02*
X141340104Y-74991428D01*
X141340104Y-74991428D02*
X142140104Y-74991428D01*
X141340104Y-75477142D02*
X142140104Y-75477142D01*
X142140104Y-75477142D02*
X141568676Y-75677142D01*
X141568676Y-75677142D02*
X142140104Y-75877142D01*
X142140104Y-75877142D02*
X141340104Y-75877142D01*
X142140104Y-76105713D02*
X142140104Y-76505713D01*
X142140104Y-76505713D02*
X141340104Y-76248570D01*
X141797247Y-76819999D02*
X141835342Y-76762856D01*
X141835342Y-76762856D02*
X141873438Y-76734285D01*
X141873438Y-76734285D02*
X141949628Y-76705713D01*
X141949628Y-76705713D02*
X141987723Y-76705713D01*
X141987723Y-76705713D02*
X142063914Y-76734285D01*
X142063914Y-76734285D02*
X142102009Y-76762856D01*
X142102009Y-76762856D02*
X142140104Y-76819999D01*
X142140104Y-76819999D02*
X142140104Y-76934285D01*
X142140104Y-76934285D02*
X142102009Y-76991428D01*
X142102009Y-76991428D02*
X142063914Y-77019999D01*
X142063914Y-77019999D02*
X141987723Y-77048570D01*
X141987723Y-77048570D02*
X141949628Y-77048570D01*
X141949628Y-77048570D02*
X141873438Y-77019999D01*
X141873438Y-77019999D02*
X141835342Y-76991428D01*
X141835342Y-76991428D02*
X141797247Y-76934285D01*
X141797247Y-76934285D02*
X141797247Y-76819999D01*
X141797247Y-76819999D02*
X141759152Y-76762856D01*
X141759152Y-76762856D02*
X141721057Y-76734285D01*
X141721057Y-76734285D02*
X141644866Y-76705713D01*
X141644866Y-76705713D02*
X141492485Y-76705713D01*
X141492485Y-76705713D02*
X141416295Y-76734285D01*
X141416295Y-76734285D02*
X141378200Y-76762856D01*
X141378200Y-76762856D02*
X141340104Y-76819999D01*
X141340104Y-76819999D02*
X141340104Y-76934285D01*
X141340104Y-76934285D02*
X141378200Y-76991428D01*
X141378200Y-76991428D02*
X141416295Y-77019999D01*
X141416295Y-77019999D02*
X141492485Y-77048570D01*
X141492485Y-77048570D02*
X141644866Y-77048570D01*
X141644866Y-77048570D02*
X141721057Y-77019999D01*
X141721057Y-77019999D02*
X141759152Y-76991428D01*
X141759152Y-76991428D02*
X141797247Y-76934285D01*
X142140104Y-77419999D02*
X142140104Y-77477142D01*
X142140104Y-77477142D02*
X142102009Y-77534285D01*
X142102009Y-77534285D02*
X142063914Y-77562857D01*
X142063914Y-77562857D02*
X141987723Y-77591428D01*
X141987723Y-77591428D02*
X141835342Y-77619999D01*
X141835342Y-77619999D02*
X141644866Y-77619999D01*
X141644866Y-77619999D02*
X141492485Y-77591428D01*
X141492485Y-77591428D02*
X141416295Y-77562857D01*
X141416295Y-77562857D02*
X141378200Y-77534285D01*
X141378200Y-77534285D02*
X141340104Y-77477142D01*
X141340104Y-77477142D02*
X141340104Y-77419999D01*
X141340104Y-77419999D02*
X141378200Y-77362857D01*
X141378200Y-77362857D02*
X141416295Y-77334285D01*
X141416295Y-77334285D02*
X141492485Y-77305714D01*
X141492485Y-77305714D02*
X141644866Y-77277142D01*
X141644866Y-77277142D02*
X141835342Y-77277142D01*
X141835342Y-77277142D02*
X141987723Y-77305714D01*
X141987723Y-77305714D02*
X142063914Y-77334285D01*
X142063914Y-77334285D02*
X142102009Y-77362857D01*
X142102009Y-77362857D02*
X142140104Y-77419999D01*
X142140104Y-78162857D02*
X142140104Y-77877143D01*
X142140104Y-77877143D02*
X141759152Y-77848571D01*
X141759152Y-77848571D02*
X141797247Y-77877143D01*
X141797247Y-77877143D02*
X141835342Y-77934286D01*
X141835342Y-77934286D02*
X141835342Y-78077143D01*
X141835342Y-78077143D02*
X141797247Y-78134286D01*
X141797247Y-78134286D02*
X141759152Y-78162857D01*
X141759152Y-78162857D02*
X141682961Y-78191428D01*
X141682961Y-78191428D02*
X141492485Y-78191428D01*
X141492485Y-78191428D02*
X141416295Y-78162857D01*
X141416295Y-78162857D02*
X141378200Y-78134286D01*
X141378200Y-78134286D02*
X141340104Y-78077143D01*
X141340104Y-78077143D02*
X141340104Y-77934286D01*
X141340104Y-77934286D02*
X141378200Y-77877143D01*
X141378200Y-77877143D02*
X141416295Y-77848571D01*
X141416295Y-78448572D02*
X141378200Y-78477143D01*
X141378200Y-78477143D02*
X141340104Y-78448572D01*
X141340104Y-78448572D02*
X141378200Y-78420000D01*
X141378200Y-78420000D02*
X141416295Y-78448572D01*
X141416295Y-78448572D02*
X141340104Y-78448572D01*
X142140104Y-78648571D02*
X142140104Y-78991429D01*
X141340104Y-78820000D02*
X142140104Y-78820000D01*
X142140104Y-79305714D02*
X142140104Y-79420000D01*
X142140104Y-79420000D02*
X142102009Y-79477143D01*
X142102009Y-79477143D02*
X142025819Y-79534286D01*
X142025819Y-79534286D02*
X141873438Y-79562857D01*
X141873438Y-79562857D02*
X141606771Y-79562857D01*
X141606771Y-79562857D02*
X141454390Y-79534286D01*
X141454390Y-79534286D02*
X141378200Y-79477143D01*
X141378200Y-79477143D02*
X141340104Y-79420000D01*
X141340104Y-79420000D02*
X141340104Y-79305714D01*
X141340104Y-79305714D02*
X141378200Y-79248572D01*
X141378200Y-79248572D02*
X141454390Y-79191429D01*
X141454390Y-79191429D02*
X141606771Y-79162857D01*
X141606771Y-79162857D02*
X141873438Y-79162857D01*
X141873438Y-79162857D02*
X142025819Y-79191429D01*
X142025819Y-79191429D02*
X142102009Y-79248572D01*
X142102009Y-79248572D02*
X142140104Y-79305714D01*
X142063914Y-79791428D02*
X142102009Y-79820000D01*
X142102009Y-79820000D02*
X142140104Y-79877143D01*
X142140104Y-79877143D02*
X142140104Y-80020000D01*
X142140104Y-80020000D02*
X142102009Y-80077143D01*
X142102009Y-80077143D02*
X142063914Y-80105714D01*
X142063914Y-80105714D02*
X141987723Y-80134285D01*
X141987723Y-80134285D02*
X141911533Y-80134285D01*
X141911533Y-80134285D02*
X141797247Y-80105714D01*
X141797247Y-80105714D02*
X141340104Y-79762857D01*
X141340104Y-79762857D02*
X141340104Y-80134285D01*
X142063914Y-80362857D02*
X142102009Y-80391429D01*
X142102009Y-80391429D02*
X142140104Y-80448572D01*
X142140104Y-80448572D02*
X142140104Y-80591429D01*
X142140104Y-80591429D02*
X142102009Y-80648572D01*
X142102009Y-80648572D02*
X142063914Y-80677143D01*
X142063914Y-80677143D02*
X141987723Y-80705714D01*
X141987723Y-80705714D02*
X141911533Y-80705714D01*
X141911533Y-80705714D02*
X141797247Y-80677143D01*
X141797247Y-80677143D02*
X141340104Y-80334286D01*
X141340104Y-80334286D02*
X141340104Y-80705714D01*
X142140104Y-81077143D02*
X142140104Y-81134286D01*
X142140104Y-81134286D02*
X142102009Y-81191429D01*
X142102009Y-81191429D02*
X142063914Y-81220001D01*
X142063914Y-81220001D02*
X141987723Y-81248572D01*
X141987723Y-81248572D02*
X141835342Y-81277143D01*
X141835342Y-81277143D02*
X141644866Y-81277143D01*
X141644866Y-81277143D02*
X141492485Y-81248572D01*
X141492485Y-81248572D02*
X141416295Y-81220001D01*
X141416295Y-81220001D02*
X141378200Y-81191429D01*
X141378200Y-81191429D02*
X141340104Y-81134286D01*
X141340104Y-81134286D02*
X141340104Y-81077143D01*
X141340104Y-81077143D02*
X141378200Y-81020001D01*
X141378200Y-81020001D02*
X141416295Y-80991429D01*
X141416295Y-80991429D02*
X141492485Y-80962858D01*
X141492485Y-80962858D02*
X141644866Y-80934286D01*
X141644866Y-80934286D02*
X141835342Y-80934286D01*
X141835342Y-80934286D02*
X141987723Y-80962858D01*
X141987723Y-80962858D02*
X142063914Y-80991429D01*
X142063914Y-80991429D02*
X142102009Y-81020001D01*
X142102009Y-81020001D02*
X142140104Y-81077143D01*
D12*
X145703224Y-75233333D02*
X145131796Y-75233333D01*
X145131796Y-75233333D02*
X145017510Y-75195238D01*
X145017510Y-75195238D02*
X144941320Y-75119047D01*
X144941320Y-75119047D02*
X144903224Y-75004762D01*
X144903224Y-75004762D02*
X144903224Y-74928571D01*
X145436558Y-75957143D02*
X144903224Y-75957143D01*
X145741320Y-75766667D02*
X145169891Y-75576190D01*
X145169891Y-75576190D02*
X145169891Y-76071429D01*
X138806815Y-71935800D02*
X138768720Y-71897704D01*
X138768720Y-71897704D02*
X138730624Y-71783419D01*
X138730624Y-71783419D02*
X138730624Y-71707228D01*
X138730624Y-71707228D02*
X138768720Y-71592942D01*
X138768720Y-71592942D02*
X138844910Y-71516752D01*
X138844910Y-71516752D02*
X138921100Y-71478657D01*
X138921100Y-71478657D02*
X139073481Y-71440561D01*
X139073481Y-71440561D02*
X139187767Y-71440561D01*
X139187767Y-71440561D02*
X139340148Y-71478657D01*
X139340148Y-71478657D02*
X139416339Y-71516752D01*
X139416339Y-71516752D02*
X139492529Y-71592942D01*
X139492529Y-71592942D02*
X139530624Y-71707228D01*
X139530624Y-71707228D02*
X139530624Y-71783419D01*
X139530624Y-71783419D02*
X139492529Y-71897704D01*
X139492529Y-71897704D02*
X139454434Y-71935800D01*
X139454434Y-72240561D02*
X139492529Y-72278657D01*
X139492529Y-72278657D02*
X139530624Y-72354847D01*
X139530624Y-72354847D02*
X139530624Y-72545323D01*
X139530624Y-72545323D02*
X139492529Y-72621514D01*
X139492529Y-72621514D02*
X139454434Y-72659609D01*
X139454434Y-72659609D02*
X139378243Y-72697704D01*
X139378243Y-72697704D02*
X139302053Y-72697704D01*
X139302053Y-72697704D02*
X139187767Y-72659609D01*
X139187767Y-72659609D02*
X138730624Y-72202466D01*
X138730624Y-72202466D02*
X138730624Y-72697704D01*
D13*
X139527504Y-73314285D02*
X139527504Y-73371428D01*
X139527504Y-73371428D02*
X139489409Y-73428571D01*
X139489409Y-73428571D02*
X139451314Y-73457143D01*
X139451314Y-73457143D02*
X139375123Y-73485714D01*
X139375123Y-73485714D02*
X139222742Y-73514285D01*
X139222742Y-73514285D02*
X139032266Y-73514285D01*
X139032266Y-73514285D02*
X138879885Y-73485714D01*
X138879885Y-73485714D02*
X138803695Y-73457143D01*
X138803695Y-73457143D02*
X138765600Y-73428571D01*
X138765600Y-73428571D02*
X138727504Y-73371428D01*
X138727504Y-73371428D02*
X138727504Y-73314285D01*
X138727504Y-73314285D02*
X138765600Y-73257143D01*
X138765600Y-73257143D02*
X138803695Y-73228571D01*
X138803695Y-73228571D02*
X138879885Y-73200000D01*
X138879885Y-73200000D02*
X139032266Y-73171428D01*
X139032266Y-73171428D02*
X139222742Y-73171428D01*
X139222742Y-73171428D02*
X139375123Y-73200000D01*
X139375123Y-73200000D02*
X139451314Y-73228571D01*
X139451314Y-73228571D02*
X139489409Y-73257143D01*
X139489409Y-73257143D02*
X139527504Y-73314285D01*
X138803695Y-73771429D02*
X138765600Y-73800000D01*
X138765600Y-73800000D02*
X138727504Y-73771429D01*
X138727504Y-73771429D02*
X138765600Y-73742857D01*
X138765600Y-73742857D02*
X138803695Y-73771429D01*
X138803695Y-73771429D02*
X138727504Y-73771429D01*
X138727504Y-74371428D02*
X138727504Y-74028571D01*
X138727504Y-74200000D02*
X139527504Y-74200000D01*
X139527504Y-74200000D02*
X139413219Y-74142857D01*
X139413219Y-74142857D02*
X139337028Y-74085714D01*
X139337028Y-74085714D02*
X139298933Y-74028571D01*
X139260838Y-74885715D02*
X138727504Y-74885715D01*
X139260838Y-74628572D02*
X138841790Y-74628572D01*
X138841790Y-74628572D02*
X138765600Y-74657143D01*
X138765600Y-74657143D02*
X138727504Y-74714286D01*
X138727504Y-74714286D02*
X138727504Y-74800000D01*
X138727504Y-74800000D02*
X138765600Y-74857143D01*
X138765600Y-74857143D02*
X138803695Y-74885715D01*
X139146552Y-75371429D02*
X139146552Y-75171429D01*
X138727504Y-75171429D02*
X139527504Y-75171429D01*
X139527504Y-75171429D02*
X139527504Y-75457143D01*
D12*
X144943224Y-112953333D02*
X144371796Y-112953333D01*
X144371796Y-112953333D02*
X144257510Y-112915238D01*
X144257510Y-112915238D02*
X144181320Y-112839047D01*
X144181320Y-112839047D02*
X144143224Y-112724762D01*
X144143224Y-112724762D02*
X144143224Y-112648571D01*
X144943224Y-113677143D02*
X144943224Y-113524762D01*
X144943224Y-113524762D02*
X144905129Y-113448571D01*
X144905129Y-113448571D02*
X144867034Y-113410476D01*
X144867034Y-113410476D02*
X144752748Y-113334286D01*
X144752748Y-113334286D02*
X144600367Y-113296190D01*
X144600367Y-113296190D02*
X144295605Y-113296190D01*
X144295605Y-113296190D02*
X144219415Y-113334286D01*
X144219415Y-113334286D02*
X144181320Y-113372381D01*
X144181320Y-113372381D02*
X144143224Y-113448571D01*
X144143224Y-113448571D02*
X144143224Y-113600952D01*
X144143224Y-113600952D02*
X144181320Y-113677143D01*
X144181320Y-113677143D02*
X144219415Y-113715238D01*
X144219415Y-113715238D02*
X144295605Y-113753333D01*
X144295605Y-113753333D02*
X144486081Y-113753333D01*
X144486081Y-113753333D02*
X144562272Y-113715238D01*
X144562272Y-113715238D02*
X144600367Y-113677143D01*
X144600367Y-113677143D02*
X144638462Y-113600952D01*
X144638462Y-113600952D02*
X144638462Y-113448571D01*
X144638462Y-113448571D02*
X144600367Y-113372381D01*
X144600367Y-113372381D02*
X144562272Y-113334286D01*
X144562272Y-113334286D02*
X144486081Y-113296190D01*
X141681320Y-97610475D02*
X141643224Y-97724761D01*
X141643224Y-97724761D02*
X141643224Y-97915237D01*
X141643224Y-97915237D02*
X141681320Y-97991428D01*
X141681320Y-97991428D02*
X141719415Y-98029523D01*
X141719415Y-98029523D02*
X141795605Y-98067618D01*
X141795605Y-98067618D02*
X141871796Y-98067618D01*
X141871796Y-98067618D02*
X141947986Y-98029523D01*
X141947986Y-98029523D02*
X141986081Y-97991428D01*
X141986081Y-97991428D02*
X142024177Y-97915237D01*
X142024177Y-97915237D02*
X142062272Y-97762856D01*
X142062272Y-97762856D02*
X142100367Y-97686666D01*
X142100367Y-97686666D02*
X142138462Y-97648571D01*
X142138462Y-97648571D02*
X142214653Y-97610475D01*
X142214653Y-97610475D02*
X142290843Y-97610475D01*
X142290843Y-97610475D02*
X142367034Y-97648571D01*
X142367034Y-97648571D02*
X142405129Y-97686666D01*
X142405129Y-97686666D02*
X142443224Y-97762856D01*
X142443224Y-97762856D02*
X142443224Y-97953333D01*
X142443224Y-97953333D02*
X142405129Y-98067618D01*
X141643224Y-98829523D02*
X141643224Y-98372380D01*
X141643224Y-98600952D02*
X142443224Y-98600952D01*
X142443224Y-98600952D02*
X142328939Y-98524761D01*
X142328939Y-98524761D02*
X142252748Y-98448571D01*
X142252748Y-98448571D02*
X142214653Y-98372380D01*
X140114415Y-112966667D02*
X140076320Y-112928571D01*
X140076320Y-112928571D02*
X140038224Y-112814286D01*
X140038224Y-112814286D02*
X140038224Y-112738095D01*
X140038224Y-112738095D02*
X140076320Y-112623809D01*
X140076320Y-112623809D02*
X140152510Y-112547619D01*
X140152510Y-112547619D02*
X140228700Y-112509524D01*
X140228700Y-112509524D02*
X140381081Y-112471428D01*
X140381081Y-112471428D02*
X140495367Y-112471428D01*
X140495367Y-112471428D02*
X140647748Y-112509524D01*
X140647748Y-112509524D02*
X140723939Y-112547619D01*
X140723939Y-112547619D02*
X140800129Y-112623809D01*
X140800129Y-112623809D02*
X140838224Y-112738095D01*
X140838224Y-112738095D02*
X140838224Y-112814286D01*
X140838224Y-112814286D02*
X140800129Y-112928571D01*
X140800129Y-112928571D02*
X140762034Y-112966667D01*
X140838224Y-113233333D02*
X140838224Y-113728571D01*
X140838224Y-113728571D02*
X140533462Y-113461905D01*
X140533462Y-113461905D02*
X140533462Y-113576190D01*
X140533462Y-113576190D02*
X140495367Y-113652381D01*
X140495367Y-113652381D02*
X140457272Y-113690476D01*
X140457272Y-113690476D02*
X140381081Y-113728571D01*
X140381081Y-113728571D02*
X140190605Y-113728571D01*
X140190605Y-113728571D02*
X140114415Y-113690476D01*
X140114415Y-113690476D02*
X140076320Y-113652381D01*
X140076320Y-113652381D02*
X140038224Y-113576190D01*
X140038224Y-113576190D02*
X140038224Y-113347619D01*
X140038224Y-113347619D02*
X140076320Y-113271428D01*
X140076320Y-113271428D02*
X140114415Y-113233333D01*
D13*
X139929804Y-114899999D02*
X139929804Y-114557142D01*
X139929804Y-114728571D02*
X140729804Y-114728571D01*
X140729804Y-114728571D02*
X140615519Y-114671428D01*
X140615519Y-114671428D02*
X140539328Y-114614285D01*
X140539328Y-114614285D02*
X140501233Y-114557142D01*
X140463138Y-115414286D02*
X139929804Y-115414286D01*
X140463138Y-115157143D02*
X140044090Y-115157143D01*
X140044090Y-115157143D02*
X139967900Y-115185714D01*
X139967900Y-115185714D02*
X139929804Y-115242857D01*
X139929804Y-115242857D02*
X139929804Y-115328571D01*
X139929804Y-115328571D02*
X139967900Y-115385714D01*
X139967900Y-115385714D02*
X140005995Y-115414286D01*
X140348852Y-115900000D02*
X140348852Y-115700000D01*
X139929804Y-115700000D02*
X140729804Y-115700000D01*
X140729804Y-115700000D02*
X140729804Y-115985714D01*
D12*
X133583824Y-112966667D02*
X133964777Y-112700000D01*
X133583824Y-112509524D02*
X134383824Y-112509524D01*
X134383824Y-112509524D02*
X134383824Y-112814286D01*
X134383824Y-112814286D02*
X134345729Y-112890476D01*
X134345729Y-112890476D02*
X134307634Y-112928571D01*
X134307634Y-112928571D02*
X134231443Y-112966667D01*
X134231443Y-112966667D02*
X134117158Y-112966667D01*
X134117158Y-112966667D02*
X134040967Y-112928571D01*
X134040967Y-112928571D02*
X134002872Y-112890476D01*
X134002872Y-112890476D02*
X133964777Y-112814286D01*
X133964777Y-112814286D02*
X133964777Y-112509524D01*
X134307634Y-113271428D02*
X134345729Y-113309524D01*
X134345729Y-113309524D02*
X134383824Y-113385714D01*
X134383824Y-113385714D02*
X134383824Y-113576190D01*
X134383824Y-113576190D02*
X134345729Y-113652381D01*
X134345729Y-113652381D02*
X134307634Y-113690476D01*
X134307634Y-113690476D02*
X134231443Y-113728571D01*
X134231443Y-113728571D02*
X134155253Y-113728571D01*
X134155253Y-113728571D02*
X134040967Y-113690476D01*
X134040967Y-113690476D02*
X133583824Y-113233333D01*
X133583824Y-113233333D02*
X133583824Y-113728571D01*
D13*
X134380704Y-114528571D02*
X134380704Y-114899999D01*
X134380704Y-114899999D02*
X134075942Y-114699999D01*
X134075942Y-114699999D02*
X134075942Y-114785714D01*
X134075942Y-114785714D02*
X134037847Y-114842857D01*
X134037847Y-114842857D02*
X133999752Y-114871428D01*
X133999752Y-114871428D02*
X133923561Y-114899999D01*
X133923561Y-114899999D02*
X133733085Y-114899999D01*
X133733085Y-114899999D02*
X133656895Y-114871428D01*
X133656895Y-114871428D02*
X133618800Y-114842857D01*
X133618800Y-114842857D02*
X133580704Y-114785714D01*
X133580704Y-114785714D02*
X133580704Y-114614285D01*
X133580704Y-114614285D02*
X133618800Y-114557142D01*
X133618800Y-114557142D02*
X133656895Y-114528571D01*
X134380704Y-115100000D02*
X134380704Y-115471428D01*
X134380704Y-115471428D02*
X134075942Y-115271428D01*
X134075942Y-115271428D02*
X134075942Y-115357143D01*
X134075942Y-115357143D02*
X134037847Y-115414286D01*
X134037847Y-115414286D02*
X133999752Y-115442857D01*
X133999752Y-115442857D02*
X133923561Y-115471428D01*
X133923561Y-115471428D02*
X133733085Y-115471428D01*
X133733085Y-115471428D02*
X133656895Y-115442857D01*
X133656895Y-115442857D02*
X133618800Y-115414286D01*
X133618800Y-115414286D02*
X133580704Y-115357143D01*
X133580704Y-115357143D02*
X133580704Y-115185714D01*
X133580704Y-115185714D02*
X133618800Y-115128571D01*
X133618800Y-115128571D02*
X133656895Y-115100000D01*
X134380704Y-115842857D02*
X134380704Y-115900000D01*
X134380704Y-115900000D02*
X134342609Y-115957143D01*
X134342609Y-115957143D02*
X134304514Y-115985715D01*
X134304514Y-115985715D02*
X134228323Y-116014286D01*
X134228323Y-116014286D02*
X134075942Y-116042857D01*
X134075942Y-116042857D02*
X133885466Y-116042857D01*
X133885466Y-116042857D02*
X133733085Y-116014286D01*
X133733085Y-116014286D02*
X133656895Y-115985715D01*
X133656895Y-115985715D02*
X133618800Y-115957143D01*
X133618800Y-115957143D02*
X133580704Y-115900000D01*
X133580704Y-115900000D02*
X133580704Y-115842857D01*
X133580704Y-115842857D02*
X133618800Y-115785715D01*
X133618800Y-115785715D02*
X133656895Y-115757143D01*
X133656895Y-115757143D02*
X133733085Y-115728572D01*
X133733085Y-115728572D02*
X133885466Y-115700000D01*
X133885466Y-115700000D02*
X134075942Y-115700000D01*
X134075942Y-115700000D02*
X134228323Y-115728572D01*
X134228323Y-115728572D02*
X134304514Y-115757143D01*
X134304514Y-115757143D02*
X134342609Y-115785715D01*
X134342609Y-115785715D02*
X134380704Y-115842857D01*
X133580704Y-116642858D02*
X133961657Y-116442858D01*
X133580704Y-116300001D02*
X134380704Y-116300001D01*
X134380704Y-116300001D02*
X134380704Y-116528572D01*
X134380704Y-116528572D02*
X134342609Y-116585715D01*
X134342609Y-116585715D02*
X134304514Y-116614286D01*
X134304514Y-116614286D02*
X134228323Y-116642858D01*
X134228323Y-116642858D02*
X134114038Y-116642858D01*
X134114038Y-116642858D02*
X134037847Y-116614286D01*
X134037847Y-116614286D02*
X133999752Y-116585715D01*
X133999752Y-116585715D02*
X133961657Y-116528572D01*
X133961657Y-116528572D02*
X133961657Y-116300001D01*
D12*
X155843224Y-67353333D02*
X155271796Y-67353333D01*
X155271796Y-67353333D02*
X155157510Y-67315238D01*
X155157510Y-67315238D02*
X155081320Y-67239047D01*
X155081320Y-67239047D02*
X155043224Y-67124762D01*
X155043224Y-67124762D02*
X155043224Y-67048571D01*
X155843224Y-67658095D02*
X155843224Y-68153333D01*
X155843224Y-68153333D02*
X155538462Y-67886667D01*
X155538462Y-67886667D02*
X155538462Y-68000952D01*
X155538462Y-68000952D02*
X155500367Y-68077143D01*
X155500367Y-68077143D02*
X155462272Y-68115238D01*
X155462272Y-68115238D02*
X155386081Y-68153333D01*
X155386081Y-68153333D02*
X155195605Y-68153333D01*
X155195605Y-68153333D02*
X155119415Y-68115238D01*
X155119415Y-68115238D02*
X155081320Y-68077143D01*
X155081320Y-68077143D02*
X155043224Y-68000952D01*
X155043224Y-68000952D02*
X155043224Y-67772381D01*
X155043224Y-67772381D02*
X155081320Y-67696190D01*
X155081320Y-67696190D02*
X155119415Y-67658095D01*
X131233224Y-67858333D02*
X130661796Y-67858333D01*
X130661796Y-67858333D02*
X130547510Y-67820238D01*
X130547510Y-67820238D02*
X130471320Y-67744047D01*
X130471320Y-67744047D02*
X130433224Y-67629762D01*
X130433224Y-67629762D02*
X130433224Y-67553571D01*
X131157034Y-68201190D02*
X131195129Y-68239286D01*
X131195129Y-68239286D02*
X131233224Y-68315476D01*
X131233224Y-68315476D02*
X131233224Y-68505952D01*
X131233224Y-68505952D02*
X131195129Y-68582143D01*
X131195129Y-68582143D02*
X131157034Y-68620238D01*
X131157034Y-68620238D02*
X131080843Y-68658333D01*
X131080843Y-68658333D02*
X131004653Y-68658333D01*
X131004653Y-68658333D02*
X130890367Y-68620238D01*
X130890367Y-68620238D02*
X130433224Y-68163095D01*
X130433224Y-68163095D02*
X130433224Y-68658333D01*
X131233224Y-119148333D02*
X130661796Y-119148333D01*
X130661796Y-119148333D02*
X130547510Y-119110238D01*
X130547510Y-119110238D02*
X130471320Y-119034047D01*
X130471320Y-119034047D02*
X130433224Y-118919762D01*
X130433224Y-118919762D02*
X130433224Y-118843571D01*
X131233224Y-119910238D02*
X131233224Y-119529286D01*
X131233224Y-119529286D02*
X130852272Y-119491190D01*
X130852272Y-119491190D02*
X130890367Y-119529286D01*
X130890367Y-119529286D02*
X130928462Y-119605476D01*
X130928462Y-119605476D02*
X130928462Y-119795952D01*
X130928462Y-119795952D02*
X130890367Y-119872143D01*
X130890367Y-119872143D02*
X130852272Y-119910238D01*
X130852272Y-119910238D02*
X130776081Y-119948333D01*
X130776081Y-119948333D02*
X130585605Y-119948333D01*
X130585605Y-119948333D02*
X130509415Y-119910238D01*
X130509415Y-119910238D02*
X130471320Y-119872143D01*
X130471320Y-119872143D02*
X130433224Y-119795952D01*
X130433224Y-119795952D02*
X130433224Y-119605476D01*
X130433224Y-119605476D02*
X130471320Y-119529286D01*
X130471320Y-119529286D02*
X130509415Y-119491190D01*
X143443224Y-106210476D02*
X142795605Y-106210476D01*
X142795605Y-106210476D02*
X142719415Y-106248571D01*
X142719415Y-106248571D02*
X142681320Y-106286666D01*
X142681320Y-106286666D02*
X142643224Y-106362857D01*
X142643224Y-106362857D02*
X142643224Y-106515238D01*
X142643224Y-106515238D02*
X142681320Y-106591428D01*
X142681320Y-106591428D02*
X142719415Y-106629523D01*
X142719415Y-106629523D02*
X142795605Y-106667619D01*
X142795605Y-106667619D02*
X143443224Y-106667619D01*
X142643224Y-107467618D02*
X142643224Y-107010475D01*
X142643224Y-107239047D02*
X143443224Y-107239047D01*
X143443224Y-107239047D02*
X143328939Y-107162856D01*
X143328939Y-107162856D02*
X143252748Y-107086666D01*
X143252748Y-107086666D02*
X143214653Y-107010475D01*
D13*
X141440104Y-106571856D02*
X141440104Y-106286142D01*
X141440104Y-106286142D02*
X142240104Y-106286142D01*
X141440104Y-106771856D02*
X142240104Y-106771856D01*
X142240104Y-106771856D02*
X141668676Y-106971856D01*
X141668676Y-106971856D02*
X142240104Y-107171856D01*
X142240104Y-107171856D02*
X141440104Y-107171856D01*
X142240104Y-107400427D02*
X142240104Y-107771855D01*
X142240104Y-107771855D02*
X141935342Y-107571855D01*
X141935342Y-107571855D02*
X141935342Y-107657570D01*
X141935342Y-107657570D02*
X141897247Y-107714713D01*
X141897247Y-107714713D02*
X141859152Y-107743284D01*
X141859152Y-107743284D02*
X141782961Y-107771855D01*
X141782961Y-107771855D02*
X141592485Y-107771855D01*
X141592485Y-107771855D02*
X141516295Y-107743284D01*
X141516295Y-107743284D02*
X141478200Y-107714713D01*
X141478200Y-107714713D02*
X141440104Y-107657570D01*
X141440104Y-107657570D02*
X141440104Y-107486141D01*
X141440104Y-107486141D02*
X141478200Y-107428998D01*
X141478200Y-107428998D02*
X141516295Y-107400427D01*
X141440104Y-108343284D02*
X141440104Y-108000427D01*
X141440104Y-108171856D02*
X142240104Y-108171856D01*
X142240104Y-108171856D02*
X142125819Y-108114713D01*
X142125819Y-108114713D02*
X142049628Y-108057570D01*
X142049628Y-108057570D02*
X142011533Y-108000427D01*
X142240104Y-108543285D02*
X142240104Y-108943285D01*
X142240104Y-108943285D02*
X141440104Y-108686142D01*
X141516295Y-109171857D02*
X141478200Y-109200428D01*
X141478200Y-109200428D02*
X141440104Y-109171857D01*
X141440104Y-109171857D02*
X141478200Y-109143285D01*
X141478200Y-109143285D02*
X141516295Y-109171857D01*
X141516295Y-109171857D02*
X141440104Y-109171857D01*
X142240104Y-109371856D02*
X142240104Y-109714714D01*
X141440104Y-109543285D02*
X142240104Y-109543285D01*
X142240104Y-110028999D02*
X142240104Y-110143285D01*
X142240104Y-110143285D02*
X142202009Y-110200428D01*
X142202009Y-110200428D02*
X142125819Y-110257571D01*
X142125819Y-110257571D02*
X141973438Y-110286142D01*
X141973438Y-110286142D02*
X141706771Y-110286142D01*
X141706771Y-110286142D02*
X141554390Y-110257571D01*
X141554390Y-110257571D02*
X141478200Y-110200428D01*
X141478200Y-110200428D02*
X141440104Y-110143285D01*
X141440104Y-110143285D02*
X141440104Y-110028999D01*
X141440104Y-110028999D02*
X141478200Y-109971857D01*
X141478200Y-109971857D02*
X141554390Y-109914714D01*
X141554390Y-109914714D02*
X141706771Y-109886142D01*
X141706771Y-109886142D02*
X141973438Y-109886142D01*
X141973438Y-109886142D02*
X142125819Y-109914714D01*
X142125819Y-109914714D02*
X142202009Y-109971857D01*
X142202009Y-109971857D02*
X142240104Y-110028999D01*
X142163914Y-110514713D02*
X142202009Y-110543285D01*
X142202009Y-110543285D02*
X142240104Y-110600428D01*
X142240104Y-110600428D02*
X142240104Y-110743285D01*
X142240104Y-110743285D02*
X142202009Y-110800428D01*
X142202009Y-110800428D02*
X142163914Y-110828999D01*
X142163914Y-110828999D02*
X142087723Y-110857570D01*
X142087723Y-110857570D02*
X142011533Y-110857570D01*
X142011533Y-110857570D02*
X141897247Y-110828999D01*
X141897247Y-110828999D02*
X141440104Y-110486142D01*
X141440104Y-110486142D02*
X141440104Y-110857570D01*
X142163914Y-111086142D02*
X142202009Y-111114714D01*
X142202009Y-111114714D02*
X142240104Y-111171857D01*
X142240104Y-111171857D02*
X142240104Y-111314714D01*
X142240104Y-111314714D02*
X142202009Y-111371857D01*
X142202009Y-111371857D02*
X142163914Y-111400428D01*
X142163914Y-111400428D02*
X142087723Y-111428999D01*
X142087723Y-111428999D02*
X142011533Y-111428999D01*
X142011533Y-111428999D02*
X141897247Y-111400428D01*
X141897247Y-111400428D02*
X141440104Y-111057571D01*
X141440104Y-111057571D02*
X141440104Y-111428999D01*
X142240104Y-111800428D02*
X142240104Y-111857571D01*
X142240104Y-111857571D02*
X142202009Y-111914714D01*
X142202009Y-111914714D02*
X142163914Y-111943286D01*
X142163914Y-111943286D02*
X142087723Y-111971857D01*
X142087723Y-111971857D02*
X141935342Y-112000428D01*
X141935342Y-112000428D02*
X141744866Y-112000428D01*
X141744866Y-112000428D02*
X141592485Y-111971857D01*
X141592485Y-111971857D02*
X141516295Y-111943286D01*
X141516295Y-111943286D02*
X141478200Y-111914714D01*
X141478200Y-111914714D02*
X141440104Y-111857571D01*
X141440104Y-111857571D02*
X141440104Y-111800428D01*
X141440104Y-111800428D02*
X141478200Y-111743286D01*
X141478200Y-111743286D02*
X141516295Y-111714714D01*
X141516295Y-111714714D02*
X141592485Y-111686143D01*
X141592485Y-111686143D02*
X141744866Y-111657571D01*
X141744866Y-111657571D02*
X141935342Y-111657571D01*
X141935342Y-111657571D02*
X142087723Y-111686143D01*
X142087723Y-111686143D02*
X142163914Y-111714714D01*
X142163914Y-111714714D02*
X142202009Y-111743286D01*
X142202009Y-111743286D02*
X142240104Y-111800428D01*
D12*
X156743224Y-120753333D02*
X156171796Y-120753333D01*
X156171796Y-120753333D02*
X156057510Y-120715238D01*
X156057510Y-120715238D02*
X155981320Y-120639047D01*
X155981320Y-120639047D02*
X155943224Y-120524762D01*
X155943224Y-120524762D02*
X155943224Y-120448571D01*
X156743224Y-121058095D02*
X156743224Y-121591429D01*
X156743224Y-121591429D02*
X155943224Y-121248571D01*
D10*
%TO.C,J1*%
X129955000Y-82045000D02*
X129955000Y-91285000D01*
X129955000Y-91285000D02*
X138075000Y-91285000D01*
X143475000Y-91285000D02*
X144695000Y-91285000D01*
X144695000Y-82045000D02*
X129955000Y-82045000D01*
X144695000Y-83715000D02*
X144695000Y-82045000D01*
X144695000Y-91285000D02*
X144695000Y-89615000D01*
%TO.C,D1*%
X131155000Y-100960000D02*
X131155000Y-104050000D01*
X131155000Y-100960170D02*
G75*
G02*
X136705000Y-102505000I2560000J-1544830D01*
G01*
X136705000Y-102505000D02*
G75*
G02*
X131155000Y-104049830I-2990000J0D01*
G01*
X136215000Y-102505000D02*
G75*
G02*
X131215000Y-102505000I-2500000J0D01*
G01*
X131215000Y-102505000D02*
G75*
G02*
X136215000Y-102505000I2500000J0D01*
G01*
%TO.C,C1*%
X132848530Y-73239366D02*
X132848530Y-73531900D01*
X133868530Y-73239366D02*
X133868530Y-73531900D01*
%TO.C,R1*%
X138907500Y-102250276D02*
X138907500Y-102759724D01*
X139952500Y-102250276D02*
X139952500Y-102759724D01*
%TO.C,R3*%
X135359500Y-114671224D02*
X135359500Y-114161776D01*
X136404500Y-114671224D02*
X136404500Y-114161776D01*
%TO.C,U2*%
X130850000Y-75725000D02*
X130850000Y-80345000D01*
X130850000Y-75725000D02*
X141070000Y-75725000D01*
X130850000Y-77105000D02*
X141070000Y-77105000D01*
X130850000Y-80345000D02*
X141070000Y-80345000D01*
X134110000Y-75725000D02*
X134110000Y-77105000D01*
X137810000Y-75725000D02*
X137810000Y-77105000D01*
X141070000Y-75725000D02*
X141070000Y-80345000D01*
%TO.C,J4*%
X141970000Y-66675000D02*
X141970000Y-74295000D01*
X141970000Y-67945000D02*
X152130000Y-67945000D01*
X141970000Y-74295000D02*
X152130000Y-74295000D01*
X152130000Y-66675000D02*
X141970000Y-66675000D01*
X152130000Y-74295000D02*
X152130000Y-66675000D01*
%TO.C,C2*%
X137285000Y-73239366D02*
X137285000Y-73531900D01*
X138305000Y-73239366D02*
X138305000Y-73531900D01*
%TO.C,J6*%
X141970000Y-114260000D02*
X141970000Y-121880000D01*
X141970000Y-121880000D02*
X152130000Y-121880000D01*
X152130000Y-114260000D02*
X141970000Y-114260000D01*
X152130000Y-120610000D02*
X141970000Y-120610000D01*
X152130000Y-121880000D02*
X152130000Y-114260000D01*
D14*
%TO.C,S1*%
X132590000Y-94005000D02*
X132590000Y-94755000D01*
X132590000Y-97455000D02*
X132590000Y-98305000D01*
X132590000Y-98305000D02*
X141190000Y-98305000D01*
X141190000Y-94005000D02*
X132590000Y-94005000D01*
X141190000Y-94755000D02*
X141190000Y-94005000D01*
X141190000Y-98305000D02*
X141190000Y-97555000D01*
D11*
X131990000Y-95155000D02*
G75*
G02*
X131790000Y-95155000I-100000J0D01*
G01*
X131790000Y-95155000D02*
G75*
G02*
X131990000Y-95155000I100000J0D01*
G01*
D10*
%TO.C,C3*%
X138555000Y-114270233D02*
X138555000Y-114562767D01*
X139575000Y-114270233D02*
X139575000Y-114562767D01*
%TO.C,R2*%
X132176500Y-114161776D02*
X132176500Y-114671224D01*
X133221500Y-114161776D02*
X133221500Y-114671224D01*
%TO.C,J3*%
X153925000Y-68735000D02*
X155305000Y-68735000D01*
X153925000Y-70115000D02*
X153925000Y-68735000D01*
X153925000Y-71385000D02*
X153925000Y-74035000D01*
X153925000Y-71385000D02*
X156685000Y-71385000D01*
X153925000Y-74035000D02*
X156685000Y-74035000D01*
X156685000Y-71385000D02*
X156685000Y-74035000D01*
%TO.C,J2*%
X131970000Y-69585000D02*
X131970000Y-68205000D01*
X133350000Y-69585000D02*
X131970000Y-69585000D01*
X134620000Y-66825000D02*
X139810000Y-66825000D01*
X134620000Y-69585000D02*
X134620000Y-66825000D01*
X134620000Y-69585000D02*
X139810000Y-69585000D01*
X139810000Y-69585000D02*
X139810000Y-66825000D01*
%TO.C,J5*%
X131970000Y-121680000D02*
X131970000Y-120300000D01*
X133350000Y-121680000D02*
X131970000Y-121680000D01*
X134620000Y-118920000D02*
X139810000Y-118920000D01*
X134620000Y-121680000D02*
X134620000Y-118920000D01*
X134620000Y-121680000D02*
X139810000Y-121680000D01*
X139810000Y-121680000D02*
X139810000Y-118920000D01*
%TO.C,U1*%
X130891000Y-111734000D02*
X130891000Y-107114000D01*
X134151000Y-111734000D02*
X134151000Y-110354000D01*
X137851000Y-111734000D02*
X137851000Y-110354000D01*
X141111000Y-107114000D02*
X130891000Y-107114000D01*
X141111000Y-110354000D02*
X130891000Y-110354000D01*
X141111000Y-111734000D02*
X130891000Y-111734000D01*
X141111000Y-111734000D02*
X141111000Y-107114000D01*
%TO.C,J7*%
X153925000Y-114460000D02*
X155305000Y-114460000D01*
X153925000Y-115840000D02*
X153925000Y-114460000D01*
X153925000Y-117110000D02*
X153925000Y-119760000D01*
X153925000Y-117110000D02*
X156685000Y-117110000D01*
X153925000Y-119760000D02*
X156685000Y-119760000D01*
X156685000Y-117110000D02*
X156685000Y-119760000D01*
%TD*%
M02*
