<svg xmlns="http://www.w3.org/2000/svg" width="1024" height="1024" viewBox="0 0 1024 1024">
<path d="M 80 363 L 80 371 L 81 371 L 81 378 L 82 378 L 82 385 L 83 385 L 83 391 L 84 391 L 84 397 L 85 397 L 85 402 L 86 402 L 86 407 L 87 407 L 87 410 L 88 410 L 88 415 L 89 415 L 89 418 L 90 418 L 90 420 L 91 420 L 91 423 L 92 423 L 92 426 L 93 426 L 93 428 L 94 428 L 94 430 L 95 430 L 95 433 L 96 433 L 96 435 L 97 435 L 97 437 L 98 437 L 98 439 L 99 439 L 99 441 L 100 441 L 100 443 L 101 443 L 101 445 L 102 445 L 102 447 L 103 447 L 103 449 L 104 449 L 104 451 L 105 451 L 105 453 L 106 453 L 106 455 L 107 455 L 107 456 L 108 456 L 108 458 L 109 458 L 109 460 L 110 460 L 110 461 L 111 461 L 111 463 L 112 463 L 112 465 L 113 465 L 113 467 L 114 467 L 114 468 L 115 468 L 115 470 L 116 470 L 116 472 L 117 472 L 117 474 L 118 474 L 118 476 L 119 476 L 119 477 L 120 477 L 120 479 L 121 479 L 121 481 L 122 481 L 122 483 L 123 483 L 123 485 L 124 485 L 124 486 L 125 486 L 125 488 L 126 488 L 126 490 L 127 490 L 127 492 L 128 492 L 128 494 L 129 494 L 129 495 L 130 495 L 130 497 L 131 497 L 131 499 L 132 499 L 132 501 L 133 501 L 133 503 L 134 503 L 134 504 L 135 504 L 135 506 L 136 506 L 136 508 L 137 508 L 137 510 L 138 510 L 138 512 L 139 512 L 139 513 L 140 513 L 140 515 L 141 515 L 141 517 L 142 517 L 142 519 L 143 519 L 143 520 L 144 520 L 144 522 L 145 522 L 145 524 L 146 524 L 146 526 L 147 526 L 147 528 L 148 528 L 148 530 L 149 530 L 149 532 L 150 532 L 150 533 L 151 533 L 151 535 L 152 535 L 152 537 L 153 537 L 153 539 L 154 539 L 154 540 L 155 540 L 155 542 L 156 542 L 156 544 L 157 544 L 157 546 L 158 546 L 158 548 L 159 548 L 159 549 L 160 549 L 160 551 L 161 551 L 161 553 L 162 553 L 162 555 L 163 555 L 163 557 L 164 557 L 164 558 L 165 558 L 165 560 L 166 560 L 166 562 L 167 562 L 167 564 L 168 564 L 168 565 L 169 565 L 169 567 L 170 567 L 170 569 L 171 569 L 171 571 L 172 571 L 172 573 L 173 573 L 173 575 L 174 575 L 174 576 L 175 576 L 175 578 L 176 578 L 176 580 L 177 580 L 177 582 L 178 582 L 178 583 L 179 583 L 179 585 L 180 585 L 180 587 L 181 587 L 181 589 L 182 589 L 182 591 L 183 591 L 183 592 L 184 592 L 184 594 L 185 594 L 185 596 L 186 596 L 186 598 L 187 598 L 187 599 L 188 599 L 188 601 L 189 601 L 189 603 L 190 603 L 190 707 L 183 707 L 183 708 L 178 708 L 178 709 L 175 709 L 175 710 L 173 710 L 173 711 L 172 711 L 172 712 L 171 712 L 171 713 L 170 713 L 170 714 L 169 714 L 169 716 L 168 716 L 168 717 L 167 717 L 167 720 L 166 720 L 166 724 L 165 724 L 165 754 L 161 754 L 161 755 L 158 755 L 158 756 L 156 756 L 156 757 L 153 757 L 153 758 L 151 758 L 151 759 L 149 759 L 149 760 L 147 760 L 147 761 L 145 761 L 145 762 L 144 762 L 144 763 L 142 763 L 142 764 L 140 764 L 140 765 L 139 765 L 139 766 L 138 766 L 138 767 L 136 767 L 136 768 L 135 768 L 135 769 L 134 769 L 134 770 L 132 770 L 132 771 L 131 771 L 131 772 L 130 772 L 130 773 L 129 773 L 129 774 L 128 774 L 128 775 L 127 775 L 127 777 L 126 777 L 126 778 L 125 778 L 125 779 L 124 779 L 124 780 L 123 780 L 123 782 L 122 782 L 122 783 L 121 783 L 121 785 L 120 785 L 120 786 L 119 786 L 119 788 L 118 788 L 118 790 L 117 790 L 117 793 L 116 793 L 116 795 L 115 795 L 115 799 L 114 799 L 114 803 L 113 803 L 113 810 L 112 810 L 112 895 L 113 895 L 113 900 L 114 900 L 114 903 L 115 903 L 115 906 L 116 906 L 116 909 L 117 909 L 117 911 L 118 911 L 118 912 L 119 912 L 119 914 L 120 914 L 120 915 L 121 915 L 121 917 L 122 917 L 122 918 L 123 918 L 123 919 L 124 919 L 124 920 L 125 920 L 125 921 L 126 921 L 126 922 L 127 922 L 127 923 L 128 923 L 128 924 L 129 924 L 129 925 L 131 925 L 131 926 L 132 926 L 132 927 L 134 927 L 134 928 L 135 928 L 135 929 L 137 929 L 137 930 L 139 930 L 139 931 L 141 931 L 141 932 L 143 932 L 143 933 L 145 933 L 145 934 L 148 934 L 148 935 L 150 935 L 150 936 L 154 936 L 154 937 L 157 937 L 157 938 L 160 938 L 160 939 L 164 939 L 164 940 L 168 940 L 168 941 L 173 941 L 173 942 L 178 942 L 178 943 L 183 943 L 183 944 L 190 944 L 190 945 L 196 945 L 196 946 L 204 946 L 204 947 L 212 947 L 212 948 L 220 948 L 220 949 L 230 949 L 230 950 L 244 950 L 244 951 L 258 951 L 258 952 L 278 952 L 278 953 L 358 953 L 358 952 L 378 952 L 378 951 L 393 951 L 393 950 L 407 950 L 407 949 L 417 949 L 417 948 L 426 948 L 426 947 L 434 947 L 434 946 L 442 946 L 442 945 L 449 945 L 449 944 L 455 944 L 455 943 L 460 943 L 460 942 L 465 942 L 465 941 L 470 941 L 470 940 L 474 940 L 474 939 L 479 939 L 479 938 L 482 938 L 482 937 L 485 937 L 485 936 L 488 936 L 488 935 L 491 935 L 491 934 L 494 934 L 494 933 L 496 933 L 496 932 L 498 932 L 498 931 L 500 931 L 500 930 L 502 930 L 502 929 L 504 929 L 504 928 L 506 928 L 506 927 L 507 927 L 507 926 L 509 926 L 509 925 L 510 925 L 510 924 L 511 924 L 511 923 L 513 923 L 513 922 L 514 922 L 514 921 L 515 921 L 515 920 L 516 920 L 516 919 L 517 919 L 517 918 L 518 918 L 518 916 L 519 916 L 519 915 L 520 915 L 520 914 L 521 914 L 521 912 L 522 912 L 522 910 L 523 910 L 523 909 L 524 909 L 524 906 L 525 906 L 525 904 L 526 904 L 526 900 L 527 900 L 527 896 L 528 896 L 528 808 L 527 808 L 527 803 L 526 803 L 526 799 L 525 799 L 525 796 L 524 796 L 524 793 L 523 793 L 523 791 L 522 791 L 522 789 L 521 789 L 521 787 L 520 787 L 520 785 L 519 785 L 519 783 L 518 783 L 518 782 L 517 782 L 517 781 L 516 781 L 516 779 L 515 779 L 515 778 L 514 778 L 514 777 L 513 777 L 513 775 L 512 775 L 512 774 L 511 774 L 511 773 L 510 773 L 510 772 L 509 772 L 509 771 L 508 771 L 508 770 L 507 770 L 507 769 L 505 769 L 505 768 L 504 768 L 504 767 L 503 767 L 503 766 L 502 766 L 502 765 L 500 765 L 500 764 L 499 764 L 499 763 L 497 763 L 497 762 L 496 762 L 496 761 L 494 761 L 494 760 L 492 760 L 492 759 L 490 759 L 490 758 L 488 758 L 488 757 L 486 757 L 486 756 L 483 756 L 483 755 L 480 755 L 480 754 L 478 754 L 478 724 L 477 724 L 477 719 L 476 719 L 476 717 L 475 717 L 475 715 L 474 715 L 474 714 L 473 714 L 473 713 L 472 713 L 472 712 L 471 712 L 471 711 L 470 711 L 470 710 L 468 710 L 468 709 L 465 709 L 465 708 L 461 708 L 461 707 L 453 707 L 453 598 L 452 598 L 452 590 L 451 590 L 451 586 L 450 586 L 450 584 L 449 584 L 449 582 L 448 582 L 448 580 L 447 580 L 447 579 L 446 579 L 446 577 L 445 577 L 445 576 L 444 576 L 444 575 L 443 575 L 443 574 L 442 574 L 442 573 L 440 573 L 440 572 L 439 572 L 439 571 L 438 571 L 438 570 L 436 570 L 436 569 L 435 569 L 435 568 L 434 568 L 434 567 L 432 567 L 432 566 L 430 566 L 430 565 L 428 565 L 428 564 L 427 564 L 427 563 L 424 563 L 424 562 L 422 562 L 422 561 L 420 561 L 420 560 L 418 560 L 418 559 L 416 559 L 416 558 L 414 558 L 414 557 L 412 557 L 412 556 L 409 556 L 409 555 L 406 555 L 406 554 L 404 554 L 404 553 L 401 553 L 401 552 L 398 552 L 398 551 L 396 551 L 396 550 L 393 550 L 393 549 L 389 549 L 389 548 L 386 548 L 386 547 L 382 547 L 382 546 L 381 546 L 381 545 L 380 545 L 380 543 L 379 543 L 379 541 L 378 541 L 378 540 L 377 540 L 377 538 L 376 538 L 376 536 L 375 536 L 375 534 L 374 534 L 374 532 L 373 532 L 373 530 L 372 530 L 372 529 L 371 529 L 371 527 L 370 527 L 370 525 L 369 525 L 369 523 L 368 523 L 368 521 L 367 521 L 367 519 L 366 519 L 366 518 L 365 518 L 365 516 L 364 516 L 364 514 L 363 514 L 363 512 L 362 512 L 362 510 L 361 510 L 361 508 L 360 508 L 360 506 L 359 506 L 359 504 L 358 504 L 358 503 L 357 503 L 357 501 L 356 501 L 356 499 L 355 499 L 355 497 L 354 497 L 354 495 L 353 495 L 353 494 L 352 494 L 352 492 L 351 492 L 351 490 L 350 490 L 350 488 L 349 488 L 349 486 L 348 486 L 348 484 L 347 484 L 347 482 L 346 482 L 346 481 L 345 481 L 345 479 L 344 479 L 344 477 L 343 477 L 343 475 L 342 475 L 342 473 L 341 473 L 341 471 L 340 471 L 340 470 L 339 470 L 339 468 L 338 468 L 338 466 L 337 466 L 337 464 L 336 464 L 336 462 L 335 462 L 335 460 L 334 460 L 334 458 L 333 458 L 333 457 L 332 457 L 332 455 L 331 455 L 331 453 L 330 453 L 330 451 L 329 451 L 329 449 L 328 449 L 328 447 L 327 447 L 327 446 L 326 446 L 326 444 L 325 444 L 325 442 L 324 442 L 324 440 L 323 440 L 323 438 L 322 438 L 322 436 L 321 436 L 321 434 L 320 434 L 320 432 L 319 432 L 319 430 L 318 430 L 318 429 L 317 429 L 317 427 L 316 427 L 316 425 L 315 425 L 315 423 L 314 423 L 314 421 L 313 421 L 313 420 L 312 420 L 312 418 L 311 418 L 311 416 L 310 416 L 310 414 L 309 414 L 309 412 L 308 412 L 308 410 L 307 410 L 307 409 L 306 409 L 306 407 L 305 407 L 305 405 L 304 405 L 304 403 L 303 403 L 303 401 L 302 401 L 302 399 L 301 399 L 301 397 L 300 397 L 300 396 L 299 396 L 299 395 L 301 395 L 301 394 L 303 394 L 303 393 L 306 393 L 306 392 L 309 392 L 309 391 L 311 391 L 311 390 L 314 390 L 314 389 L 316 389 L 316 388 L 319 388 L 319 387 L 322 387 L 322 386 L 324 386 L 324 385 L 327 385 L 327 384 L 330 384 L 330 383 L 332 383 L 332 382 L 335 382 L 335 381 L 337 381 L 337 380 L 340 380 L 340 379 L 343 379 L 343 378 L 345 378 L 345 377 L 348 377 L 348 376 L 351 376 L 351 375 L 353 375 L 353 374 L 356 374 L 356 373 L 359 373 L 359 372 L 361 372 L 361 371 L 364 371 L 364 370 L 367 370 L 367 369 L 369 369 L 369 368 L 371 368 L 371 367 L 374 367 L 374 366 L 377 366 L 377 365 L 379 365 L 379 364 L 382 364 L 382 363 L 384 363 L 384 362 L 387 362 L 387 361 L 390 361 L 390 360 L 392 360 L 392 359 L 398 359 L 398 360 L 399 360 L 399 361 L 400 361 L 400 362 L 401 362 L 401 363 L 402 363 L 402 364 L 403 364 L 403 365 L 404 365 L 404 366 L 406 366 L 406 367 L 408 367 L 408 368 L 410 368 L 410 369 L 414 369 L 414 370 L 418 370 L 418 371 L 424 371 L 424 372 L 448 372 L 448 371 L 453 371 L 453 370 L 458 370 L 458 369 L 462 369 L 462 368 L 467 368 L 467 367 L 471 367 L 471 366 L 475 366 L 475 365 L 480 365 L 480 364 L 485 364 L 485 363 L 490 363 L 490 362 L 495 362 L 495 361 L 501 361 L 501 360 L 510 360 L 510 361 L 511 361 L 511 362 L 512 362 L 512 363 L 513 363 L 513 364 L 514 364 L 514 365 L 515 365 L 515 366 L 516 366 L 516 367 L 517 367 L 517 368 L 518 368 L 518 369 L 519 369 L 519 370 L 520 370 L 520 371 L 521 371 L 521 372 L 522 372 L 522 373 L 523 373 L 523 374 L 524 374 L 524 375 L 525 375 L 525 376 L 526 376 L 526 377 L 527 377 L 527 378 L 528 378 L 528 379 L 529 379 L 529 380 L 530 380 L 530 381 L 531 381 L 531 382 L 532 382 L 532 383 L 533 383 L 533 384 L 534 384 L 534 385 L 535 385 L 535 386 L 536 386 L 536 387 L 537 387 L 537 388 L 538 388 L 538 389 L 539 389 L 539 390 L 540 390 L 540 391 L 541 391 L 541 392 L 542 392 L 542 393 L 543 393 L 543 394 L 544 394 L 544 395 L 545 395 L 545 396 L 546 396 L 546 397 L 547 397 L 547 398 L 548 398 L 548 399 L 549 399 L 549 400 L 550 400 L 550 401 L 551 401 L 551 402 L 552 402 L 552 403 L 553 403 L 553 405 L 554 405 L 554 406 L 555 406 L 555 407 L 556 407 L 556 408 L 557 408 L 557 409 L 558 409 L 558 410 L 559 410 L 559 411 L 560 411 L 560 412 L 561 412 L 561 414 L 562 414 L 562 415 L 563 415 L 563 416 L 564 416 L 564 418 L 565 418 L 565 419 L 566 419 L 566 421 L 567 421 L 567 422 L 568 422 L 568 423 L 569 423 L 569 425 L 570 425 L 570 426 L 571 426 L 571 428 L 572 428 L 572 429 L 573 429 L 573 430 L 574 430 L 574 432 L 575 432 L 575 433 L 569 433 L 569 434 L 567 434 L 567 435 L 566 435 L 566 436 L 564 436 L 564 437 L 563 437 L 563 438 L 562 438 L 562 440 L 561 440 L 561 441 L 560 441 L 560 443 L 559 443 L 559 445 L 558 445 L 558 448 L 557 448 L 557 451 L 556 451 L 556 454 L 555 454 L 555 458 L 554 458 L 554 467 L 553 467 L 553 477 L 552 477 L 552 493 L 553 493 L 553 501 L 554 501 L 554 504 L 553 504 L 553 506 L 554 506 L 554 511 L 555 511 L 555 519 L 556 519 L 556 522 L 557 522 L 557 525 L 558 525 L 558 529 L 559 529 L 559 534 L 560 534 L 560 538 L 561 538 L 561 541 L 562 541 L 562 542 L 563 542 L 563 544 L 564 544 L 564 548 L 565 548 L 565 552 L 566 552 L 566 553 L 567 553 L 567 556 L 568 556 L 568 559 L 569 559 L 569 560 L 570 560 L 570 562 L 571 562 L 571 564 L 572 564 L 572 566 L 573 566 L 573 568 L 574 568 L 574 570 L 575 570 L 575 571 L 576 571 L 576 573 L 577 573 L 577 575 L 578 575 L 578 577 L 579 577 L 579 579 L 580 579 L 580 580 L 581 580 L 581 581 L 582 581 L 582 583 L 583 583 L 583 584 L 584 584 L 584 586 L 585 586 L 585 587 L 586 587 L 586 589 L 587 589 L 587 590 L 588 590 L 588 592 L 589 592 L 589 593 L 590 593 L 590 594 L 591 594 L 591 596 L 592 596 L 592 597 L 593 597 L 593 598 L 594 598 L 594 599 L 595 599 L 595 601 L 596 601 L 596 602 L 597 602 L 597 603 L 598 603 L 598 604 L 599 604 L 599 605 L 600 605 L 600 606 L 601 606 L 601 607 L 602 607 L 602 608 L 603 608 L 603 610 L 605 610 L 605 611 L 606 611 L 606 612 L 607 612 L 607 613 L 608 613 L 608 614 L 609 614 L 609 615 L 610 615 L 610 616 L 611 616 L 611 617 L 612 617 L 612 618 L 613 618 L 613 619 L 614 619 L 614 620 L 615 620 L 615 621 L 617 621 L 617 622 L 618 622 L 618 623 L 619 623 L 619 624 L 620 624 L 620 625 L 621 625 L 621 626 L 623 626 L 623 627 L 624 627 L 624 628 L 626 628 L 626 629 L 627 629 L 627 630 L 628 630 L 628 631 L 630 631 L 630 632 L 631 632 L 631 633 L 633 633 L 633 634 L 634 634 L 634 635 L 636 635 L 636 636 L 637 636 L 637 637 L 639 637 L 639 638 L 641 638 L 641 639 L 642 639 L 642 640 L 644 640 L 644 641 L 646 641 L 646 642 L 648 642 L 648 643 L 650 643 L 650 644 L 652 644 L 652 645 L 654 645 L 654 646 L 657 646 L 657 647 L 659 647 L 659 648 L 661 648 L 661 649 L 663 649 L 663 650 L 665 650 L 665 651 L 668 651 L 668 652 L 670 652 L 670 653 L 674 653 L 674 654 L 676 654 L 676 655 L 679 655 L 679 656 L 684 656 L 684 657 L 687 657 L 687 658 L 691 658 L 691 659 L 695 659 L 695 660 L 700 660 L 700 661 L 704 661 L 704 662 L 713 662 L 713 663 L 721 663 L 721 664 L 751 664 L 751 663 L 753 663 L 753 664 L 757 664 L 757 663 L 765 663 L 765 662 L 772 662 L 772 661 L 774 661 L 774 662 L 775 662 L 775 661 L 778 661 L 778 660 L 779 660 L 779 661 L 782 661 L 782 660 L 784 660 L 784 659 L 792 659 L 792 658 L 794 658 L 794 657 L 802 657 L 802 656 L 805 656 L 805 655 L 809 655 L 809 654 L 813 654 L 813 653 L 817 653 L 817 652 L 821 652 L 821 651 L 824 651 L 824 650 L 829 650 L 829 649 L 832 649 L 832 648 L 835 648 L 835 647 L 837 647 L 837 646 L 842 646 L 842 645 L 844 645 L 844 644 L 847 644 L 847 643 L 850 643 L 850 642 L 851 642 L 851 641 L 855 641 L 855 640 L 857 640 L 857 639 L 859 639 L 859 638 L 860 638 L 860 637 L 865 637 L 865 636 L 866 636 L 866 635 L 868 635 L 868 634 L 871 634 L 871 633 L 873 633 L 873 632 L 875 632 L 875 631 L 877 631 L 877 630 L 878 630 L 878 629 L 881 629 L 881 628 L 882 628 L 882 627 L 884 627 L 884 626 L 886 626 L 886 625 L 888 625 L 888 624 L 889 624 L 889 623 L 891 623 L 891 622 L 892 622 L 892 621 L 895 621 L 895 620 L 896 620 L 896 619 L 897 619 L 897 618 L 899 618 L 899 617 L 900 617 L 900 616 L 901 616 L 901 615 L 903 615 L 903 614 L 904 614 L 904 613 L 906 613 L 906 612 L 907 612 L 907 611 L 909 611 L 909 610 L 910 610 L 910 609 L 911 609 L 911 608 L 912 608 L 912 607 L 913 607 L 913 606 L 915 606 L 915 605 L 916 605 L 916 604 L 917 604 L 917 603 L 918 603 L 918 602 L 919 602 L 919 601 L 920 601 L 920 600 L 921 600 L 921 599 L 922 599 L 922 598 L 923 598 L 923 597 L 924 597 L 924 596 L 925 596 L 925 595 L 926 595 L 926 594 L 927 594 L 927 593 L 928 593 L 928 592 L 929 592 L 929 591 L 930 591 L 930 590 L 931 590 L 931 588 L 932 588 L 932 587 L 933 587 L 933 586 L 934 586 L 934 585 L 935 585 L 935 584 L 936 584 L 936 582 L 937 582 L 937 581 L 938 581 L 938 579 L 939 579 L 939 578 L 940 578 L 940 577 L 941 577 L 941 575 L 942 575 L 942 574 L 943 574 L 943 572 L 944 572 L 944 570 L 945 570 L 945 568 L 946 568 L 946 567 L 947 567 L 947 565 L 948 565 L 948 562 L 949 562 L 949 560 L 950 560 L 950 558 L 951 558 L 951 555 L 952 555 L 952 553 L 953 553 L 953 550 L 954 550 L 954 547 L 955 547 L 955 544 L 956 544 L 956 539 L 957 539 L 957 533 L 958 533 L 958 525 L 959 525 L 959 509 L 958 509 L 958 508 L 959 508 L 959 507 L 958 507 L 958 500 L 957 500 L 957 492 L 956 492 L 956 489 L 955 489 L 955 485 L 954 485 L 954 481 L 953 481 L 953 478 L 952 478 L 952 477 L 951 477 L 951 473 L 950 473 L 950 472 L 949 472 L 949 468 L 948 468 L 948 466 L 947 466 L 947 465 L 946 465 L 946 462 L 945 462 L 945 460 L 944 460 L 944 459 L 943 459 L 943 457 L 942 457 L 942 456 L 941 456 L 941 453 L 940 453 L 940 452 L 939 452 L 939 451 L 938 451 L 938 449 L 937 449 L 937 448 L 936 448 L 936 447 L 935 447 L 935 445 L 934 445 L 934 444 L 933 444 L 933 443 L 932 443 L 932 441 L 931 441 L 931 440 L 930 440 L 930 439 L 928 439 L 928 438 L 927 438 L 927 436 L 926 436 L 926 435 L 925 435 L 925 434 L 924 434 L 924 433 L 923 433 L 923 432 L 922 432 L 922 431 L 921 431 L 921 430 L 920 430 L 920 429 L 919 429 L 919 428 L 917 428 L 917 426 L 915 426 L 915 425 L 914 425 L 914 424 L 913 424 L 913 423 L 912 423 L 912 422 L 910 422 L 910 421 L 909 421 L 909 420 L 907 420 L 907 419 L 906 419 L 906 418 L 905 418 L 905 417 L 904 417 L 904 416 L 901 416 L 901 415 L 899 415 L 899 414 L 898 414 L 898 413 L 897 413 L 897 412 L 895 412 L 895 411 L 893 411 L 893 410 L 891 410 L 891 409 L 890 409 L 890 408 L 888 408 L 888 407 L 885 407 L 885 406 L 884 406 L 884 404 L 885 404 L 885 403 L 887 403 L 887 402 L 888 402 L 888 401 L 890 401 L 890 400 L 891 400 L 891 399 L 893 399 L 893 398 L 894 398 L 894 397 L 896 397 L 896 396 L 897 396 L 897 395 L 898 395 L 898 393 L 899 393 L 899 392 L 900 392 L 900 391 L 901 391 L 901 390 L 902 390 L 902 389 L 903 389 L 903 387 L 904 387 L 904 385 L 905 385 L 905 383 L 906 383 L 906 379 L 907 379 L 907 372 L 906 372 L 906 371 L 907 371 L 907 367 L 906 367 L 906 366 L 905 366 L 905 365 L 904 365 L 904 363 L 905 363 L 905 361 L 907 361 L 907 360 L 908 360 L 908 359 L 909 359 L 909 358 L 911 358 L 911 357 L 912 357 L 912 356 L 913 356 L 913 355 L 914 355 L 914 353 L 916 353 L 916 352 L 917 352 L 917 351 L 918 351 L 918 350 L 919 350 L 919 349 L 920 349 L 920 347 L 921 347 L 921 346 L 922 346 L 922 344 L 923 344 L 923 343 L 924 343 L 924 342 L 925 342 L 925 340 L 927 340 L 927 338 L 928 338 L 928 336 L 929 336 L 929 334 L 930 334 L 930 333 L 931 333 L 931 332 L 932 332 L 932 330 L 933 330 L 933 327 L 934 327 L 934 325 L 935 325 L 935 321 L 936 321 L 936 320 L 937 320 L 937 307 L 936 307 L 936 305 L 935 305 L 935 304 L 934 304 L 934 302 L 933 302 L 933 301 L 932 301 L 932 300 L 931 300 L 931 299 L 929 299 L 929 298 L 926 298 L 926 297 L 915 297 L 915 298 L 914 298 L 914 299 L 910 299 L 910 300 L 909 300 L 909 301 L 908 301 L 908 302 L 905 302 L 905 303 L 904 303 L 904 304 L 901 304 L 901 305 L 899 305 L 899 306 L 897 306 L 897 307 L 895 307 L 895 308 L 892 308 L 892 309 L 890 309 L 890 310 L 887 310 L 887 311 L 882 311 L 882 312 L 879 312 L 879 313 L 872 313 L 872 314 L 868 314 L 868 313 L 863 313 L 863 312 L 862 312 L 862 308 L 861 308 L 861 307 L 860 307 L 860 305 L 859 305 L 859 302 L 858 302 L 858 300 L 857 300 L 857 299 L 856 299 L 856 296 L 855 296 L 855 295 L 854 295 L 854 293 L 853 293 L 853 292 L 852 292 L 852 290 L 851 290 L 851 288 L 850 288 L 850 287 L 849 287 L 849 285 L 848 285 L 848 284 L 847 284 L 847 282 L 846 282 L 846 281 L 845 281 L 845 280 L 844 280 L 844 278 L 843 278 L 843 277 L 842 277 L 842 276 L 841 276 L 841 275 L 840 275 L 840 274 L 839 274 L 839 273 L 838 273 L 838 272 L 837 272 L 837 270 L 836 270 L 836 269 L 835 269 L 835 268 L 834 268 L 834 267 L 833 267 L 833 266 L 832 266 L 832 265 L 831 265 L 831 264 L 829 264 L 829 262 L 827 262 L 827 261 L 826 261 L 826 260 L 825 260 L 825 259 L 824 259 L 824 258 L 822 258 L 822 257 L 821 257 L 821 256 L 820 256 L 820 255 L 818 255 L 818 254 L 817 254 L 817 253 L 816 253 L 816 252 L 813 252 L 813 251 L 812 251 L 812 250 L 810 250 L 810 249 L 808 249 L 808 248 L 807 248 L 807 247 L 805 247 L 805 246 L 804 246 L 804 245 L 801 245 L 801 244 L 799 244 L 799 243 L 797 243 L 797 242 L 794 242 L 794 241 L 790 241 L 790 240 L 788 240 L 788 239 L 785 239 L 785 238 L 780 238 L 780 237 L 775 237 L 775 236 L 767 236 L 767 235 L 757 235 L 757 234 L 755 234 L 755 235 L 752 235 L 752 234 L 750 234 L 750 235 L 741 235 L 741 236 L 739 236 L 739 235 L 737 235 L 737 236 L 730 236 L 730 237 L 727 237 L 727 238 L 725 238 L 725 239 L 721 239 L 721 240 L 715 240 L 715 241 L 712 241 L 712 242 L 711 242 L 711 243 L 708 243 L 708 244 L 706 244 L 706 245 L 703 245 L 703 246 L 701 246 L 701 247 L 699 247 L 699 248 L 697 248 L 697 249 L 695 249 L 695 250 L 693 250 L 693 251 L 692 251 L 692 252 L 690 252 L 690 253 L 689 253 L 689 254 L 687 254 L 687 255 L 686 255 L 686 256 L 685 256 L 685 257 L 684 257 L 684 258 L 682 258 L 682 259 L 681 259 L 681 260 L 679 260 L 679 261 L 678 261 L 678 262 L 676 262 L 676 263 L 675 263 L 675 264 L 674 264 L 674 265 L 673 265 L 673 266 L 672 266 L 672 267 L 671 267 L 671 268 L 670 268 L 670 269 L 669 269 L 669 270 L 668 270 L 668 271 L 667 271 L 667 272 L 666 272 L 666 273 L 665 273 L 665 274 L 664 274 L 664 275 L 663 275 L 663 277 L 662 277 L 662 278 L 661 278 L 661 277 L 660 277 L 660 276 L 659 276 L 659 275 L 658 275 L 658 274 L 656 274 L 656 273 L 655 273 L 655 272 L 654 272 L 654 271 L 653 271 L 653 270 L 651 270 L 651 269 L 650 269 L 650 268 L 649 268 L 649 267 L 648 267 L 648 266 L 647 266 L 647 265 L 646 265 L 646 264 L 644 264 L 644 263 L 643 263 L 643 262 L 642 262 L 642 261 L 641 261 L 641 260 L 639 260 L 639 259 L 638 259 L 638 258 L 637 258 L 637 257 L 636 257 L 636 256 L 635 256 L 635 255 L 634 255 L 634 254 L 633 254 L 633 253 L 632 253 L 632 251 L 631 251 L 631 250 L 630 250 L 630 248 L 629 248 L 629 246 L 628 246 L 628 244 L 627 244 L 627 242 L 626 242 L 626 240 L 625 240 L 625 238 L 624 238 L 624 236 L 623 236 L 623 234 L 622 234 L 622 232 L 621 232 L 621 230 L 620 230 L 620 228 L 619 228 L 619 226 L 618 226 L 618 224 L 617 224 L 617 222 L 616 222 L 616 220 L 615 220 L 615 218 L 614 218 L 614 216 L 613 216 L 613 214 L 612 214 L 612 212 L 611 212 L 611 210 L 610 210 L 610 208 L 609 208 L 609 206 L 608 206 L 608 204 L 607 204 L 607 202 L 606 202 L 606 200 L 605 200 L 605 198 L 604 198 L 604 196 L 603 196 L 603 194 L 602 194 L 602 192 L 601 192 L 601 190 L 600 190 L 600 188 L 599 188 L 599 186 L 598 186 L 598 183 L 597 183 L 597 181 L 596 181 L 596 179 L 595 179 L 595 178 L 594 178 L 594 176 L 593 176 L 593 175 L 592 175 L 592 174 L 591 174 L 591 172 L 590 172 L 590 171 L 588 171 L 588 170 L 587 170 L 587 169 L 585 169 L 585 168 L 584 168 L 584 167 L 581 167 L 581 166 L 578 166 L 578 165 L 575 165 L 575 164 L 558 164 L 558 165 L 552 165 L 552 166 L 546 166 L 546 167 L 541 167 L 541 168 L 536 168 L 536 169 L 530 169 L 530 170 L 528 170 L 528 169 L 524 169 L 524 168 L 522 168 L 522 167 L 520 167 L 520 166 L 517 166 L 517 165 L 514 165 L 514 164 L 506 164 L 506 163 L 501 163 L 501 164 L 491 164 L 491 165 L 484 165 L 484 166 L 477 166 L 477 167 L 470 167 L 470 168 L 463 168 L 463 169 L 457 169 L 457 170 L 451 170 L 451 171 L 444 171 L 444 172 L 439 172 L 439 173 L 434 173 L 434 174 L 427 174 L 427 175 L 421 175 L 421 176 L 415 176 L 415 177 L 408 177 L 408 178 L 403 178 L 403 179 L 398 179 L 398 180 L 394 180 L 394 181 L 391 181 L 391 182 L 389 182 L 389 183 L 387 183 L 387 184 L 385 184 L 385 185 L 384 185 L 384 186 L 383 186 L 383 187 L 382 187 L 382 189 L 381 189 L 381 190 L 380 190 L 380 193 L 379 193 L 379 197 L 378 197 L 378 203 L 379 203 L 379 211 L 380 211 L 380 217 L 381 217 L 381 218 L 378 218 L 378 219 L 376 219 L 376 220 L 373 220 L 373 221 L 370 221 L 370 222 L 367 222 L 367 223 L 365 223 L 365 224 L 362 224 L 362 225 L 359 225 L 359 226 L 356 226 L 356 227 L 353 227 L 353 228 L 351 228 L 351 229 L 348 229 L 348 230 L 345 230 L 345 231 L 343 231 L 343 232 L 340 232 L 340 233 L 337 233 L 337 234 L 334 234 L 334 235 L 331 235 L 331 236 L 329 236 L 329 237 L 326 237 L 326 238 L 323 238 L 323 239 L 320 239 L 320 240 L 318 240 L 318 241 L 315 241 L 315 242 L 312 242 L 312 243 L 310 243 L 310 244 L 307 244 L 307 245 L 304 245 L 304 246 L 301 246 L 301 247 L 298 247 L 298 248 L 296 248 L 296 249 L 293 249 L 293 250 L 290 250 L 290 251 L 288 251 L 288 252 L 285 252 L 285 253 L 282 253 L 282 254 L 279 254 L 279 255 L 276 255 L 276 256 L 273 256 L 273 257 L 271 257 L 271 258 L 268 258 L 268 259 L 265 259 L 265 260 L 263 260 L 263 261 L 260 261 L 260 262 L 257 262 L 257 263 L 255 263 L 255 264 L 252 264 L 252 265 L 249 265 L 249 266 L 246 266 L 246 267 L 243 267 L 243 268 L 241 268 L 241 269 L 238 269 L 238 270 L 235 270 L 235 271 L 232 271 L 232 272 L 230 272 L 230 273 L 227 273 L 227 274 L 224 274 L 224 275 L 221 275 L 221 276 L 218 276 L 218 277 L 216 277 L 216 278 L 213 278 L 213 279 L 210 279 L 210 280 L 207 280 L 207 281 L 204 281 L 204 282 L 201 282 L 201 283 L 196 283 L 196 284 L 182 284 L 182 285 L 170 285 L 170 286 L 166 286 L 166 287 L 162 287 L 162 288 L 158 288 L 158 289 L 155 289 L 155 290 L 153 290 L 153 291 L 149 291 L 149 292 L 147 292 L 147 293 L 144 293 L 144 294 L 141 294 L 141 295 L 138 295 L 138 296 L 136 296 L 136 297 L 134 297 L 134 298 L 132 298 L 132 299 L 129 299 L 129 300 L 127 300 L 127 301 L 125 301 L 125 302 L 123 302 L 123 303 L 121 303 L 121 304 L 119 304 L 119 305 L 117 305 L 117 306 L 115 306 L 115 307 L 113 307 L 113 308 L 111 308 L 111 309 L 110 309 L 110 310 L 109 310 L 109 311 L 108 311 L 108 312 L 107 312 L 107 313 L 106 313 L 106 314 L 105 314 L 105 315 L 104 315 L 104 316 L 103 316 L 103 317 L 102 317 L 102 318 L 100 318 L 100 319 L 99 319 L 99 321 L 98 321 L 98 322 L 97 322 L 97 323 L 96 323 L 96 325 L 95 325 L 95 326 L 94 326 L 94 328 L 93 328 L 93 329 L 92 329 L 92 330 L 91 330 L 91 331 L 90 331 L 90 333 L 89 333 L 89 334 L 88 334 L 88 337 L 87 337 L 87 338 L 86 338 L 86 341 L 85 341 L 85 343 L 84 343 L 84 348 L 83 348 L 83 353 L 82 353 L 82 358 L 81 358 L 81 363 L 80 363 Z M 125 356 L 125 375 L 126 375 L 126 380 L 127 380 L 127 383 L 128 383 L 128 386 L 129 386 L 129 388 L 130 388 L 130 390 L 131 390 L 131 392 L 132 392 L 132 394 L 133 394 L 133 395 L 134 395 L 134 397 L 135 397 L 135 398 L 136 398 L 136 400 L 137 400 L 137 401 L 138 401 L 138 402 L 139 402 L 139 403 L 140 403 L 140 404 L 141 404 L 141 405 L 142 405 L 142 406 L 143 406 L 143 407 L 144 407 L 144 408 L 145 408 L 145 409 L 146 409 L 146 410 L 148 410 L 148 411 L 149 411 L 149 412 L 151 412 L 151 413 L 152 413 L 152 414 L 154 414 L 154 415 L 156 415 L 156 416 L 158 416 L 158 417 L 160 417 L 160 418 L 162 418 L 162 419 L 166 419 L 166 420 L 170 420 L 170 421 L 188 421 L 188 420 L 192 420 L 192 419 L 195 419 L 195 418 L 198 418 L 198 417 L 200 417 L 200 416 L 202 416 L 202 415 L 204 415 L 204 414 L 206 414 L 206 413 L 207 413 L 207 412 L 209 412 L 209 411 L 210 411 L 210 410 L 212 410 L 212 409 L 213 409 L 213 408 L 214 408 L 214 407 L 215 407 L 215 406 L 216 406 L 216 405 L 217 405 L 217 404 L 218 404 L 218 403 L 219 403 L 219 402 L 220 402 L 220 401 L 221 401 L 221 399 L 222 399 L 222 398 L 223 398 L 223 396 L 224 396 L 224 395 L 225 395 L 225 393 L 226 393 L 226 392 L 227 392 L 227 390 L 228 390 L 228 388 L 229 388 L 229 385 L 230 385 L 230 383 L 231 383 L 231 379 L 232 379 L 232 375 L 233 375 L 233 368 L 234 368 L 234 361 L 233 361 L 233 353 L 232 353 L 232 349 L 231 349 L 231 346 L 230 346 L 230 343 L 229 343 L 229 341 L 228 341 L 228 339 L 227 339 L 227 337 L 226 337 L 226 335 L 225 335 L 225 334 L 224 334 L 224 332 L 223 332 L 223 331 L 222 331 L 222 329 L 221 329 L 221 328 L 220 328 L 220 327 L 219 327 L 219 326 L 218 326 L 218 325 L 217 325 L 217 324 L 216 324 L 216 323 L 215 323 L 215 322 L 214 322 L 214 321 L 213 321 L 213 320 L 212 320 L 212 319 L 211 319 L 211 318 L 209 318 L 209 317 L 208 317 L 208 316 L 206 316 L 206 315 L 204 315 L 204 314 L 202 314 L 202 313 L 200 313 L 200 312 L 197 312 L 197 311 L 194 311 L 194 310 L 190 310 L 190 309 L 172 309 L 172 310 L 168 310 L 168 311 L 164 311 L 164 312 L 161 312 L 161 313 L 159 313 L 159 314 L 157 314 L 157 315 L 155 315 L 155 316 L 154 316 L 154 317 L 152 317 L 152 318 L 150 318 L 150 319 L 149 319 L 149 320 L 147 320 L 147 321 L 146 321 L 146 322 L 145 322 L 145 323 L 144 323 L 144 324 L 143 324 L 143 325 L 142 325 L 142 326 L 141 326 L 141 327 L 140 327 L 140 328 L 139 328 L 139 329 L 138 329 L 138 330 L 137 330 L 137 331 L 136 331 L 136 332 L 135 332 L 135 334 L 134 334 L 134 335 L 133 335 L 133 337 L 132 337 L 132 339 L 131 339 L 131 341 L 130 341 L 130 343 L 129 343 L 129 345 L 128 345 L 128 348 L 127 348 L 127 352 L 126 352 L 126 356 L 125 356 Z M 130 439 L 130 445 L 131 445 L 131 447 L 132 447 L 132 450 L 133 450 L 133 452 L 134 452 L 134 454 L 135 454 L 135 456 L 136 456 L 136 457 L 137 457 L 137 459 L 138 459 L 138 461 L 139 461 L 139 463 L 140 463 L 140 465 L 141 465 L 141 467 L 142 467 L 142 468 L 143 468 L 143 470 L 144 470 L 144 472 L 145 472 L 145 474 L 146 474 L 146 476 L 147 476 L 147 478 L 148 478 L 148 479 L 149 479 L 149 481 L 150 481 L 150 483 L 151 483 L 151 485 L 152 485 L 152 487 L 153 487 L 153 489 L 154 489 L 154 490 L 155 490 L 155 492 L 156 492 L 156 494 L 157 494 L 157 496 L 158 496 L 158 498 L 159 498 L 159 500 L 160 500 L 160 501 L 161 501 L 161 503 L 162 503 L 162 505 L 163 505 L 163 507 L 164 507 L 164 509 L 165 509 L 165 510 L 166 510 L 166 512 L 167 512 L 167 514 L 168 514 L 168 516 L 169 516 L 169 518 L 170 518 L 170 520 L 171 520 L 171 521 L 172 521 L 172 523 L 173 523 L 173 525 L 174 525 L 174 527 L 175 527 L 175 529 L 176 529 L 176 531 L 177 531 L 177 532 L 178 532 L 178 534 L 179 534 L 179 536 L 180 536 L 180 538 L 181 538 L 181 540 L 182 540 L 182 541 L 183 541 L 183 543 L 184 543 L 184 545 L 185 545 L 185 547 L 186 547 L 186 549 L 187 549 L 187 551 L 188 551 L 188 552 L 189 552 L 189 554 L 190 554 L 190 556 L 191 556 L 191 558 L 192 558 L 192 559 L 193 559 L 193 561 L 194 561 L 194 563 L 195 563 L 195 565 L 196 565 L 196 567 L 197 567 L 197 568 L 198 568 L 198 570 L 199 570 L 199 572 L 200 572 L 200 574 L 201 574 L 201 576 L 202 576 L 202 577 L 203 577 L 203 579 L 204 579 L 204 581 L 205 581 L 205 583 L 206 583 L 206 585 L 207 585 L 207 587 L 208 587 L 208 588 L 209 588 L 209 590 L 210 590 L 210 592 L 211 592 L 211 594 L 212 594 L 212 596 L 213 596 L 213 597 L 214 597 L 214 599 L 215 599 L 215 601 L 216 601 L 216 603 L 217 603 L 217 604 L 218 604 L 218 605 L 219 605 L 219 606 L 220 606 L 220 607 L 226 607 L 226 606 L 227 606 L 227 605 L 228 605 L 228 604 L 229 604 L 229 603 L 230 603 L 230 601 L 231 601 L 231 596 L 230 596 L 230 594 L 229 594 L 229 592 L 228 592 L 228 590 L 227 590 L 227 588 L 226 588 L 226 586 L 225 586 L 225 584 L 224 584 L 224 583 L 223 583 L 223 581 L 222 581 L 222 579 L 221 579 L 221 577 L 220 577 L 220 575 L 219 575 L 219 574 L 218 574 L 218 572 L 217 572 L 217 570 L 216 570 L 216 568 L 215 568 L 215 566 L 214 566 L 214 564 L 213 564 L 213 563 L 212 563 L 212 561 L 211 561 L 211 559 L 210 559 L 210 557 L 209 557 L 209 555 L 208 555 L 208 554 L 207 554 L 207 552 L 206 552 L 206 550 L 205 550 L 205 548 L 204 548 L 204 546 L 203 546 L 203 544 L 202 544 L 202 543 L 201 543 L 201 541 L 200 541 L 200 539 L 199 539 L 199 537 L 198 537 L 198 535 L 197 535 L 197 534 L 196 534 L 196 532 L 195 532 L 195 530 L 194 530 L 194 528 L 193 528 L 193 526 L 192 526 L 192 525 L 191 525 L 191 523 L 190 523 L 190 521 L 189 521 L 189 519 L 188 519 L 188 517 L 187 517 L 187 515 L 186 515 L 186 513 L 185 513 L 185 512 L 184 512 L 184 510 L 183 510 L 183 508 L 182 508 L 182 506 L 181 506 L 181 504 L 180 504 L 180 502 L 179 502 L 179 501 L 178 501 L 178 499 L 177 499 L 177 497 L 176 497 L 176 495 L 175 495 L 175 493 L 174 493 L 174 491 L 173 491 L 173 490 L 172 490 L 172 488 L 171 488 L 171 486 L 170 486 L 170 484 L 169 484 L 169 482 L 168 482 L 168 481 L 167 481 L 167 479 L 166 479 L 166 477 L 165 477 L 165 475 L 164 475 L 164 473 L 163 473 L 163 472 L 162 472 L 162 470 L 161 470 L 161 468 L 160 468 L 160 466 L 159 466 L 159 465 L 158 465 L 158 463 L 157 463 L 157 461 L 156 461 L 156 459 L 155 459 L 155 457 L 154 457 L 154 455 L 153 455 L 153 454 L 152 454 L 152 452 L 151 452 L 151 450 L 150 450 L 150 449 L 149 449 L 149 447 L 148 447 L 148 445 L 147 445 L 147 444 L 146 444 L 146 443 L 145 443 L 145 441 L 144 441 L 144 440 L 143 440 L 143 439 L 141 439 L 141 438 L 139 438 L 139 437 L 133 437 L 133 438 L 131 438 L 131 439 L 130 439 Z M 135 814 L 135 897 L 136 897 L 136 899 L 137 899 L 137 901 L 138 901 L 138 902 L 139 902 L 139 903 L 140 903 L 140 904 L 141 904 L 141 905 L 142 905 L 142 906 L 143 906 L 143 907 L 145 907 L 145 908 L 147 908 L 147 909 L 149 909 L 149 910 L 151 910 L 151 911 L 154 911 L 154 912 L 157 912 L 157 913 L 160 913 L 160 914 L 163 914 L 163 915 L 167 915 L 167 916 L 170 916 L 170 917 L 175 917 L 175 918 L 179 918 L 179 919 L 184 919 L 184 920 L 190 920 L 190 921 L 196 921 L 196 922 L 202 922 L 202 923 L 209 923 L 209 924 L 217 924 L 217 925 L 226 925 L 226 926 L 236 926 L 236 927 L 248 927 L 248 928 L 267 928 L 267 929 L 288 929 L 288 930 L 341 930 L 341 929 L 368 929 L 368 928 L 385 928 L 385 927 L 398 927 L 398 926 L 409 926 L 409 925 L 419 925 L 419 924 L 427 924 L 427 923 L 435 923 L 435 922 L 442 922 L 442 921 L 447 921 L 447 920 L 453 920 L 453 919 L 458 919 L 458 918 L 463 918 L 463 917 L 468 917 L 468 916 L 471 916 L 471 915 L 475 915 L 475 914 L 479 914 L 479 913 L 482 913 L 482 912 L 485 912 L 485 911 L 488 911 L 488 910 L 490 910 L 490 909 L 492 909 L 492 908 L 494 908 L 494 907 L 496 907 L 496 906 L 498 906 L 498 905 L 499 905 L 499 904 L 500 904 L 500 903 L 501 903 L 501 902 L 502 902 L 502 901 L 503 901 L 503 899 L 504 899 L 504 896 L 505 896 L 505 812 L 504 812 L 504 807 L 503 807 L 503 804 L 502 804 L 502 802 L 501 802 L 501 800 L 500 800 L 500 798 L 499 798 L 499 796 L 498 796 L 498 795 L 497 795 L 497 793 L 496 793 L 496 792 L 495 792 L 495 791 L 494 791 L 494 790 L 493 790 L 493 789 L 492 789 L 492 788 L 491 788 L 491 787 L 490 787 L 490 786 L 489 786 L 489 785 L 488 785 L 488 784 L 487 784 L 487 783 L 485 783 L 485 782 L 483 782 L 483 781 L 482 781 L 482 780 L 480 780 L 480 779 L 478 779 L 478 778 L 475 778 L 475 777 L 465 777 L 465 778 L 462 778 L 462 779 L 459 779 L 459 780 L 455 780 L 455 781 L 451 781 L 451 782 L 447 782 L 447 783 L 441 783 L 441 784 L 436 784 L 436 785 L 429 785 L 429 786 L 423 786 L 423 787 L 415 787 L 415 788 L 407 788 L 407 789 L 397 789 L 397 790 L 387 790 L 387 791 L 374 791 L 374 792 L 358 792 L 358 793 L 279 793 L 279 792 L 263 792 L 263 791 L 251 791 L 251 790 L 240 790 L 240 789 L 230 789 L 230 788 L 222 788 L 222 787 L 215 787 L 215 786 L 209 786 L 209 785 L 202 785 L 202 784 L 197 784 L 197 783 L 192 783 L 192 782 L 188 782 L 188 781 L 184 781 L 184 780 L 180 780 L 180 779 L 177 779 L 177 778 L 174 778 L 174 777 L 171 777 L 171 776 L 168 776 L 168 777 L 165 777 L 165 778 L 163 778 L 163 779 L 160 779 L 160 780 L 159 780 L 159 781 L 157 781 L 157 782 L 155 782 L 155 783 L 154 783 L 154 784 L 153 784 L 153 785 L 151 785 L 151 786 L 150 786 L 150 787 L 149 787 L 149 788 L 148 788 L 148 789 L 147 789 L 147 790 L 146 790 L 146 791 L 145 791 L 145 793 L 144 793 L 144 794 L 143 794 L 143 795 L 142 795 L 142 797 L 141 797 L 141 799 L 140 799 L 140 801 L 139 801 L 139 803 L 138 803 L 138 806 L 137 806 L 137 809 L 136 809 L 136 814 L 135 814 Z M 154 365 L 154 369 L 155 369 L 155 372 L 156 372 L 156 374 L 157 374 L 157 375 L 158 375 L 158 376 L 160 376 L 160 377 L 168 377 L 168 376 L 170 376 L 170 375 L 171 375 L 171 374 L 172 374 L 172 373 L 173 373 L 173 371 L 174 371 L 174 364 L 173 364 L 173 361 L 172 361 L 172 360 L 171 360 L 171 359 L 170 359 L 170 358 L 167 358 L 167 357 L 161 357 L 161 358 L 158 358 L 158 359 L 157 359 L 157 360 L 156 360 L 156 362 L 155 362 L 155 365 L 154 365 Z M 173 444 L 173 446 L 174 446 L 174 448 L 175 448 L 175 450 L 176 450 L 176 452 L 177 452 L 177 453 L 178 453 L 178 455 L 179 455 L 179 457 L 180 457 L 180 459 L 181 459 L 181 461 L 182 461 L 182 463 L 183 463 L 183 465 L 184 465 L 184 467 L 185 467 L 185 468 L 186 468 L 186 470 L 187 470 L 187 472 L 188 472 L 188 474 L 189 474 L 189 476 L 190 476 L 190 477 L 191 477 L 191 479 L 192 479 L 192 481 L 193 481 L 193 483 L 194 483 L 194 485 L 195 485 L 195 487 L 196 487 L 196 489 L 197 489 L 197 491 L 198 491 L 198 492 L 199 492 L 199 494 L 200 494 L 200 496 L 201 496 L 201 498 L 202 498 L 202 500 L 203 500 L 203 502 L 204 502 L 204 503 L 205 503 L 205 505 L 206 505 L 206 507 L 207 507 L 207 509 L 208 509 L 208 511 L 209 511 L 209 513 L 210 513 L 210 514 L 211 514 L 211 516 L 212 516 L 212 518 L 213 518 L 213 520 L 214 520 L 214 522 L 215 522 L 215 524 L 216 524 L 216 525 L 217 525 L 217 527 L 218 527 L 218 529 L 219 529 L 219 531 L 220 531 L 220 533 L 221 533 L 221 535 L 222 535 L 222 537 L 223 537 L 223 538 L 224 538 L 224 540 L 225 540 L 225 542 L 226 542 L 226 544 L 227 544 L 227 546 L 228 546 L 228 548 L 229 548 L 229 550 L 230 550 L 230 551 L 231 551 L 231 553 L 232 553 L 232 555 L 233 555 L 233 557 L 234 557 L 234 559 L 235 559 L 235 561 L 236 561 L 236 562 L 237 562 L 237 564 L 238 564 L 238 566 L 239 566 L 239 568 L 240 568 L 240 570 L 241 570 L 241 572 L 242 572 L 242 574 L 243 574 L 243 575 L 244 575 L 244 577 L 245 577 L 245 579 L 246 579 L 246 580 L 248 580 L 248 579 L 249 579 L 249 578 L 250 578 L 250 577 L 251 577 L 251 576 L 252 576 L 252 575 L 253 575 L 253 574 L 254 574 L 254 573 L 255 573 L 255 572 L 256 572 L 256 571 L 258 571 L 258 570 L 259 570 L 259 569 L 260 569 L 260 568 L 262 568 L 262 567 L 263 567 L 263 566 L 265 566 L 265 565 L 266 565 L 266 564 L 268 564 L 268 563 L 270 563 L 270 562 L 273 562 L 273 561 L 275 561 L 275 560 L 278 560 L 278 559 L 281 559 L 281 558 L 285 558 L 285 557 L 289 557 L 289 556 L 293 556 L 293 555 L 297 555 L 297 554 L 301 554 L 301 553 L 304 553 L 304 552 L 305 552 L 305 551 L 306 551 L 306 548 L 305 548 L 305 546 L 304 546 L 304 544 L 303 544 L 303 542 L 302 542 L 302 540 L 301 540 L 301 538 L 300 538 L 300 536 L 299 536 L 299 535 L 298 535 L 298 533 L 297 533 L 297 531 L 296 531 L 296 529 L 295 529 L 295 527 L 294 527 L 294 525 L 293 525 L 293 524 L 292 524 L 292 522 L 291 522 L 291 520 L 290 520 L 290 518 L 289 518 L 289 516 L 288 516 L 288 514 L 287 514 L 287 513 L 286 513 L 286 511 L 285 511 L 285 509 L 284 509 L 284 507 L 283 507 L 283 505 L 282 505 L 282 503 L 281 503 L 281 502 L 280 502 L 280 500 L 279 500 L 279 498 L 278 498 L 278 496 L 277 496 L 277 494 L 276 494 L 276 492 L 275 492 L 275 490 L 274 490 L 274 489 L 273 489 L 273 487 L 272 487 L 272 485 L 271 485 L 271 483 L 270 483 L 270 481 L 269 481 L 269 479 L 268 479 L 268 477 L 267 477 L 267 476 L 266 476 L 266 474 L 265 474 L 265 472 L 264 472 L 264 470 L 263 470 L 263 468 L 262 468 L 262 466 L 261 466 L 261 465 L 260 465 L 260 463 L 259 463 L 259 461 L 258 461 L 258 459 L 257 459 L 257 457 L 256 457 L 256 455 L 255 455 L 255 453 L 254 453 L 254 452 L 253 452 L 253 450 L 252 450 L 252 448 L 251 448 L 251 446 L 250 446 L 250 444 L 249 444 L 249 442 L 248 442 L 248 441 L 247 441 L 247 439 L 246 439 L 246 437 L 245 437 L 245 435 L 244 435 L 244 433 L 243 433 L 243 432 L 242 432 L 242 430 L 241 430 L 241 428 L 240 428 L 240 426 L 239 426 L 239 424 L 238 424 L 238 423 L 237 423 L 237 422 L 236 422 L 236 421 L 235 421 L 235 422 L 234 422 L 234 423 L 232 423 L 232 424 L 231 424 L 231 425 L 230 425 L 230 426 L 229 426 L 229 427 L 227 427 L 227 428 L 226 428 L 226 429 L 225 429 L 225 430 L 223 430 L 223 431 L 222 431 L 222 432 L 220 432 L 220 433 L 218 433 L 218 434 L 216 434 L 216 435 L 215 435 L 215 436 L 213 436 L 213 437 L 211 437 L 211 438 L 209 438 L 209 439 L 206 439 L 206 440 L 203 440 L 203 441 L 200 441 L 200 442 L 196 442 L 196 443 L 190 443 L 190 444 L 173 444 Z M 174 336 L 174 341 L 175 341 L 175 344 L 176 344 L 176 346 L 177 346 L 177 347 L 179 347 L 179 348 L 181 348 L 181 349 L 187 349 L 187 348 L 190 348 L 190 347 L 191 347 L 191 346 L 192 346 L 192 344 L 193 344 L 193 342 L 194 342 L 194 336 L 193 336 L 193 334 L 192 334 L 192 332 L 191 332 L 191 331 L 190 331 L 190 330 L 188 330 L 188 329 L 180 329 L 180 330 L 178 330 L 178 331 L 177 331 L 177 332 L 176 332 L 176 334 L 175 334 L 175 336 L 174 336 Z M 180 387 L 180 395 L 181 395 L 181 397 L 182 397 L 182 398 L 183 398 L 183 399 L 184 399 L 184 400 L 187 400 L 187 401 L 192 401 L 192 400 L 195 400 L 195 399 L 196 399 L 196 398 L 197 398 L 197 397 L 198 397 L 198 396 L 199 396 L 199 393 L 200 393 L 200 388 L 199 388 L 199 386 L 198 386 L 198 384 L 197 384 L 197 383 L 196 383 L 196 382 L 194 382 L 194 381 L 192 381 L 192 380 L 187 380 L 187 381 L 185 381 L 185 382 L 183 382 L 183 383 L 182 383 L 182 384 L 181 384 L 181 387 L 180 387 Z M 187 733 L 187 759 L 188 759 L 188 760 L 189 760 L 189 761 L 190 761 L 190 762 L 193 762 L 193 763 L 197 763 L 197 764 L 202 764 L 202 765 L 206 765 L 206 766 L 212 766 L 212 767 L 218 767 L 218 768 L 225 768 L 225 769 L 232 769 L 232 770 L 241 770 L 241 771 L 251 771 L 251 772 L 262 772 L 262 773 L 277 773 L 277 774 L 307 774 L 307 775 L 331 775 L 331 774 L 357 774 L 357 773 L 374 773 L 374 772 L 387 772 L 387 771 L 397 771 L 397 770 L 406 770 L 406 769 L 414 769 L 414 768 L 421 768 L 421 767 L 427 767 L 427 766 L 433 766 L 433 765 L 439 765 L 439 764 L 444 764 L 444 763 L 448 763 L 448 762 L 451 762 L 451 761 L 453 761 L 453 760 L 454 760 L 454 759 L 455 759 L 455 732 L 454 732 L 454 733 L 447 733 L 447 734 L 440 734 L 440 735 L 433 735 L 433 736 L 425 736 L 425 737 L 418 737 L 418 738 L 409 738 L 409 739 L 399 739 L 399 740 L 390 740 L 390 741 L 379 741 L 379 742 L 363 742 L 363 743 L 338 743 L 338 744 L 298 744 L 298 743 L 272 743 L 272 742 L 256 742 L 256 741 L 245 741 L 245 740 L 235 740 L 235 739 L 226 739 L 226 738 L 218 738 L 218 737 L 211 737 L 211 736 L 203 736 L 203 735 L 197 735 L 197 734 L 189 734 L 189 733 L 187 733 Z M 199 360 L 199 363 L 200 363 L 200 367 L 201 367 L 201 368 L 202 368 L 202 369 L 203 369 L 203 370 L 204 370 L 204 371 L 207 371 L 207 372 L 212 372 L 212 371 L 214 371 L 214 370 L 216 370 L 216 369 L 217 369 L 217 367 L 218 367 L 218 365 L 219 365 L 219 358 L 218 358 L 218 356 L 217 356 L 217 355 L 216 355 L 216 354 L 215 354 L 215 353 L 213 353 L 213 352 L 206 352 L 206 353 L 204 353 L 204 354 L 202 354 L 202 356 L 201 356 L 201 357 L 200 357 L 200 360 L 199 360 Z M 210 636 L 210 710 L 211 710 L 211 712 L 212 712 L 212 713 L 213 713 L 213 714 L 217 714 L 217 715 L 229 715 L 229 714 L 230 714 L 230 712 L 231 712 L 231 648 L 230 648 L 230 646 L 229 646 L 229 645 L 228 645 L 228 644 L 227 644 L 227 643 L 226 643 L 226 642 L 225 642 L 225 641 L 224 641 L 224 640 L 223 640 L 223 639 L 222 639 L 222 638 L 221 638 L 221 637 L 220 637 L 220 636 L 219 636 L 219 635 L 218 635 L 218 634 L 216 634 L 216 633 L 213 633 L 213 634 L 212 634 L 212 635 L 211 635 L 211 636 L 210 636 Z M 225 299 L 225 301 L 227 301 L 227 302 L 228 302 L 228 303 L 229 303 L 229 304 L 230 304 L 230 305 L 231 305 L 231 306 L 232 306 L 232 307 L 233 307 L 233 308 L 234 308 L 234 309 L 235 309 L 235 310 L 236 310 L 236 311 L 237 311 L 237 313 L 238 313 L 238 314 L 239 314 L 239 315 L 240 315 L 240 317 L 241 317 L 241 318 L 242 318 L 242 320 L 243 320 L 243 322 L 244 322 L 244 324 L 245 324 L 245 326 L 246 326 L 246 328 L 247 328 L 247 330 L 248 330 L 248 332 L 249 332 L 249 335 L 250 335 L 250 338 L 251 338 L 251 341 L 252 341 L 252 345 L 253 345 L 253 350 L 254 350 L 254 359 L 255 359 L 255 366 L 254 366 L 254 376 L 253 376 L 253 381 L 252 381 L 252 384 L 251 384 L 251 388 L 250 388 L 250 390 L 251 390 L 251 391 L 255 391 L 255 390 L 258 390 L 258 389 L 261 389 L 261 388 L 263 388 L 263 387 L 266 387 L 266 386 L 269 386 L 269 385 L 271 385 L 271 384 L 274 384 L 274 383 L 277 383 L 277 382 L 279 382 L 279 381 L 282 381 L 282 380 L 285 380 L 285 379 L 287 379 L 287 378 L 290 378 L 290 377 L 292 377 L 292 376 L 295 376 L 295 375 L 298 375 L 298 374 L 300 374 L 300 373 L 303 373 L 303 372 L 306 372 L 306 371 L 308 371 L 308 370 L 311 370 L 311 369 L 314 369 L 314 368 L 316 368 L 316 367 L 319 367 L 319 366 L 322 366 L 322 365 L 324 365 L 324 364 L 327 364 L 327 363 L 329 363 L 329 362 L 332 362 L 332 361 L 334 361 L 334 360 L 337 360 L 337 359 L 340 359 L 340 358 L 342 358 L 342 357 L 345 357 L 345 356 L 348 356 L 348 355 L 350 355 L 350 354 L 353 354 L 353 353 L 355 353 L 355 352 L 358 352 L 358 351 L 361 351 L 361 350 L 363 350 L 363 349 L 366 349 L 366 348 L 369 348 L 369 347 L 371 347 L 371 346 L 374 346 L 374 345 L 377 345 L 377 344 L 379 344 L 379 343 L 382 343 L 382 342 L 385 342 L 385 341 L 387 341 L 387 340 L 390 340 L 390 339 L 392 339 L 392 338 L 395 338 L 395 337 L 398 337 L 398 336 L 400 336 L 400 335 L 403 335 L 403 334 L 406 334 L 406 333 L 408 333 L 408 332 L 411 332 L 411 331 L 414 331 L 414 330 L 416 330 L 416 329 L 419 329 L 419 328 L 421 328 L 421 327 L 424 327 L 424 326 L 426 326 L 426 325 L 429 325 L 429 324 L 431 324 L 431 323 L 433 323 L 433 322 L 435 322 L 435 321 L 436 321 L 436 320 L 438 320 L 438 319 L 439 319 L 439 318 L 440 318 L 440 317 L 441 317 L 441 315 L 442 315 L 442 306 L 441 306 L 441 300 L 440 300 L 440 293 L 439 293 L 439 285 L 438 285 L 438 277 L 437 277 L 437 270 L 436 270 L 436 262 L 435 262 L 435 255 L 434 255 L 434 248 L 433 248 L 433 242 L 432 242 L 432 236 L 431 236 L 431 233 L 430 233 L 430 232 L 429 232 L 429 231 L 428 231 L 428 230 L 426 230 L 426 229 L 417 229 L 417 230 L 414 230 L 414 231 L 411 231 L 411 232 L 408 232 L 408 233 L 405 233 L 405 234 L 402 234 L 402 235 L 400 235 L 400 236 L 397 236 L 397 237 L 394 237 L 394 238 L 391 238 L 391 239 L 389 239 L 389 240 L 386 240 L 386 241 L 383 241 L 383 242 L 380 242 L 380 243 L 377 243 L 377 244 L 375 244 L 375 245 L 372 245 L 372 246 L 369 246 L 369 247 L 366 247 L 366 248 L 364 248 L 364 249 L 361 249 L 361 250 L 358 250 L 358 251 L 355 251 L 355 252 L 353 252 L 353 253 L 350 253 L 350 254 L 347 254 L 347 255 L 345 255 L 345 256 L 342 256 L 342 257 L 339 257 L 339 258 L 336 258 L 336 259 L 334 259 L 334 260 L 331 260 L 331 261 L 328 261 L 328 262 L 325 262 L 325 263 L 322 263 L 322 264 L 320 264 L 320 265 L 317 265 L 317 266 L 314 266 L 314 267 L 311 267 L 311 268 L 309 268 L 309 269 L 306 269 L 306 270 L 303 270 L 303 271 L 300 271 L 300 272 L 298 272 L 298 273 L 295 273 L 295 274 L 292 274 L 292 275 L 290 275 L 290 276 L 287 276 L 287 277 L 284 277 L 284 278 L 281 278 L 281 279 L 279 279 L 279 280 L 276 280 L 276 281 L 273 281 L 273 282 L 270 282 L 270 283 L 268 283 L 268 284 L 265 284 L 265 285 L 262 285 L 262 286 L 259 286 L 259 287 L 257 287 L 257 288 L 254 288 L 254 289 L 251 289 L 251 290 L 248 290 L 248 291 L 246 291 L 246 292 L 243 292 L 243 293 L 240 293 L 240 294 L 237 294 L 237 295 L 234 295 L 234 296 L 232 296 L 232 297 L 229 297 L 229 298 L 226 298 L 226 299 L 225 299 Z M 251 629 L 251 716 L 252 716 L 252 718 L 253 718 L 253 719 L 255 719 L 255 720 L 264 720 L 264 721 L 278 721 L 278 722 L 300 722 L 300 723 L 334 723 L 334 722 L 353 722 L 353 721 L 365 721 L 365 720 L 367 720 L 367 719 L 368 719 L 368 718 L 369 718 L 369 630 L 368 630 L 368 624 L 367 624 L 367 620 L 366 620 L 366 616 L 365 616 L 365 614 L 364 614 L 364 611 L 363 611 L 363 609 L 362 609 L 362 607 L 361 607 L 361 605 L 360 605 L 360 603 L 359 603 L 359 602 L 358 602 L 358 600 L 357 600 L 357 599 L 356 599 L 356 598 L 355 598 L 355 596 L 354 596 L 354 595 L 353 595 L 353 594 L 352 594 L 352 593 L 351 593 L 351 592 L 350 592 L 350 591 L 349 591 L 349 590 L 348 590 L 348 589 L 347 589 L 347 588 L 345 588 L 345 587 L 344 587 L 344 586 L 343 586 L 343 585 L 341 585 L 341 584 L 339 584 L 339 583 L 338 583 L 338 582 L 336 582 L 336 581 L 334 581 L 334 580 L 331 580 L 331 579 L 329 579 L 329 578 L 325 578 L 325 577 L 321 577 L 321 576 L 301 576 L 301 577 L 296 577 L 296 578 L 293 578 L 293 579 L 290 579 L 290 580 L 287 580 L 287 581 L 285 581 L 285 582 L 283 582 L 283 583 L 281 583 L 281 584 L 279 584 L 279 585 L 278 585 L 278 586 L 276 586 L 276 587 L 275 587 L 275 588 L 274 588 L 274 589 L 272 589 L 272 590 L 271 590 L 271 591 L 270 591 L 270 592 L 269 592 L 269 593 L 268 593 L 268 594 L 267 594 L 267 595 L 266 595 L 266 596 L 265 596 L 265 598 L 264 598 L 264 599 L 263 599 L 263 600 L 262 600 L 262 601 L 261 601 L 261 603 L 260 603 L 260 605 L 259 605 L 259 606 L 258 606 L 258 608 L 257 608 L 257 610 L 256 610 L 256 613 L 255 613 L 255 615 L 254 615 L 254 618 L 253 618 L 253 622 L 252 622 L 252 629 L 251 629 Z M 253 417 L 253 418 L 254 418 L 254 420 L 255 420 L 255 422 L 256 422 L 256 424 L 257 424 L 257 426 L 258 426 L 258 428 L 259 428 L 259 430 L 260 430 L 260 432 L 261 432 L 261 434 L 262 434 L 262 436 L 263 436 L 263 438 L 264 438 L 264 439 L 265 439 L 265 441 L 266 441 L 266 443 L 267 443 L 267 445 L 268 445 L 268 447 L 269 447 L 269 449 L 270 449 L 270 451 L 271 451 L 271 453 L 272 453 L 272 455 L 273 455 L 273 457 L 274 457 L 274 458 L 275 458 L 275 460 L 276 460 L 276 462 L 277 462 L 277 464 L 278 464 L 278 466 L 279 466 L 279 468 L 280 468 L 280 470 L 281 470 L 281 472 L 282 472 L 282 474 L 283 474 L 283 476 L 284 476 L 284 477 L 285 477 L 285 479 L 286 479 L 286 481 L 287 481 L 287 483 L 288 483 L 288 485 L 289 485 L 289 487 L 290 487 L 290 489 L 291 489 L 291 491 L 292 491 L 292 493 L 293 493 L 293 495 L 294 495 L 294 496 L 295 496 L 295 498 L 296 498 L 296 500 L 297 500 L 297 502 L 298 502 L 298 504 L 299 504 L 299 506 L 300 506 L 300 508 L 301 508 L 301 510 L 302 510 L 302 512 L 303 512 L 303 513 L 304 513 L 304 515 L 305 515 L 305 517 L 306 517 L 306 519 L 307 519 L 307 521 L 308 521 L 308 523 L 309 523 L 309 525 L 310 525 L 310 527 L 311 527 L 311 528 L 312 528 L 312 530 L 313 530 L 313 532 L 314 532 L 314 534 L 315 534 L 315 536 L 316 536 L 316 538 L 317 538 L 317 540 L 318 540 L 318 542 L 319 542 L 319 544 L 320 544 L 320 546 L 321 546 L 321 547 L 322 547 L 322 549 L 324 549 L 324 550 L 333 550 L 333 549 L 341 549 L 341 548 L 349 548 L 349 547 L 351 547 L 351 546 L 352 546 L 352 544 L 353 544 L 353 543 L 352 543 L 352 541 L 351 541 L 351 539 L 350 539 L 350 537 L 349 537 L 349 535 L 348 535 L 348 533 L 347 533 L 347 531 L 346 531 L 346 529 L 345 529 L 345 527 L 344 527 L 344 525 L 343 525 L 343 523 L 342 523 L 342 522 L 341 522 L 341 520 L 340 520 L 340 518 L 339 518 L 339 516 L 338 516 L 338 514 L 337 514 L 337 512 L 336 512 L 336 510 L 335 510 L 335 508 L 334 508 L 334 506 L 333 506 L 333 504 L 332 504 L 332 502 L 331 502 L 331 501 L 330 501 L 330 499 L 329 499 L 329 497 L 328 497 L 328 495 L 327 495 L 327 493 L 326 493 L 326 491 L 325 491 L 325 489 L 324 489 L 324 487 L 323 487 L 323 485 L 322 485 L 322 483 L 321 483 L 321 482 L 320 482 L 320 480 L 319 480 L 319 478 L 318 478 L 318 476 L 317 476 L 317 474 L 316 474 L 316 472 L 315 472 L 315 470 L 314 470 L 314 468 L 313 468 L 313 466 L 312 466 L 312 465 L 311 465 L 311 463 L 310 463 L 310 461 L 309 461 L 309 459 L 308 459 L 308 457 L 307 457 L 307 455 L 306 455 L 306 453 L 305 453 L 305 451 L 304 451 L 304 449 L 303 449 L 303 448 L 302 448 L 302 446 L 301 446 L 301 444 L 300 444 L 300 442 L 299 442 L 299 440 L 298 440 L 298 438 L 297 438 L 297 436 L 296 436 L 296 434 L 295 434 L 295 432 L 294 432 L 294 431 L 293 431 L 293 429 L 292 429 L 292 427 L 291 427 L 291 425 L 290 425 L 290 423 L 289 423 L 289 421 L 288 421 L 288 419 L 287 419 L 287 418 L 286 418 L 286 416 L 285 416 L 285 414 L 284 414 L 284 412 L 283 412 L 283 410 L 282 410 L 282 409 L 281 409 L 281 408 L 280 408 L 280 407 L 276 407 L 276 408 L 273 408 L 273 409 L 270 409 L 270 410 L 268 410 L 268 411 L 265 411 L 265 412 L 262 412 L 262 413 L 259 413 L 259 414 L 257 414 L 257 415 L 254 415 L 254 417 L 253 417 Z M 296 622 L 296 632 L 297 632 L 297 635 L 298 635 L 298 636 L 299 636 L 299 638 L 300 638 L 300 639 L 301 639 L 301 640 L 302 640 L 302 641 L 303 641 L 303 642 L 305 642 L 305 643 L 308 643 L 308 644 L 315 644 L 315 643 L 318 643 L 318 642 L 320 642 L 320 641 L 321 641 L 321 640 L 322 640 L 322 639 L 323 639 L 323 638 L 324 638 L 324 637 L 325 637 L 325 635 L 326 635 L 326 632 L 327 632 L 327 623 L 326 623 L 326 620 L 325 620 L 325 618 L 324 618 L 324 617 L 323 617 L 323 616 L 322 616 L 322 615 L 321 615 L 321 614 L 319 614 L 319 613 L 318 613 L 318 612 L 314 612 L 314 611 L 308 611 L 308 612 L 305 612 L 305 613 L 303 613 L 303 614 L 302 614 L 302 615 L 301 615 L 301 616 L 300 616 L 300 617 L 299 617 L 299 618 L 298 618 L 298 620 L 297 620 L 297 622 L 296 622 Z M 363 573 L 363 574 L 364 574 L 364 575 L 365 575 L 365 576 L 366 576 L 366 577 L 367 577 L 367 578 L 368 578 L 368 579 L 369 579 L 369 580 L 370 580 L 370 581 L 371 581 L 371 583 L 372 583 L 372 584 L 373 584 L 373 585 L 374 585 L 374 587 L 375 587 L 375 588 L 376 588 L 376 589 L 377 589 L 377 591 L 378 591 L 378 593 L 379 593 L 379 595 L 380 595 L 380 597 L 381 597 L 381 599 L 382 599 L 382 601 L 383 601 L 383 603 L 384 603 L 384 606 L 385 606 L 385 609 L 386 609 L 386 613 L 387 613 L 387 617 L 388 617 L 388 625 L 389 625 L 389 715 L 390 715 L 390 716 L 391 716 L 391 717 L 401 717 L 401 716 L 410 716 L 410 715 L 419 715 L 419 714 L 427 714 L 427 713 L 429 713 L 429 712 L 430 712 L 430 711 L 431 711 L 431 595 L 430 595 L 430 593 L 429 593 L 429 592 L 428 592 L 428 591 L 427 591 L 427 590 L 426 590 L 426 589 L 424 589 L 424 588 L 422 588 L 422 587 L 420 587 L 420 586 L 419 586 L 419 585 L 416 585 L 416 584 L 414 584 L 414 583 L 412 583 L 412 582 L 410 582 L 410 581 L 407 581 L 407 580 L 405 580 L 405 579 L 402 579 L 402 578 L 400 578 L 400 577 L 397 577 L 397 576 L 394 576 L 394 575 L 391 575 L 391 574 L 386 574 L 386 573 L 379 573 L 379 572 L 365 572 L 365 573 L 363 573 Z M 401 360 L 401 361 L 402 361 L 402 360 L 401 360 Z M 403 362 L 403 363 L 404 363 L 404 362 L 403 362 Z M 406 194 L 406 195 L 409 195 L 409 196 L 416 196 L 416 197 L 424 197 L 424 198 L 430 198 L 430 199 L 433 199 L 433 200 L 435 200 L 435 201 L 436 201 L 436 202 L 437 202 L 437 204 L 438 204 L 438 208 L 439 208 L 439 214 L 440 214 L 440 222 L 441 222 L 441 229 L 442 229 L 442 237 L 443 237 L 443 245 L 444 245 L 444 253 L 445 253 L 445 261 L 446 261 L 446 269 L 447 269 L 447 277 L 448 277 L 448 285 L 449 285 L 449 293 L 450 293 L 450 300 L 451 300 L 451 309 L 452 309 L 452 317 L 451 317 L 451 324 L 450 324 L 450 330 L 449 330 L 449 335 L 448 335 L 448 338 L 447 338 L 447 341 L 446 341 L 446 345 L 447 345 L 447 346 L 448 346 L 448 347 L 450 347 L 450 348 L 455 348 L 455 347 L 460 347 L 460 346 L 464 346 L 464 345 L 468 345 L 468 344 L 472 344 L 472 343 L 476 343 L 476 342 L 480 342 L 480 341 L 483 341 L 483 340 L 487 340 L 487 339 L 491 339 L 491 338 L 494 338 L 494 337 L 498 337 L 498 336 L 502 336 L 502 335 L 505 335 L 505 334 L 508 334 L 508 333 L 511 333 L 511 332 L 514 332 L 514 331 L 516 331 L 516 330 L 518 330 L 518 329 L 520 329 L 520 328 L 521 328 L 521 327 L 523 327 L 523 326 L 524 326 L 524 325 L 525 325 L 525 324 L 526 324 L 526 323 L 527 323 L 527 322 L 528 322 L 528 321 L 529 321 L 529 320 L 530 320 L 530 319 L 531 319 L 531 318 L 532 318 L 532 316 L 533 316 L 533 315 L 534 315 L 534 313 L 535 313 L 535 311 L 536 311 L 536 309 L 537 309 L 537 306 L 538 306 L 538 302 L 539 302 L 539 289 L 538 289 L 538 281 L 537 281 L 537 273 L 536 273 L 536 264 L 535 264 L 535 256 L 534 256 L 534 248 L 533 248 L 533 240 L 532 240 L 532 232 L 531 232 L 531 224 L 530 224 L 530 216 L 529 216 L 529 210 L 528 210 L 528 207 L 527 207 L 527 205 L 526 205 L 526 203 L 525 203 L 525 201 L 524 201 L 524 199 L 523 199 L 523 198 L 522 198 L 522 197 L 521 197 L 521 196 L 520 196 L 520 195 L 519 195 L 519 194 L 518 194 L 518 193 L 517 193 L 517 192 L 516 192 L 516 191 L 515 191 L 515 190 L 513 190 L 513 189 L 512 189 L 512 188 L 510 188 L 510 187 L 507 187 L 507 186 L 505 186 L 505 185 L 501 185 L 501 184 L 494 184 L 494 183 L 486 183 L 486 184 L 475 184 L 475 185 L 466 185 L 466 186 L 459 186 L 459 187 L 451 187 L 451 188 L 443 188 L 443 189 L 436 189 L 436 190 L 429 190 L 429 191 L 422 191 L 422 192 L 415 192 L 415 193 L 410 193 L 410 194 L 406 194 Z M 484 209 L 484 217 L 485 217 L 485 219 L 486 219 L 486 220 L 487 220 L 487 221 L 488 221 L 488 222 L 490 222 L 490 223 L 496 223 L 496 222 L 498 222 L 498 221 L 499 221 L 499 220 L 500 220 L 500 218 L 501 218 L 501 216 L 502 216 L 502 212 L 501 212 L 501 209 L 500 209 L 500 207 L 499 207 L 499 206 L 498 206 L 498 205 L 496 205 L 496 204 L 488 204 L 488 205 L 487 205 L 487 206 L 486 206 L 486 207 L 485 207 L 485 209 L 484 209 Z M 490 270 L 490 273 L 491 273 L 491 276 L 492 276 L 492 277 L 493 277 L 493 278 L 494 278 L 494 279 L 495 279 L 495 280 L 498 280 L 498 281 L 502 281 L 502 280 L 504 280 L 504 279 L 506 279 L 506 278 L 507 278 L 507 276 L 508 276 L 508 274 L 509 274 L 509 269 L 508 269 L 508 266 L 507 266 L 507 265 L 506 265 L 506 264 L 505 264 L 505 263 L 503 263 L 503 262 L 496 262 L 496 263 L 494 263 L 494 264 L 493 264 L 493 265 L 492 265 L 492 267 L 491 267 L 491 270 L 490 270 Z M 493 311 L 493 318 L 494 318 L 494 320 L 495 320 L 495 321 L 496 321 L 496 322 L 497 322 L 497 323 L 500 323 L 500 324 L 505 324 L 505 323 L 507 323 L 507 322 L 508 322 L 508 321 L 509 321 L 509 319 L 510 319 L 510 316 L 511 316 L 511 313 L 510 313 L 510 310 L 509 310 L 509 308 L 508 308 L 508 307 L 506 307 L 506 306 L 504 306 L 504 305 L 499 305 L 499 306 L 497 306 L 497 307 L 496 307 L 496 308 L 495 308 L 495 309 L 494 309 L 494 311 L 493 311 Z M 535 353 L 535 355 L 536 355 L 536 357 L 537 357 L 537 358 L 538 358 L 538 359 L 539 359 L 539 360 L 540 360 L 540 361 L 541 361 L 541 362 L 542 362 L 542 363 L 543 363 L 543 364 L 544 364 L 544 365 L 545 365 L 545 366 L 546 366 L 546 367 L 547 367 L 547 368 L 548 368 L 548 369 L 549 369 L 549 370 L 550 370 L 550 371 L 551 371 L 551 372 L 552 372 L 552 373 L 553 373 L 553 374 L 554 374 L 554 375 L 555 375 L 555 376 L 556 376 L 556 377 L 557 377 L 557 378 L 558 378 L 558 379 L 559 379 L 559 380 L 560 380 L 560 381 L 561 381 L 561 382 L 562 382 L 562 383 L 563 383 L 563 384 L 564 384 L 564 385 L 565 385 L 565 386 L 566 386 L 566 387 L 567 387 L 567 388 L 568 388 L 568 389 L 569 389 L 569 390 L 570 390 L 570 391 L 571 391 L 571 392 L 572 392 L 572 393 L 574 393 L 574 394 L 576 394 L 576 395 L 577 395 L 577 396 L 580 396 L 580 397 L 583 397 L 583 398 L 585 398 L 585 399 L 588 399 L 588 400 L 591 400 L 591 401 L 594 401 L 594 402 L 596 402 L 596 403 L 599 403 L 599 404 L 602 404 L 602 405 L 604 405 L 604 406 L 607 406 L 607 407 L 610 407 L 610 408 L 613 408 L 613 409 L 616 409 L 616 410 L 619 410 L 619 409 L 621 409 L 621 408 L 622 408 L 622 407 L 623 407 L 623 406 L 624 406 L 624 405 L 625 405 L 625 404 L 626 404 L 626 403 L 627 403 L 627 401 L 628 401 L 628 400 L 629 400 L 629 399 L 630 399 L 630 397 L 631 397 L 631 396 L 632 396 L 632 394 L 633 394 L 633 393 L 634 393 L 634 391 L 635 391 L 635 390 L 636 390 L 636 388 L 637 388 L 637 387 L 638 387 L 638 385 L 639 385 L 639 384 L 640 384 L 640 382 L 641 382 L 641 381 L 642 381 L 642 378 L 641 378 L 641 374 L 640 374 L 640 370 L 639 370 L 639 366 L 638 366 L 638 358 L 637 358 L 637 342 L 634 342 L 634 343 L 633 343 L 633 344 L 630 344 L 630 345 L 628 345 L 628 346 L 626 346 L 626 347 L 623 347 L 623 348 L 620 348 L 620 349 L 613 349 L 613 348 L 609 348 L 609 347 L 607 347 L 607 346 L 606 346 L 606 345 L 604 345 L 604 344 L 603 344 L 603 343 L 602 343 L 602 342 L 600 342 L 600 341 L 599 341 L 599 340 L 598 340 L 598 339 L 597 339 L 597 338 L 596 338 L 596 337 L 595 337 L 595 336 L 594 336 L 594 335 L 592 335 L 592 334 L 591 334 L 591 333 L 590 333 L 590 332 L 589 332 L 589 331 L 588 331 L 588 330 L 587 330 L 587 329 L 586 329 L 586 328 L 585 328 L 585 327 L 584 327 L 584 326 L 583 326 L 583 325 L 581 325 L 581 324 L 580 324 L 580 323 L 579 323 L 579 322 L 578 322 L 578 321 L 577 321 L 577 320 L 576 320 L 576 319 L 575 319 L 575 318 L 574 318 L 574 317 L 573 317 L 573 316 L 571 316 L 571 315 L 564 315 L 564 316 L 562 316 L 562 317 L 561 317 L 561 318 L 560 318 L 560 319 L 559 319 L 559 320 L 558 320 L 558 321 L 557 321 L 557 323 L 556 323 L 556 325 L 555 325 L 555 327 L 554 327 L 554 330 L 553 330 L 553 332 L 552 332 L 552 334 L 551 334 L 551 336 L 550 336 L 550 338 L 549 338 L 549 339 L 548 339 L 548 340 L 547 340 L 547 342 L 546 342 L 546 343 L 545 343 L 545 344 L 544 344 L 544 345 L 543 345 L 543 346 L 542 346 L 542 347 L 541 347 L 541 348 L 539 348 L 539 349 L 538 349 L 538 350 L 537 350 L 537 351 L 536 351 L 536 353 L 535 353 Z M 544 187 L 544 188 L 545 188 L 545 189 L 546 189 L 546 190 L 547 190 L 547 191 L 548 191 L 548 192 L 549 192 L 549 194 L 550 194 L 550 195 L 551 195 L 551 197 L 552 197 L 552 199 L 553 199 L 553 203 L 554 203 L 554 206 L 555 206 L 555 213 L 556 213 L 556 222 L 557 222 L 557 233 L 558 233 L 558 243 L 559 243 L 559 252 L 560 252 L 560 262 L 561 262 L 561 271 L 562 271 L 562 275 L 563 275 L 563 276 L 564 276 L 564 277 L 565 277 L 565 278 L 566 278 L 566 279 L 567 279 L 567 280 L 568 280 L 568 281 L 569 281 L 569 282 L 570 282 L 570 283 L 571 283 L 571 284 L 573 284 L 573 285 L 574 285 L 574 286 L 575 286 L 575 287 L 576 287 L 576 288 L 577 288 L 577 289 L 578 289 L 578 290 L 579 290 L 579 291 L 580 291 L 580 292 L 581 292 L 581 293 L 582 293 L 582 294 L 583 294 L 583 295 L 584 295 L 584 296 L 586 296 L 586 297 L 587 297 L 587 298 L 588 298 L 588 299 L 589 299 L 589 300 L 590 300 L 590 301 L 591 301 L 591 302 L 592 302 L 592 303 L 593 303 L 593 304 L 595 304 L 595 305 L 596 305 L 596 306 L 597 306 L 597 307 L 598 307 L 598 308 L 599 308 L 599 309 L 600 309 L 600 310 L 601 310 L 601 311 L 602 311 L 602 312 L 603 312 L 603 313 L 605 313 L 605 314 L 606 314 L 606 315 L 607 315 L 607 316 L 608 316 L 608 317 L 609 317 L 609 318 L 611 318 L 611 319 L 612 319 L 612 320 L 615 320 L 615 321 L 624 321 L 624 320 L 627 320 L 627 319 L 629 319 L 629 318 L 631 318 L 631 317 L 633 317 L 633 316 L 635 316 L 635 315 L 637 315 L 637 314 L 639 314 L 639 313 L 641 313 L 641 312 L 643 312 L 643 311 L 644 311 L 644 308 L 645 308 L 645 305 L 646 305 L 646 303 L 647 303 L 647 301 L 648 301 L 648 299 L 649 299 L 649 297 L 650 297 L 650 295 L 647 295 L 647 296 L 646 296 L 646 295 L 644 295 L 644 294 L 643 294 L 643 293 L 642 293 L 642 292 L 641 292 L 641 291 L 640 291 L 640 290 L 639 290 L 639 289 L 638 289 L 638 288 L 637 288 L 637 287 L 636 287 L 636 286 L 635 286 L 635 285 L 634 285 L 634 284 L 633 284 L 633 283 L 631 283 L 631 282 L 630 282 L 630 281 L 629 281 L 629 280 L 628 280 L 628 279 L 627 279 L 627 278 L 626 278 L 626 277 L 625 277 L 625 276 L 624 276 L 624 275 L 623 275 L 623 274 L 622 274 L 622 273 L 621 273 L 621 272 L 620 272 L 620 271 L 618 271 L 618 270 L 617 270 L 617 269 L 616 269 L 616 268 L 615 268 L 615 267 L 614 267 L 614 266 L 613 266 L 613 265 L 612 265 L 612 264 L 611 264 L 611 262 L 610 262 L 610 261 L 609 261 L 609 260 L 608 260 L 608 258 L 607 258 L 607 256 L 606 256 L 606 254 L 605 254 L 605 252 L 604 252 L 604 250 L 603 250 L 603 248 L 602 248 L 602 246 L 601 246 L 601 244 L 600 244 L 600 242 L 599 242 L 599 240 L 598 240 L 598 238 L 597 238 L 597 236 L 596 236 L 596 234 L 595 234 L 595 232 L 594 232 L 594 230 L 593 230 L 593 229 L 592 229 L 592 227 L 591 227 L 591 225 L 590 225 L 590 223 L 589 223 L 589 221 L 588 221 L 588 219 L 587 219 L 587 217 L 586 217 L 586 215 L 585 215 L 585 213 L 584 213 L 584 211 L 583 211 L 583 209 L 582 209 L 582 207 L 581 207 L 581 205 L 580 205 L 580 203 L 579 203 L 579 201 L 578 201 L 578 199 L 577 199 L 577 197 L 576 197 L 576 196 L 575 196 L 575 194 L 574 194 L 574 193 L 573 193 L 573 192 L 572 192 L 572 191 L 571 191 L 571 190 L 570 190 L 570 189 L 569 189 L 569 188 L 568 188 L 568 187 L 565 187 L 565 186 L 562 186 L 562 185 L 555 185 L 555 186 L 549 186 L 549 187 L 544 187 Z M 565 478 L 565 486 L 566 486 L 566 503 L 567 503 L 567 510 L 568 510 L 568 515 L 569 515 L 569 520 L 570 520 L 570 524 L 571 524 L 571 528 L 572 528 L 572 532 L 573 532 L 573 535 L 574 535 L 574 538 L 575 538 L 575 541 L 576 541 L 576 543 L 577 543 L 577 546 L 578 546 L 578 548 L 579 548 L 579 550 L 580 550 L 580 553 L 581 553 L 581 555 L 582 555 L 582 556 L 583 556 L 583 559 L 584 559 L 584 560 L 585 560 L 585 563 L 586 563 L 586 564 L 587 564 L 587 566 L 588 566 L 588 568 L 589 568 L 589 570 L 590 570 L 590 571 L 591 571 L 591 573 L 592 573 L 592 574 L 593 574 L 593 576 L 594 576 L 594 577 L 595 577 L 595 579 L 596 579 L 596 580 L 597 580 L 597 582 L 598 582 L 598 583 L 599 583 L 599 584 L 600 584 L 600 585 L 601 585 L 601 587 L 602 587 L 602 588 L 603 588 L 603 590 L 604 590 L 604 591 L 605 591 L 605 592 L 606 592 L 606 593 L 607 593 L 607 594 L 608 594 L 608 595 L 609 595 L 609 596 L 610 596 L 610 597 L 611 597 L 611 599 L 612 599 L 612 600 L 613 600 L 613 601 L 614 601 L 614 602 L 615 602 L 615 603 L 616 603 L 616 604 L 618 604 L 618 605 L 619 605 L 619 606 L 620 606 L 620 607 L 621 607 L 621 608 L 622 608 L 622 609 L 623 609 L 623 610 L 624 610 L 624 611 L 625 611 L 625 612 L 626 612 L 626 613 L 627 613 L 627 614 L 629 614 L 629 615 L 630 615 L 630 616 L 631 616 L 631 617 L 632 617 L 632 618 L 634 618 L 634 619 L 635 619 L 635 620 L 636 620 L 636 621 L 638 621 L 638 622 L 639 622 L 639 623 L 641 623 L 641 624 L 642 624 L 642 625 L 644 625 L 644 626 L 646 626 L 646 627 L 648 627 L 648 628 L 650 628 L 650 629 L 652 629 L 652 630 L 654 630 L 654 631 L 656 631 L 656 632 L 658 632 L 658 633 L 660 633 L 660 634 L 662 634 L 662 635 L 665 635 L 665 636 L 667 636 L 667 637 L 670 637 L 670 638 L 672 638 L 672 639 L 675 639 L 675 640 L 678 640 L 678 641 L 681 641 L 681 642 L 685 642 L 685 643 L 687 643 L 687 644 L 691 644 L 691 645 L 695 645 L 695 646 L 700 646 L 700 647 L 704 647 L 704 648 L 711 648 L 711 649 L 719 649 L 719 650 L 739 650 L 739 651 L 740 651 L 740 650 L 758 650 L 758 649 L 770 649 L 770 648 L 775 648 L 775 647 L 783 647 L 783 646 L 786 646 L 786 645 L 791 645 L 791 644 L 795 644 L 795 643 L 799 643 L 799 642 L 803 642 L 803 641 L 806 641 L 806 640 L 811 640 L 811 639 L 814 639 L 814 638 L 818 638 L 818 637 L 822 637 L 822 636 L 825 636 L 825 635 L 829 635 L 829 634 L 832 634 L 832 633 L 836 633 L 836 632 L 839 632 L 839 631 L 841 631 L 841 630 L 844 630 L 844 629 L 847 629 L 847 628 L 850 628 L 850 627 L 852 627 L 852 626 L 855 626 L 855 625 L 857 625 L 857 624 L 859 624 L 859 623 L 862 623 L 862 622 L 864 622 L 864 621 L 865 621 L 865 620 L 868 620 L 868 619 L 870 619 L 870 618 L 872 618 L 872 617 L 874 617 L 874 616 L 875 616 L 875 615 L 878 615 L 878 614 L 879 614 L 879 613 L 881 613 L 881 612 L 883 612 L 883 611 L 885 611 L 885 610 L 886 610 L 886 609 L 888 609 L 888 608 L 889 608 L 889 607 L 891 607 L 891 606 L 892 606 L 892 605 L 894 605 L 894 604 L 895 604 L 895 603 L 897 603 L 897 602 L 898 602 L 898 601 L 899 601 L 899 600 L 900 600 L 900 599 L 902 599 L 902 598 L 903 598 L 903 597 L 904 597 L 904 596 L 906 596 L 906 595 L 907 595 L 907 594 L 908 594 L 908 593 L 909 593 L 909 592 L 910 592 L 910 591 L 911 591 L 911 590 L 912 590 L 912 589 L 913 589 L 913 588 L 914 588 L 914 587 L 915 587 L 915 586 L 916 586 L 916 585 L 917 585 L 917 584 L 918 584 L 918 583 L 919 583 L 919 582 L 920 582 L 920 581 L 921 581 L 921 579 L 922 579 L 922 578 L 923 578 L 923 577 L 924 577 L 924 576 L 925 576 L 925 574 L 926 574 L 926 573 L 927 573 L 927 572 L 928 572 L 928 570 L 929 570 L 929 569 L 930 569 L 930 567 L 931 567 L 931 566 L 932 566 L 932 564 L 933 564 L 933 562 L 934 562 L 934 560 L 935 560 L 935 559 L 936 559 L 936 556 L 937 556 L 937 555 L 938 555 L 938 552 L 939 552 L 939 550 L 940 550 L 940 547 L 941 547 L 941 544 L 942 544 L 942 541 L 943 541 L 943 537 L 944 537 L 944 531 L 945 531 L 945 521 L 946 521 L 946 512 L 945 512 L 945 502 L 944 502 L 944 498 L 943 498 L 943 492 L 942 492 L 942 489 L 941 489 L 941 486 L 940 486 L 940 482 L 939 482 L 939 479 L 938 479 L 938 476 L 937 476 L 937 474 L 936 474 L 936 472 L 935 472 L 935 470 L 934 470 L 934 468 L 933 468 L 933 466 L 932 466 L 932 465 L 931 465 L 931 463 L 930 463 L 930 462 L 929 462 L 929 459 L 928 459 L 928 458 L 927 458 L 927 456 L 926 456 L 926 455 L 925 455 L 925 454 L 924 454 L 924 453 L 923 453 L 923 452 L 922 452 L 922 450 L 921 450 L 921 449 L 920 449 L 920 448 L 919 448 L 919 447 L 918 447 L 918 446 L 917 446 L 917 445 L 916 445 L 916 444 L 915 444 L 915 443 L 914 443 L 914 442 L 913 442 L 913 441 L 912 441 L 912 440 L 911 440 L 911 439 L 910 439 L 910 438 L 909 438 L 909 437 L 908 437 L 908 436 L 906 436 L 906 435 L 905 435 L 905 434 L 904 434 L 904 433 L 903 433 L 903 432 L 901 432 L 901 431 L 900 431 L 900 430 L 898 430 L 898 429 L 897 429 L 897 428 L 896 428 L 896 427 L 894 427 L 894 426 L 892 426 L 892 425 L 891 425 L 891 424 L 889 424 L 889 423 L 887 423 L 887 422 L 886 422 L 886 421 L 884 421 L 884 420 L 882 420 L 882 419 L 880 419 L 880 418 L 878 418 L 878 417 L 876 417 L 876 416 L 874 416 L 874 415 L 872 415 L 872 414 L 870 414 L 870 413 L 867 413 L 867 412 L 861 412 L 861 413 L 858 413 L 858 414 L 854 414 L 854 415 L 848 415 L 848 416 L 833 416 L 833 417 L 831 417 L 831 416 L 828 416 L 828 417 L 827 417 L 827 416 L 819 416 L 819 415 L 813 415 L 813 414 L 807 414 L 807 413 L 804 413 L 804 412 L 801 412 L 801 411 L 799 411 L 799 410 L 796 410 L 796 409 L 794 409 L 794 408 L 792 408 L 792 407 L 790 407 L 790 406 L 788 406 L 788 405 L 786 405 L 786 404 L 785 404 L 785 403 L 784 403 L 784 402 L 782 402 L 782 401 L 781 401 L 781 400 L 780 400 L 780 399 L 779 399 L 779 398 L 778 398 L 778 397 L 777 397 L 777 396 L 776 396 L 776 395 L 775 395 L 775 393 L 774 393 L 774 392 L 773 392 L 773 390 L 772 390 L 772 388 L 771 388 L 771 384 L 770 384 L 770 375 L 771 375 L 771 373 L 772 373 L 772 371 L 773 371 L 773 370 L 774 370 L 774 369 L 775 369 L 775 368 L 777 368 L 777 367 L 778 367 L 778 366 L 780 366 L 780 365 L 781 365 L 781 364 L 782 364 L 782 363 L 784 363 L 784 362 L 785 362 L 785 361 L 786 361 L 786 359 L 787 359 L 787 358 L 788 358 L 788 357 L 789 357 L 789 355 L 790 355 L 790 353 L 791 353 L 791 351 L 792 351 L 792 349 L 793 349 L 793 346 L 794 346 L 794 342 L 795 342 L 795 338 L 796 338 L 796 332 L 797 332 L 797 328 L 798 328 L 798 324 L 799 324 L 799 321 L 800 321 L 800 319 L 801 319 L 801 317 L 802 317 L 802 316 L 803 316 L 803 314 L 804 314 L 804 313 L 805 313 L 805 311 L 806 311 L 806 310 L 807 310 L 807 309 L 808 309 L 808 308 L 810 308 L 810 307 L 811 307 L 811 306 L 812 306 L 812 305 L 815 305 L 815 304 L 816 304 L 816 303 L 819 303 L 819 302 L 830 302 L 830 303 L 834 303 L 834 304 L 837 304 L 837 305 L 839 305 L 839 306 L 840 306 L 840 307 L 843 307 L 843 308 L 844 308 L 844 306 L 845 306 L 845 305 L 844 305 L 844 303 L 843 303 L 843 301 L 842 301 L 842 299 L 841 299 L 841 298 L 840 298 L 840 296 L 839 296 L 839 295 L 838 295 L 838 293 L 837 293 L 837 292 L 836 292 L 836 290 L 835 290 L 835 289 L 834 289 L 834 288 L 833 288 L 833 286 L 832 286 L 832 285 L 831 285 L 831 284 L 830 284 L 830 283 L 829 283 L 829 282 L 828 282 L 828 281 L 827 281 L 827 280 L 826 280 L 826 279 L 825 279 L 825 278 L 824 278 L 824 277 L 823 277 L 823 276 L 822 276 L 822 275 L 821 275 L 821 274 L 820 274 L 820 273 L 819 273 L 819 272 L 818 272 L 818 271 L 817 271 L 817 270 L 815 270 L 815 269 L 814 269 L 814 268 L 813 268 L 813 267 L 812 267 L 812 266 L 810 266 L 810 265 L 809 265 L 809 264 L 807 264 L 807 263 L 806 263 L 806 262 L 804 262 L 804 261 L 802 261 L 802 260 L 800 260 L 800 259 L 799 259 L 799 258 L 797 258 L 797 257 L 794 257 L 794 256 L 792 256 L 792 255 L 790 255 L 790 254 L 787 254 L 787 253 L 784 253 L 784 252 L 780 252 L 780 251 L 776 251 L 776 250 L 770 250 L 770 249 L 761 249 L 761 248 L 745 248 L 745 249 L 736 249 L 736 250 L 732 250 L 732 251 L 727 251 L 727 252 L 724 252 L 724 253 L 720 253 L 720 254 L 717 254 L 717 255 L 715 255 L 715 256 L 713 256 L 713 257 L 710 257 L 710 258 L 708 258 L 708 259 L 706 259 L 706 260 L 704 260 L 704 261 L 702 261 L 702 262 L 700 262 L 700 263 L 699 263 L 699 264 L 697 264 L 697 265 L 695 265 L 695 266 L 694 266 L 694 267 L 693 267 L 693 268 L 691 268 L 691 269 L 690 269 L 690 270 L 688 270 L 688 271 L 687 271 L 687 272 L 686 272 L 686 273 L 685 273 L 685 274 L 683 274 L 683 275 L 682 275 L 682 276 L 681 276 L 681 277 L 680 277 L 680 278 L 679 278 L 679 279 L 678 279 L 678 280 L 677 280 L 677 281 L 676 281 L 676 282 L 675 282 L 675 283 L 674 283 L 674 285 L 673 285 L 673 286 L 672 286 L 672 287 L 671 287 L 671 288 L 670 288 L 670 290 L 669 290 L 669 291 L 668 291 L 668 292 L 667 292 L 667 293 L 666 293 L 666 295 L 665 295 L 665 297 L 664 297 L 664 298 L 663 298 L 663 300 L 662 300 L 662 302 L 661 302 L 661 304 L 660 304 L 660 306 L 659 306 L 659 308 L 658 308 L 658 310 L 657 310 L 657 312 L 656 312 L 656 315 L 655 315 L 655 318 L 654 318 L 654 321 L 653 321 L 653 325 L 652 325 L 652 331 L 651 331 L 651 338 L 650 338 L 650 356 L 651 356 L 651 365 L 652 365 L 652 369 L 653 369 L 653 373 L 654 373 L 654 377 L 655 377 L 655 380 L 656 380 L 656 383 L 657 383 L 657 386 L 658 386 L 658 388 L 659 388 L 659 391 L 660 391 L 660 392 L 661 392 L 661 394 L 662 394 L 662 397 L 663 397 L 663 398 L 664 398 L 664 400 L 665 400 L 665 402 L 666 402 L 666 404 L 667 404 L 667 405 L 668 405 L 668 406 L 669 406 L 669 407 L 670 407 L 670 409 L 671 409 L 671 410 L 672 410 L 672 411 L 673 411 L 673 413 L 675 413 L 675 415 L 676 415 L 676 416 L 677 416 L 677 417 L 678 417 L 678 418 L 679 418 L 679 419 L 680 419 L 680 420 L 681 420 L 681 421 L 682 421 L 682 422 L 683 422 L 683 423 L 685 423 L 685 424 L 686 424 L 686 425 L 687 425 L 687 426 L 688 426 L 688 427 L 689 427 L 689 428 L 691 428 L 691 429 L 692 429 L 692 430 L 694 430 L 694 431 L 695 431 L 695 432 L 697 432 L 697 433 L 699 433 L 699 434 L 700 434 L 700 435 L 702 435 L 702 436 L 704 436 L 704 437 L 706 437 L 706 438 L 708 438 L 708 439 L 711 439 L 711 440 L 713 440 L 713 441 L 715 441 L 715 442 L 718 442 L 718 443 L 721 443 L 721 444 L 724 444 L 724 445 L 727 445 L 727 446 L 731 446 L 731 447 L 734 447 L 734 448 L 735 448 L 735 449 L 736 449 L 736 450 L 737 450 L 737 453 L 738 453 L 738 454 L 737 454 L 737 456 L 736 456 L 736 457 L 735 457 L 735 458 L 732 458 L 732 459 L 728 459 L 728 460 L 725 460 L 725 461 L 723 461 L 723 462 L 719 462 L 719 463 L 716 463 L 716 464 L 713 464 L 713 465 L 710 465 L 710 466 L 707 466 L 707 467 L 704 467 L 704 468 L 702 468 L 702 469 L 700 469 L 700 470 L 699 470 L 699 472 L 698 472 L 698 473 L 697 473 L 697 475 L 696 475 L 696 476 L 695 476 L 695 483 L 696 483 L 696 485 L 697 485 L 697 487 L 698 487 L 698 489 L 699 489 L 699 490 L 700 490 L 700 492 L 701 492 L 701 493 L 702 493 L 702 494 L 703 494 L 703 496 L 704 496 L 704 497 L 705 497 L 705 499 L 706 499 L 706 500 L 707 500 L 707 502 L 708 502 L 708 504 L 709 504 L 709 508 L 710 508 L 710 510 L 709 510 L 709 512 L 710 512 L 710 516 L 711 516 L 711 517 L 712 517 L 712 519 L 713 519 L 713 520 L 715 520 L 715 521 L 716 521 L 716 522 L 717 522 L 717 523 L 718 523 L 718 524 L 720 524 L 720 525 L 721 525 L 721 526 L 722 526 L 722 527 L 724 527 L 724 528 L 726 528 L 726 529 L 728 529 L 728 530 L 729 530 L 729 531 L 730 531 L 730 532 L 731 532 L 731 533 L 732 533 L 732 534 L 733 534 L 733 535 L 734 535 L 734 536 L 735 536 L 735 537 L 736 537 L 736 539 L 737 539 L 737 540 L 738 540 L 738 542 L 739 542 L 739 543 L 740 543 L 740 545 L 741 545 L 741 546 L 742 546 L 742 548 L 743 548 L 743 550 L 744 550 L 744 551 L 745 551 L 745 553 L 746 553 L 746 554 L 747 554 L 747 556 L 748 556 L 748 557 L 749 557 L 749 559 L 750 559 L 750 560 L 751 560 L 751 562 L 752 562 L 752 564 L 753 564 L 753 565 L 754 565 L 754 567 L 755 567 L 755 569 L 756 569 L 756 570 L 757 570 L 757 572 L 758 572 L 758 573 L 759 573 L 759 575 L 760 575 L 760 577 L 761 577 L 761 578 L 762 578 L 762 580 L 763 580 L 763 582 L 764 582 L 764 583 L 765 583 L 765 584 L 768 584 L 768 583 L 770 583 L 770 582 L 773 582 L 773 581 L 776 581 L 776 580 L 777 580 L 777 579 L 780 579 L 780 578 L 783 578 L 783 577 L 784 577 L 784 576 L 787 576 L 787 575 L 788 575 L 788 574 L 790 574 L 790 573 L 792 573 L 792 572 L 793 572 L 793 571 L 795 571 L 795 570 L 797 570 L 797 569 L 798 569 L 798 568 L 800 568 L 800 567 L 801 567 L 801 566 L 802 566 L 802 565 L 803 565 L 803 564 L 805 564 L 805 563 L 806 563 L 806 562 L 807 562 L 807 561 L 808 561 L 808 560 L 809 560 L 809 559 L 810 559 L 810 558 L 811 558 L 811 557 L 812 557 L 812 556 L 813 556 L 813 555 L 814 555 L 814 554 L 815 554 L 815 553 L 816 553 L 816 552 L 817 552 L 817 550 L 818 550 L 818 549 L 819 549 L 819 547 L 820 547 L 820 545 L 821 545 L 821 544 L 822 544 L 822 542 L 823 542 L 823 540 L 824 540 L 824 538 L 825 538 L 825 535 L 826 535 L 826 532 L 827 532 L 827 529 L 828 529 L 828 519 L 829 519 L 829 516 L 828 516 L 828 508 L 827 508 L 827 504 L 826 504 L 826 500 L 825 500 L 825 499 L 824 499 L 824 497 L 823 497 L 823 496 L 824 496 L 824 497 L 826 497 L 826 498 L 827 498 L 827 499 L 828 499 L 828 500 L 829 500 L 829 501 L 830 501 L 830 502 L 831 502 L 831 503 L 832 503 L 832 504 L 833 504 L 833 506 L 834 506 L 834 507 L 835 507 L 835 509 L 836 509 L 836 511 L 837 511 L 837 514 L 838 514 L 838 515 L 839 515 L 839 518 L 840 518 L 840 534 L 839 534 L 839 538 L 838 538 L 838 541 L 837 541 L 837 543 L 836 543 L 836 546 L 835 546 L 835 548 L 834 548 L 834 549 L 833 549 L 833 551 L 832 551 L 832 553 L 831 553 L 831 554 L 830 554 L 830 556 L 829 556 L 829 557 L 828 557 L 828 558 L 827 558 L 827 560 L 826 560 L 826 561 L 825 561 L 825 562 L 824 562 L 824 563 L 823 563 L 823 564 L 822 564 L 822 565 L 821 565 L 821 566 L 820 566 L 820 567 L 819 567 L 819 569 L 817 569 L 817 570 L 816 570 L 816 571 L 815 571 L 815 572 L 814 572 L 814 573 L 813 573 L 813 574 L 812 574 L 812 575 L 810 575 L 810 576 L 809 576 L 809 577 L 808 577 L 808 578 L 806 578 L 806 579 L 805 579 L 805 580 L 804 580 L 804 581 L 802 581 L 802 582 L 801 582 L 801 583 L 798 583 L 798 584 L 797 584 L 797 585 L 795 585 L 795 586 L 794 586 L 794 587 L 791 587 L 791 588 L 790 588 L 790 589 L 788 589 L 788 590 L 785 590 L 785 591 L 784 591 L 784 592 L 781 592 L 781 593 L 778 593 L 778 594 L 777 594 L 777 595 L 774 595 L 774 596 L 771 596 L 771 597 L 768 597 L 768 599 L 767 599 L 767 602 L 766 602 L 766 604 L 765 604 L 765 605 L 764 605 L 764 606 L 763 606 L 763 607 L 761 607 L 761 608 L 759 608 L 759 609 L 756 609 L 756 610 L 750 610 L 750 609 L 743 609 L 743 608 L 738 608 L 738 607 L 734 607 L 734 606 L 730 606 L 730 605 L 727 605 L 727 604 L 714 604 L 714 603 L 704 603 L 704 602 L 698 602 L 698 601 L 693 601 L 693 600 L 689 600 L 689 599 L 686 599 L 686 598 L 682 598 L 682 597 L 679 597 L 679 596 L 677 596 L 677 595 L 674 595 L 674 594 L 671 594 L 671 593 L 669 593 L 669 592 L 667 592 L 667 591 L 665 591 L 665 590 L 663 590 L 663 589 L 661 589 L 661 588 L 660 588 L 660 587 L 658 587 L 658 586 L 657 586 L 657 585 L 655 585 L 655 584 L 654 584 L 654 583 L 652 583 L 652 582 L 651 582 L 651 581 L 650 581 L 650 580 L 648 580 L 648 579 L 647 579 L 647 578 L 646 578 L 646 577 L 645 577 L 645 576 L 644 576 L 644 575 L 643 575 L 643 574 L 642 574 L 642 573 L 641 573 L 641 572 L 640 572 L 640 571 L 639 571 L 639 570 L 638 570 L 638 569 L 637 569 L 637 567 L 636 567 L 636 566 L 635 566 L 635 565 L 634 565 L 634 563 L 633 563 L 633 562 L 632 562 L 632 560 L 631 560 L 631 559 L 630 559 L 630 557 L 629 557 L 629 555 L 628 555 L 628 553 L 627 553 L 627 551 L 626 551 L 626 548 L 625 548 L 625 546 L 624 546 L 624 544 L 623 544 L 623 540 L 622 540 L 622 537 L 621 537 L 621 534 L 620 534 L 620 533 L 619 533 L 619 532 L 618 532 L 618 531 L 616 531 L 616 530 L 615 530 L 615 529 L 614 529 L 614 528 L 613 528 L 613 527 L 611 527 L 611 526 L 610 526 L 610 525 L 609 525 L 609 524 L 608 524 L 608 523 L 606 523 L 606 522 L 605 522 L 605 521 L 604 521 L 604 520 L 602 520 L 602 519 L 601 519 L 601 518 L 600 518 L 600 517 L 599 517 L 599 516 L 597 516 L 597 515 L 596 515 L 596 514 L 595 514 L 595 513 L 594 513 L 594 512 L 592 512 L 592 511 L 591 511 L 591 510 L 590 510 L 590 509 L 589 509 L 589 508 L 587 508 L 587 507 L 586 507 L 586 506 L 585 506 L 585 505 L 584 505 L 584 504 L 583 504 L 583 503 L 582 503 L 582 502 L 581 502 L 581 500 L 580 500 L 580 499 L 579 499 L 579 497 L 578 497 L 578 496 L 577 496 L 577 493 L 576 493 L 576 490 L 575 490 L 575 485 L 574 485 L 574 479 L 575 479 L 575 474 L 576 474 L 576 469 L 577 469 L 577 466 L 578 466 L 578 463 L 579 463 L 579 460 L 580 460 L 580 458 L 581 458 L 581 456 L 582 456 L 582 452 L 581 452 L 581 451 L 580 451 L 580 450 L 579 450 L 579 449 L 577 449 L 577 448 L 576 448 L 576 447 L 572 447 L 572 448 L 571 448 L 571 449 L 570 449 L 570 452 L 569 452 L 569 456 L 568 456 L 568 460 L 567 460 L 567 466 L 566 466 L 566 478 L 565 478 Z M 592 380 L 592 384 L 593 384 L 593 387 L 594 387 L 594 388 L 595 388 L 595 389 L 596 389 L 596 390 L 598 390 L 598 391 L 604 391 L 604 390 L 606 390 L 606 389 L 607 389 L 607 388 L 608 388 L 608 386 L 609 386 L 609 378 L 608 378 L 608 376 L 607 376 L 607 375 L 606 375 L 606 374 L 604 374 L 604 373 L 597 373 L 597 374 L 596 374 L 596 375 L 595 375 L 595 376 L 594 376 L 594 377 L 593 377 L 593 380 L 592 380 Z M 608 460 L 608 468 L 609 468 L 609 473 L 610 473 L 610 476 L 611 476 L 611 478 L 612 478 L 612 480 L 613 480 L 613 483 L 614 483 L 614 485 L 615 485 L 615 487 L 616 487 L 616 488 L 617 488 L 617 490 L 618 490 L 618 492 L 619 492 L 619 494 L 620 494 L 620 495 L 621 495 L 621 497 L 622 497 L 622 498 L 623 498 L 623 499 L 624 499 L 624 500 L 625 500 L 625 501 L 626 501 L 626 502 L 627 502 L 627 503 L 628 503 L 628 504 L 629 504 L 629 505 L 630 505 L 630 506 L 632 506 L 632 507 L 633 507 L 633 508 L 634 508 L 634 509 L 635 509 L 635 510 L 637 510 L 637 511 L 638 511 L 638 512 L 639 512 L 639 513 L 640 513 L 640 514 L 642 514 L 642 515 L 643 515 L 643 516 L 644 516 L 644 517 L 645 517 L 645 518 L 646 518 L 646 519 L 648 519 L 648 520 L 649 520 L 649 521 L 650 521 L 650 522 L 651 522 L 651 523 L 653 523 L 653 524 L 654 524 L 654 525 L 655 525 L 655 526 L 656 526 L 656 527 L 657 527 L 657 528 L 659 528 L 659 529 L 660 529 L 660 530 L 661 530 L 661 531 L 662 531 L 662 532 L 663 532 L 663 533 L 665 533 L 665 534 L 666 534 L 666 535 L 667 535 L 667 536 L 668 536 L 668 537 L 669 537 L 669 538 L 670 538 L 670 539 L 672 539 L 672 540 L 673 540 L 673 541 L 674 541 L 674 542 L 675 542 L 675 543 L 677 543 L 677 544 L 678 544 L 678 545 L 679 545 L 679 546 L 680 546 L 680 547 L 681 547 L 681 548 L 683 548 L 683 549 L 684 549 L 684 550 L 685 550 L 685 551 L 686 551 L 686 552 L 687 552 L 687 553 L 688 553 L 688 554 L 690 554 L 690 555 L 691 555 L 691 556 L 692 556 L 692 557 L 693 557 L 693 558 L 695 558 L 695 559 L 696 559 L 696 560 L 697 560 L 697 561 L 698 561 L 698 562 L 699 562 L 699 563 L 701 563 L 701 564 L 702 564 L 702 565 L 703 565 L 703 566 L 704 566 L 704 567 L 706 567 L 706 568 L 707 568 L 707 569 L 708 569 L 708 570 L 710 570 L 710 571 L 711 571 L 711 572 L 713 572 L 713 573 L 714 573 L 714 574 L 716 574 L 716 575 L 718 575 L 718 576 L 720 576 L 720 577 L 721 577 L 721 578 L 724 578 L 724 579 L 726 579 L 726 580 L 728 580 L 728 581 L 731 581 L 731 582 L 734 582 L 734 583 L 737 583 L 737 584 L 740 584 L 740 583 L 741 583 L 741 582 L 740 582 L 740 579 L 739 579 L 739 576 L 738 576 L 738 575 L 737 575 L 737 573 L 736 573 L 736 571 L 735 571 L 735 570 L 734 570 L 734 569 L 733 569 L 733 567 L 732 567 L 732 566 L 731 566 L 731 565 L 730 565 L 730 564 L 729 564 L 729 563 L 728 563 L 728 561 L 727 561 L 727 560 L 726 560 L 726 559 L 725 559 L 725 558 L 724 558 L 724 557 L 723 557 L 723 556 L 722 556 L 722 555 L 721 555 L 721 554 L 720 554 L 720 553 L 719 553 L 719 551 L 718 551 L 718 550 L 717 550 L 717 549 L 716 549 L 716 548 L 715 548 L 715 547 L 714 547 L 714 546 L 713 546 L 713 545 L 712 545 L 712 544 L 711 544 L 711 543 L 710 543 L 710 541 L 709 541 L 709 540 L 708 540 L 708 539 L 707 539 L 707 538 L 706 538 L 706 537 L 705 537 L 705 536 L 704 536 L 704 535 L 703 535 L 703 534 L 702 534 L 702 532 L 701 532 L 701 531 L 700 531 L 700 530 L 699 530 L 699 529 L 698 529 L 698 528 L 697 528 L 697 527 L 696 527 L 696 525 L 695 525 L 695 524 L 694 524 L 694 523 L 693 523 L 693 522 L 692 522 L 692 521 L 691 521 L 691 520 L 690 520 L 690 519 L 689 519 L 689 517 L 688 517 L 688 516 L 687 516 L 687 515 L 686 515 L 686 514 L 685 514 L 685 513 L 684 513 L 684 512 L 683 512 L 683 510 L 682 510 L 682 509 L 681 509 L 681 508 L 680 508 L 680 507 L 679 507 L 679 506 L 678 506 L 678 504 L 677 504 L 677 503 L 676 503 L 676 502 L 675 502 L 675 501 L 674 501 L 674 500 L 673 500 L 673 499 L 672 499 L 672 498 L 671 498 L 671 496 L 670 496 L 670 495 L 669 495 L 669 494 L 668 494 L 668 492 L 667 492 L 667 491 L 666 491 L 666 490 L 665 490 L 665 488 L 664 488 L 664 486 L 663 486 L 663 484 L 662 484 L 662 478 L 663 478 L 663 476 L 664 476 L 664 475 L 665 475 L 665 473 L 666 473 L 666 472 L 667 472 L 667 471 L 668 471 L 668 470 L 669 470 L 669 469 L 670 469 L 670 468 L 672 468 L 672 467 L 673 467 L 673 466 L 674 466 L 674 465 L 675 465 L 675 464 L 676 464 L 676 463 L 677 463 L 677 462 L 678 462 L 678 461 L 679 461 L 679 460 L 680 460 L 680 459 L 681 459 L 681 458 L 682 458 L 682 457 L 683 457 L 683 456 L 684 456 L 684 455 L 686 455 L 686 454 L 687 454 L 687 453 L 688 453 L 688 452 L 689 452 L 689 451 L 690 451 L 690 450 L 691 450 L 691 449 L 692 449 L 692 448 L 695 448 L 695 447 L 694 447 L 694 446 L 693 446 L 693 445 L 691 445 L 691 444 L 690 444 L 690 443 L 688 443 L 688 442 L 687 442 L 687 441 L 685 441 L 685 440 L 684 440 L 684 439 L 682 439 L 682 438 L 681 438 L 681 437 L 680 437 L 680 436 L 678 436 L 678 435 L 677 435 L 677 434 L 676 434 L 676 433 L 675 433 L 675 432 L 674 432 L 674 431 L 673 431 L 673 430 L 672 430 L 672 429 L 671 429 L 671 428 L 670 428 L 670 427 L 669 427 L 669 426 L 668 426 L 668 425 L 667 425 L 667 424 L 666 424 L 666 423 L 665 423 L 665 422 L 664 422 L 664 421 L 663 421 L 663 419 L 662 419 L 662 418 L 661 418 L 661 417 L 660 417 L 660 415 L 659 415 L 659 414 L 658 414 L 658 413 L 657 413 L 657 412 L 656 412 L 656 410 L 655 410 L 655 408 L 654 408 L 654 407 L 653 407 L 653 405 L 652 405 L 652 403 L 649 403 L 649 406 L 648 406 L 648 407 L 647 407 L 647 409 L 646 409 L 646 410 L 645 410 L 645 411 L 644 411 L 644 412 L 643 412 L 643 413 L 642 413 L 642 414 L 641 414 L 641 416 L 640 416 L 640 417 L 639 417 L 639 418 L 638 418 L 638 419 L 637 419 L 637 420 L 636 420 L 636 421 L 635 421 L 635 423 L 634 423 L 634 424 L 633 424 L 633 425 L 632 425 L 632 426 L 631 426 L 631 427 L 630 427 L 630 429 L 629 429 L 629 430 L 628 430 L 628 431 L 627 431 L 627 432 L 626 432 L 626 433 L 625 433 L 625 434 L 624 434 L 624 435 L 623 435 L 623 436 L 622 436 L 622 438 L 621 438 L 621 439 L 620 439 L 620 440 L 619 440 L 619 441 L 618 441 L 618 442 L 617 442 L 617 444 L 616 444 L 616 445 L 615 445 L 615 446 L 614 446 L 614 447 L 613 447 L 613 449 L 612 449 L 612 450 L 611 450 L 611 453 L 610 453 L 610 455 L 609 455 L 609 460 L 608 460 Z M 626 457 L 626 464 L 627 464 L 627 466 L 628 466 L 628 467 L 629 467 L 629 468 L 630 468 L 630 469 L 632 469 L 632 470 L 638 470 L 638 469 L 640 469 L 640 468 L 641 468 L 641 467 L 642 467 L 642 466 L 643 466 L 643 464 L 644 464 L 644 457 L 643 457 L 643 455 L 642 455 L 642 454 L 641 454 L 641 453 L 640 453 L 640 452 L 638 452 L 638 451 L 632 451 L 632 452 L 630 452 L 630 453 L 629 453 L 629 454 L 628 454 L 628 455 L 627 455 L 627 457 L 626 457 Z M 640 550 L 640 551 L 641 551 L 641 552 L 642 552 L 642 554 L 643 554 L 643 555 L 644 555 L 644 557 L 645 557 L 645 558 L 646 558 L 646 559 L 647 559 L 647 560 L 648 560 L 648 562 L 649 562 L 649 563 L 650 563 L 650 564 L 651 564 L 651 565 L 652 565 L 652 566 L 653 566 L 653 567 L 654 567 L 654 568 L 655 568 L 655 569 L 656 569 L 656 570 L 658 570 L 658 571 L 659 571 L 659 572 L 660 572 L 660 573 L 662 573 L 662 574 L 663 574 L 663 575 L 665 575 L 665 576 L 667 576 L 667 577 L 668 577 L 668 578 L 670 578 L 670 579 L 672 579 L 672 580 L 674 580 L 674 581 L 677 581 L 677 582 L 679 582 L 679 583 L 681 583 L 681 584 L 683 584 L 683 583 L 682 583 L 682 582 L 681 582 L 681 581 L 680 581 L 680 580 L 678 580 L 678 579 L 677 579 L 677 578 L 676 578 L 676 577 L 675 577 L 675 576 L 673 576 L 673 575 L 672 575 L 672 574 L 671 574 L 671 573 L 669 573 L 669 572 L 668 572 L 668 571 L 667 571 L 667 570 L 666 570 L 666 569 L 665 569 L 665 568 L 663 568 L 663 567 L 662 567 L 662 566 L 661 566 L 661 565 L 660 565 L 660 564 L 658 564 L 658 563 L 657 563 L 657 562 L 656 562 L 656 561 L 655 561 L 655 560 L 653 560 L 653 559 L 652 559 L 652 558 L 651 558 L 651 557 L 650 557 L 650 556 L 648 556 L 648 555 L 647 555 L 647 554 L 646 554 L 646 553 L 644 553 L 644 552 L 643 552 L 643 551 L 642 551 L 642 550 L 640 550 Z M 733 345 L 733 353 L 734 353 L 734 356 L 735 356 L 735 357 L 736 357 L 736 358 L 741 358 L 741 357 L 743 357 L 743 355 L 744 355 L 744 350 L 745 350 L 745 345 L 746 345 L 746 343 L 747 343 L 747 342 L 748 342 L 748 340 L 750 340 L 750 339 L 751 339 L 751 338 L 752 338 L 752 337 L 753 337 L 753 336 L 756 336 L 756 335 L 765 335 L 765 336 L 768 336 L 768 337 L 770 337 L 770 338 L 771 338 L 771 339 L 772 339 L 772 340 L 773 340 L 773 341 L 774 341 L 774 342 L 775 342 L 775 343 L 777 343 L 777 344 L 780 344 L 780 343 L 782 343 L 782 342 L 783 342 L 783 336 L 782 336 L 782 335 L 781 335 L 781 333 L 780 333 L 780 332 L 779 332 L 779 331 L 778 331 L 778 330 L 777 330 L 777 329 L 775 329 L 775 328 L 774 328 L 774 327 L 772 327 L 772 326 L 769 326 L 769 325 L 764 325 L 764 324 L 757 324 L 757 325 L 752 325 L 752 326 L 749 326 L 749 327 L 747 327 L 747 328 L 746 328 L 746 329 L 744 329 L 744 330 L 743 330 L 743 331 L 742 331 L 742 332 L 741 332 L 741 333 L 740 333 L 740 334 L 739 334 L 739 335 L 738 335 L 738 336 L 737 336 L 737 338 L 736 338 L 736 340 L 735 340 L 735 342 L 734 342 L 734 345 L 733 345 Z M 784 385 L 784 387 L 785 387 L 785 388 L 786 388 L 786 389 L 787 389 L 787 390 L 788 390 L 788 391 L 789 391 L 789 392 L 790 392 L 790 393 L 791 393 L 791 394 L 793 394 L 793 395 L 794 395 L 794 396 L 796 396 L 796 397 L 798 397 L 798 398 L 800 398 L 800 399 L 802 399 L 802 400 L 805 400 L 805 401 L 809 401 L 809 402 L 812 402 L 812 403 L 818 403 L 818 404 L 829 404 L 829 405 L 831 405 L 831 404 L 834 404 L 834 405 L 836 405 L 836 404 L 845 404 L 845 403 L 853 403 L 853 402 L 857 402 L 857 401 L 861 401 L 861 400 L 864 400 L 864 399 L 865 399 L 865 398 L 868 398 L 868 397 L 871 397 L 871 396 L 874 396 L 874 395 L 875 395 L 875 394 L 878 394 L 878 393 L 880 393 L 880 392 L 881 392 L 881 391 L 883 391 L 883 390 L 884 390 L 884 389 L 886 389 L 886 388 L 887 388 L 887 387 L 888 387 L 888 386 L 889 386 L 889 385 L 890 385 L 890 384 L 891 384 L 891 382 L 892 382 L 892 380 L 893 380 L 893 378 L 894 378 L 894 370 L 891 370 L 891 371 L 890 371 L 890 372 L 889 372 L 889 373 L 887 373 L 887 374 L 886 374 L 886 375 L 884 375 L 884 376 L 883 376 L 883 377 L 881 377 L 881 378 L 880 378 L 880 379 L 878 379 L 878 380 L 877 380 L 877 381 L 875 381 L 875 382 L 873 382 L 873 383 L 871 383 L 871 384 L 870 384 L 870 385 L 866 385 L 866 386 L 864 386 L 864 387 L 862 387 L 862 388 L 859 388 L 859 389 L 855 389 L 855 390 L 847 390 L 847 391 L 843 391 L 843 392 L 834 392 L 834 393 L 832 393 L 832 392 L 829 392 L 829 393 L 819 393 L 819 392 L 817 392 L 817 393 L 816 393 L 816 392 L 809 392 L 809 391 L 804 391 L 804 390 L 800 390 L 800 389 L 797 389 L 797 388 L 794 388 L 794 387 L 791 387 L 791 386 L 789 386 L 789 385 L 786 385 L 786 384 L 785 384 L 785 385 L 784 385 Z M 787 375 L 787 378 L 791 378 L 791 379 L 808 379 L 808 380 L 810 380 L 810 379 L 826 379 L 826 378 L 835 378 L 835 377 L 839 377 L 839 376 L 843 376 L 843 375 L 850 375 L 850 374 L 854 374 L 854 373 L 858 373 L 858 372 L 860 372 L 860 371 L 862 371 L 862 370 L 866 370 L 866 369 L 870 369 L 870 368 L 871 368 L 871 367 L 873 367 L 873 366 L 876 366 L 876 365 L 878 365 L 878 364 L 880 364 L 880 363 L 881 363 L 881 362 L 883 362 L 883 361 L 885 361 L 885 360 L 886 360 L 886 359 L 888 359 L 888 358 L 889 358 L 889 357 L 891 357 L 891 356 L 892 356 L 892 355 L 894 355 L 894 354 L 895 354 L 895 353 L 896 353 L 896 352 L 898 352 L 898 351 L 899 351 L 899 350 L 900 350 L 900 349 L 901 349 L 901 348 L 902 348 L 902 347 L 903 347 L 903 346 L 904 346 L 904 345 L 905 345 L 905 344 L 906 344 L 906 343 L 907 343 L 907 342 L 908 342 L 908 341 L 909 341 L 909 340 L 910 340 L 910 339 L 911 339 L 911 338 L 912 338 L 912 337 L 913 337 L 913 335 L 914 335 L 914 334 L 915 334 L 915 333 L 916 333 L 916 331 L 917 331 L 917 330 L 918 330 L 918 328 L 919 328 L 919 326 L 920 326 L 920 325 L 921 325 L 921 323 L 922 323 L 922 320 L 923 320 L 923 318 L 924 318 L 924 311 L 923 311 L 923 310 L 922 310 L 922 309 L 918 309 L 918 310 L 916 310 L 916 311 L 914 311 L 914 312 L 912 312 L 912 313 L 910 313 L 910 314 L 908 314 L 908 315 L 906 315 L 906 316 L 903 316 L 903 317 L 901 317 L 901 318 L 899 318 L 899 319 L 896 319 L 896 320 L 893 320 L 893 321 L 889 321 L 889 322 L 886 322 L 886 323 L 881 323 L 881 324 L 877 324 L 877 325 L 867 325 L 867 326 L 866 326 L 866 325 L 864 325 L 864 326 L 863 326 L 863 325 L 855 325 L 855 324 L 850 324 L 850 323 L 846 323 L 846 322 L 844 322 L 844 321 L 841 321 L 841 320 L 839 320 L 839 319 L 837 319 L 837 318 L 835 318 L 835 317 L 832 317 L 832 316 L 830 316 L 830 315 L 827 315 L 827 314 L 822 314 L 822 315 L 820 315 L 820 316 L 818 316 L 818 317 L 817 317 L 817 318 L 816 318 L 816 319 L 815 319 L 815 320 L 814 320 L 814 322 L 813 322 L 813 324 L 812 324 L 812 326 L 811 326 L 811 329 L 810 329 L 810 332 L 809 332 L 809 337 L 808 337 L 808 341 L 807 341 L 807 346 L 806 346 L 806 349 L 805 349 L 805 352 L 804 352 L 804 355 L 803 355 L 803 357 L 802 357 L 802 359 L 801 359 L 801 360 L 800 360 L 800 362 L 799 362 L 799 363 L 798 363 L 798 365 L 797 365 L 797 366 L 796 366 L 796 368 L 795 368 L 795 369 L 794 369 L 794 370 L 793 370 L 793 371 L 792 371 L 792 372 L 791 372 L 791 373 L 790 373 L 790 374 L 789 374 L 789 375 L 787 375 Z" fill="black" stroke="none" fill-rule="evenodd"/>
</svg>