%TF.GenerationSoftware,KiCad,Pcbnew,9.0.6-9.0.6~ubuntu24.04.1*%
%TF.CreationDate,2025-12-21T18:31:13+01:00*%
%TF.ProjectId,breadboard_power_supply,62726561-6462-46f6-9172-645f706f7765,rev?*%
%TF.SameCoordinates,Original*%
%TF.FileFunction,Legend,Bot*%
%TF.FilePolarity,Positive*%
%FSLAX46Y46*%
G04 Gerber Fmt 4.6, Leading zero omitted, Abs format (unit mm)*
G04 Created by KiCad (PCBNEW 9.0.6-9.0.6~ubuntu24.04.1) date 2025-12-21 18:31:13*
%MOMM*%
%LPD*%
G01*
G04 APERTURE LIST*
%ADD10C,0.200000*%
%ADD11C,0.010000*%
%ADD12C,0.000000*%
G04 APERTURE END LIST*
D10*
X141771534Y-88616993D02*
X141723915Y-88474136D01*
X141723915Y-88474136D02*
X141676296Y-88426517D01*
X141676296Y-88426517D02*
X141581058Y-88378898D01*
X141581058Y-88378898D02*
X141438201Y-88378898D01*
X141438201Y-88378898D02*
X141342963Y-88426517D01*
X141342963Y-88426517D02*
X141295344Y-88474136D01*
X141295344Y-88474136D02*
X141247724Y-88569374D01*
X141247724Y-88569374D02*
X141247724Y-88950326D01*
X141247724Y-88950326D02*
X142247724Y-88950326D01*
X142247724Y-88950326D02*
X142247724Y-88616993D01*
X142247724Y-88616993D02*
X142200105Y-88521755D01*
X142200105Y-88521755D02*
X142152486Y-88474136D01*
X142152486Y-88474136D02*
X142057248Y-88426517D01*
X142057248Y-88426517D02*
X141962010Y-88426517D01*
X141962010Y-88426517D02*
X141866772Y-88474136D01*
X141866772Y-88474136D02*
X141819153Y-88521755D01*
X141819153Y-88521755D02*
X141771534Y-88616993D01*
X141771534Y-88616993D02*
X141771534Y-88950326D01*
X141247724Y-87950326D02*
X141914391Y-87950326D01*
X141723915Y-87950326D02*
X141819153Y-87902707D01*
X141819153Y-87902707D02*
X141866772Y-87855088D01*
X141866772Y-87855088D02*
X141914391Y-87759850D01*
X141914391Y-87759850D02*
X141914391Y-87664612D01*
X141295344Y-86950326D02*
X141247724Y-87045564D01*
X141247724Y-87045564D02*
X141247724Y-87236040D01*
X141247724Y-87236040D02*
X141295344Y-87331278D01*
X141295344Y-87331278D02*
X141390582Y-87378897D01*
X141390582Y-87378897D02*
X141771534Y-87378897D01*
X141771534Y-87378897D02*
X141866772Y-87331278D01*
X141866772Y-87331278D02*
X141914391Y-87236040D01*
X141914391Y-87236040D02*
X141914391Y-87045564D01*
X141914391Y-87045564D02*
X141866772Y-86950326D01*
X141866772Y-86950326D02*
X141771534Y-86902707D01*
X141771534Y-86902707D02*
X141676296Y-86902707D01*
X141676296Y-86902707D02*
X141581058Y-87378897D01*
X141247724Y-86045564D02*
X141771534Y-86045564D01*
X141771534Y-86045564D02*
X141866772Y-86093183D01*
X141866772Y-86093183D02*
X141914391Y-86188421D01*
X141914391Y-86188421D02*
X141914391Y-86378897D01*
X141914391Y-86378897D02*
X141866772Y-86474135D01*
X141295344Y-86045564D02*
X141247724Y-86140802D01*
X141247724Y-86140802D02*
X141247724Y-86378897D01*
X141247724Y-86378897D02*
X141295344Y-86474135D01*
X141295344Y-86474135D02*
X141390582Y-86521754D01*
X141390582Y-86521754D02*
X141485820Y-86521754D01*
X141485820Y-86521754D02*
X141581058Y-86474135D01*
X141581058Y-86474135D02*
X141628677Y-86378897D01*
X141628677Y-86378897D02*
X141628677Y-86140802D01*
X141628677Y-86140802D02*
X141676296Y-86045564D01*
X141247724Y-85140802D02*
X142247724Y-85140802D01*
X141295344Y-85140802D02*
X141247724Y-85236040D01*
X141247724Y-85236040D02*
X141247724Y-85426516D01*
X141247724Y-85426516D02*
X141295344Y-85521754D01*
X141295344Y-85521754D02*
X141342963Y-85569373D01*
X141342963Y-85569373D02*
X141438201Y-85616992D01*
X141438201Y-85616992D02*
X141723915Y-85616992D01*
X141723915Y-85616992D02*
X141819153Y-85569373D01*
X141819153Y-85569373D02*
X141866772Y-85521754D01*
X141866772Y-85521754D02*
X141914391Y-85426516D01*
X141914391Y-85426516D02*
X141914391Y-85236040D01*
X141914391Y-85236040D02*
X141866772Y-85140802D01*
X141247724Y-84664611D02*
X142247724Y-84664611D01*
X141866772Y-84664611D02*
X141914391Y-84569373D01*
X141914391Y-84569373D02*
X141914391Y-84378897D01*
X141914391Y-84378897D02*
X141866772Y-84283659D01*
X141866772Y-84283659D02*
X141819153Y-84236040D01*
X141819153Y-84236040D02*
X141723915Y-84188421D01*
X141723915Y-84188421D02*
X141438201Y-84188421D01*
X141438201Y-84188421D02*
X141342963Y-84236040D01*
X141342963Y-84236040D02*
X141295344Y-84283659D01*
X141295344Y-84283659D02*
X141247724Y-84378897D01*
X141247724Y-84378897D02*
X141247724Y-84569373D01*
X141247724Y-84569373D02*
X141295344Y-84664611D01*
X141247724Y-83616992D02*
X141295344Y-83712230D01*
X141295344Y-83712230D02*
X141342963Y-83759849D01*
X141342963Y-83759849D02*
X141438201Y-83807468D01*
X141438201Y-83807468D02*
X141723915Y-83807468D01*
X141723915Y-83807468D02*
X141819153Y-83759849D01*
X141819153Y-83759849D02*
X141866772Y-83712230D01*
X141866772Y-83712230D02*
X141914391Y-83616992D01*
X141914391Y-83616992D02*
X141914391Y-83474135D01*
X141914391Y-83474135D02*
X141866772Y-83378897D01*
X141866772Y-83378897D02*
X141819153Y-83331278D01*
X141819153Y-83331278D02*
X141723915Y-83283659D01*
X141723915Y-83283659D02*
X141438201Y-83283659D01*
X141438201Y-83283659D02*
X141342963Y-83331278D01*
X141342963Y-83331278D02*
X141295344Y-83378897D01*
X141295344Y-83378897D02*
X141247724Y-83474135D01*
X141247724Y-83474135D02*
X141247724Y-83616992D01*
X141247724Y-82426516D02*
X141771534Y-82426516D01*
X141771534Y-82426516D02*
X141866772Y-82474135D01*
X141866772Y-82474135D02*
X141914391Y-82569373D01*
X141914391Y-82569373D02*
X141914391Y-82759849D01*
X141914391Y-82759849D02*
X141866772Y-82855087D01*
X141295344Y-82426516D02*
X141247724Y-82521754D01*
X141247724Y-82521754D02*
X141247724Y-82759849D01*
X141247724Y-82759849D02*
X141295344Y-82855087D01*
X141295344Y-82855087D02*
X141390582Y-82902706D01*
X141390582Y-82902706D02*
X141485820Y-82902706D01*
X141485820Y-82902706D02*
X141581058Y-82855087D01*
X141581058Y-82855087D02*
X141628677Y-82759849D01*
X141628677Y-82759849D02*
X141628677Y-82521754D01*
X141628677Y-82521754D02*
X141676296Y-82426516D01*
X141247724Y-81950325D02*
X141914391Y-81950325D01*
X141723915Y-81950325D02*
X141819153Y-81902706D01*
X141819153Y-81902706D02*
X141866772Y-81855087D01*
X141866772Y-81855087D02*
X141914391Y-81759849D01*
X141914391Y-81759849D02*
X141914391Y-81664611D01*
X141247724Y-80902706D02*
X142247724Y-80902706D01*
X141295344Y-80902706D02*
X141247724Y-80997944D01*
X141247724Y-80997944D02*
X141247724Y-81188420D01*
X141247724Y-81188420D02*
X141295344Y-81283658D01*
X141295344Y-81283658D02*
X141342963Y-81331277D01*
X141342963Y-81331277D02*
X141438201Y-81378896D01*
X141438201Y-81378896D02*
X141723915Y-81378896D01*
X141723915Y-81378896D02*
X141819153Y-81331277D01*
X141819153Y-81331277D02*
X141866772Y-81283658D01*
X141866772Y-81283658D02*
X141914391Y-81188420D01*
X141914391Y-81188420D02*
X141914391Y-80997944D01*
X141914391Y-80997944D02*
X141866772Y-80902706D01*
X141914391Y-79664610D02*
X140914391Y-79664610D01*
X141866772Y-79664610D02*
X141914391Y-79569372D01*
X141914391Y-79569372D02*
X141914391Y-79378896D01*
X141914391Y-79378896D02*
X141866772Y-79283658D01*
X141866772Y-79283658D02*
X141819153Y-79236039D01*
X141819153Y-79236039D02*
X141723915Y-79188420D01*
X141723915Y-79188420D02*
X141438201Y-79188420D01*
X141438201Y-79188420D02*
X141342963Y-79236039D01*
X141342963Y-79236039D02*
X141295344Y-79283658D01*
X141295344Y-79283658D02*
X141247724Y-79378896D01*
X141247724Y-79378896D02*
X141247724Y-79569372D01*
X141247724Y-79569372D02*
X141295344Y-79664610D01*
X141247724Y-78616991D02*
X141295344Y-78712229D01*
X141295344Y-78712229D02*
X141342963Y-78759848D01*
X141342963Y-78759848D02*
X141438201Y-78807467D01*
X141438201Y-78807467D02*
X141723915Y-78807467D01*
X141723915Y-78807467D02*
X141819153Y-78759848D01*
X141819153Y-78759848D02*
X141866772Y-78712229D01*
X141866772Y-78712229D02*
X141914391Y-78616991D01*
X141914391Y-78616991D02*
X141914391Y-78474134D01*
X141914391Y-78474134D02*
X141866772Y-78378896D01*
X141866772Y-78378896D02*
X141819153Y-78331277D01*
X141819153Y-78331277D02*
X141723915Y-78283658D01*
X141723915Y-78283658D02*
X141438201Y-78283658D01*
X141438201Y-78283658D02*
X141342963Y-78331277D01*
X141342963Y-78331277D02*
X141295344Y-78378896D01*
X141295344Y-78378896D02*
X141247724Y-78474134D01*
X141247724Y-78474134D02*
X141247724Y-78616991D01*
X141914391Y-77950324D02*
X141247724Y-77759848D01*
X141247724Y-77759848D02*
X141723915Y-77569372D01*
X141723915Y-77569372D02*
X141247724Y-77378896D01*
X141247724Y-77378896D02*
X141914391Y-77188420D01*
X141295344Y-76426515D02*
X141247724Y-76521753D01*
X141247724Y-76521753D02*
X141247724Y-76712229D01*
X141247724Y-76712229D02*
X141295344Y-76807467D01*
X141295344Y-76807467D02*
X141390582Y-76855086D01*
X141390582Y-76855086D02*
X141771534Y-76855086D01*
X141771534Y-76855086D02*
X141866772Y-76807467D01*
X141866772Y-76807467D02*
X141914391Y-76712229D01*
X141914391Y-76712229D02*
X141914391Y-76521753D01*
X141914391Y-76521753D02*
X141866772Y-76426515D01*
X141866772Y-76426515D02*
X141771534Y-76378896D01*
X141771534Y-76378896D02*
X141676296Y-76378896D01*
X141676296Y-76378896D02*
X141581058Y-76855086D01*
X141247724Y-75950324D02*
X141914391Y-75950324D01*
X141723915Y-75950324D02*
X141819153Y-75902705D01*
X141819153Y-75902705D02*
X141866772Y-75855086D01*
X141866772Y-75855086D02*
X141914391Y-75759848D01*
X141914391Y-75759848D02*
X141914391Y-75664610D01*
X141295344Y-74616990D02*
X141247724Y-74521752D01*
X141247724Y-74521752D02*
X141247724Y-74331276D01*
X141247724Y-74331276D02*
X141295344Y-74236038D01*
X141295344Y-74236038D02*
X141390582Y-74188419D01*
X141390582Y-74188419D02*
X141438201Y-74188419D01*
X141438201Y-74188419D02*
X141533439Y-74236038D01*
X141533439Y-74236038D02*
X141581058Y-74331276D01*
X141581058Y-74331276D02*
X141581058Y-74474133D01*
X141581058Y-74474133D02*
X141628677Y-74569371D01*
X141628677Y-74569371D02*
X141723915Y-74616990D01*
X141723915Y-74616990D02*
X141771534Y-74616990D01*
X141771534Y-74616990D02*
X141866772Y-74569371D01*
X141866772Y-74569371D02*
X141914391Y-74474133D01*
X141914391Y-74474133D02*
X141914391Y-74331276D01*
X141914391Y-74331276D02*
X141866772Y-74236038D01*
X141914391Y-73331276D02*
X141247724Y-73331276D01*
X141914391Y-73759847D02*
X141390582Y-73759847D01*
X141390582Y-73759847D02*
X141295344Y-73712228D01*
X141295344Y-73712228D02*
X141247724Y-73616990D01*
X141247724Y-73616990D02*
X141247724Y-73474133D01*
X141247724Y-73474133D02*
X141295344Y-73378895D01*
X141295344Y-73378895D02*
X141342963Y-73331276D01*
X141914391Y-72855085D02*
X140914391Y-72855085D01*
X141866772Y-72855085D02*
X141914391Y-72759847D01*
X141914391Y-72759847D02*
X141914391Y-72569371D01*
X141914391Y-72569371D02*
X141866772Y-72474133D01*
X141866772Y-72474133D02*
X141819153Y-72426514D01*
X141819153Y-72426514D02*
X141723915Y-72378895D01*
X141723915Y-72378895D02*
X141438201Y-72378895D01*
X141438201Y-72378895D02*
X141342963Y-72426514D01*
X141342963Y-72426514D02*
X141295344Y-72474133D01*
X141295344Y-72474133D02*
X141247724Y-72569371D01*
X141247724Y-72569371D02*
X141247724Y-72759847D01*
X141247724Y-72759847D02*
X141295344Y-72855085D01*
X141914391Y-71950323D02*
X140914391Y-71950323D01*
X141866772Y-71950323D02*
X141914391Y-71855085D01*
X141914391Y-71855085D02*
X141914391Y-71664609D01*
X141914391Y-71664609D02*
X141866772Y-71569371D01*
X141866772Y-71569371D02*
X141819153Y-71521752D01*
X141819153Y-71521752D02*
X141723915Y-71474133D01*
X141723915Y-71474133D02*
X141438201Y-71474133D01*
X141438201Y-71474133D02*
X141342963Y-71521752D01*
X141342963Y-71521752D02*
X141295344Y-71569371D01*
X141295344Y-71569371D02*
X141247724Y-71664609D01*
X141247724Y-71664609D02*
X141247724Y-71855085D01*
X141247724Y-71855085D02*
X141295344Y-71950323D01*
X141247724Y-70902704D02*
X141295344Y-70997942D01*
X141295344Y-70997942D02*
X141390582Y-71045561D01*
X141390582Y-71045561D02*
X142247724Y-71045561D01*
X141914391Y-70616989D02*
X141247724Y-70378894D01*
X141914391Y-70140799D02*
X141247724Y-70378894D01*
X141247724Y-70378894D02*
X141009629Y-70474132D01*
X141009629Y-70474132D02*
X140962010Y-70521751D01*
X140962010Y-70521751D02*
X140914391Y-70616989D01*
X140304447Y-89045564D02*
X139637780Y-88807469D01*
X139637780Y-88807469D02*
X140304447Y-88569374D01*
X140542542Y-88236040D02*
X140590161Y-88188421D01*
X140590161Y-88188421D02*
X140637780Y-88093183D01*
X140637780Y-88093183D02*
X140637780Y-87855088D01*
X140637780Y-87855088D02*
X140590161Y-87759850D01*
X140590161Y-87759850D02*
X140542542Y-87712231D01*
X140542542Y-87712231D02*
X140447304Y-87664612D01*
X140447304Y-87664612D02*
X140352066Y-87664612D01*
X140352066Y-87664612D02*
X140209209Y-87712231D01*
X140209209Y-87712231D02*
X139637780Y-88283659D01*
X139637780Y-88283659D02*
X139637780Y-87664612D01*
X139733019Y-87236040D02*
X139685400Y-87188421D01*
X139685400Y-87188421D02*
X139637780Y-87236040D01*
X139637780Y-87236040D02*
X139685400Y-87283659D01*
X139685400Y-87283659D02*
X139733019Y-87236040D01*
X139733019Y-87236040D02*
X139637780Y-87236040D01*
X140637780Y-86569374D02*
X140637780Y-86474136D01*
X140637780Y-86474136D02*
X140590161Y-86378898D01*
X140590161Y-86378898D02*
X140542542Y-86331279D01*
X140542542Y-86331279D02*
X140447304Y-86283660D01*
X140447304Y-86283660D02*
X140256828Y-86236041D01*
X140256828Y-86236041D02*
X140018733Y-86236041D01*
X140018733Y-86236041D02*
X139828257Y-86283660D01*
X139828257Y-86283660D02*
X139733019Y-86331279D01*
X139733019Y-86331279D02*
X139685400Y-86378898D01*
X139685400Y-86378898D02*
X139637780Y-86474136D01*
X139637780Y-86474136D02*
X139637780Y-86569374D01*
X139637780Y-86569374D02*
X139685400Y-86664612D01*
X139685400Y-86664612D02*
X139733019Y-86712231D01*
X139733019Y-86712231D02*
X139828257Y-86759850D01*
X139828257Y-86759850D02*
X140018733Y-86807469D01*
X140018733Y-86807469D02*
X140256828Y-86807469D01*
X140256828Y-86807469D02*
X140447304Y-86759850D01*
X140447304Y-86759850D02*
X140542542Y-86712231D01*
X140542542Y-86712231D02*
X140590161Y-86664612D01*
X140590161Y-86664612D02*
X140637780Y-86569374D01*
D11*
%TO.C,REF\u002A\u002A*%
X131059353Y-83417673D02*
X131074123Y-83441386D01*
X131080933Y-83464400D01*
X131075051Y-83485406D01*
X131059353Y-83511127D01*
X131037773Y-83537778D01*
X130390316Y-83537778D01*
X130368736Y-83511127D01*
X130351261Y-83479767D01*
X130350425Y-83443966D01*
X130370918Y-83412528D01*
X130375584Y-83408652D01*
X130385051Y-83403186D01*
X130398733Y-83398979D01*
X130419252Y-83395867D01*
X130449232Y-83393687D01*
X130491296Y-83392276D01*
X130548068Y-83391471D01*
X130622170Y-83391107D01*
X130716227Y-83391022D01*
X131037773Y-83391022D01*
X131059353Y-83417673D01*
G36*
X131059353Y-83417673D02*
G01*
X131074123Y-83441386D01*
X131080933Y-83464400D01*
X131075051Y-83485406D01*
X131059353Y-83511127D01*
X131037773Y-83537778D01*
X130390316Y-83537778D01*
X130368736Y-83511127D01*
X130351261Y-83479767D01*
X130350425Y-83443966D01*
X130370918Y-83412528D01*
X130375584Y-83408652D01*
X130385051Y-83403186D01*
X130398733Y-83398979D01*
X130419252Y-83395867D01*
X130449232Y-83393687D01*
X130491296Y-83392276D01*
X130548068Y-83391471D01*
X130622170Y-83391107D01*
X130716227Y-83391022D01*
X131037773Y-83391022D01*
X131059353Y-83417673D01*
G37*
X130789706Y-90531284D02*
X130867615Y-90531539D01*
X130927625Y-90532183D01*
X130972352Y-90533387D01*
X131004415Y-90535324D01*
X131026429Y-90538164D01*
X131041013Y-90542079D01*
X131050782Y-90547242D01*
X131058355Y-90553822D01*
X131077377Y-90583006D01*
X131076537Y-90616137D01*
X131053224Y-90650291D01*
X131025515Y-90678000D01*
X130712463Y-90678000D01*
X130628433Y-90677959D01*
X130554211Y-90677701D01*
X130497459Y-90677030D01*
X130455488Y-90675752D01*
X130425611Y-90673673D01*
X130405139Y-90670599D01*
X130391386Y-90666334D01*
X130381663Y-90660684D01*
X130373283Y-90653455D01*
X130351819Y-90621991D01*
X130350053Y-90586826D01*
X130369733Y-90553822D01*
X130375602Y-90548516D01*
X130384686Y-90543066D01*
X130398027Y-90538900D01*
X130418243Y-90535846D01*
X130447951Y-90533732D01*
X130489768Y-90532386D01*
X130546311Y-90531638D01*
X130620198Y-90531314D01*
X130714044Y-90531245D01*
X130789706Y-90531284D01*
G36*
X130789706Y-90531284D02*
G01*
X130867615Y-90531539D01*
X130927625Y-90532183D01*
X130972352Y-90533387D01*
X131004415Y-90535324D01*
X131026429Y-90538164D01*
X131041013Y-90542079D01*
X131050782Y-90547242D01*
X131058355Y-90553822D01*
X131077377Y-90583006D01*
X131076537Y-90616137D01*
X131053224Y-90650291D01*
X131025515Y-90678000D01*
X130712463Y-90678000D01*
X130628433Y-90677959D01*
X130554211Y-90677701D01*
X130497459Y-90677030D01*
X130455488Y-90675752D01*
X130425611Y-90673673D01*
X130405139Y-90670599D01*
X130391386Y-90666334D01*
X130381663Y-90660684D01*
X130373283Y-90653455D01*
X130351819Y-90621991D01*
X130350053Y-90586826D01*
X130369733Y-90553822D01*
X130375602Y-90548516D01*
X130384686Y-90543066D01*
X130398027Y-90538900D01*
X130418243Y-90535846D01*
X130447951Y-90533732D01*
X130489768Y-90532386D01*
X130546311Y-90531638D01*
X130620198Y-90531314D01*
X130714044Y-90531245D01*
X130789706Y-90531284D01*
G37*
X135936470Y-89513136D02*
X136032780Y-89539399D01*
X136121506Y-89584418D01*
X136196581Y-89645373D01*
X136256359Y-89720184D01*
X136299191Y-89806768D01*
X136323429Y-89903043D01*
X136327424Y-90006928D01*
X136317150Y-90084562D01*
X136289947Y-90167313D01*
X136244516Y-90242406D01*
X136178698Y-90314298D01*
X136134433Y-90352846D01*
X136076039Y-90392256D01*
X136015414Y-90417446D01*
X135946135Y-90430861D01*
X135861778Y-90434948D01*
X135815693Y-90434669D01*
X135774550Y-90432460D01*
X135742418Y-90426894D01*
X135711878Y-90416586D01*
X135675511Y-90400148D01*
X135648272Y-90386200D01*
X135562571Y-90327665D01*
X135493383Y-90255619D01*
X135442259Y-90171947D01*
X135410750Y-90078531D01*
X135403775Y-90045434D01*
X135396906Y-90004960D01*
X135395081Y-89971999D01*
X135398053Y-89937698D01*
X135405574Y-89893200D01*
X135417998Y-89841934D01*
X135455888Y-89751434D01*
X135510164Y-89672345D01*
X135578230Y-89606528D01*
X135657489Y-89555840D01*
X135745346Y-89522140D01*
X135839205Y-89507286D01*
X135936470Y-89513136D01*
G36*
X135936470Y-89513136D02*
G01*
X136032780Y-89539399D01*
X136121506Y-89584418D01*
X136196581Y-89645373D01*
X136256359Y-89720184D01*
X136299191Y-89806768D01*
X136323429Y-89903043D01*
X136327424Y-90006928D01*
X136317150Y-90084562D01*
X136289947Y-90167313D01*
X136244516Y-90242406D01*
X136178698Y-90314298D01*
X136134433Y-90352846D01*
X136076039Y-90392256D01*
X136015414Y-90417446D01*
X135946135Y-90430861D01*
X135861778Y-90434948D01*
X135815693Y-90434669D01*
X135774550Y-90432460D01*
X135742418Y-90426894D01*
X135711878Y-90416586D01*
X135675511Y-90400148D01*
X135648272Y-90386200D01*
X135562571Y-90327665D01*
X135493383Y-90255619D01*
X135442259Y-90171947D01*
X135410750Y-90078531D01*
X135403775Y-90045434D01*
X135396906Y-90004960D01*
X135395081Y-89971999D01*
X135398053Y-89937698D01*
X135405574Y-89893200D01*
X135417998Y-89841934D01*
X135455888Y-89751434D01*
X135510164Y-89672345D01*
X135578230Y-89606528D01*
X135657489Y-89555840D01*
X135745346Y-89522140D01*
X135839205Y-89507286D01*
X135936470Y-89513136D01*
G37*
X131028642Y-82368543D02*
X131061178Y-82394187D01*
X131064895Y-82399129D01*
X131069731Y-82409338D01*
X131073494Y-82424764D01*
X131076317Y-82447886D01*
X131078330Y-82481183D01*
X131079667Y-82527137D01*
X131080458Y-82588228D01*
X131080837Y-82666935D01*
X131080933Y-82765740D01*
X131080932Y-82785767D01*
X131080842Y-82879890D01*
X131080502Y-82954405D01*
X131079761Y-83011811D01*
X131078465Y-83054611D01*
X131076463Y-83085304D01*
X131073604Y-83106391D01*
X131069734Y-83120373D01*
X131064702Y-83129750D01*
X131058355Y-83137022D01*
X131025638Y-83155828D01*
X130988061Y-83157275D01*
X130954822Y-83140917D01*
X130953369Y-83139557D01*
X130945008Y-83128354D01*
X130939453Y-83111252D01*
X130936160Y-83084082D01*
X130934582Y-83042678D01*
X130934178Y-82982873D01*
X130934178Y-82843511D01*
X130670411Y-82843511D01*
X130594583Y-82843436D01*
X130527917Y-82843028D01*
X130478133Y-82842046D01*
X130442216Y-82840250D01*
X130417150Y-82837399D01*
X130399919Y-82833253D01*
X130387508Y-82827571D01*
X130376900Y-82820114D01*
X130374094Y-82817824D01*
X130351452Y-82786646D01*
X130349888Y-82752266D01*
X130369733Y-82719334D01*
X130377809Y-82712355D01*
X130388407Y-82706883D01*
X130404251Y-82702863D01*
X130428227Y-82700072D01*
X130463226Y-82698288D01*
X130512136Y-82697289D01*
X130577846Y-82696852D01*
X130663244Y-82696756D01*
X130934178Y-82696756D01*
X130934178Y-82550820D01*
X130934179Y-82539720D01*
X130934404Y-82483202D01*
X130935543Y-82444358D01*
X130938343Y-82418965D01*
X130943550Y-82402804D01*
X130951911Y-82391652D01*
X130964174Y-82381289D01*
X130994862Y-82365441D01*
X131028642Y-82368543D01*
G36*
X131028642Y-82368543D02*
G01*
X131061178Y-82394187D01*
X131064895Y-82399129D01*
X131069731Y-82409338D01*
X131073494Y-82424764D01*
X131076317Y-82447886D01*
X131078330Y-82481183D01*
X131079667Y-82527137D01*
X131080458Y-82588228D01*
X131080837Y-82666935D01*
X131080933Y-82765740D01*
X131080932Y-82785767D01*
X131080842Y-82879890D01*
X131080502Y-82954405D01*
X131079761Y-83011811D01*
X131078465Y-83054611D01*
X131076463Y-83085304D01*
X131073604Y-83106391D01*
X131069734Y-83120373D01*
X131064702Y-83129750D01*
X131058355Y-83137022D01*
X131025638Y-83155828D01*
X130988061Y-83157275D01*
X130954822Y-83140917D01*
X130953369Y-83139557D01*
X130945008Y-83128354D01*
X130939453Y-83111252D01*
X130936160Y-83084082D01*
X130934582Y-83042678D01*
X130934178Y-82982873D01*
X130934178Y-82843511D01*
X130670411Y-82843511D01*
X130594583Y-82843436D01*
X130527917Y-82843028D01*
X130478133Y-82842046D01*
X130442216Y-82840250D01*
X130417150Y-82837399D01*
X130399919Y-82833253D01*
X130387508Y-82827571D01*
X130376900Y-82820114D01*
X130374094Y-82817824D01*
X130351452Y-82786646D01*
X130349888Y-82752266D01*
X130369733Y-82719334D01*
X130377809Y-82712355D01*
X130388407Y-82706883D01*
X130404251Y-82702863D01*
X130428227Y-82700072D01*
X130463226Y-82698288D01*
X130512136Y-82697289D01*
X130577846Y-82696852D01*
X130663244Y-82696756D01*
X130934178Y-82696756D01*
X130934178Y-82550820D01*
X130934179Y-82539720D01*
X130934404Y-82483202D01*
X130935543Y-82444358D01*
X130938343Y-82418965D01*
X130943550Y-82402804D01*
X130951911Y-82391652D01*
X130964174Y-82381289D01*
X130994862Y-82365441D01*
X131028642Y-82368543D01*
G37*
X131053224Y-81369798D02*
X131075467Y-81401177D01*
X131078156Y-81434406D01*
X131058355Y-81466267D01*
X131048585Y-81474553D01*
X131032693Y-81481965D01*
X131008725Y-81486302D01*
X130971852Y-81488338D01*
X130917244Y-81488845D01*
X130798711Y-81488845D01*
X130798711Y-81985556D01*
X130914224Y-81985556D01*
X130965922Y-81985994D01*
X131000446Y-81987958D01*
X131023022Y-81992474D01*
X131038874Y-82000567D01*
X131053224Y-82013265D01*
X131075467Y-82044643D01*
X131078156Y-82077872D01*
X131058355Y-82109734D01*
X131052165Y-82115366D01*
X131043959Y-82120456D01*
X131032183Y-82124543D01*
X131014724Y-82127721D01*
X130989470Y-82130087D01*
X130954310Y-82131738D01*
X130907131Y-82132769D01*
X130845823Y-82133277D01*
X130768273Y-82133359D01*
X130672369Y-82133109D01*
X130556000Y-82132625D01*
X130541825Y-82132557D01*
X130480063Y-82131971D01*
X130436380Y-82130648D01*
X130406999Y-82128103D01*
X130388145Y-82123848D01*
X130376041Y-82117396D01*
X130366911Y-82108262D01*
X130349494Y-82074804D01*
X130352396Y-82039856D01*
X130376900Y-82008953D01*
X130390103Y-81999944D01*
X130408639Y-81992492D01*
X130434667Y-81988124D01*
X130473213Y-81986069D01*
X130529300Y-81985556D01*
X130651955Y-81985556D01*
X130651955Y-81488845D01*
X130517129Y-81488845D01*
X130481338Y-81488772D01*
X130435008Y-81488009D01*
X130404474Y-81485833D01*
X130385443Y-81481536D01*
X130373626Y-81474412D01*
X130364729Y-81463755D01*
X130349659Y-81431504D01*
X130352327Y-81396217D01*
X130376900Y-81365486D01*
X130383155Y-81360831D01*
X130393679Y-81354895D01*
X130407609Y-81350364D01*
X130427683Y-81347048D01*
X130456640Y-81344759D01*
X130497220Y-81343308D01*
X130552160Y-81342505D01*
X130624201Y-81342162D01*
X130716080Y-81342089D01*
X131025515Y-81342089D01*
X131053224Y-81369798D01*
G36*
X131053224Y-81369798D02*
G01*
X131075467Y-81401177D01*
X131078156Y-81434406D01*
X131058355Y-81466267D01*
X131048585Y-81474553D01*
X131032693Y-81481965D01*
X131008725Y-81486302D01*
X130971852Y-81488338D01*
X130917244Y-81488845D01*
X130798711Y-81488845D01*
X130798711Y-81985556D01*
X130914224Y-81985556D01*
X130965922Y-81985994D01*
X131000446Y-81987958D01*
X131023022Y-81992474D01*
X131038874Y-82000567D01*
X131053224Y-82013265D01*
X131075467Y-82044643D01*
X131078156Y-82077872D01*
X131058355Y-82109734D01*
X131052165Y-82115366D01*
X131043959Y-82120456D01*
X131032183Y-82124543D01*
X131014724Y-82127721D01*
X130989470Y-82130087D01*
X130954310Y-82131738D01*
X130907131Y-82132769D01*
X130845823Y-82133277D01*
X130768273Y-82133359D01*
X130672369Y-82133109D01*
X130556000Y-82132625D01*
X130541825Y-82132557D01*
X130480063Y-82131971D01*
X130436380Y-82130648D01*
X130406999Y-82128103D01*
X130388145Y-82123848D01*
X130376041Y-82117396D01*
X130366911Y-82108262D01*
X130349494Y-82074804D01*
X130352396Y-82039856D01*
X130376900Y-82008953D01*
X130390103Y-81999944D01*
X130408639Y-81992492D01*
X130434667Y-81988124D01*
X130473213Y-81986069D01*
X130529300Y-81985556D01*
X130651955Y-81985556D01*
X130651955Y-81488845D01*
X130517129Y-81488845D01*
X130481338Y-81488772D01*
X130435008Y-81488009D01*
X130404474Y-81485833D01*
X130385443Y-81481536D01*
X130373626Y-81474412D01*
X130364729Y-81463755D01*
X130349659Y-81431504D01*
X130352327Y-81396217D01*
X130376900Y-81365486D01*
X130383155Y-81360831D01*
X130393679Y-81354895D01*
X130407609Y-81350364D01*
X130427683Y-81347048D01*
X130456640Y-81344759D01*
X130497220Y-81343308D01*
X130552160Y-81342505D01*
X130624201Y-81342162D01*
X130716080Y-81342089D01*
X131025515Y-81342089D01*
X131053224Y-81369798D01*
G37*
X130772517Y-86025399D02*
X130834649Y-86049541D01*
X130836342Y-86050337D01*
X130905764Y-86090788D01*
X130962362Y-86141473D01*
X131006930Y-86204198D01*
X131040259Y-86280774D01*
X131063139Y-86373009D01*
X131076364Y-86482712D01*
X131080725Y-86611691D01*
X131080730Y-86615263D01*
X131080590Y-86675283D01*
X131079554Y-86717214D01*
X131076960Y-86745328D01*
X131072147Y-86763897D01*
X131064456Y-86777194D01*
X131053224Y-86789491D01*
X131025515Y-86817200D01*
X130716080Y-86817200D01*
X130654474Y-86817175D01*
X130575689Y-86816950D01*
X130514979Y-86816332D01*
X130493911Y-86815775D01*
X130469604Y-86815133D01*
X130436825Y-86813163D01*
X130413905Y-86810235D01*
X130398103Y-86806158D01*
X130386681Y-86800743D01*
X130376900Y-86793803D01*
X130347155Y-86770406D01*
X130347749Y-86604714D01*
X130348047Y-86569918D01*
X130348209Y-86565274D01*
X130493911Y-86565274D01*
X130493911Y-86659156D01*
X130934178Y-86659156D01*
X130933730Y-86571667D01*
X130931254Y-86504747D01*
X130920002Y-86412349D01*
X130900463Y-86333034D01*
X130873489Y-86271060D01*
X130852760Y-86240120D01*
X130822994Y-86212000D01*
X130780566Y-86188660D01*
X130764600Y-86181533D01*
X130732098Y-86169709D01*
X130707667Y-86167279D01*
X130682939Y-86172892D01*
X130667061Y-86178618D01*
X130607153Y-86211548D01*
X130561400Y-86258886D01*
X130528264Y-86322652D01*
X130506210Y-86404861D01*
X130505708Y-86407655D01*
X130499745Y-86453940D01*
X130495517Y-86510336D01*
X130493911Y-86565274D01*
X130348209Y-86565274D01*
X130351478Y-86471435D01*
X130359161Y-86390473D01*
X130371718Y-86323379D01*
X130389773Y-86266496D01*
X130413948Y-86216169D01*
X130415865Y-86212810D01*
X130452583Y-86154998D01*
X130489549Y-86112644D01*
X130533034Y-86079828D01*
X130589311Y-86050628D01*
X130598927Y-86046346D01*
X130662113Y-86023769D01*
X130717491Y-86016797D01*
X130772517Y-86025399D01*
G36*
X130772517Y-86025399D02*
G01*
X130834649Y-86049541D01*
X130836342Y-86050337D01*
X130905764Y-86090788D01*
X130962362Y-86141473D01*
X131006930Y-86204198D01*
X131040259Y-86280774D01*
X131063139Y-86373009D01*
X131076364Y-86482712D01*
X131080725Y-86611691D01*
X131080730Y-86615263D01*
X131080590Y-86675283D01*
X131079554Y-86717214D01*
X131076960Y-86745328D01*
X131072147Y-86763897D01*
X131064456Y-86777194D01*
X131053224Y-86789491D01*
X131025515Y-86817200D01*
X130716080Y-86817200D01*
X130654474Y-86817175D01*
X130575689Y-86816950D01*
X130514979Y-86816332D01*
X130493911Y-86815775D01*
X130469604Y-86815133D01*
X130436825Y-86813163D01*
X130413905Y-86810235D01*
X130398103Y-86806158D01*
X130386681Y-86800743D01*
X130376900Y-86793803D01*
X130347155Y-86770406D01*
X130347749Y-86604714D01*
X130348047Y-86569918D01*
X130348209Y-86565274D01*
X130493911Y-86565274D01*
X130493911Y-86659156D01*
X130934178Y-86659156D01*
X130933730Y-86571667D01*
X130931254Y-86504747D01*
X130920002Y-86412349D01*
X130900463Y-86333034D01*
X130873489Y-86271060D01*
X130852760Y-86240120D01*
X130822994Y-86212000D01*
X130780566Y-86188660D01*
X130764600Y-86181533D01*
X130732098Y-86169709D01*
X130707667Y-86167279D01*
X130682939Y-86172892D01*
X130667061Y-86178618D01*
X130607153Y-86211548D01*
X130561400Y-86258886D01*
X130528264Y-86322652D01*
X130506210Y-86404861D01*
X130505708Y-86407655D01*
X130499745Y-86453940D01*
X130495517Y-86510336D01*
X130493911Y-86565274D01*
X130348209Y-86565274D01*
X130351478Y-86471435D01*
X130359161Y-86390473D01*
X130371718Y-86323379D01*
X130389773Y-86266496D01*
X130413948Y-86216169D01*
X130415865Y-86212810D01*
X130452583Y-86154998D01*
X130489549Y-86112644D01*
X130533034Y-86079828D01*
X130589311Y-86050628D01*
X130598927Y-86046346D01*
X130662113Y-86023769D01*
X130717491Y-86016797D01*
X130772517Y-86025399D01*
G37*
X130735261Y-93117679D02*
X130792677Y-93129991D01*
X130852587Y-93152520D01*
X130906637Y-93181750D01*
X130946468Y-93214167D01*
X130963490Y-93233708D01*
X131002678Y-93288420D01*
X131032807Y-93348723D01*
X131054768Y-93417919D01*
X131069450Y-93499311D01*
X131077741Y-93596200D01*
X131080533Y-93711889D01*
X131080934Y-93751371D01*
X131081347Y-93797082D01*
X131079543Y-93832883D01*
X131073261Y-93859974D01*
X131060241Y-93879556D01*
X131038222Y-93892830D01*
X131004945Y-93900998D01*
X130958149Y-93905260D01*
X130934178Y-93905857D01*
X130895573Y-93906817D01*
X130814959Y-93906870D01*
X130714044Y-93906622D01*
X130638383Y-93906583D01*
X130560474Y-93906328D01*
X130500464Y-93905684D01*
X130455736Y-93904480D01*
X130423674Y-93902543D01*
X130401660Y-93899703D01*
X130387076Y-93895788D01*
X130377306Y-93890626D01*
X130369733Y-93884045D01*
X130363499Y-93877077D01*
X130356199Y-93864079D01*
X130351446Y-93844931D01*
X130348708Y-93815528D01*
X130347455Y-93771762D01*
X130347398Y-93759867D01*
X130493911Y-93759867D01*
X130934178Y-93759867D01*
X130934192Y-93683667D01*
X130934183Y-93680639D01*
X130932218Y-93629519D01*
X130927493Y-93569416D01*
X130920965Y-93512708D01*
X130911669Y-93462750D01*
X130885400Y-93387998D01*
X130846101Y-93330489D01*
X130793067Y-93288988D01*
X130741800Y-93267771D01*
X130693974Y-93266353D01*
X130643039Y-93284635D01*
X130597122Y-93314305D01*
X130554713Y-93361002D01*
X130524910Y-93422392D01*
X130505774Y-93501538D01*
X130505536Y-93503028D01*
X130499744Y-93551999D01*
X130495604Y-93610693D01*
X130493996Y-93666734D01*
X130493911Y-93759867D01*
X130347398Y-93759867D01*
X130347155Y-93709528D01*
X130347531Y-93660582D01*
X130351959Y-93553722D01*
X130362047Y-93464494D01*
X130378635Y-93389696D01*
X130402565Y-93326125D01*
X130434679Y-93270579D01*
X130475818Y-93219854D01*
X130481670Y-93213866D01*
X130530179Y-93176999D01*
X130590987Y-93145899D01*
X130655231Y-93124417D01*
X130714044Y-93116400D01*
X130735261Y-93117679D01*
G36*
X130735261Y-93117679D02*
G01*
X130792677Y-93129991D01*
X130852587Y-93152520D01*
X130906637Y-93181750D01*
X130946468Y-93214167D01*
X130963490Y-93233708D01*
X131002678Y-93288420D01*
X131032807Y-93348723D01*
X131054768Y-93417919D01*
X131069450Y-93499311D01*
X131077741Y-93596200D01*
X131080533Y-93711889D01*
X131080934Y-93751371D01*
X131081347Y-93797082D01*
X131079543Y-93832883D01*
X131073261Y-93859974D01*
X131060241Y-93879556D01*
X131038222Y-93892830D01*
X131004945Y-93900998D01*
X130958149Y-93905260D01*
X130934178Y-93905857D01*
X130895573Y-93906817D01*
X130814959Y-93906870D01*
X130714044Y-93906622D01*
X130638383Y-93906583D01*
X130560474Y-93906328D01*
X130500464Y-93905684D01*
X130455736Y-93904480D01*
X130423674Y-93902543D01*
X130401660Y-93899703D01*
X130387076Y-93895788D01*
X130377306Y-93890626D01*
X130369733Y-93884045D01*
X130363499Y-93877077D01*
X130356199Y-93864079D01*
X130351446Y-93844931D01*
X130348708Y-93815528D01*
X130347455Y-93771762D01*
X130347398Y-93759867D01*
X130493911Y-93759867D01*
X130934178Y-93759867D01*
X130934192Y-93683667D01*
X130934183Y-93680639D01*
X130932218Y-93629519D01*
X130927493Y-93569416D01*
X130920965Y-93512708D01*
X130911669Y-93462750D01*
X130885400Y-93387998D01*
X130846101Y-93330489D01*
X130793067Y-93288988D01*
X130741800Y-93267771D01*
X130693974Y-93266353D01*
X130643039Y-93284635D01*
X130597122Y-93314305D01*
X130554713Y-93361002D01*
X130524910Y-93422392D01*
X130505774Y-93501538D01*
X130505536Y-93503028D01*
X130499744Y-93551999D01*
X130495604Y-93610693D01*
X130493996Y-93666734D01*
X130493911Y-93759867D01*
X130347398Y-93759867D01*
X130347155Y-93709528D01*
X130347531Y-93660582D01*
X130351959Y-93553722D01*
X130362047Y-93464494D01*
X130378635Y-93389696D01*
X130402565Y-93326125D01*
X130434679Y-93270579D01*
X130475818Y-93219854D01*
X130481670Y-93213866D01*
X130530179Y-93176999D01*
X130590987Y-93145899D01*
X130655231Y-93124417D01*
X130714044Y-93116400D01*
X130735261Y-93117679D01*
G37*
X130630221Y-88218435D02*
X130722849Y-88219352D01*
X131037801Y-88222667D01*
X131059367Y-88249318D01*
X131075559Y-88275383D01*
X131078330Y-88308241D01*
X131059377Y-88342772D01*
X131055792Y-88347084D01*
X131047263Y-88355216D01*
X131035671Y-88361245D01*
X131017765Y-88365606D01*
X130990294Y-88368734D01*
X130950006Y-88371063D01*
X130893649Y-88373029D01*
X130817971Y-88375067D01*
X130598122Y-88380711D01*
X130761916Y-88561334D01*
X130840549Y-88648072D01*
X130908942Y-88723843D01*
X130964292Y-88785980D01*
X131007662Y-88836078D01*
X131040119Y-88875735D01*
X131062727Y-88906548D01*
X131076552Y-88930114D01*
X131082657Y-88948030D01*
X131082108Y-88961893D01*
X131075971Y-88973301D01*
X131065309Y-88983850D01*
X131051189Y-88995136D01*
X131045228Y-88999589D01*
X131034732Y-89005588D01*
X131020907Y-89010167D01*
X131001002Y-89013519D01*
X130972268Y-89015833D01*
X130931955Y-89017301D01*
X130877313Y-89018113D01*
X130805593Y-89018460D01*
X130714044Y-89018534D01*
X130655514Y-89018511D01*
X130576427Y-89018292D01*
X130515484Y-89017683D01*
X130469938Y-89016492D01*
X130437037Y-89014529D01*
X130414032Y-89011603D01*
X130398174Y-89007523D01*
X130386714Y-89002097D01*
X130376900Y-88995136D01*
X130352507Y-88964708D01*
X130349628Y-88929765D01*
X130368718Y-88892784D01*
X130372193Y-88888600D01*
X130380721Y-88880424D01*
X130392272Y-88874364D01*
X130410104Y-88869981D01*
X130437476Y-88866839D01*
X130477646Y-88864502D01*
X130533872Y-88862531D01*
X130609411Y-88860489D01*
X130828542Y-88854845D01*
X130587901Y-88589556D01*
X130521125Y-88515722D01*
X130463009Y-88450542D01*
X130418051Y-88398348D01*
X130385129Y-88357273D01*
X130363121Y-88325455D01*
X130350906Y-88301026D01*
X130347361Y-88282124D01*
X130351364Y-88266883D01*
X130361793Y-88253439D01*
X130377526Y-88239927D01*
X130386009Y-88233682D01*
X130396587Y-88228050D01*
X130410745Y-88223839D01*
X130431197Y-88220887D01*
X130460658Y-88219032D01*
X130501839Y-88218113D01*
X130557456Y-88217968D01*
X130630221Y-88218435D01*
G36*
X130630221Y-88218435D02*
G01*
X130722849Y-88219352D01*
X131037801Y-88222667D01*
X131059367Y-88249318D01*
X131075559Y-88275383D01*
X131078330Y-88308241D01*
X131059377Y-88342772D01*
X131055792Y-88347084D01*
X131047263Y-88355216D01*
X131035671Y-88361245D01*
X131017765Y-88365606D01*
X130990294Y-88368734D01*
X130950006Y-88371063D01*
X130893649Y-88373029D01*
X130817971Y-88375067D01*
X130598122Y-88380711D01*
X130761916Y-88561334D01*
X130840549Y-88648072D01*
X130908942Y-88723843D01*
X130964292Y-88785980D01*
X131007662Y-88836078D01*
X131040119Y-88875735D01*
X131062727Y-88906548D01*
X131076552Y-88930114D01*
X131082657Y-88948030D01*
X131082108Y-88961893D01*
X131075971Y-88973301D01*
X131065309Y-88983850D01*
X131051189Y-88995136D01*
X131045228Y-88999589D01*
X131034732Y-89005588D01*
X131020907Y-89010167D01*
X131001002Y-89013519D01*
X130972268Y-89015833D01*
X130931955Y-89017301D01*
X130877313Y-89018113D01*
X130805593Y-89018460D01*
X130714044Y-89018534D01*
X130655514Y-89018511D01*
X130576427Y-89018292D01*
X130515484Y-89017683D01*
X130469938Y-89016492D01*
X130437037Y-89014529D01*
X130414032Y-89011603D01*
X130398174Y-89007523D01*
X130386714Y-89002097D01*
X130376900Y-88995136D01*
X130352507Y-88964708D01*
X130349628Y-88929765D01*
X130368718Y-88892784D01*
X130372193Y-88888600D01*
X130380721Y-88880424D01*
X130392272Y-88874364D01*
X130410104Y-88869981D01*
X130437476Y-88866839D01*
X130477646Y-88864502D01*
X130533872Y-88862531D01*
X130609411Y-88860489D01*
X130828542Y-88854845D01*
X130587901Y-88589556D01*
X130521125Y-88515722D01*
X130463009Y-88450542D01*
X130418051Y-88398348D01*
X130385129Y-88357273D01*
X130363121Y-88325455D01*
X130350906Y-88301026D01*
X130347361Y-88282124D01*
X130351364Y-88266883D01*
X130361793Y-88253439D01*
X130377526Y-88239927D01*
X130386009Y-88233682D01*
X130396587Y-88228050D01*
X130410745Y-88223839D01*
X130431197Y-88220887D01*
X130460658Y-88219032D01*
X130501839Y-88218113D01*
X130557456Y-88217968D01*
X130630221Y-88218435D01*
G37*
X130642162Y-89358060D02*
X130689544Y-89362780D01*
X130721647Y-89374470D01*
X130741200Y-89396239D01*
X130750930Y-89431198D01*
X130753567Y-89482456D01*
X130751839Y-89553123D01*
X130748827Y-89601743D01*
X130740634Y-89651939D01*
X130726581Y-89684433D01*
X130705346Y-89701892D01*
X130675606Y-89706983D01*
X130671064Y-89706877D01*
X130636270Y-89698175D01*
X130612853Y-89674165D01*
X130599653Y-89632900D01*
X130595511Y-89572431D01*
X130595511Y-89503956D01*
X130557159Y-89503956D01*
X130548024Y-89504006D01*
X130530773Y-89506227D01*
X130520479Y-89515494D01*
X130513541Y-89536875D01*
X130506359Y-89575436D01*
X130505425Y-89580910D01*
X130495522Y-89677860D01*
X130498441Y-89767852D01*
X130513171Y-89848760D01*
X130538701Y-89918459D01*
X130574022Y-89974824D01*
X130618121Y-90015729D01*
X130669988Y-90039051D01*
X130728612Y-90042663D01*
X130757506Y-90037145D01*
X130813396Y-90010461D01*
X130859055Y-89964273D01*
X130893892Y-89899291D01*
X130917310Y-89816229D01*
X130921759Y-89791555D01*
X130932258Y-89702226D01*
X130931029Y-89622419D01*
X130918094Y-89544326D01*
X130911304Y-89509183D01*
X130910287Y-89463745D01*
X130922818Y-89432430D01*
X130949605Y-89412277D01*
X130977852Y-89405893D01*
X131009076Y-89415379D01*
X131022501Y-89424708D01*
X131046033Y-89458943D01*
X131063905Y-89511565D01*
X131075401Y-89580081D01*
X131079808Y-89662000D01*
X131075821Y-89759150D01*
X131059506Y-89865157D01*
X131031455Y-89958969D01*
X130992548Y-90037765D01*
X130943666Y-90098719D01*
X130910805Y-90124789D01*
X130861606Y-90154297D01*
X130807748Y-90179568D01*
X130756581Y-90197218D01*
X130715456Y-90203858D01*
X130695741Y-90202298D01*
X130644408Y-90189357D01*
X130587882Y-90166194D01*
X130533965Y-90136302D01*
X130490461Y-90103173D01*
X130480113Y-90092977D01*
X130428338Y-90025892D01*
X130388446Y-89945766D01*
X130364044Y-89859556D01*
X130355932Y-89804592D01*
X130349327Y-89711139D01*
X130351414Y-89621358D01*
X130361660Y-89538869D01*
X130379530Y-89467286D01*
X130404492Y-89410228D01*
X130436012Y-89371311D01*
X130437988Y-89369936D01*
X130463214Y-89362848D01*
X130510465Y-89358609D01*
X130579929Y-89357200D01*
X130642162Y-89358060D01*
G36*
X130642162Y-89358060D02*
G01*
X130689544Y-89362780D01*
X130721647Y-89374470D01*
X130741200Y-89396239D01*
X130750930Y-89431198D01*
X130753567Y-89482456D01*
X130751839Y-89553123D01*
X130748827Y-89601743D01*
X130740634Y-89651939D01*
X130726581Y-89684433D01*
X130705346Y-89701892D01*
X130675606Y-89706983D01*
X130671064Y-89706877D01*
X130636270Y-89698175D01*
X130612853Y-89674165D01*
X130599653Y-89632900D01*
X130595511Y-89572431D01*
X130595511Y-89503956D01*
X130557159Y-89503956D01*
X130548024Y-89504006D01*
X130530773Y-89506227D01*
X130520479Y-89515494D01*
X130513541Y-89536875D01*
X130506359Y-89575436D01*
X130505425Y-89580910D01*
X130495522Y-89677860D01*
X130498441Y-89767852D01*
X130513171Y-89848760D01*
X130538701Y-89918459D01*
X130574022Y-89974824D01*
X130618121Y-90015729D01*
X130669988Y-90039051D01*
X130728612Y-90042663D01*
X130757506Y-90037145D01*
X130813396Y-90010461D01*
X130859055Y-89964273D01*
X130893892Y-89899291D01*
X130917310Y-89816229D01*
X130921759Y-89791555D01*
X130932258Y-89702226D01*
X130931029Y-89622419D01*
X130918094Y-89544326D01*
X130911304Y-89509183D01*
X130910287Y-89463745D01*
X130922818Y-89432430D01*
X130949605Y-89412277D01*
X130977852Y-89405893D01*
X131009076Y-89415379D01*
X131022501Y-89424708D01*
X131046033Y-89458943D01*
X131063905Y-89511565D01*
X131075401Y-89580081D01*
X131079808Y-89662000D01*
X131075821Y-89759150D01*
X131059506Y-89865157D01*
X131031455Y-89958969D01*
X130992548Y-90037765D01*
X130943666Y-90098719D01*
X130910805Y-90124789D01*
X130861606Y-90154297D01*
X130807748Y-90179568D01*
X130756581Y-90197218D01*
X130715456Y-90203858D01*
X130695741Y-90202298D01*
X130644408Y-90189357D01*
X130587882Y-90166194D01*
X130533965Y-90136302D01*
X130490461Y-90103173D01*
X130480113Y-90092977D01*
X130428338Y-90025892D01*
X130388446Y-89945766D01*
X130364044Y-89859556D01*
X130355932Y-89804592D01*
X130349327Y-89711139D01*
X130351414Y-89621358D01*
X130361660Y-89538869D01*
X130379530Y-89467286D01*
X130404492Y-89410228D01*
X130436012Y-89371311D01*
X130437988Y-89369936D01*
X130463214Y-89362848D01*
X130510465Y-89358609D01*
X130579929Y-89357200D01*
X130642162Y-89358060D01*
G37*
X131011030Y-87155873D02*
X131031061Y-87157027D01*
X131046854Y-87161824D01*
X131058910Y-87172632D01*
X131067733Y-87191817D01*
X131073825Y-87221745D01*
X131077689Y-87264783D01*
X131079826Y-87323299D01*
X131080740Y-87399657D01*
X131080933Y-87496226D01*
X131080933Y-87786406D01*
X131051189Y-87809803D01*
X131044505Y-87814752D01*
X131033934Y-87820596D01*
X131019847Y-87825057D01*
X130999522Y-87828321D01*
X130970235Y-87830574D01*
X130929263Y-87832002D01*
X130873883Y-87832792D01*
X130801372Y-87833129D01*
X130709006Y-87833200D01*
X130643089Y-87833171D01*
X130564772Y-87832939D01*
X130504504Y-87832319D01*
X130459607Y-87831126D01*
X130427398Y-87829179D01*
X130405200Y-87826294D01*
X130390331Y-87822288D01*
X130380111Y-87816979D01*
X130371862Y-87810183D01*
X130367205Y-87805668D01*
X130360718Y-87797438D01*
X130355806Y-87786078D01*
X130352251Y-87768810D01*
X130349833Y-87742855D01*
X130348333Y-87705436D01*
X130347533Y-87653773D01*
X130347213Y-87585089D01*
X130347155Y-87496606D01*
X130347162Y-87476931D01*
X130347428Y-87389906D01*
X130348194Y-87322254D01*
X130349608Y-87271299D01*
X130351820Y-87234367D01*
X130354978Y-87208783D01*
X130359231Y-87191871D01*
X130364729Y-87180957D01*
X130374715Y-87170464D01*
X130405832Y-87157203D01*
X130441720Y-87158386D01*
X130473267Y-87174550D01*
X130475543Y-87176739D01*
X130481811Y-87185427D01*
X130486477Y-87198769D01*
X130489773Y-87219752D01*
X130491932Y-87251363D01*
X130493186Y-87296590D01*
X130493769Y-87358420D01*
X130493911Y-87439839D01*
X130493911Y-87686445D01*
X130651955Y-87686445D01*
X130651955Y-87524006D01*
X130652036Y-87488338D01*
X130652833Y-87432568D01*
X130654838Y-87393430D01*
X130658479Y-87366976D01*
X130664188Y-87349259D01*
X130672393Y-87336329D01*
X130675577Y-87332686D01*
X130706552Y-87314278D01*
X130742888Y-87313644D01*
X130776507Y-87331183D01*
X130776576Y-87331245D01*
X130785202Y-87340916D01*
X130791258Y-87354209D01*
X130795189Y-87374917D01*
X130797444Y-87406828D01*
X130798469Y-87453734D01*
X130798711Y-87519424D01*
X130798711Y-87687571D01*
X130863622Y-87684186D01*
X130928533Y-87680800D01*
X130931586Y-87438723D01*
X130931914Y-87413707D01*
X130933394Y-87332087D01*
X130935778Y-87269768D01*
X130939773Y-87224154D01*
X130946087Y-87192652D01*
X130955426Y-87172667D01*
X130968497Y-87161604D01*
X130986008Y-87156869D01*
X131008665Y-87155867D01*
X131011030Y-87155873D01*
G36*
X131011030Y-87155873D02*
G01*
X131031061Y-87157027D01*
X131046854Y-87161824D01*
X131058910Y-87172632D01*
X131067733Y-87191817D01*
X131073825Y-87221745D01*
X131077689Y-87264783D01*
X131079826Y-87323299D01*
X131080740Y-87399657D01*
X131080933Y-87496226D01*
X131080933Y-87786406D01*
X131051189Y-87809803D01*
X131044505Y-87814752D01*
X131033934Y-87820596D01*
X131019847Y-87825057D01*
X130999522Y-87828321D01*
X130970235Y-87830574D01*
X130929263Y-87832002D01*
X130873883Y-87832792D01*
X130801372Y-87833129D01*
X130709006Y-87833200D01*
X130643089Y-87833171D01*
X130564772Y-87832939D01*
X130504504Y-87832319D01*
X130459607Y-87831126D01*
X130427398Y-87829179D01*
X130405200Y-87826294D01*
X130390331Y-87822288D01*
X130380111Y-87816979D01*
X130371862Y-87810183D01*
X130367205Y-87805668D01*
X130360718Y-87797438D01*
X130355806Y-87786078D01*
X130352251Y-87768810D01*
X130349833Y-87742855D01*
X130348333Y-87705436D01*
X130347533Y-87653773D01*
X130347213Y-87585089D01*
X130347155Y-87496606D01*
X130347162Y-87476931D01*
X130347428Y-87389906D01*
X130348194Y-87322254D01*
X130349608Y-87271299D01*
X130351820Y-87234367D01*
X130354978Y-87208783D01*
X130359231Y-87191871D01*
X130364729Y-87180957D01*
X130374715Y-87170464D01*
X130405832Y-87157203D01*
X130441720Y-87158386D01*
X130473267Y-87174550D01*
X130475543Y-87176739D01*
X130481811Y-87185427D01*
X130486477Y-87198769D01*
X130489773Y-87219752D01*
X130491932Y-87251363D01*
X130493186Y-87296590D01*
X130493769Y-87358420D01*
X130493911Y-87439839D01*
X130493911Y-87686445D01*
X130651955Y-87686445D01*
X130651955Y-87524006D01*
X130652036Y-87488338D01*
X130652833Y-87432568D01*
X130654838Y-87393430D01*
X130658479Y-87366976D01*
X130664188Y-87349259D01*
X130672393Y-87336329D01*
X130675577Y-87332686D01*
X130706552Y-87314278D01*
X130742888Y-87313644D01*
X130776507Y-87331183D01*
X130776576Y-87331245D01*
X130785202Y-87340916D01*
X130791258Y-87354209D01*
X130795189Y-87374917D01*
X130797444Y-87406828D01*
X130798469Y-87453734D01*
X130798711Y-87519424D01*
X130798711Y-87687571D01*
X130863622Y-87684186D01*
X130928533Y-87680800D01*
X130931586Y-87438723D01*
X130931914Y-87413707D01*
X130933394Y-87332087D01*
X130935778Y-87269768D01*
X130939773Y-87224154D01*
X130946087Y-87192652D01*
X130955426Y-87172667D01*
X130968497Y-87161604D01*
X130986008Y-87156869D01*
X131008665Y-87155867D01*
X131011030Y-87155873D01*
G37*
X130444440Y-92094610D02*
X130471333Y-92111689D01*
X130475941Y-92116668D01*
X130482228Y-92126443D01*
X130486854Y-92140559D01*
X130490070Y-92162054D01*
X130492130Y-92193968D01*
X130493288Y-92239342D01*
X130493798Y-92301213D01*
X130493911Y-92382622D01*
X130493911Y-92630978D01*
X130651955Y-92630978D01*
X130651955Y-92469801D01*
X130652101Y-92433983D01*
X130653824Y-92368359D01*
X130658259Y-92321118D01*
X130666363Y-92289383D01*
X130679094Y-92270277D01*
X130697408Y-92260923D01*
X130722262Y-92258445D01*
X130742518Y-92259242D01*
X130764344Y-92264494D01*
X130779696Y-92277288D01*
X130789691Y-92300628D01*
X130795447Y-92337517D01*
X130798081Y-92390959D01*
X130798711Y-92463958D01*
X130798711Y-92632105D01*
X130863622Y-92628719D01*
X130928533Y-92625334D01*
X130931582Y-92377617D01*
X130932461Y-92315026D01*
X130933905Y-92246565D01*
X130935836Y-92195661D01*
X130938486Y-92159408D01*
X130942090Y-92134901D01*
X130946879Y-92119235D01*
X130953087Y-92109506D01*
X130959490Y-92103491D01*
X130991172Y-92090482D01*
X131026858Y-92094043D01*
X131057916Y-92113818D01*
X131060839Y-92117069D01*
X131067190Y-92126049D01*
X131072043Y-92138153D01*
X131075597Y-92156159D01*
X131078054Y-92182847D01*
X131079615Y-92220997D01*
X131080482Y-92273386D01*
X131080854Y-92342794D01*
X131080933Y-92432001D01*
X131080917Y-92486734D01*
X131080725Y-92563831D01*
X131080140Y-92622777D01*
X131078949Y-92666364D01*
X131076936Y-92697383D01*
X131073888Y-92718625D01*
X131069591Y-92732882D01*
X131063828Y-92742945D01*
X131056388Y-92751606D01*
X131054707Y-92753391D01*
X131047168Y-92760635D01*
X131038150Y-92766277D01*
X131025016Y-92770517D01*
X131005128Y-92773556D01*
X130975849Y-92775594D01*
X130934542Y-92776830D01*
X130878569Y-92777465D01*
X130805293Y-92777700D01*
X130712077Y-92777734D01*
X130639287Y-92777697D01*
X130561111Y-92777448D01*
X130500897Y-92776812D01*
X130456018Y-92775615D01*
X130423848Y-92773684D01*
X130401761Y-92770846D01*
X130387130Y-92766927D01*
X130377330Y-92761755D01*
X130369733Y-92755156D01*
X130366556Y-92751822D01*
X130360446Y-92743300D01*
X130355771Y-92731298D01*
X130352341Y-92713087D01*
X130349964Y-92685940D01*
X130348448Y-92647129D01*
X130347602Y-92593924D01*
X130347235Y-92523598D01*
X130347155Y-92433422D01*
X130347167Y-92391314D01*
X130347349Y-92310167D01*
X130347902Y-92247675D01*
X130349018Y-92201109D01*
X130350887Y-92167741D01*
X130353702Y-92144844D01*
X130357654Y-92129688D01*
X130362934Y-92119546D01*
X130369733Y-92111689D01*
X130391333Y-92096963D01*
X130420533Y-92089111D01*
X130444440Y-92094610D01*
G36*
X130444440Y-92094610D02*
G01*
X130471333Y-92111689D01*
X130475941Y-92116668D01*
X130482228Y-92126443D01*
X130486854Y-92140559D01*
X130490070Y-92162054D01*
X130492130Y-92193968D01*
X130493288Y-92239342D01*
X130493798Y-92301213D01*
X130493911Y-92382622D01*
X130493911Y-92630978D01*
X130651955Y-92630978D01*
X130651955Y-92469801D01*
X130652101Y-92433983D01*
X130653824Y-92368359D01*
X130658259Y-92321118D01*
X130666363Y-92289383D01*
X130679094Y-92270277D01*
X130697408Y-92260923D01*
X130722262Y-92258445D01*
X130742518Y-92259242D01*
X130764344Y-92264494D01*
X130779696Y-92277288D01*
X130789691Y-92300628D01*
X130795447Y-92337517D01*
X130798081Y-92390959D01*
X130798711Y-92463958D01*
X130798711Y-92632105D01*
X130863622Y-92628719D01*
X130928533Y-92625334D01*
X130931582Y-92377617D01*
X130932461Y-92315026D01*
X130933905Y-92246565D01*
X130935836Y-92195661D01*
X130938486Y-92159408D01*
X130942090Y-92134901D01*
X130946879Y-92119235D01*
X130953087Y-92109506D01*
X130959490Y-92103491D01*
X130991172Y-92090482D01*
X131026858Y-92094043D01*
X131057916Y-92113818D01*
X131060839Y-92117069D01*
X131067190Y-92126049D01*
X131072043Y-92138153D01*
X131075597Y-92156159D01*
X131078054Y-92182847D01*
X131079615Y-92220997D01*
X131080482Y-92273386D01*
X131080854Y-92342794D01*
X131080933Y-92432001D01*
X131080917Y-92486734D01*
X131080725Y-92563831D01*
X131080140Y-92622777D01*
X131078949Y-92666364D01*
X131076936Y-92697383D01*
X131073888Y-92718625D01*
X131069591Y-92732882D01*
X131063828Y-92742945D01*
X131056388Y-92751606D01*
X131054707Y-92753391D01*
X131047168Y-92760635D01*
X131038150Y-92766277D01*
X131025016Y-92770517D01*
X131005128Y-92773556D01*
X130975849Y-92775594D01*
X130934542Y-92776830D01*
X130878569Y-92777465D01*
X130805293Y-92777700D01*
X130712077Y-92777734D01*
X130639287Y-92777697D01*
X130561111Y-92777448D01*
X130500897Y-92776812D01*
X130456018Y-92775615D01*
X130423848Y-92773684D01*
X130401761Y-92770846D01*
X130387130Y-92766927D01*
X130377330Y-92761755D01*
X130369733Y-92755156D01*
X130366556Y-92751822D01*
X130360446Y-92743300D01*
X130355771Y-92731298D01*
X130352341Y-92713087D01*
X130349964Y-92685940D01*
X130348448Y-92647129D01*
X130347602Y-92593924D01*
X130347235Y-92523598D01*
X130347155Y-92433422D01*
X130347167Y-92391314D01*
X130347349Y-92310167D01*
X130347902Y-92247675D01*
X130349018Y-92201109D01*
X130350887Y-92167741D01*
X130353702Y-92144844D01*
X130357654Y-92129688D01*
X130362934Y-92119546D01*
X130369733Y-92111689D01*
X130391333Y-92096963D01*
X130420533Y-92089111D01*
X130444440Y-92094610D01*
G37*
X131030439Y-83823730D02*
X131051322Y-83838387D01*
X131071623Y-83864990D01*
X131071965Y-83865745D01*
X131078966Y-83885335D01*
X131079496Y-83902790D01*
X131071522Y-83919702D01*
X131053011Y-83937663D01*
X131021929Y-83958263D01*
X130976244Y-83983095D01*
X130913922Y-84013750D01*
X130832929Y-84051820D01*
X130801546Y-84066454D01*
X130738362Y-84096203D01*
X130683756Y-84122297D01*
X130640710Y-84143292D01*
X130612207Y-84157739D01*
X130601230Y-84164191D01*
X130601811Y-84165550D01*
X130615758Y-84175542D01*
X130645296Y-84192833D01*
X130686913Y-84215430D01*
X130737097Y-84241338D01*
X130768586Y-84257311D01*
X130823939Y-84286261D01*
X130862956Y-84308749D01*
X130888434Y-84326965D01*
X130903169Y-84343096D01*
X130909958Y-84359330D01*
X130911600Y-84377857D01*
X130911125Y-84388360D01*
X130906918Y-84404476D01*
X130896054Y-84419790D01*
X130875781Y-84436388D01*
X130843346Y-84456357D01*
X130795996Y-84481783D01*
X130730978Y-84514752D01*
X130711723Y-84524485D01*
X130665054Y-84548943D01*
X130628891Y-84569178D01*
X130606503Y-84583311D01*
X130601155Y-84589460D01*
X130604427Y-84590827D01*
X130625336Y-84600202D01*
X130662275Y-84617062D01*
X130712126Y-84639979D01*
X130771774Y-84667520D01*
X130838102Y-84698255D01*
X130895323Y-84724970D01*
X130957312Y-84754593D01*
X131003051Y-84777664D01*
X131035092Y-84795643D01*
X131055986Y-84809990D01*
X131068282Y-84822166D01*
X131074534Y-84833632D01*
X131077426Y-84843042D01*
X131077575Y-84868147D01*
X131062232Y-84895290D01*
X131061247Y-84896590D01*
X131038612Y-84918674D01*
X131016387Y-84929723D01*
X131015747Y-84929769D01*
X130998085Y-84925228D01*
X130963519Y-84912364D01*
X130915174Y-84892605D01*
X130856175Y-84867381D01*
X130789645Y-84838119D01*
X130718709Y-84806250D01*
X130646493Y-84773201D01*
X130576120Y-84740401D01*
X130510715Y-84709280D01*
X130453403Y-84681265D01*
X130407308Y-84657786D01*
X130375554Y-84640272D01*
X130361267Y-84630151D01*
X130347898Y-84595743D01*
X130354259Y-84554046D01*
X130358956Y-84548681D01*
X130381107Y-84532852D01*
X130417868Y-84510650D01*
X130465585Y-84484233D01*
X130520607Y-84455760D01*
X130679850Y-84375986D01*
X130533258Y-84302799D01*
X130513968Y-84293103D01*
X130461620Y-84266125D01*
X130416830Y-84242096D01*
X130383846Y-84223332D01*
X130366911Y-84212146D01*
X130365668Y-84211000D01*
X130350381Y-84182879D01*
X130348698Y-84147817D01*
X130361267Y-84116776D01*
X130364116Y-84114350D01*
X130384741Y-84102090D01*
X130422292Y-84082352D01*
X130474120Y-84056448D01*
X130537577Y-84025685D01*
X130610015Y-83991375D01*
X130688784Y-83954825D01*
X130732907Y-83934585D01*
X130813635Y-83897812D01*
X130877313Y-83869355D01*
X130926248Y-83848331D01*
X130962743Y-83833854D01*
X130989105Y-83825039D01*
X131007639Y-83821004D01*
X131020648Y-83820862D01*
X131030439Y-83823730D01*
G36*
X131030439Y-83823730D02*
G01*
X131051322Y-83838387D01*
X131071623Y-83864990D01*
X131071965Y-83865745D01*
X131078966Y-83885335D01*
X131079496Y-83902790D01*
X131071522Y-83919702D01*
X131053011Y-83937663D01*
X131021929Y-83958263D01*
X130976244Y-83983095D01*
X130913922Y-84013750D01*
X130832929Y-84051820D01*
X130801546Y-84066454D01*
X130738362Y-84096203D01*
X130683756Y-84122297D01*
X130640710Y-84143292D01*
X130612207Y-84157739D01*
X130601230Y-84164191D01*
X130601811Y-84165550D01*
X130615758Y-84175542D01*
X130645296Y-84192833D01*
X130686913Y-84215430D01*
X130737097Y-84241338D01*
X130768586Y-84257311D01*
X130823939Y-84286261D01*
X130862956Y-84308749D01*
X130888434Y-84326965D01*
X130903169Y-84343096D01*
X130909958Y-84359330D01*
X130911600Y-84377857D01*
X130911125Y-84388360D01*
X130906918Y-84404476D01*
X130896054Y-84419790D01*
X130875781Y-84436388D01*
X130843346Y-84456357D01*
X130795996Y-84481783D01*
X130730978Y-84514752D01*
X130711723Y-84524485D01*
X130665054Y-84548943D01*
X130628891Y-84569178D01*
X130606503Y-84583311D01*
X130601155Y-84589460D01*
X130604427Y-84590827D01*
X130625336Y-84600202D01*
X130662275Y-84617062D01*
X130712126Y-84639979D01*
X130771774Y-84667520D01*
X130838102Y-84698255D01*
X130895323Y-84724970D01*
X130957312Y-84754593D01*
X131003051Y-84777664D01*
X131035092Y-84795643D01*
X131055986Y-84809990D01*
X131068282Y-84822166D01*
X131074534Y-84833632D01*
X131077426Y-84843042D01*
X131077575Y-84868147D01*
X131062232Y-84895290D01*
X131061247Y-84896590D01*
X131038612Y-84918674D01*
X131016387Y-84929723D01*
X131015747Y-84929769D01*
X130998085Y-84925228D01*
X130963519Y-84912364D01*
X130915174Y-84892605D01*
X130856175Y-84867381D01*
X130789645Y-84838119D01*
X130718709Y-84806250D01*
X130646493Y-84773201D01*
X130576120Y-84740401D01*
X130510715Y-84709280D01*
X130453403Y-84681265D01*
X130407308Y-84657786D01*
X130375554Y-84640272D01*
X130361267Y-84630151D01*
X130347898Y-84595743D01*
X130354259Y-84554046D01*
X130358956Y-84548681D01*
X130381107Y-84532852D01*
X130417868Y-84510650D01*
X130465585Y-84484233D01*
X130520607Y-84455760D01*
X130679850Y-84375986D01*
X130533258Y-84302799D01*
X130513968Y-84293103D01*
X130461620Y-84266125D01*
X130416830Y-84242096D01*
X130383846Y-84223332D01*
X130366911Y-84212146D01*
X130365668Y-84211000D01*
X130350381Y-84182879D01*
X130348698Y-84147817D01*
X130361267Y-84116776D01*
X130364116Y-84114350D01*
X130384741Y-84102090D01*
X130422292Y-84082352D01*
X130474120Y-84056448D01*
X130537577Y-84025685D01*
X130610015Y-83991375D01*
X130688784Y-83954825D01*
X130732907Y-83934585D01*
X130813635Y-83897812D01*
X130877313Y-83869355D01*
X130926248Y-83848331D01*
X130962743Y-83833854D01*
X130989105Y-83825039D01*
X131007639Y-83821004D01*
X131020648Y-83820862D01*
X131030439Y-83823730D01*
G37*
X130573974Y-91016808D02*
X130606655Y-91020681D01*
X130633181Y-91033065D01*
X130664029Y-91058230D01*
X130686169Y-91079442D01*
X130708715Y-91105838D01*
X130727083Y-91135555D01*
X130742339Y-91171785D01*
X130755551Y-91217717D01*
X130767786Y-91276544D01*
X130780111Y-91351456D01*
X130793594Y-91445645D01*
X130800604Y-91490957D01*
X130815163Y-91558911D01*
X130831663Y-91608047D01*
X130849561Y-91637614D01*
X130868315Y-91646864D01*
X130887385Y-91635048D01*
X130906229Y-91601416D01*
X130907443Y-91598370D01*
X130919521Y-91552011D01*
X130927721Y-91489361D01*
X130931881Y-91415927D01*
X130931839Y-91337217D01*
X130927431Y-91258739D01*
X130918495Y-91186000D01*
X130917846Y-91182073D01*
X130910139Y-91133257D01*
X130906527Y-91101005D01*
X130907124Y-91080008D01*
X130912046Y-91064954D01*
X130921404Y-91050534D01*
X130922275Y-91049364D01*
X130952649Y-91024847D01*
X130988150Y-91020054D01*
X131022731Y-91035860D01*
X131027187Y-91040406D01*
X131042327Y-91070020D01*
X131055450Y-91117002D01*
X131066250Y-91177306D01*
X131074419Y-91246888D01*
X131079649Y-91321703D01*
X131081633Y-91397706D01*
X131080064Y-91470853D01*
X131074634Y-91537100D01*
X131065036Y-91592400D01*
X131050175Y-91643283D01*
X131017042Y-91714595D01*
X130974360Y-91765752D01*
X130922295Y-91796575D01*
X130861017Y-91806889D01*
X130829768Y-91805952D01*
X130804971Y-91800160D01*
X130783301Y-91785353D01*
X130755951Y-91757380D01*
X130748622Y-91749402D01*
X130727719Y-91725692D01*
X130710749Y-91703298D01*
X130696795Y-91679265D01*
X130684944Y-91650637D01*
X130674280Y-91614460D01*
X130663889Y-91567780D01*
X130652854Y-91507641D01*
X130640262Y-91431090D01*
X130625196Y-91335171D01*
X130622162Y-91316808D01*
X130608542Y-91254478D01*
X130592808Y-91209260D01*
X130575737Y-91182976D01*
X130558103Y-91177447D01*
X130553832Y-91180068D01*
X130538767Y-91198000D01*
X130522133Y-91226126D01*
X130516143Y-91238926D01*
X130508950Y-91260224D01*
X130504173Y-91286610D01*
X130501354Y-91322454D01*
X130500036Y-91372128D01*
X130499763Y-91440000D01*
X130499836Y-91457785D01*
X130500947Y-91525406D01*
X130503172Y-91590345D01*
X130506238Y-91645970D01*
X130509873Y-91685651D01*
X130513941Y-91721162D01*
X130514724Y-91750415D01*
X130510124Y-91769315D01*
X130499449Y-91784429D01*
X130495856Y-91788085D01*
X130464082Y-91804427D01*
X130428428Y-91803107D01*
X130397810Y-91784150D01*
X130386204Y-91763780D01*
X130373509Y-91727796D01*
X130363459Y-91685372D01*
X130362860Y-91681922D01*
X130357644Y-91639252D01*
X130353270Y-91581866D01*
X130350182Y-91516849D01*
X130348823Y-91451289D01*
X130348782Y-91435057D01*
X130351259Y-91336744D01*
X130359265Y-91256692D01*
X130373797Y-91191513D01*
X130395851Y-91137817D01*
X130426424Y-91092216D01*
X130466514Y-91051323D01*
X130492741Y-91031202D01*
X130522288Y-91019576D01*
X130562005Y-91016667D01*
X130573974Y-91016808D01*
G36*
X130573974Y-91016808D02*
G01*
X130606655Y-91020681D01*
X130633181Y-91033065D01*
X130664029Y-91058230D01*
X130686169Y-91079442D01*
X130708715Y-91105838D01*
X130727083Y-91135555D01*
X130742339Y-91171785D01*
X130755551Y-91217717D01*
X130767786Y-91276544D01*
X130780111Y-91351456D01*
X130793594Y-91445645D01*
X130800604Y-91490957D01*
X130815163Y-91558911D01*
X130831663Y-91608047D01*
X130849561Y-91637614D01*
X130868315Y-91646864D01*
X130887385Y-91635048D01*
X130906229Y-91601416D01*
X130907443Y-91598370D01*
X130919521Y-91552011D01*
X130927721Y-91489361D01*
X130931881Y-91415927D01*
X130931839Y-91337217D01*
X130927431Y-91258739D01*
X130918495Y-91186000D01*
X130917846Y-91182073D01*
X130910139Y-91133257D01*
X130906527Y-91101005D01*
X130907124Y-91080008D01*
X130912046Y-91064954D01*
X130921404Y-91050534D01*
X130922275Y-91049364D01*
X130952649Y-91024847D01*
X130988150Y-91020054D01*
X131022731Y-91035860D01*
X131027187Y-91040406D01*
X131042327Y-91070020D01*
X131055450Y-91117002D01*
X131066250Y-91177306D01*
X131074419Y-91246888D01*
X131079649Y-91321703D01*
X131081633Y-91397706D01*
X131080064Y-91470853D01*
X131074634Y-91537100D01*
X131065036Y-91592400D01*
X131050175Y-91643283D01*
X131017042Y-91714595D01*
X130974360Y-91765752D01*
X130922295Y-91796575D01*
X130861017Y-91806889D01*
X130829768Y-91805952D01*
X130804971Y-91800160D01*
X130783301Y-91785353D01*
X130755951Y-91757380D01*
X130748622Y-91749402D01*
X130727719Y-91725692D01*
X130710749Y-91703298D01*
X130696795Y-91679265D01*
X130684944Y-91650637D01*
X130674280Y-91614460D01*
X130663889Y-91567780D01*
X130652854Y-91507641D01*
X130640262Y-91431090D01*
X130625196Y-91335171D01*
X130622162Y-91316808D01*
X130608542Y-91254478D01*
X130592808Y-91209260D01*
X130575737Y-91182976D01*
X130558103Y-91177447D01*
X130553832Y-91180068D01*
X130538767Y-91198000D01*
X130522133Y-91226126D01*
X130516143Y-91238926D01*
X130508950Y-91260224D01*
X130504173Y-91286610D01*
X130501354Y-91322454D01*
X130500036Y-91372128D01*
X130499763Y-91440000D01*
X130499836Y-91457785D01*
X130500947Y-91525406D01*
X130503172Y-91590345D01*
X130506238Y-91645970D01*
X130509873Y-91685651D01*
X130513941Y-91721162D01*
X130514724Y-91750415D01*
X130510124Y-91769315D01*
X130499449Y-91784429D01*
X130495856Y-91788085D01*
X130464082Y-91804427D01*
X130428428Y-91803107D01*
X130397810Y-91784150D01*
X130386204Y-91763780D01*
X130373509Y-91727796D01*
X130363459Y-91685372D01*
X130362860Y-91681922D01*
X130357644Y-91639252D01*
X130353270Y-91581866D01*
X130350182Y-91516849D01*
X130348823Y-91451289D01*
X130348782Y-91435057D01*
X130351259Y-91336744D01*
X130359265Y-91256692D01*
X130373797Y-91191513D01*
X130395851Y-91137817D01*
X130426424Y-91092216D01*
X130466514Y-91051323D01*
X130492741Y-91031202D01*
X130522288Y-91019576D01*
X130562005Y-91016667D01*
X130573974Y-91016808D01*
G37*
X132206016Y-86365076D02*
X132225921Y-86376250D01*
X132261580Y-86397134D01*
X132310541Y-86426265D01*
X132370354Y-86462181D01*
X132438567Y-86503420D01*
X132512729Y-86548517D01*
X132809992Y-86729785D01*
X132765461Y-86776315D01*
X132687135Y-86867723D01*
X132612561Y-86981334D01*
X132558526Y-87099122D01*
X132525710Y-87219559D01*
X132514789Y-87341117D01*
X132516132Y-87382585D01*
X132534388Y-87500080D01*
X132573383Y-87610089D01*
X132632330Y-87711430D01*
X132710443Y-87802921D01*
X132806936Y-87883380D01*
X132921022Y-87951627D01*
X132955276Y-87967908D01*
X133078760Y-88013982D01*
X133217082Y-88049106D01*
X133366439Y-88073197D01*
X133523027Y-88086173D01*
X133683044Y-88087949D01*
X133842686Y-88078443D01*
X133998150Y-88057572D01*
X134145634Y-88025252D01*
X134281333Y-87981399D01*
X134367924Y-87943982D01*
X134481312Y-87879185D01*
X134574930Y-87803772D01*
X134649041Y-87717418D01*
X134703906Y-87619795D01*
X134739788Y-87510577D01*
X134756949Y-87389439D01*
X134758120Y-87320038D01*
X134743859Y-87197168D01*
X134708759Y-87081664D01*
X134653318Y-86974953D01*
X134578036Y-86878464D01*
X134563560Y-86862720D01*
X134537038Y-86832150D01*
X134519862Y-86809809D01*
X134515213Y-86799691D01*
X134517403Y-86797706D01*
X134536279Y-86783241D01*
X134569603Y-86759400D01*
X134614620Y-86728029D01*
X134668575Y-86690974D01*
X134728715Y-86650083D01*
X134792282Y-86607202D01*
X134856524Y-86564178D01*
X134918685Y-86522857D01*
X134976009Y-86485086D01*
X135025743Y-86452712D01*
X135065132Y-86427582D01*
X135091420Y-86411542D01*
X135101853Y-86406439D01*
X135106059Y-86411050D01*
X135111067Y-86430267D01*
X135113614Y-86439838D01*
X135124751Y-86467809D01*
X135143198Y-86509448D01*
X135167275Y-86560995D01*
X135195301Y-86618690D01*
X135200846Y-86629957D01*
X135280111Y-86807687D01*
X135339615Y-86977490D01*
X135379755Y-87141430D01*
X135400929Y-87301571D01*
X135403534Y-87459977D01*
X135387967Y-87618711D01*
X135370477Y-87714268D01*
X135325436Y-87878558D01*
X135262344Y-88032589D01*
X135180085Y-88178509D01*
X135077543Y-88318466D01*
X134953601Y-88454608D01*
X134908339Y-88498473D01*
X134776135Y-88610758D01*
X134638168Y-88703972D01*
X134490250Y-88780719D01*
X134328197Y-88843603D01*
X134316609Y-88847420D01*
X134130608Y-88897507D01*
X133934479Y-88930899D01*
X133732432Y-88947584D01*
X133528675Y-88947551D01*
X133327419Y-88930791D01*
X133132872Y-88897292D01*
X132949244Y-88847044D01*
X132831947Y-88803190D01*
X132669049Y-88725348D01*
X132515134Y-88631828D01*
X132373329Y-88524822D01*
X132246761Y-88406519D01*
X132138559Y-88279111D01*
X132085880Y-88201606D01*
X132016250Y-88074725D01*
X131957532Y-87937243D01*
X131912413Y-87795716D01*
X131883578Y-87656702D01*
X131881894Y-87642597D01*
X131878566Y-87599153D01*
X131875725Y-87541723D01*
X131873627Y-87476122D01*
X131872532Y-87408167D01*
X131874860Y-87281378D01*
X131887864Y-87133673D01*
X131912867Y-86995779D01*
X131950682Y-86862014D01*
X131959111Y-86838562D01*
X131978592Y-86790612D01*
X132003527Y-86734140D01*
X132032278Y-86672379D01*
X132063210Y-86608563D01*
X132094685Y-86545926D01*
X132125066Y-86487703D01*
X132152717Y-86437127D01*
X132176001Y-86397433D01*
X132193282Y-86371854D01*
X132202921Y-86363625D01*
X132206016Y-86365076D01*
G36*
X132206016Y-86365076D02*
G01*
X132225921Y-86376250D01*
X132261580Y-86397134D01*
X132310541Y-86426265D01*
X132370354Y-86462181D01*
X132438567Y-86503420D01*
X132512729Y-86548517D01*
X132809992Y-86729785D01*
X132765461Y-86776315D01*
X132687135Y-86867723D01*
X132612561Y-86981334D01*
X132558526Y-87099122D01*
X132525710Y-87219559D01*
X132514789Y-87341117D01*
X132516132Y-87382585D01*
X132534388Y-87500080D01*
X132573383Y-87610089D01*
X132632330Y-87711430D01*
X132710443Y-87802921D01*
X132806936Y-87883380D01*
X132921022Y-87951627D01*
X132955276Y-87967908D01*
X133078760Y-88013982D01*
X133217082Y-88049106D01*
X133366439Y-88073197D01*
X133523027Y-88086173D01*
X133683044Y-88087949D01*
X133842686Y-88078443D01*
X133998150Y-88057572D01*
X134145634Y-88025252D01*
X134281333Y-87981399D01*
X134367924Y-87943982D01*
X134481312Y-87879185D01*
X134574930Y-87803772D01*
X134649041Y-87717418D01*
X134703906Y-87619795D01*
X134739788Y-87510577D01*
X134756949Y-87389439D01*
X134758120Y-87320038D01*
X134743859Y-87197168D01*
X134708759Y-87081664D01*
X134653318Y-86974953D01*
X134578036Y-86878464D01*
X134563560Y-86862720D01*
X134537038Y-86832150D01*
X134519862Y-86809809D01*
X134515213Y-86799691D01*
X134517403Y-86797706D01*
X134536279Y-86783241D01*
X134569603Y-86759400D01*
X134614620Y-86728029D01*
X134668575Y-86690974D01*
X134728715Y-86650083D01*
X134792282Y-86607202D01*
X134856524Y-86564178D01*
X134918685Y-86522857D01*
X134976009Y-86485086D01*
X135025743Y-86452712D01*
X135065132Y-86427582D01*
X135091420Y-86411542D01*
X135101853Y-86406439D01*
X135106059Y-86411050D01*
X135111067Y-86430267D01*
X135113614Y-86439838D01*
X135124751Y-86467809D01*
X135143198Y-86509448D01*
X135167275Y-86560995D01*
X135195301Y-86618690D01*
X135200846Y-86629957D01*
X135280111Y-86807687D01*
X135339615Y-86977490D01*
X135379755Y-87141430D01*
X135400929Y-87301571D01*
X135403534Y-87459977D01*
X135387967Y-87618711D01*
X135370477Y-87714268D01*
X135325436Y-87878558D01*
X135262344Y-88032589D01*
X135180085Y-88178509D01*
X135077543Y-88318466D01*
X134953601Y-88454608D01*
X134908339Y-88498473D01*
X134776135Y-88610758D01*
X134638168Y-88703972D01*
X134490250Y-88780719D01*
X134328197Y-88843603D01*
X134316609Y-88847420D01*
X134130608Y-88897507D01*
X133934479Y-88930899D01*
X133732432Y-88947584D01*
X133528675Y-88947551D01*
X133327419Y-88930791D01*
X133132872Y-88897292D01*
X132949244Y-88847044D01*
X132831947Y-88803190D01*
X132669049Y-88725348D01*
X132515134Y-88631828D01*
X132373329Y-88524822D01*
X132246761Y-88406519D01*
X132138559Y-88279111D01*
X132085880Y-88201606D01*
X132016250Y-88074725D01*
X131957532Y-87937243D01*
X131912413Y-87795716D01*
X131883578Y-87656702D01*
X131881894Y-87642597D01*
X131878566Y-87599153D01*
X131875725Y-87541723D01*
X131873627Y-87476122D01*
X131872532Y-87408167D01*
X131874860Y-87281378D01*
X131887864Y-87133673D01*
X131912867Y-86995779D01*
X131950682Y-86862014D01*
X131959111Y-86838562D01*
X131978592Y-86790612D01*
X132003527Y-86734140D01*
X132032278Y-86672379D01*
X132063210Y-86608563D01*
X132094685Y-86545926D01*
X132125066Y-86487703D01*
X132152717Y-86437127D01*
X132176001Y-86397433D01*
X132193282Y-86371854D01*
X132202921Y-86363625D01*
X132206016Y-86365076D01*
G37*
X131977026Y-81376161D02*
X131986132Y-81381355D01*
X132000751Y-81389715D01*
X132014827Y-81397288D01*
X132029460Y-81404112D01*
X132045751Y-81410227D01*
X132064802Y-81415673D01*
X132087714Y-81420487D01*
X132115587Y-81424708D01*
X132149522Y-81428377D01*
X132190621Y-81431531D01*
X132239985Y-81434211D01*
X132298714Y-81436454D01*
X132367910Y-81438299D01*
X132448674Y-81439787D01*
X132542106Y-81440955D01*
X132649308Y-81441844D01*
X132771380Y-81442491D01*
X132909424Y-81442936D01*
X133064541Y-81443218D01*
X133237832Y-81443375D01*
X133430397Y-81443448D01*
X133643338Y-81443474D01*
X133877755Y-81443493D01*
X135562622Y-81443689D01*
X135562622Y-82349017D01*
X135525933Y-82324585D01*
X135516353Y-82318318D01*
X135470019Y-82292208D01*
X135422898Y-82274469D01*
X135367749Y-82262908D01*
X135297333Y-82255331D01*
X135290350Y-82254839D01*
X135252359Y-82253062D01*
X135198424Y-82251444D01*
X135131297Y-82249999D01*
X135053729Y-82248740D01*
X134968472Y-82247680D01*
X134878276Y-82246829D01*
X134785893Y-82246203D01*
X134694075Y-82245812D01*
X134605573Y-82245670D01*
X134523138Y-82245790D01*
X134449521Y-82246183D01*
X134387474Y-82246862D01*
X134339749Y-82247841D01*
X134309096Y-82249132D01*
X134298267Y-82250747D01*
X134302667Y-82258957D01*
X134317638Y-82280647D01*
X134339552Y-82310014D01*
X134373764Y-82358879D01*
X134420286Y-82447125D01*
X134453954Y-82545916D01*
X134475769Y-82658510D01*
X134486735Y-82788164D01*
X134487781Y-82880670D01*
X134477986Y-83002011D01*
X134453826Y-83112099D01*
X134414215Y-83215389D01*
X134358068Y-83316338D01*
X134327117Y-83361503D01*
X134235885Y-83466911D01*
X134126894Y-83558538D01*
X134000274Y-83636332D01*
X133856155Y-83700241D01*
X133694668Y-83750214D01*
X133515941Y-83786198D01*
X133320105Y-83808143D01*
X133164066Y-83813900D01*
X133107289Y-83815994D01*
X133029842Y-83815268D01*
X132878406Y-83806689D01*
X132741717Y-83787833D01*
X132615724Y-83757837D01*
X132496375Y-83715836D01*
X132379619Y-83660969D01*
X132268821Y-83594167D01*
X132155261Y-83503363D01*
X132059789Y-83399708D01*
X131982927Y-83283887D01*
X131925203Y-83156586D01*
X131887142Y-83018489D01*
X131881334Y-82980793D01*
X131875604Y-82901752D01*
X131875417Y-82813629D01*
X131880461Y-82724236D01*
X131890422Y-82641384D01*
X131895112Y-82619331D01*
X132488459Y-82619331D01*
X132496635Y-82703900D01*
X132524195Y-82777219D01*
X132571358Y-82839637D01*
X132638342Y-82891502D01*
X132725367Y-82933160D01*
X132832650Y-82964962D01*
X132844991Y-82967545D01*
X132906228Y-82976000D01*
X132983308Y-82981663D01*
X133070998Y-82984576D01*
X133164066Y-82984783D01*
X133257280Y-82982330D01*
X133345406Y-82977261D01*
X133423212Y-82969619D01*
X133485467Y-82959448D01*
X133491334Y-82958167D01*
X133601879Y-82929126D01*
X133692425Y-82894610D01*
X133765047Y-82853456D01*
X133821819Y-82804499D01*
X133864816Y-82746574D01*
X133880385Y-82714620D01*
X133899278Y-82641784D01*
X133902535Y-82560443D01*
X133890611Y-82475319D01*
X133863960Y-82391133D01*
X133823038Y-82312608D01*
X133779470Y-82245200D01*
X132629279Y-82245200D01*
X132582911Y-82315756D01*
X132559209Y-82356417D01*
X132533361Y-82410546D01*
X132515171Y-82459689D01*
X132499449Y-82523165D01*
X132488459Y-82619331D01*
X131895112Y-82619331D01*
X131904988Y-82572887D01*
X131914636Y-82542035D01*
X131944877Y-82464730D01*
X131982383Y-82387679D01*
X132023386Y-82318200D01*
X132064121Y-82263615D01*
X132083495Y-82240916D01*
X132101338Y-82218201D01*
X132108222Y-82206779D01*
X132106576Y-82205537D01*
X132088795Y-82202728D01*
X132055630Y-82200776D01*
X132012267Y-82200045D01*
X131916311Y-82200045D01*
X131916311Y-81341896D01*
X131977026Y-81376161D01*
G36*
X131977026Y-81376161D02*
G01*
X131986132Y-81381355D01*
X132000751Y-81389715D01*
X132014827Y-81397288D01*
X132029460Y-81404112D01*
X132045751Y-81410227D01*
X132064802Y-81415673D01*
X132087714Y-81420487D01*
X132115587Y-81424708D01*
X132149522Y-81428377D01*
X132190621Y-81431531D01*
X132239985Y-81434211D01*
X132298714Y-81436454D01*
X132367910Y-81438299D01*
X132448674Y-81439787D01*
X132542106Y-81440955D01*
X132649308Y-81441844D01*
X132771380Y-81442491D01*
X132909424Y-81442936D01*
X133064541Y-81443218D01*
X133237832Y-81443375D01*
X133430397Y-81443448D01*
X133643338Y-81443474D01*
X133877755Y-81443493D01*
X135562622Y-81443689D01*
X135562622Y-82349017D01*
X135525933Y-82324585D01*
X135516353Y-82318318D01*
X135470019Y-82292208D01*
X135422898Y-82274469D01*
X135367749Y-82262908D01*
X135297333Y-82255331D01*
X135290350Y-82254839D01*
X135252359Y-82253062D01*
X135198424Y-82251444D01*
X135131297Y-82249999D01*
X135053729Y-82248740D01*
X134968472Y-82247680D01*
X134878276Y-82246829D01*
X134785893Y-82246203D01*
X134694075Y-82245812D01*
X134605573Y-82245670D01*
X134523138Y-82245790D01*
X134449521Y-82246183D01*
X134387474Y-82246862D01*
X134339749Y-82247841D01*
X134309096Y-82249132D01*
X134298267Y-82250747D01*
X134302667Y-82258957D01*
X134317638Y-82280647D01*
X134339552Y-82310014D01*
X134373764Y-82358879D01*
X134420286Y-82447125D01*
X134453954Y-82545916D01*
X134475769Y-82658510D01*
X134486735Y-82788164D01*
X134487781Y-82880670D01*
X134477986Y-83002011D01*
X134453826Y-83112099D01*
X134414215Y-83215389D01*
X134358068Y-83316338D01*
X134327117Y-83361503D01*
X134235885Y-83466911D01*
X134126894Y-83558538D01*
X134000274Y-83636332D01*
X133856155Y-83700241D01*
X133694668Y-83750214D01*
X133515941Y-83786198D01*
X133320105Y-83808143D01*
X133164066Y-83813900D01*
X133107289Y-83815994D01*
X133029842Y-83815268D01*
X132878406Y-83806689D01*
X132741717Y-83787833D01*
X132615724Y-83757837D01*
X132496375Y-83715836D01*
X132379619Y-83660969D01*
X132268821Y-83594167D01*
X132155261Y-83503363D01*
X132059789Y-83399708D01*
X131982927Y-83283887D01*
X131925203Y-83156586D01*
X131887142Y-83018489D01*
X131881334Y-82980793D01*
X131875604Y-82901752D01*
X131875417Y-82813629D01*
X131880461Y-82724236D01*
X131890422Y-82641384D01*
X131895112Y-82619331D01*
X132488459Y-82619331D01*
X132496635Y-82703900D01*
X132524195Y-82777219D01*
X132571358Y-82839637D01*
X132638342Y-82891502D01*
X132725367Y-82933160D01*
X132832650Y-82964962D01*
X132844991Y-82967545D01*
X132906228Y-82976000D01*
X132983308Y-82981663D01*
X133070998Y-82984576D01*
X133164066Y-82984783D01*
X133257280Y-82982330D01*
X133345406Y-82977261D01*
X133423212Y-82969619D01*
X133485467Y-82959448D01*
X133491334Y-82958167D01*
X133601879Y-82929126D01*
X133692425Y-82894610D01*
X133765047Y-82853456D01*
X133821819Y-82804499D01*
X133864816Y-82746574D01*
X133880385Y-82714620D01*
X133899278Y-82641784D01*
X133902535Y-82560443D01*
X133890611Y-82475319D01*
X133863960Y-82391133D01*
X133823038Y-82312608D01*
X133779470Y-82245200D01*
X132629279Y-82245200D01*
X132582911Y-82315756D01*
X132559209Y-82356417D01*
X132533361Y-82410546D01*
X132515171Y-82459689D01*
X132499449Y-82523165D01*
X132488459Y-82619331D01*
X131895112Y-82619331D01*
X131904988Y-82572887D01*
X131914636Y-82542035D01*
X131944877Y-82464730D01*
X131982383Y-82387679D01*
X132023386Y-82318200D01*
X132064121Y-82263615D01*
X132083495Y-82240916D01*
X132101338Y-82218201D01*
X132108222Y-82206779D01*
X132106576Y-82205537D01*
X132088795Y-82202728D01*
X132055630Y-82200776D01*
X132012267Y-82200045D01*
X131916311Y-82200045D01*
X131916311Y-81341896D01*
X131977026Y-81376161D01*
G37*
X131926537Y-84017578D02*
X131942090Y-84024614D01*
X131964929Y-84040434D01*
X131970362Y-84044734D01*
X131984394Y-84055777D01*
X131997814Y-84065311D01*
X132012278Y-84073461D01*
X132029444Y-84080352D01*
X132050966Y-84086111D01*
X132078502Y-84090862D01*
X132113708Y-84094731D01*
X132158240Y-84097844D01*
X132213754Y-84100325D01*
X132281907Y-84102300D01*
X132364355Y-84103894D01*
X132462754Y-84105234D01*
X132578761Y-84106444D01*
X132714032Y-84107649D01*
X132870222Y-84108975D01*
X133012988Y-84110228D01*
X133158058Y-84111651D01*
X133283973Y-84113176D01*
X133392564Y-84114933D01*
X133485666Y-84117051D01*
X133565109Y-84119660D01*
X133632727Y-84122890D01*
X133690351Y-84126869D01*
X133739815Y-84131728D01*
X133782950Y-84137597D01*
X133821590Y-84144604D01*
X133857566Y-84152880D01*
X133892711Y-84162554D01*
X133928858Y-84173756D01*
X133967839Y-84186616D01*
X134010909Y-84202090D01*
X134103129Y-84244994D01*
X134182901Y-84298735D01*
X134257035Y-84367576D01*
X134320595Y-84445185D01*
X134382275Y-84549761D01*
X134429798Y-84669244D01*
X134463433Y-84804508D01*
X134483448Y-84956426D01*
X134490111Y-85125872D01*
X134489713Y-85183890D01*
X134487665Y-85249398D01*
X134483296Y-85310693D01*
X134475965Y-85372097D01*
X134465031Y-85437932D01*
X134449853Y-85512520D01*
X134429791Y-85600184D01*
X134404203Y-85705245D01*
X134397180Y-85733806D01*
X134379224Y-85809054D01*
X134363180Y-85879388D01*
X134349972Y-85940567D01*
X134340526Y-85988354D01*
X134335769Y-86018511D01*
X134332090Y-86046783D01*
X134326813Y-86073060D01*
X134322058Y-86083059D01*
X134313219Y-86079952D01*
X134285928Y-86069194D01*
X134243094Y-86051864D01*
X134187575Y-86029126D01*
X134122228Y-86002147D01*
X134049911Y-85972090D01*
X134034121Y-85965493D01*
X133943516Y-85926907D01*
X133873783Y-85895768D01*
X133824595Y-85871917D01*
X133795626Y-85855198D01*
X133786548Y-85845454D01*
X133788595Y-85837766D01*
X133798240Y-85811415D01*
X133813810Y-85772982D01*
X133833185Y-85727822D01*
X133871186Y-85633293D01*
X133912220Y-85496480D01*
X133937388Y-85355289D01*
X133941389Y-85317314D01*
X133943553Y-85214059D01*
X133930378Y-85126952D01*
X133901244Y-85055129D01*
X133855534Y-84997731D01*
X133792628Y-84953896D01*
X133711908Y-84922762D01*
X133612755Y-84903470D01*
X133553776Y-84896050D01*
X133560555Y-85057936D01*
X133562187Y-85184495D01*
X133555806Y-85335951D01*
X133541223Y-85484396D01*
X133519118Y-85620578D01*
X133504179Y-85685245D01*
X133461259Y-85817490D01*
X133404660Y-85939762D01*
X133335983Y-86049685D01*
X133256830Y-86144883D01*
X133168804Y-86222980D01*
X133073507Y-86281599D01*
X133021136Y-86305595D01*
X132950410Y-86331232D01*
X132879188Y-86347478D01*
X132800288Y-86355822D01*
X132709718Y-86357690D01*
X132706533Y-86357755D01*
X132672637Y-86357261D01*
X132597798Y-86353632D01*
X132535599Y-86346022D01*
X132479016Y-86333688D01*
X132352924Y-86289313D01*
X132238321Y-86226400D01*
X132137432Y-86146238D01*
X132051076Y-86049740D01*
X131980068Y-85937822D01*
X131925224Y-85811397D01*
X131887362Y-85671378D01*
X131881649Y-85635149D01*
X131875687Y-85556155D01*
X131875354Y-85467841D01*
X131880341Y-85378075D01*
X131890334Y-85294722D01*
X131895453Y-85270648D01*
X132438617Y-85270648D01*
X132441460Y-85346011D01*
X132453380Y-85406743D01*
X132475963Y-85458452D01*
X132510789Y-85506746D01*
X132515202Y-85511803D01*
X132570840Y-85560272D01*
X132634667Y-85588459D01*
X132709718Y-85597752D01*
X132781307Y-85590520D01*
X132844355Y-85565796D01*
X132902242Y-85521249D01*
X132949192Y-85466319D01*
X132989039Y-85393894D01*
X133016737Y-85307340D01*
X133032904Y-85204670D01*
X133038158Y-85083894D01*
X133038143Y-85075007D01*
X133037345Y-85019660D01*
X133035512Y-84972736D01*
X133032889Y-84938953D01*
X133029726Y-84923028D01*
X133023259Y-84918943D01*
X133001125Y-84914572D01*
X132962012Y-84911604D01*
X132904061Y-84909914D01*
X132825414Y-84909378D01*
X132629538Y-84909378D01*
X132573027Y-84954048D01*
X132557788Y-84966785D01*
X132515156Y-85013604D01*
X132479328Y-85074255D01*
X132474150Y-85084897D01*
X132457255Y-85123676D01*
X132447091Y-85158692D01*
X132441675Y-85198722D01*
X132439022Y-85252541D01*
X132438617Y-85270648D01*
X131895453Y-85270648D01*
X131905022Y-85225651D01*
X131935251Y-85139187D01*
X131989943Y-85029286D01*
X132057457Y-84931956D01*
X132108444Y-84869867D01*
X132012378Y-84866605D01*
X131916311Y-84863343D01*
X131916311Y-84440450D01*
X131916314Y-84429543D01*
X131916620Y-84335056D01*
X131917384Y-84248331D01*
X131918549Y-84171837D01*
X131920058Y-84108043D01*
X131921853Y-84059418D01*
X131923879Y-84028433D01*
X131926078Y-84017556D01*
X131926537Y-84017578D01*
G36*
X131926537Y-84017578D02*
G01*
X131942090Y-84024614D01*
X131964929Y-84040434D01*
X131970362Y-84044734D01*
X131984394Y-84055777D01*
X131997814Y-84065311D01*
X132012278Y-84073461D01*
X132029444Y-84080352D01*
X132050966Y-84086111D01*
X132078502Y-84090862D01*
X132113708Y-84094731D01*
X132158240Y-84097844D01*
X132213754Y-84100325D01*
X132281907Y-84102300D01*
X132364355Y-84103894D01*
X132462754Y-84105234D01*
X132578761Y-84106444D01*
X132714032Y-84107649D01*
X132870222Y-84108975D01*
X133012988Y-84110228D01*
X133158058Y-84111651D01*
X133283973Y-84113176D01*
X133392564Y-84114933D01*
X133485666Y-84117051D01*
X133565109Y-84119660D01*
X133632727Y-84122890D01*
X133690351Y-84126869D01*
X133739815Y-84131728D01*
X133782950Y-84137597D01*
X133821590Y-84144604D01*
X133857566Y-84152880D01*
X133892711Y-84162554D01*
X133928858Y-84173756D01*
X133967839Y-84186616D01*
X134010909Y-84202090D01*
X134103129Y-84244994D01*
X134182901Y-84298735D01*
X134257035Y-84367576D01*
X134320595Y-84445185D01*
X134382275Y-84549761D01*
X134429798Y-84669244D01*
X134463433Y-84804508D01*
X134483448Y-84956426D01*
X134490111Y-85125872D01*
X134489713Y-85183890D01*
X134487665Y-85249398D01*
X134483296Y-85310693D01*
X134475965Y-85372097D01*
X134465031Y-85437932D01*
X134449853Y-85512520D01*
X134429791Y-85600184D01*
X134404203Y-85705245D01*
X134397180Y-85733806D01*
X134379224Y-85809054D01*
X134363180Y-85879388D01*
X134349972Y-85940567D01*
X134340526Y-85988354D01*
X134335769Y-86018511D01*
X134332090Y-86046783D01*
X134326813Y-86073060D01*
X134322058Y-86083059D01*
X134313219Y-86079952D01*
X134285928Y-86069194D01*
X134243094Y-86051864D01*
X134187575Y-86029126D01*
X134122228Y-86002147D01*
X134049911Y-85972090D01*
X134034121Y-85965493D01*
X133943516Y-85926907D01*
X133873783Y-85895768D01*
X133824595Y-85871917D01*
X133795626Y-85855198D01*
X133786548Y-85845454D01*
X133788595Y-85837766D01*
X133798240Y-85811415D01*
X133813810Y-85772982D01*
X133833185Y-85727822D01*
X133871186Y-85633293D01*
X133912220Y-85496480D01*
X133937388Y-85355289D01*
X133941389Y-85317314D01*
X133943553Y-85214059D01*
X133930378Y-85126952D01*
X133901244Y-85055129D01*
X133855534Y-84997731D01*
X133792628Y-84953896D01*
X133711908Y-84922762D01*
X133612755Y-84903470D01*
X133553776Y-84896050D01*
X133560555Y-85057936D01*
X133562187Y-85184495D01*
X133555806Y-85335951D01*
X133541223Y-85484396D01*
X133519118Y-85620578D01*
X133504179Y-85685245D01*
X133461259Y-85817490D01*
X133404660Y-85939762D01*
X133335983Y-86049685D01*
X133256830Y-86144883D01*
X133168804Y-86222980D01*
X133073507Y-86281599D01*
X133021136Y-86305595D01*
X132950410Y-86331232D01*
X132879188Y-86347478D01*
X132800288Y-86355822D01*
X132709718Y-86357690D01*
X132706533Y-86357755D01*
X132672637Y-86357261D01*
X132597798Y-86353632D01*
X132535599Y-86346022D01*
X132479016Y-86333688D01*
X132352924Y-86289313D01*
X132238321Y-86226400D01*
X132137432Y-86146238D01*
X132051076Y-86049740D01*
X131980068Y-85937822D01*
X131925224Y-85811397D01*
X131887362Y-85671378D01*
X131881649Y-85635149D01*
X131875687Y-85556155D01*
X131875354Y-85467841D01*
X131880341Y-85378075D01*
X131890334Y-85294722D01*
X131895453Y-85270648D01*
X132438617Y-85270648D01*
X132441460Y-85346011D01*
X132453380Y-85406743D01*
X132475963Y-85458452D01*
X132510789Y-85506746D01*
X132515202Y-85511803D01*
X132570840Y-85560272D01*
X132634667Y-85588459D01*
X132709718Y-85597752D01*
X132781307Y-85590520D01*
X132844355Y-85565796D01*
X132902242Y-85521249D01*
X132949192Y-85466319D01*
X132989039Y-85393894D01*
X133016737Y-85307340D01*
X133032904Y-85204670D01*
X133038158Y-85083894D01*
X133038143Y-85075007D01*
X133037345Y-85019660D01*
X133035512Y-84972736D01*
X133032889Y-84938953D01*
X133029726Y-84923028D01*
X133023259Y-84918943D01*
X133001125Y-84914572D01*
X132962012Y-84911604D01*
X132904061Y-84909914D01*
X132825414Y-84909378D01*
X132629538Y-84909378D01*
X132573027Y-84954048D01*
X132557788Y-84966785D01*
X132515156Y-85013604D01*
X132479328Y-85074255D01*
X132474150Y-85084897D01*
X132457255Y-85123676D01*
X132447091Y-85158692D01*
X132441675Y-85198722D01*
X132439022Y-85252541D01*
X132438617Y-85270648D01*
X131895453Y-85270648D01*
X131905022Y-85225651D01*
X131935251Y-85139187D01*
X131989943Y-85029286D01*
X132057457Y-84931956D01*
X132108444Y-84869867D01*
X132012378Y-84866605D01*
X131916311Y-84863343D01*
X131916311Y-84440450D01*
X131916314Y-84429543D01*
X131916620Y-84335056D01*
X131917384Y-84248331D01*
X131918549Y-84171837D01*
X131920058Y-84108043D01*
X131921853Y-84059418D01*
X131923879Y-84028433D01*
X131926078Y-84017556D01*
X131926537Y-84017578D01*
G37*
X135919351Y-89226249D02*
X135943089Y-89253355D01*
X135954889Y-89280253D01*
X135957733Y-89316560D01*
X135957733Y-89368489D01*
X135869794Y-89368489D01*
X135819898Y-89370427D01*
X135709477Y-89389199D01*
X135608013Y-89426217D01*
X135516848Y-89479369D01*
X135437327Y-89546546D01*
X135370795Y-89625638D01*
X135318594Y-89714534D01*
X135282070Y-89811125D01*
X135262566Y-89913300D01*
X135261427Y-90018950D01*
X135279995Y-90125964D01*
X135319616Y-90232232D01*
X135377484Y-90329219D01*
X135452316Y-90414293D01*
X135540385Y-90483015D01*
X135639384Y-90533918D01*
X135747007Y-90565535D01*
X135860946Y-90576400D01*
X135957733Y-90576400D01*
X135957733Y-92196753D01*
X135957720Y-92407897D01*
X135957670Y-92612020D01*
X135957570Y-92795686D01*
X135957408Y-92959991D01*
X135957171Y-93106029D01*
X135956847Y-93234894D01*
X135956425Y-93347683D01*
X135955891Y-93445488D01*
X135955233Y-93529404D01*
X135954439Y-93600527D01*
X135953496Y-93659950D01*
X135952392Y-93708768D01*
X135951116Y-93748077D01*
X135949653Y-93778969D01*
X135947993Y-93802541D01*
X135946122Y-93819886D01*
X135944028Y-93832099D01*
X135941700Y-93840275D01*
X135939124Y-93845508D01*
X135935555Y-93851504D01*
X135932022Y-93858279D01*
X135928512Y-93864478D01*
X135924082Y-93870126D01*
X135917792Y-93875247D01*
X135908699Y-93879869D01*
X135895861Y-93884015D01*
X135878338Y-93887713D01*
X135855187Y-93890987D01*
X135825466Y-93893863D01*
X135788235Y-93896367D01*
X135742551Y-93898524D01*
X135687473Y-93900360D01*
X135622059Y-93901900D01*
X135545367Y-93903170D01*
X135456456Y-93904195D01*
X135354383Y-93905001D01*
X135348133Y-93905034D01*
X135238208Y-93905614D01*
X135106989Y-93906059D01*
X134959784Y-93906362D01*
X134795651Y-93906548D01*
X134613648Y-93906642D01*
X134412835Y-93906671D01*
X134192268Y-93906661D01*
X133951008Y-93906636D01*
X133688111Y-93906622D01*
X133645960Y-93906622D01*
X133385332Y-93906646D01*
X133146204Y-93906685D01*
X132927640Y-93906708D01*
X132728705Y-93906687D01*
X132548465Y-93906593D01*
X132385985Y-93906395D01*
X132240330Y-93906063D01*
X132110566Y-93905569D01*
X131995757Y-93904883D01*
X131894970Y-93903976D01*
X131807270Y-93902817D01*
X131731721Y-93901378D01*
X131667389Y-93899629D01*
X131613339Y-93897540D01*
X131568637Y-93895083D01*
X131532348Y-93892227D01*
X131503537Y-93888943D01*
X131481269Y-93885202D01*
X131464610Y-93880974D01*
X131452625Y-93876229D01*
X131444379Y-93870939D01*
X131438938Y-93865073D01*
X131435366Y-93858602D01*
X131432730Y-93851497D01*
X131430094Y-93843728D01*
X131426523Y-93835266D01*
X131424855Y-93830908D01*
X131422889Y-93822395D01*
X131421089Y-93809694D01*
X131419445Y-93791885D01*
X131417953Y-93768049D01*
X131416603Y-93737266D01*
X131415389Y-93698617D01*
X131414303Y-93651182D01*
X131413339Y-93594043D01*
X131412489Y-93526279D01*
X131411747Y-93446971D01*
X131411103Y-93355199D01*
X131410553Y-93250044D01*
X131410087Y-93130587D01*
X131409700Y-92995908D01*
X131409384Y-92845088D01*
X131409131Y-92677206D01*
X131408934Y-92491345D01*
X131408787Y-92286583D01*
X131408682Y-92062002D01*
X131408613Y-91825090D01*
X131927600Y-91825090D01*
X132003800Y-91824456D01*
X132045840Y-91825574D01*
X132081666Y-91831304D01*
X132119228Y-91843890D01*
X132167423Y-91865568D01*
X132174103Y-91868789D01*
X132223641Y-91894188D01*
X132271631Y-91920996D01*
X132308534Y-91943917D01*
X132315166Y-91948485D01*
X132346407Y-91970516D01*
X132391346Y-92002693D01*
X132447853Y-92043457D01*
X132513796Y-92091245D01*
X132587043Y-92144498D01*
X132665464Y-92201655D01*
X132746928Y-92261155D01*
X132829302Y-92321437D01*
X132910456Y-92380940D01*
X132988258Y-92438105D01*
X133060577Y-92491370D01*
X133125282Y-92539174D01*
X133180241Y-92579957D01*
X133223324Y-92612158D01*
X133252398Y-92634216D01*
X133265333Y-92644571D01*
X133269649Y-92649044D01*
X133271688Y-92653236D01*
X133269074Y-92656643D01*
X133260014Y-92659325D01*
X133242715Y-92661341D01*
X133215386Y-92662748D01*
X133176235Y-92663605D01*
X133123467Y-92663970D01*
X133055293Y-92663903D01*
X132969918Y-92663460D01*
X132865551Y-92662702D01*
X132740400Y-92661685D01*
X132695700Y-92661308D01*
X132574605Y-92660169D01*
X132473312Y-92658972D01*
X132389738Y-92657636D01*
X132321796Y-92656077D01*
X132267401Y-92654215D01*
X132224468Y-92651966D01*
X132190911Y-92649248D01*
X132164645Y-92645979D01*
X132143584Y-92642078D01*
X132125643Y-92637461D01*
X132099230Y-92629192D01*
X132037228Y-92605583D01*
X131984427Y-92579685D01*
X131947355Y-92554535D01*
X131945925Y-92553339D01*
X131941576Y-92551168D01*
X131937974Y-92553328D01*
X131935049Y-92561644D01*
X131932731Y-92577940D01*
X131930949Y-92604041D01*
X131929633Y-92641771D01*
X131928714Y-92692956D01*
X131928122Y-92759420D01*
X131927785Y-92842987D01*
X131927635Y-92945483D01*
X131927600Y-93068732D01*
X131927600Y-93600296D01*
X131985217Y-93561523D01*
X131994107Y-93555432D01*
X132008931Y-93544976D01*
X132022578Y-93535579D01*
X132036235Y-93527183D01*
X132051089Y-93519733D01*
X132068330Y-93513173D01*
X132089145Y-93507446D01*
X132114720Y-93502495D01*
X132146245Y-93498266D01*
X132184907Y-93494701D01*
X132231893Y-93491744D01*
X132288392Y-93489340D01*
X132355591Y-93487431D01*
X132434678Y-93485962D01*
X132526840Y-93484876D01*
X132633266Y-93484118D01*
X132755143Y-93483630D01*
X132893659Y-93483358D01*
X133050001Y-93483243D01*
X133225358Y-93483231D01*
X133420918Y-93483265D01*
X133637867Y-93483289D01*
X133760487Y-93483280D01*
X133965553Y-93483243D01*
X134149884Y-93483227D01*
X134314666Y-93483288D01*
X134461084Y-93483484D01*
X134590326Y-93483870D01*
X134703578Y-93484505D01*
X134802025Y-93485444D01*
X134886856Y-93486745D01*
X134959256Y-93488464D01*
X135020411Y-93490659D01*
X135071508Y-93493385D01*
X135113733Y-93496701D01*
X135148273Y-93500662D01*
X135176314Y-93505325D01*
X135199042Y-93510747D01*
X135217644Y-93516986D01*
X135233307Y-93524097D01*
X135247216Y-93532138D01*
X135260559Y-93541166D01*
X135274521Y-93551236D01*
X135290289Y-93562407D01*
X135348133Y-93602197D01*
X135348133Y-92542314D01*
X135285034Y-92580311D01*
X135259995Y-92594993D01*
X135232414Y-92609531D01*
X135204300Y-92621627D01*
X135173449Y-92631532D01*
X135137656Y-92639494D01*
X135094717Y-92645761D01*
X135042426Y-92650582D01*
X134978581Y-92654206D01*
X134900975Y-92656881D01*
X134807406Y-92658857D01*
X134695667Y-92660382D01*
X134563555Y-92661704D01*
X134443566Y-92662613D01*
X134326937Y-92663020D01*
X134231469Y-92662767D01*
X134157444Y-92661857D01*
X134105145Y-92660293D01*
X134074851Y-92658079D01*
X134066844Y-92655220D01*
X134070142Y-92652161D01*
X134091592Y-92634006D01*
X134128111Y-92604275D01*
X134177558Y-92564639D01*
X134237793Y-92516771D01*
X134306673Y-92462343D01*
X134382057Y-92403027D01*
X134461804Y-92340495D01*
X134543772Y-92276421D01*
X134625820Y-92212475D01*
X134705806Y-92150331D01*
X134781589Y-92091661D01*
X134851027Y-92038137D01*
X134911979Y-91991430D01*
X134962304Y-91953214D01*
X134999860Y-91925161D01*
X135022505Y-91908943D01*
X135094788Y-91863635D01*
X135174537Y-91823661D01*
X135242812Y-91802130D01*
X135300156Y-91798827D01*
X135348133Y-91804116D01*
X135347883Y-90672356D01*
X135317278Y-90711867D01*
X135309911Y-90721248D01*
X135255562Y-90784183D01*
X135187741Y-90852997D01*
X135104484Y-90929596D01*
X135003822Y-91015888D01*
X134983153Y-91033052D01*
X134933591Y-91073833D01*
X134872674Y-91123588D01*
X134802102Y-91180955D01*
X134723576Y-91244569D01*
X134638796Y-91313069D01*
X134549463Y-91385090D01*
X134457278Y-91459270D01*
X134438298Y-91474517D01*
X134363940Y-91534246D01*
X134271152Y-91608653D01*
X134180612Y-91681131D01*
X134094022Y-91750314D01*
X134013082Y-91814841D01*
X133939494Y-91873347D01*
X133874956Y-91924470D01*
X133821171Y-91966847D01*
X133779838Y-91999115D01*
X133752658Y-92019910D01*
X133741332Y-92027869D01*
X133737229Y-92026111D01*
X133716666Y-92013230D01*
X133680439Y-91988885D01*
X133630176Y-91954247D01*
X133567508Y-91910486D01*
X133494064Y-91858775D01*
X133411473Y-91800284D01*
X133321364Y-91736184D01*
X133225369Y-91667646D01*
X133125115Y-91595843D01*
X133022232Y-91521944D01*
X132918350Y-91447121D01*
X132815099Y-91372545D01*
X132714108Y-91299387D01*
X132617006Y-91228819D01*
X132525423Y-91162011D01*
X132440989Y-91100135D01*
X132365333Y-91044361D01*
X132300084Y-90995862D01*
X132246872Y-90955807D01*
X132207327Y-90925369D01*
X132181974Y-90904944D01*
X132127705Y-90858899D01*
X132071225Y-90808612D01*
X132021331Y-90761815D01*
X131927600Y-90670651D01*
X131927600Y-91825090D01*
X131408613Y-91825090D01*
X131408611Y-91816682D01*
X131408568Y-91549704D01*
X131408563Y-91511321D01*
X131408520Y-91245922D01*
X131408475Y-91002050D01*
X131408452Y-90778783D01*
X131408476Y-90575196D01*
X131408570Y-90390367D01*
X131408757Y-90223373D01*
X131409061Y-90073290D01*
X131409396Y-89972445D01*
X131927600Y-89972445D01*
X131927651Y-90041356D01*
X131927909Y-90139607D01*
X131928363Y-90229030D01*
X131928990Y-90307333D01*
X131929765Y-90372223D01*
X131930665Y-90421411D01*
X131931666Y-90452604D01*
X131932743Y-90463511D01*
X131935963Y-90462322D01*
X131953548Y-90452176D01*
X131979842Y-90435040D01*
X131992309Y-90426540D01*
X132006378Y-90417329D01*
X132020649Y-90409233D01*
X132036521Y-90402185D01*
X132055391Y-90396117D01*
X132078659Y-90390961D01*
X132107722Y-90386651D01*
X132143979Y-90383119D01*
X132188830Y-90380297D01*
X132243672Y-90378118D01*
X132309903Y-90376514D01*
X132388923Y-90375419D01*
X132482129Y-90374765D01*
X132590921Y-90374484D01*
X132716697Y-90374509D01*
X132860855Y-90374772D01*
X133024793Y-90375206D01*
X133209911Y-90375745D01*
X133388768Y-90376279D01*
X133547626Y-90376805D01*
X133686684Y-90377350D01*
X133807335Y-90377945D01*
X133910972Y-90378619D01*
X133998989Y-90379403D01*
X134072777Y-90380326D01*
X134133731Y-90381419D01*
X134183243Y-90382712D01*
X134222707Y-90384235D01*
X134253516Y-90386019D01*
X134277062Y-90388092D01*
X134294740Y-90390486D01*
X134307941Y-90393230D01*
X134318060Y-90396356D01*
X134326489Y-90399892D01*
X134334625Y-90403791D01*
X134371456Y-90423438D01*
X134401609Y-90442225D01*
X134403092Y-90443272D01*
X134425341Y-90457602D01*
X134438298Y-90463511D01*
X134438751Y-90462504D01*
X134440197Y-90445305D01*
X134441520Y-90408656D01*
X134442684Y-90354962D01*
X134443653Y-90286630D01*
X134444389Y-90206064D01*
X134444858Y-90115670D01*
X134445022Y-90017853D01*
X134445022Y-89572195D01*
X133268155Y-89569120D01*
X132091289Y-89566045D01*
X132032378Y-89539407D01*
X132007817Y-89527485D01*
X131977566Y-89510246D01*
X131960440Y-89497074D01*
X131952409Y-89489076D01*
X131937507Y-89481378D01*
X131936235Y-89485260D01*
X131934209Y-89508520D01*
X131932374Y-89550874D01*
X131930773Y-89610132D01*
X131929451Y-89684107D01*
X131928452Y-89770610D01*
X131927820Y-89867452D01*
X131927600Y-89972445D01*
X131409396Y-89972445D01*
X131409506Y-89939196D01*
X131410115Y-89820166D01*
X131410911Y-89715279D01*
X131411920Y-89623610D01*
X131413163Y-89544237D01*
X131414665Y-89476237D01*
X131416449Y-89418686D01*
X131418539Y-89370662D01*
X131420958Y-89331240D01*
X131423730Y-89299499D01*
X131426879Y-89274514D01*
X131430428Y-89255364D01*
X131434402Y-89241123D01*
X131438822Y-89230871D01*
X131443714Y-89223682D01*
X131449100Y-89218635D01*
X131455004Y-89214805D01*
X131461451Y-89211271D01*
X131468463Y-89207108D01*
X131470313Y-89206025D01*
X131475820Y-89203813D01*
X131484132Y-89201786D01*
X131496191Y-89199938D01*
X131512937Y-89198261D01*
X131535313Y-89196745D01*
X131564260Y-89195383D01*
X131600720Y-89194167D01*
X131645633Y-89193089D01*
X131699943Y-89192140D01*
X131764590Y-89191312D01*
X131840516Y-89190597D01*
X131928662Y-89189987D01*
X132029971Y-89189474D01*
X132145383Y-89189050D01*
X132275840Y-89188706D01*
X132422284Y-89188434D01*
X132585656Y-89188227D01*
X132766899Y-89188076D01*
X132966952Y-89187972D01*
X133186759Y-89187908D01*
X133427261Y-89187876D01*
X133689398Y-89187867D01*
X135880969Y-89187867D01*
X135919351Y-89226249D01*
G36*
X135919351Y-89226249D02*
G01*
X135943089Y-89253355D01*
X135954889Y-89280253D01*
X135957733Y-89316560D01*
X135957733Y-89368489D01*
X135869794Y-89368489D01*
X135819898Y-89370427D01*
X135709477Y-89389199D01*
X135608013Y-89426217D01*
X135516848Y-89479369D01*
X135437327Y-89546546D01*
X135370795Y-89625638D01*
X135318594Y-89714534D01*
X135282070Y-89811125D01*
X135262566Y-89913300D01*
X135261427Y-90018950D01*
X135279995Y-90125964D01*
X135319616Y-90232232D01*
X135377484Y-90329219D01*
X135452316Y-90414293D01*
X135540385Y-90483015D01*
X135639384Y-90533918D01*
X135747007Y-90565535D01*
X135860946Y-90576400D01*
X135957733Y-90576400D01*
X135957733Y-92196753D01*
X135957720Y-92407897D01*
X135957670Y-92612020D01*
X135957570Y-92795686D01*
X135957408Y-92959991D01*
X135957171Y-93106029D01*
X135956847Y-93234894D01*
X135956425Y-93347683D01*
X135955891Y-93445488D01*
X135955233Y-93529404D01*
X135954439Y-93600527D01*
X135953496Y-93659950D01*
X135952392Y-93708768D01*
X135951116Y-93748077D01*
X135949653Y-93778969D01*
X135947993Y-93802541D01*
X135946122Y-93819886D01*
X135944028Y-93832099D01*
X135941700Y-93840275D01*
X135939124Y-93845508D01*
X135935555Y-93851504D01*
X135932022Y-93858279D01*
X135928512Y-93864478D01*
X135924082Y-93870126D01*
X135917792Y-93875247D01*
X135908699Y-93879869D01*
X135895861Y-93884015D01*
X135878338Y-93887713D01*
X135855187Y-93890987D01*
X135825466Y-93893863D01*
X135788235Y-93896367D01*
X135742551Y-93898524D01*
X135687473Y-93900360D01*
X135622059Y-93901900D01*
X135545367Y-93903170D01*
X135456456Y-93904195D01*
X135354383Y-93905001D01*
X135348133Y-93905034D01*
X135238208Y-93905614D01*
X135106989Y-93906059D01*
X134959784Y-93906362D01*
X134795651Y-93906548D01*
X134613648Y-93906642D01*
X134412835Y-93906671D01*
X134192268Y-93906661D01*
X133951008Y-93906636D01*
X133688111Y-93906622D01*
X133645960Y-93906622D01*
X133385332Y-93906646D01*
X133146204Y-93906685D01*
X132927640Y-93906708D01*
X132728705Y-93906687D01*
X132548465Y-93906593D01*
X132385985Y-93906395D01*
X132240330Y-93906063D01*
X132110566Y-93905569D01*
X131995757Y-93904883D01*
X131894970Y-93903976D01*
X131807270Y-93902817D01*
X131731721Y-93901378D01*
X131667389Y-93899629D01*
X131613339Y-93897540D01*
X131568637Y-93895083D01*
X131532348Y-93892227D01*
X131503537Y-93888943D01*
X131481269Y-93885202D01*
X131464610Y-93880974D01*
X131452625Y-93876229D01*
X131444379Y-93870939D01*
X131438938Y-93865073D01*
X131435366Y-93858602D01*
X131432730Y-93851497D01*
X131430094Y-93843728D01*
X131426523Y-93835266D01*
X131424855Y-93830908D01*
X131422889Y-93822395D01*
X131421089Y-93809694D01*
X131419445Y-93791885D01*
X131417953Y-93768049D01*
X131416603Y-93737266D01*
X131415389Y-93698617D01*
X131414303Y-93651182D01*
X131413339Y-93594043D01*
X131412489Y-93526279D01*
X131411747Y-93446971D01*
X131411103Y-93355199D01*
X131410553Y-93250044D01*
X131410087Y-93130587D01*
X131409700Y-92995908D01*
X131409384Y-92845088D01*
X131409131Y-92677206D01*
X131408934Y-92491345D01*
X131408787Y-92286583D01*
X131408682Y-92062002D01*
X131408613Y-91825090D01*
X131927600Y-91825090D01*
X132003800Y-91824456D01*
X132045840Y-91825574D01*
X132081666Y-91831304D01*
X132119228Y-91843890D01*
X132167423Y-91865568D01*
X132174103Y-91868789D01*
X132223641Y-91894188D01*
X132271631Y-91920996D01*
X132308534Y-91943917D01*
X132315166Y-91948485D01*
X132346407Y-91970516D01*
X132391346Y-92002693D01*
X132447853Y-92043457D01*
X132513796Y-92091245D01*
X132587043Y-92144498D01*
X132665464Y-92201655D01*
X132746928Y-92261155D01*
X132829302Y-92321437D01*
X132910456Y-92380940D01*
X132988258Y-92438105D01*
X133060577Y-92491370D01*
X133125282Y-92539174D01*
X133180241Y-92579957D01*
X133223324Y-92612158D01*
X133252398Y-92634216D01*
X133265333Y-92644571D01*
X133269649Y-92649044D01*
X133271688Y-92653236D01*
X133269074Y-92656643D01*
X133260014Y-92659325D01*
X133242715Y-92661341D01*
X133215386Y-92662748D01*
X133176235Y-92663605D01*
X133123467Y-92663970D01*
X133055293Y-92663903D01*
X132969918Y-92663460D01*
X132865551Y-92662702D01*
X132740400Y-92661685D01*
X132695700Y-92661308D01*
X132574605Y-92660169D01*
X132473312Y-92658972D01*
X132389738Y-92657636D01*
X132321796Y-92656077D01*
X132267401Y-92654215D01*
X132224468Y-92651966D01*
X132190911Y-92649248D01*
X132164645Y-92645979D01*
X132143584Y-92642078D01*
X132125643Y-92637461D01*
X132099230Y-92629192D01*
X132037228Y-92605583D01*
X131984427Y-92579685D01*
X131947355Y-92554535D01*
X131945925Y-92553339D01*
X131941576Y-92551168D01*
X131937974Y-92553328D01*
X131935049Y-92561644D01*
X131932731Y-92577940D01*
X131930949Y-92604041D01*
X131929633Y-92641771D01*
X131928714Y-92692956D01*
X131928122Y-92759420D01*
X131927785Y-92842987D01*
X131927635Y-92945483D01*
X131927600Y-93068732D01*
X131927600Y-93600296D01*
X131985217Y-93561523D01*
X131994107Y-93555432D01*
X132008931Y-93544976D01*
X132022578Y-93535579D01*
X132036235Y-93527183D01*
X132051089Y-93519733D01*
X132068330Y-93513173D01*
X132089145Y-93507446D01*
X132114720Y-93502495D01*
X132146245Y-93498266D01*
X132184907Y-93494701D01*
X132231893Y-93491744D01*
X132288392Y-93489340D01*
X132355591Y-93487431D01*
X132434678Y-93485962D01*
X132526840Y-93484876D01*
X132633266Y-93484118D01*
X132755143Y-93483630D01*
X132893659Y-93483358D01*
X133050001Y-93483243D01*
X133225358Y-93483231D01*
X133420918Y-93483265D01*
X133637867Y-93483289D01*
X133760487Y-93483280D01*
X133965553Y-93483243D01*
X134149884Y-93483227D01*
X134314666Y-93483288D01*
X134461084Y-93483484D01*
X134590326Y-93483870D01*
X134703578Y-93484505D01*
X134802025Y-93485444D01*
X134886856Y-93486745D01*
X134959256Y-93488464D01*
X135020411Y-93490659D01*
X135071508Y-93493385D01*
X135113733Y-93496701D01*
X135148273Y-93500662D01*
X135176314Y-93505325D01*
X135199042Y-93510747D01*
X135217644Y-93516986D01*
X135233307Y-93524097D01*
X135247216Y-93532138D01*
X135260559Y-93541166D01*
X135274521Y-93551236D01*
X135290289Y-93562407D01*
X135348133Y-93602197D01*
X135348133Y-92542314D01*
X135285034Y-92580311D01*
X135259995Y-92594993D01*
X135232414Y-92609531D01*
X135204300Y-92621627D01*
X135173449Y-92631532D01*
X135137656Y-92639494D01*
X135094717Y-92645761D01*
X135042426Y-92650582D01*
X134978581Y-92654206D01*
X134900975Y-92656881D01*
X134807406Y-92658857D01*
X134695667Y-92660382D01*
X134563555Y-92661704D01*
X134443566Y-92662613D01*
X134326937Y-92663020D01*
X134231469Y-92662767D01*
X134157444Y-92661857D01*
X134105145Y-92660293D01*
X134074851Y-92658079D01*
X134066844Y-92655220D01*
X134070142Y-92652161D01*
X134091592Y-92634006D01*
X134128111Y-92604275D01*
X134177558Y-92564639D01*
X134237793Y-92516771D01*
X134306673Y-92462343D01*
X134382057Y-92403027D01*
X134461804Y-92340495D01*
X134543772Y-92276421D01*
X134625820Y-92212475D01*
X134705806Y-92150331D01*
X134781589Y-92091661D01*
X134851027Y-92038137D01*
X134911979Y-91991430D01*
X134962304Y-91953214D01*
X134999860Y-91925161D01*
X135022505Y-91908943D01*
X135094788Y-91863635D01*
X135174537Y-91823661D01*
X135242812Y-91802130D01*
X135300156Y-91798827D01*
X135348133Y-91804116D01*
X135347883Y-90672356D01*
X135317278Y-90711867D01*
X135309911Y-90721248D01*
X135255562Y-90784183D01*
X135187741Y-90852997D01*
X135104484Y-90929596D01*
X135003822Y-91015888D01*
X134983153Y-91033052D01*
X134933591Y-91073833D01*
X134872674Y-91123588D01*
X134802102Y-91180955D01*
X134723576Y-91244569D01*
X134638796Y-91313069D01*
X134549463Y-91385090D01*
X134457278Y-91459270D01*
X134438298Y-91474517D01*
X134363940Y-91534246D01*
X134271152Y-91608653D01*
X134180612Y-91681131D01*
X134094022Y-91750314D01*
X134013082Y-91814841D01*
X133939494Y-91873347D01*
X133874956Y-91924470D01*
X133821171Y-91966847D01*
X133779838Y-91999115D01*
X133752658Y-92019910D01*
X133741332Y-92027869D01*
X133737229Y-92026111D01*
X133716666Y-92013230D01*
X133680439Y-91988885D01*
X133630176Y-91954247D01*
X133567508Y-91910486D01*
X133494064Y-91858775D01*
X133411473Y-91800284D01*
X133321364Y-91736184D01*
X133225369Y-91667646D01*
X133125115Y-91595843D01*
X133022232Y-91521944D01*
X132918350Y-91447121D01*
X132815099Y-91372545D01*
X132714108Y-91299387D01*
X132617006Y-91228819D01*
X132525423Y-91162011D01*
X132440989Y-91100135D01*
X132365333Y-91044361D01*
X132300084Y-90995862D01*
X132246872Y-90955807D01*
X132207327Y-90925369D01*
X132181974Y-90904944D01*
X132127705Y-90858899D01*
X132071225Y-90808612D01*
X132021331Y-90761815D01*
X131927600Y-90670651D01*
X131927600Y-91825090D01*
X131408613Y-91825090D01*
X131408611Y-91816682D01*
X131408568Y-91549704D01*
X131408563Y-91511321D01*
X131408520Y-91245922D01*
X131408475Y-91002050D01*
X131408452Y-90778783D01*
X131408476Y-90575196D01*
X131408570Y-90390367D01*
X131408757Y-90223373D01*
X131409061Y-90073290D01*
X131409396Y-89972445D01*
X131927600Y-89972445D01*
X131927651Y-90041356D01*
X131927909Y-90139607D01*
X131928363Y-90229030D01*
X131928990Y-90307333D01*
X131929765Y-90372223D01*
X131930665Y-90421411D01*
X131931666Y-90452604D01*
X131932743Y-90463511D01*
X131935963Y-90462322D01*
X131953548Y-90452176D01*
X131979842Y-90435040D01*
X131992309Y-90426540D01*
X132006378Y-90417329D01*
X132020649Y-90409233D01*
X132036521Y-90402185D01*
X132055391Y-90396117D01*
X132078659Y-90390961D01*
X132107722Y-90386651D01*
X132143979Y-90383119D01*
X132188830Y-90380297D01*
X132243672Y-90378118D01*
X132309903Y-90376514D01*
X132388923Y-90375419D01*
X132482129Y-90374765D01*
X132590921Y-90374484D01*
X132716697Y-90374509D01*
X132860855Y-90374772D01*
X133024793Y-90375206D01*
X133209911Y-90375745D01*
X133388768Y-90376279D01*
X133547626Y-90376805D01*
X133686684Y-90377350D01*
X133807335Y-90377945D01*
X133910972Y-90378619D01*
X133998989Y-90379403D01*
X134072777Y-90380326D01*
X134133731Y-90381419D01*
X134183243Y-90382712D01*
X134222707Y-90384235D01*
X134253516Y-90386019D01*
X134277062Y-90388092D01*
X134294740Y-90390486D01*
X134307941Y-90393230D01*
X134318060Y-90396356D01*
X134326489Y-90399892D01*
X134334625Y-90403791D01*
X134371456Y-90423438D01*
X134401609Y-90442225D01*
X134403092Y-90443272D01*
X134425341Y-90457602D01*
X134438298Y-90463511D01*
X134438751Y-90462504D01*
X134440197Y-90445305D01*
X134441520Y-90408656D01*
X134442684Y-90354962D01*
X134443653Y-90286630D01*
X134444389Y-90206064D01*
X134444858Y-90115670D01*
X134445022Y-90017853D01*
X134445022Y-89572195D01*
X133268155Y-89569120D01*
X132091289Y-89566045D01*
X132032378Y-89539407D01*
X132007817Y-89527485D01*
X131977566Y-89510246D01*
X131960440Y-89497074D01*
X131952409Y-89489076D01*
X131937507Y-89481378D01*
X131936235Y-89485260D01*
X131934209Y-89508520D01*
X131932374Y-89550874D01*
X131930773Y-89610132D01*
X131929451Y-89684107D01*
X131928452Y-89770610D01*
X131927820Y-89867452D01*
X131927600Y-89972445D01*
X131409396Y-89972445D01*
X131409506Y-89939196D01*
X131410115Y-89820166D01*
X131410911Y-89715279D01*
X131411920Y-89623610D01*
X131413163Y-89544237D01*
X131414665Y-89476237D01*
X131416449Y-89418686D01*
X131418539Y-89370662D01*
X131420958Y-89331240D01*
X131423730Y-89299499D01*
X131426879Y-89274514D01*
X131430428Y-89255364D01*
X131434402Y-89241123D01*
X131438822Y-89230871D01*
X131443714Y-89223682D01*
X131449100Y-89218635D01*
X131455004Y-89214805D01*
X131461451Y-89211271D01*
X131468463Y-89207108D01*
X131470313Y-89206025D01*
X131475820Y-89203813D01*
X131484132Y-89201786D01*
X131496191Y-89199938D01*
X131512937Y-89198261D01*
X131535313Y-89196745D01*
X131564260Y-89195383D01*
X131600720Y-89194167D01*
X131645633Y-89193089D01*
X131699943Y-89192140D01*
X131764590Y-89191312D01*
X131840516Y-89190597D01*
X131928662Y-89189987D01*
X132029971Y-89189474D01*
X132145383Y-89189050D01*
X132275840Y-89188706D01*
X132422284Y-89188434D01*
X132585656Y-89188227D01*
X132766899Y-89188076D01*
X132966952Y-89187972D01*
X133186759Y-89187908D01*
X133427261Y-89187876D01*
X133689398Y-89187867D01*
X135880969Y-89187867D01*
X135919351Y-89226249D01*
G37*
D12*
%TO.C,G\u002A\u002A\u002A*%
G36*
X142305196Y-101258175D02*
G01*
X142341118Y-101272803D01*
X142364879Y-101300122D01*
X142373468Y-101337362D01*
X142367827Y-101366307D01*
X142348127Y-101394201D01*
X142318822Y-101412169D01*
X142284686Y-101418562D01*
X142250491Y-101411732D01*
X142221009Y-101390031D01*
X142215558Y-101383162D01*
X142199740Y-101348154D01*
X142200750Y-101314005D01*
X142216669Y-101284692D01*
X142245574Y-101264189D01*
X142285545Y-101256471D01*
X142305196Y-101258175D01*
G37*
G36*
X143960364Y-102311348D02*
G01*
X143994120Y-102328796D01*
X144016985Y-102358899D01*
X144024468Y-102400936D01*
X144019262Y-102428975D01*
X144000071Y-102456361D01*
X143970892Y-102473411D01*
X143936123Y-102478778D01*
X143900162Y-102471113D01*
X143867409Y-102449069D01*
X143853236Y-102431533D01*
X143840692Y-102397760D01*
X143843468Y-102364801D01*
X143859194Y-102336168D01*
X143885498Y-102315374D01*
X143920012Y-102305930D01*
X143960364Y-102311348D01*
G37*
G36*
X141546361Y-100919407D02*
G01*
X141579156Y-100938582D01*
X141602547Y-100967869D01*
X141611468Y-101002471D01*
X141606339Y-101028714D01*
X141586099Y-101059783D01*
X141555185Y-101081942D01*
X141518661Y-101090394D01*
X141514768Y-101090338D01*
X141483040Y-101083350D01*
X141454409Y-101061838D01*
X141434571Y-101036151D01*
X141425853Y-101002471D01*
X141430983Y-100976228D01*
X141451223Y-100945159D01*
X141482137Y-100923000D01*
X141518661Y-100914548D01*
X141546361Y-100919407D01*
G37*
G36*
X142516465Y-105072639D02*
G01*
X142550066Y-105095027D01*
X142564292Y-105112774D01*
X142577965Y-105149944D01*
X142575236Y-105187943D01*
X142556940Y-105221917D01*
X142523913Y-105247011D01*
X142489076Y-105256316D01*
X142449497Y-105251346D01*
X142415561Y-105231384D01*
X142392473Y-105198356D01*
X142391150Y-105194966D01*
X142385047Y-105155765D01*
X142394515Y-105120958D01*
X142415972Y-105092894D01*
X142445837Y-105073921D01*
X142480528Y-105066386D01*
X142516465Y-105072639D01*
G37*
G36*
X142973656Y-102223759D02*
G01*
X143006484Y-102242116D01*
X143029254Y-102272376D01*
X143037776Y-102311814D01*
X143037770Y-102312466D01*
X143028803Y-102338523D01*
X143006868Y-102363518D01*
X142977915Y-102382296D01*
X142947894Y-102389702D01*
X142916817Y-102384734D01*
X142883210Y-102366161D01*
X142861848Y-102337368D01*
X142855797Y-102318615D01*
X142855100Y-102280545D01*
X142872445Y-102249820D01*
X142907516Y-102227201D01*
X142934963Y-102220027D01*
X142973656Y-102223759D01*
G37*
G36*
X143409504Y-102245814D02*
G01*
X143438196Y-102269654D01*
X143447634Y-102284053D01*
X143458148Y-102321276D01*
X143452039Y-102357628D01*
X143430752Y-102388375D01*
X143395730Y-102408786D01*
X143373169Y-102413282D01*
X143334163Y-102407497D01*
X143301271Y-102385834D01*
X143279168Y-102350625D01*
X143277253Y-102344822D01*
X143275094Y-102309409D01*
X143287803Y-102278919D01*
X143311488Y-102255334D01*
X143342260Y-102240635D01*
X143376229Y-102236801D01*
X143409504Y-102245814D01*
G37*
G36*
X142245650Y-105266317D02*
G01*
X142262459Y-105276769D01*
X142289657Y-105306528D01*
X142301820Y-105341091D01*
X142299668Y-105376330D01*
X142283921Y-105408115D01*
X142255300Y-105432316D01*
X142214524Y-105444803D01*
X142213785Y-105444885D01*
X142167586Y-105442763D01*
X142132072Y-105426012D01*
X142109338Y-105395613D01*
X142105190Y-105383930D01*
X142102259Y-105344626D01*
X142114306Y-105308990D01*
X142138000Y-105280181D01*
X142170009Y-105261360D01*
X142207003Y-105255685D01*
X142245650Y-105266317D01*
G37*
G36*
X142728427Y-105314556D02*
G01*
X142761920Y-105330750D01*
X142787484Y-105357593D01*
X142802363Y-105391232D01*
X142803804Y-105427815D01*
X142789050Y-105463489D01*
X142786393Y-105467061D01*
X142757216Y-105490505D01*
X142720525Y-105501311D01*
X142682041Y-105499622D01*
X142647483Y-105485580D01*
X142622572Y-105459328D01*
X142614391Y-105440605D01*
X142610094Y-105400480D01*
X142621341Y-105362829D01*
X142646124Y-105332516D01*
X142682434Y-105314403D01*
X142689760Y-105312863D01*
X142728427Y-105314556D01*
G37*
G36*
X142438529Y-105508676D02*
G01*
X142443275Y-105509269D01*
X142485226Y-105521868D01*
X142512402Y-105546709D01*
X142525994Y-105584824D01*
X142526321Y-105586968D01*
X142525185Y-105631212D01*
X142507668Y-105665212D01*
X142474135Y-105688245D01*
X142455414Y-105694071D01*
X142414540Y-105695532D01*
X142376992Y-105683652D01*
X142349399Y-105659934D01*
X142341815Y-105646635D01*
X142333631Y-105608010D01*
X142341324Y-105568196D01*
X142364166Y-105533425D01*
X142368628Y-105529020D01*
X142388708Y-105512777D01*
X142408835Y-105507052D01*
X142438529Y-105508676D01*
G37*
G36*
X139936130Y-104018789D02*
G01*
X139977621Y-104038404D01*
X140011427Y-104069601D01*
X140034304Y-104111470D01*
X140043010Y-104163105D01*
X140042497Y-104181185D01*
X140033000Y-104223940D01*
X140009512Y-104259668D01*
X139969339Y-104293124D01*
X139945905Y-104305334D01*
X139900260Y-104314051D01*
X139851908Y-104308637D01*
X139805737Y-104290592D01*
X139766641Y-104261417D01*
X139739509Y-104222613D01*
X139733045Y-104202792D01*
X139729530Y-104159908D01*
X139736257Y-104116542D01*
X139752402Y-104081709D01*
X139758202Y-104074318D01*
X139797991Y-104038520D01*
X139843072Y-104017939D01*
X139890199Y-104011664D01*
X139936130Y-104018789D01*
G37*
G36*
X142739606Y-99568645D02*
G01*
X142770689Y-99590838D01*
X142799907Y-99622411D01*
X142824094Y-99661632D01*
X142827680Y-99669627D01*
X142841507Y-99719617D01*
X142846685Y-99776928D01*
X142842986Y-99833397D01*
X142830185Y-99880862D01*
X142822217Y-99897330D01*
X142788108Y-99946337D01*
X142743815Y-99988170D01*
X142693499Y-100020014D01*
X142641321Y-100039051D01*
X142591441Y-100042465D01*
X142581801Y-100041120D01*
X142553259Y-100034247D01*
X142534666Y-100025552D01*
X142522300Y-100004788D01*
X142521920Y-99977687D01*
X142534177Y-99954158D01*
X142540520Y-99949627D01*
X142564422Y-99939989D01*
X142595234Y-99932989D01*
X142643751Y-99920133D01*
X142690618Y-99892805D01*
X142723552Y-99855235D01*
X142741526Y-99810232D01*
X142743515Y-99760605D01*
X142728492Y-99709162D01*
X142695430Y-99658713D01*
X142689561Y-99651900D01*
X142668768Y-99626052D01*
X142659243Y-99608159D01*
X142659209Y-99593042D01*
X142666889Y-99575521D01*
X142684497Y-99559336D01*
X142709820Y-99557567D01*
X142739606Y-99568645D01*
G37*
G36*
X141147430Y-97852389D02*
G01*
X141149997Y-97852777D01*
X141181325Y-97858678D01*
X141221302Y-97867602D01*
X141264373Y-97878143D01*
X141304985Y-97888894D01*
X141337582Y-97898446D01*
X141356611Y-97905392D01*
X141371826Y-97912408D01*
X141396545Y-97922776D01*
X141484399Y-97961698D01*
X141586438Y-98019899D01*
X141682917Y-98091109D01*
X141778452Y-98178419D01*
X141803153Y-98203828D01*
X141838500Y-98242360D01*
X141873103Y-98282191D01*
X141904428Y-98320220D01*
X141929941Y-98353347D01*
X141947106Y-98378470D01*
X141953392Y-98392489D01*
X141958646Y-98405271D01*
X141971738Y-98424544D01*
X141984663Y-98443544D01*
X142003043Y-98474255D01*
X142022077Y-98508900D01*
X142023274Y-98511176D01*
X142039895Y-98540864D01*
X142053483Y-98561927D01*
X142061198Y-98569932D01*
X142061921Y-98569726D01*
X142071710Y-98559890D01*
X142088285Y-98538251D01*
X142108496Y-98508875D01*
X142132308Y-98475500D01*
X142190330Y-98414102D01*
X142256238Y-98369601D01*
X142269665Y-98363790D01*
X142305725Y-98354227D01*
X142346983Y-98348757D01*
X142387443Y-98347688D01*
X142421104Y-98351332D01*
X142441968Y-98359998D01*
X142446536Y-98363387D01*
X142465447Y-98369024D01*
X142482980Y-98366053D01*
X142490699Y-98355290D01*
X142490702Y-98355188D01*
X142497628Y-98343805D01*
X142515584Y-98322804D01*
X142541174Y-98295603D01*
X142570998Y-98265621D01*
X142601658Y-98236274D01*
X142629755Y-98210982D01*
X142651891Y-98193163D01*
X142664772Y-98183874D01*
X142687436Y-98167330D01*
X142700738Y-98157340D01*
X142739002Y-98130476D01*
X142788719Y-98102088D01*
X142835095Y-98081579D01*
X142851416Y-98075541D01*
X142875670Y-98065437D01*
X142888011Y-98058646D01*
X142897389Y-98055721D01*
X142921564Y-98053152D01*
X142954098Y-98052163D01*
X142999041Y-98056446D01*
X143048825Y-98075273D01*
X143085503Y-98108270D01*
X143108173Y-98154537D01*
X143115930Y-98213174D01*
X143115648Y-98228071D01*
X143112233Y-98254969D01*
X143102943Y-98281482D01*
X143085297Y-98315932D01*
X143075248Y-98335398D01*
X143058991Y-98368625D01*
X143040358Y-98407812D01*
X143022330Y-98446681D01*
X143007886Y-98478955D01*
X142994773Y-98514802D01*
X142980187Y-98564652D01*
X142966618Y-98620052D01*
X142955950Y-98673931D01*
X142953617Y-98708252D01*
X142957270Y-98742188D01*
X142965854Y-98768733D01*
X142978135Y-98781892D01*
X142998702Y-98789327D01*
X143057359Y-98816097D01*
X143123838Y-98852637D01*
X143193791Y-98896154D01*
X143262870Y-98943854D01*
X143326725Y-98992946D01*
X143381009Y-99040636D01*
X143408445Y-99068050D01*
X143442229Y-99104109D01*
X143475879Y-99142005D01*
X143506714Y-99178551D01*
X143532057Y-99210562D01*
X143549227Y-99234850D01*
X143555545Y-99248229D01*
X143559094Y-99256831D01*
X143570677Y-99277790D01*
X143587517Y-99305536D01*
X143594356Y-99316701D01*
X143634984Y-99395785D01*
X143670167Y-99486216D01*
X143697140Y-99581048D01*
X143700887Y-99600211D01*
X143706865Y-99639803D01*
X143712888Y-99688025D01*
X143718373Y-99739284D01*
X143722737Y-99787990D01*
X143725395Y-99828552D01*
X143725765Y-99855380D01*
X143723479Y-99894898D01*
X143717640Y-99971833D01*
X143710646Y-100032856D01*
X143702173Y-100080475D01*
X143691895Y-100117200D01*
X143684109Y-100141162D01*
X143675944Y-100171931D01*
X143672776Y-100192347D01*
X143672774Y-100192731D01*
X143668632Y-100216354D01*
X143658954Y-100243879D01*
X143634766Y-100296879D01*
X143595721Y-100377403D01*
X143558878Y-100445316D01*
X143521771Y-100504412D01*
X143481936Y-100558487D01*
X143436907Y-100611336D01*
X143384217Y-100666754D01*
X143305600Y-100746229D01*
X143377329Y-100832831D01*
X143404546Y-100865861D01*
X143437878Y-100906462D01*
X143466159Y-100940191D01*
X143491423Y-100968496D01*
X143515705Y-100992820D01*
X143541038Y-101014612D01*
X143569456Y-101035317D01*
X143602993Y-101056382D01*
X143643684Y-101079252D01*
X143693562Y-101105373D01*
X143754661Y-101136192D01*
X143829015Y-101173155D01*
X143918659Y-101217709D01*
X143959104Y-101237911D01*
X144036861Y-101277003D01*
X144108936Y-101313563D01*
X144173355Y-101346569D01*
X144228147Y-101375002D01*
X144271338Y-101397843D01*
X144300956Y-101414071D01*
X144315029Y-101422665D01*
X144356506Y-101466737D01*
X144388295Y-101525382D01*
X144408218Y-101594583D01*
X144414915Y-101670961D01*
X144414601Y-101681984D01*
X144411345Y-101722429D01*
X144405131Y-101774426D01*
X144396667Y-101832452D01*
X144386665Y-101890985D01*
X144381257Y-101921037D01*
X144372994Y-101970917D01*
X144366976Y-102012668D01*
X144363713Y-102042610D01*
X144363713Y-102057062D01*
X144369513Y-102073184D01*
X144380156Y-102101500D01*
X144393275Y-102135702D01*
X144402405Y-102161041D01*
X144411812Y-102197327D01*
X144416374Y-102236621D01*
X144417398Y-102287125D01*
X144415783Y-102323019D01*
X144411080Y-102376996D01*
X144403715Y-102443976D01*
X144394111Y-102520745D01*
X144382691Y-102604088D01*
X144369878Y-102690791D01*
X144356097Y-102777641D01*
X144341769Y-102861423D01*
X144339385Y-102874986D01*
X144331722Y-102919854D01*
X144322377Y-102975858D01*
X144312317Y-103037173D01*
X144302508Y-103097971D01*
X144298096Y-103125203D01*
X144288222Y-103183810D01*
X144278541Y-103238488D01*
X144269975Y-103284109D01*
X144263442Y-103315545D01*
X144258964Y-103333858D01*
X144236422Y-103400058D01*
X144206628Y-103449390D01*
X144167815Y-103483012D01*
X144118215Y-103502079D01*
X144117867Y-103502111D01*
X144056063Y-103507746D01*
X143979591Y-103501168D01*
X143890752Y-103488179D01*
X143711866Y-103981806D01*
X143701554Y-104010257D01*
X143666125Y-104107950D01*
X143631610Y-104203034D01*
X143598829Y-104293259D01*
X143568601Y-104376372D01*
X143541745Y-104450121D01*
X143519082Y-104512253D01*
X143501429Y-104560518D01*
X143489608Y-104592663D01*
X143489389Y-104593256D01*
X143474340Y-104634275D01*
X143454121Y-104689874D01*
X143430088Y-104756292D01*
X143403601Y-104829770D01*
X143376015Y-104906550D01*
X143348690Y-104982872D01*
X143251144Y-105255850D01*
X143242127Y-105383410D01*
X143242126Y-105383436D01*
X143237786Y-105437199D01*
X143232638Y-105489296D01*
X143227324Y-105533778D01*
X143222489Y-105564702D01*
X143212197Y-105608142D01*
X143192471Y-105674705D01*
X143166758Y-105750231D01*
X143136747Y-105830059D01*
X143104128Y-105909528D01*
X143097084Y-105925163D01*
X143070588Y-105983975D01*
X143065530Y-105994543D01*
X143026702Y-106069237D01*
X142987604Y-106130607D01*
X142944142Y-106183742D01*
X142892218Y-106233730D01*
X142827738Y-106285659D01*
X142776859Y-106321817D01*
X142728485Y-106349884D01*
X142678073Y-106371359D01*
X142619796Y-106388713D01*
X142547825Y-106404419D01*
X142463767Y-106420768D01*
X142433990Y-106426559D01*
X142269402Y-106400925D01*
X142224391Y-106393837D01*
X142159136Y-106383029D01*
X142099998Y-106372130D01*
X142045199Y-106360404D01*
X141992964Y-106347115D01*
X141941514Y-106331525D01*
X141889074Y-106312898D01*
X141833866Y-106290498D01*
X141774115Y-106263588D01*
X141708044Y-106231431D01*
X141688111Y-106221181D01*
X141633876Y-106193292D01*
X141549834Y-106148433D01*
X141454141Y-106096118D01*
X141345022Y-106035611D01*
X141220699Y-105966174D01*
X141156289Y-105930145D01*
X141066358Y-105879869D01*
X140974515Y-105828550D01*
X140884550Y-105778308D01*
X140800257Y-105731260D01*
X140725427Y-105689523D01*
X140663853Y-105655214D01*
X140636967Y-105640239D01*
X140562496Y-105598702D01*
X140484569Y-105555169D01*
X140408319Y-105512512D01*
X140338880Y-105473600D01*
X140281388Y-105441307D01*
X140118730Y-105349779D01*
X139614638Y-105349779D01*
X139443359Y-105349779D01*
X139110545Y-105349779D01*
X139110545Y-105373721D01*
X139110515Y-105377913D01*
X139102788Y-105440010D01*
X139082634Y-105494463D01*
X139051813Y-105536400D01*
X139026889Y-105556928D01*
X138998758Y-105572196D01*
X138964256Y-105582818D01*
X138920111Y-105589515D01*
X138863052Y-105593006D01*
X138856057Y-105593102D01*
X138789807Y-105594009D01*
X138653566Y-105594009D01*
X138647489Y-105626405D01*
X138639416Y-105653711D01*
X138621797Y-105695849D01*
X138597713Y-105744809D01*
X138569730Y-105795704D01*
X138540415Y-105843647D01*
X138512337Y-105883748D01*
X138467800Y-105933709D01*
X138412984Y-105982890D01*
X138354826Y-106025417D01*
X138299750Y-106056082D01*
X138280961Y-106064408D01*
X138256992Y-106074392D01*
X138233832Y-106082628D01*
X138209445Y-106089306D01*
X138181797Y-106094613D01*
X138148853Y-106098739D01*
X138108578Y-106101872D01*
X138058939Y-106104200D01*
X137997900Y-106105912D01*
X137923427Y-106107197D01*
X137833485Y-106108242D01*
X137726040Y-106109237D01*
X137659339Y-106109801D01*
X137657277Y-106109814D01*
X137558739Y-106110455D01*
X137474540Y-106110568D01*
X137404757Y-106109979D01*
X137347407Y-106108528D01*
X137300505Y-106106053D01*
X137262066Y-106102394D01*
X137230108Y-106097390D01*
X137202646Y-106090880D01*
X137177695Y-106082702D01*
X137153271Y-106072698D01*
X137127391Y-106060704D01*
X137115271Y-106054501D01*
X137056463Y-106012864D01*
X137000650Y-105954721D01*
X136949656Y-105882583D01*
X136905309Y-105798958D01*
X136869436Y-105706356D01*
X136869260Y-105705808D01*
X136842295Y-105610340D01*
X136817017Y-105497545D01*
X136793746Y-105369576D01*
X136772802Y-105228583D01*
X136754504Y-105076717D01*
X136739172Y-104916130D01*
X136727126Y-104748971D01*
X136724190Y-104701042D01*
X136720590Y-104643472D01*
X136717344Y-104592844D01*
X136714722Y-104553345D01*
X136712994Y-104529163D01*
X136712769Y-104526113D01*
X136711234Y-104490466D01*
X136710258Y-104438070D01*
X136709803Y-104371407D01*
X136709831Y-104292958D01*
X136710303Y-104205204D01*
X136710405Y-104194255D01*
X136934227Y-104194255D01*
X136937314Y-104373042D01*
X136943640Y-104547724D01*
X136953058Y-104717020D01*
X136965418Y-104879648D01*
X136980574Y-105034327D01*
X136998376Y-105179774D01*
X137018676Y-105314709D01*
X137041327Y-105437850D01*
X137066179Y-105547915D01*
X137093084Y-105643623D01*
X137121895Y-105723692D01*
X137152463Y-105786840D01*
X137184639Y-105831785D01*
X137191782Y-105839463D01*
X137203674Y-105851476D01*
X137215885Y-105861278D01*
X137230338Y-105869093D01*
X137248953Y-105875146D01*
X137273655Y-105879663D01*
X137306363Y-105882868D01*
X137349000Y-105884987D01*
X137403488Y-105886243D01*
X137471749Y-105886861D01*
X137555705Y-105887068D01*
X137657277Y-105887086D01*
X137762409Y-105886983D01*
X137851476Y-105886537D01*
X137925140Y-105885550D01*
X137985479Y-105883822D01*
X138034575Y-105881156D01*
X138074506Y-105877351D01*
X138107354Y-105872211D01*
X138135197Y-105865534D01*
X138160115Y-105857124D01*
X138184189Y-105846780D01*
X138209498Y-105834305D01*
X138259763Y-105803532D01*
X138325382Y-105745668D01*
X138380027Y-105675072D01*
X138420594Y-105595257D01*
X138422421Y-105590551D01*
X138430176Y-105567537D01*
X138432098Y-105548542D01*
X138427967Y-105526083D01*
X138417560Y-105492680D01*
X138401732Y-105440327D01*
X138376535Y-105337757D01*
X138352944Y-105216708D01*
X138331067Y-105077808D01*
X138311007Y-104921686D01*
X138292871Y-104748971D01*
X138290356Y-104718889D01*
X138286122Y-104649529D01*
X138282518Y-104565605D01*
X138279558Y-104469957D01*
X138277251Y-104365427D01*
X138275610Y-104254854D01*
X138274646Y-104141080D01*
X138274378Y-104029938D01*
X138452749Y-104029938D01*
X138453382Y-104231428D01*
X138458887Y-104428475D01*
X138469130Y-104618637D01*
X138483981Y-104799468D01*
X138503306Y-104968525D01*
X138526975Y-105123362D01*
X138554856Y-105261536D01*
X138563903Y-105299623D01*
X138574160Y-105333403D01*
X138586891Y-105355928D01*
X138605509Y-105369480D01*
X138633428Y-105376337D01*
X138674059Y-105378779D01*
X138730815Y-105379086D01*
X138856057Y-105379086D01*
X138851368Y-105352221D01*
X138850641Y-105347842D01*
X138846883Y-105323234D01*
X138841289Y-105285021D01*
X138834487Y-105237530D01*
X138827105Y-105185091D01*
X138809566Y-105051363D01*
X138806946Y-105025295D01*
X139033722Y-105025295D01*
X139034176Y-105041225D01*
X139036741Y-105082119D01*
X139041868Y-105109229D01*
X139050741Y-105126945D01*
X139064541Y-105139654D01*
X139069560Y-105142402D01*
X139080870Y-105145811D01*
X139098531Y-105148528D01*
X139124427Y-105150626D01*
X139160441Y-105152178D01*
X139208457Y-105153257D01*
X139270360Y-105153938D01*
X139348032Y-105154292D01*
X139443359Y-105154394D01*
X139533520Y-105154354D01*
X139609742Y-105154167D01*
X139670260Y-105153733D01*
X139717026Y-105152954D01*
X139751994Y-105151733D01*
X139777114Y-105149972D01*
X139794341Y-105147571D01*
X139805626Y-105144434D01*
X139812922Y-105140461D01*
X139818181Y-105135556D01*
X139819415Y-105134163D01*
X139828849Y-105118428D01*
X139828615Y-105101267D01*
X139817328Y-105079970D01*
X139793601Y-105051829D01*
X139756417Y-105014504D01*
X140089662Y-105014504D01*
X140090306Y-105045142D01*
X140109449Y-105073236D01*
X140109603Y-105073372D01*
X140122772Y-105082089D01*
X140151525Y-105099266D01*
X140194334Y-105124061D01*
X140249669Y-105155628D01*
X140316002Y-105193125D01*
X140391803Y-105235708D01*
X140475542Y-105282532D01*
X140565691Y-105332755D01*
X140660720Y-105385531D01*
X140759100Y-105440019D01*
X140859302Y-105495373D01*
X140959797Y-105550750D01*
X141059055Y-105605306D01*
X141155547Y-105658198D01*
X141247744Y-105708582D01*
X141334117Y-105755614D01*
X141413137Y-105798450D01*
X141483274Y-105836247D01*
X141542999Y-105868160D01*
X141590783Y-105893347D01*
X141625097Y-105910962D01*
X141644411Y-105920163D01*
X141688111Y-105933753D01*
X141719453Y-105932766D01*
X141738125Y-105917036D01*
X141748232Y-105880212D01*
X141739793Y-105841906D01*
X141712884Y-105803970D01*
X141672865Y-105771424D01*
X141668007Y-105767473D01*
X141665073Y-105765564D01*
X141637666Y-105748773D01*
X141595524Y-105724048D01*
X141540748Y-105692570D01*
X141475437Y-105655521D01*
X141401693Y-105614080D01*
X141321616Y-105569430D01*
X141237307Y-105522752D01*
X141150865Y-105475227D01*
X141064391Y-105428036D01*
X141028927Y-105408709D01*
X140976342Y-105379966D01*
X140912285Y-105344890D01*
X140839707Y-105305098D01*
X140761558Y-105262209D01*
X140680790Y-105217841D01*
X140600353Y-105173611D01*
X140569256Y-105156496D01*
X140476675Y-105105495D01*
X140399309Y-105062961D01*
X140335636Y-105028266D01*
X140284136Y-105000783D01*
X140243289Y-104979885D01*
X140211573Y-104964945D01*
X140187469Y-104955337D01*
X140169455Y-104950433D01*
X140156012Y-104949606D01*
X140145618Y-104952229D01*
X140136752Y-104957676D01*
X140127895Y-104965319D01*
X140117526Y-104974532D01*
X140107272Y-104984300D01*
X140089662Y-105014504D01*
X139756417Y-105014504D01*
X139756049Y-105014135D01*
X139688830Y-104949240D01*
X139379507Y-104949240D01*
X139302452Y-104949456D01*
X139219972Y-104950299D01*
X139196525Y-104950801D01*
X139152480Y-104951744D01*
X139101110Y-104953759D01*
X139067001Y-104956307D01*
X139051288Y-104959353D01*
X139047753Y-104961454D01*
X139038330Y-104972308D01*
X139034131Y-104991795D01*
X139033722Y-105025295D01*
X138806946Y-105025295D01*
X138783737Y-104794371D01*
X140351238Y-104794371D01*
X140351369Y-104795494D01*
X140352961Y-104798213D01*
X140357510Y-104802210D01*
X140366441Y-104808288D01*
X140381177Y-104817245D01*
X140403141Y-104829883D01*
X140433756Y-104847002D01*
X140474447Y-104869403D01*
X140526636Y-104897884D01*
X140591748Y-104933248D01*
X140671204Y-104976294D01*
X140766430Y-105027823D01*
X140792040Y-105041678D01*
X140872866Y-105085413D01*
X140955712Y-105130250D01*
X141036736Y-105174111D01*
X141112098Y-105214915D01*
X141177955Y-105250584D01*
X141230468Y-105279038D01*
X141323267Y-105329316D01*
X141412611Y-105377662D01*
X141486799Y-105417724D01*
X141546886Y-105450069D01*
X141593933Y-105475263D01*
X141628995Y-105493872D01*
X141653133Y-105506463D01*
X141667403Y-105513602D01*
X141672865Y-105515856D01*
X141674587Y-105509787D01*
X141677170Y-105487781D01*
X141679432Y-105459556D01*
X141905483Y-105459556D01*
X141908444Y-105527114D01*
X141918657Y-105585102D01*
X141924904Y-105605323D01*
X141958068Y-105679558D01*
X142005260Y-105753131D01*
X142062734Y-105821426D01*
X142126740Y-105879825D01*
X142193533Y-105923713D01*
X142269225Y-105956390D01*
X142365795Y-105980015D01*
X142463767Y-105985610D01*
X142560710Y-105973521D01*
X142654191Y-105944093D01*
X142741779Y-105897671D01*
X142821042Y-105834601D01*
X142887147Y-105760523D01*
X142940956Y-105675126D01*
X142977431Y-105584685D01*
X142996217Y-105491021D01*
X142996958Y-105395959D01*
X142979299Y-105301322D01*
X142942886Y-105208932D01*
X142909209Y-105155563D01*
X142856358Y-105095504D01*
X142792528Y-105040189D01*
X142722203Y-104993444D01*
X142649872Y-104959093D01*
X142621525Y-104949383D01*
X142524935Y-104928873D01*
X142428059Y-104926262D01*
X142333061Y-104940479D01*
X142242106Y-104970450D01*
X142157359Y-105015101D01*
X142080983Y-105073361D01*
X142015143Y-105144155D01*
X141962003Y-105226412D01*
X141947581Y-105261322D01*
X141923729Y-105319058D01*
X141920671Y-105329748D01*
X141909613Y-105390932D01*
X141905483Y-105459556D01*
X141679432Y-105459556D01*
X141679920Y-105453469D01*
X141682472Y-105410836D01*
X141685321Y-105372019D01*
X141703365Y-105264976D01*
X141736912Y-105163955D01*
X141787200Y-105065777D01*
X141855469Y-104967266D01*
X141870958Y-104947195D01*
X141888057Y-104923310D01*
X141895376Y-104908317D01*
X141894510Y-104898281D01*
X141887048Y-104889272D01*
X141882012Y-104885573D01*
X141860833Y-104872476D01*
X141825864Y-104852079D01*
X141779298Y-104825623D01*
X141723326Y-104794347D01*
X141660139Y-104759492D01*
X141621319Y-104738323D01*
X142197622Y-104738323D01*
X142198178Y-104745568D01*
X142203795Y-104754772D01*
X142218139Y-104757258D01*
X142244475Y-104753188D01*
X142286065Y-104742724D01*
X142291001Y-104741414D01*
X142342848Y-104730720D01*
X142400692Y-104724773D01*
X142471161Y-104722861D01*
X142520892Y-104723821D01*
X142601678Y-104731362D01*
X142677620Y-104747695D01*
X142755062Y-104774367D01*
X142840347Y-104812926D01*
X142880942Y-104833812D01*
X142928985Y-104862583D01*
X142971422Y-104894505D01*
X143015950Y-104934925D01*
X143041114Y-104958477D01*
X143068382Y-104982085D01*
X143088074Y-104996854D01*
X143097084Y-105000283D01*
X143097460Y-104999540D01*
X143102979Y-104985519D01*
X143114465Y-104955007D01*
X143131363Y-104909521D01*
X143153122Y-104850579D01*
X143179190Y-104779698D01*
X143209015Y-104698394D01*
X143242043Y-104608184D01*
X143277723Y-104510586D01*
X143315503Y-104407116D01*
X143354830Y-104299291D01*
X143395152Y-104188629D01*
X143435917Y-104076646D01*
X143476572Y-103964859D01*
X143516565Y-103854785D01*
X143555344Y-103747941D01*
X143592357Y-103645844D01*
X143627051Y-103550012D01*
X143658874Y-103461960D01*
X143687274Y-103383206D01*
X143711698Y-103315267D01*
X143731595Y-103259660D01*
X143746411Y-103217902D01*
X143755596Y-103191510D01*
X143768710Y-103148505D01*
X143778685Y-103093510D01*
X143775610Y-103051254D01*
X143758930Y-103020176D01*
X143728093Y-102998714D01*
X143682545Y-102985306D01*
X143679580Y-102984769D01*
X143652037Y-102980314D01*
X143608776Y-102973819D01*
X143552909Y-102965714D01*
X143487548Y-102956425D01*
X143415804Y-102946382D01*
X143340788Y-102936012D01*
X143265613Y-102925743D01*
X143193390Y-102916003D01*
X143127230Y-102907221D01*
X143070245Y-102899824D01*
X143025548Y-102894240D01*
X142996248Y-102890898D01*
X142994929Y-102890764D01*
X142963114Y-102888331D01*
X142942893Y-102890781D01*
X142926708Y-102900601D01*
X142906997Y-102920282D01*
X142905877Y-102921463D01*
X142900193Y-102927385D01*
X142894895Y-102933141D01*
X142889635Y-102939608D01*
X142884064Y-102947665D01*
X142877835Y-102958190D01*
X142870597Y-102972060D01*
X142862004Y-102990153D01*
X142851707Y-103013347D01*
X142839357Y-103042519D01*
X142824606Y-103078548D01*
X142807105Y-103122311D01*
X142786507Y-103174687D01*
X142762462Y-103236552D01*
X142734623Y-103308785D01*
X142702640Y-103392264D01*
X142666166Y-103487866D01*
X142624852Y-103596469D01*
X142578350Y-103718951D01*
X142557431Y-103774119D01*
X142526311Y-103856190D01*
X142468386Y-104009064D01*
X142404228Y-104178450D01*
X142333489Y-104365226D01*
X142325744Y-104385698D01*
X142296241Y-104464122D01*
X142269224Y-104536620D01*
X142245442Y-104601138D01*
X142225643Y-104655622D01*
X142210575Y-104698016D01*
X142200985Y-104726268D01*
X142197622Y-104738323D01*
X141621319Y-104738323D01*
X141591930Y-104722297D01*
X141584838Y-104718452D01*
X141500423Y-104672671D01*
X141404686Y-104620739D01*
X141302979Y-104565559D01*
X141200653Y-104510035D01*
X141103058Y-104457069D01*
X141015545Y-104409565D01*
X140952382Y-104375272D01*
X140874199Y-104332866D01*
X140810533Y-104298489D01*
X140759803Y-104271393D01*
X140720430Y-104250829D01*
X140690834Y-104236048D01*
X140669435Y-104226300D01*
X140654652Y-104220838D01*
X140644906Y-104218911D01*
X140638616Y-104219772D01*
X140634203Y-104222671D01*
X140630086Y-104226858D01*
X140629559Y-104227455D01*
X140621661Y-104243501D01*
X140610831Y-104274054D01*
X140598427Y-104314967D01*
X140585807Y-104362094D01*
X140573024Y-104410477D01*
X140558020Y-104462603D01*
X140543690Y-104508171D01*
X140531913Y-104540946D01*
X140506300Y-104592932D01*
X140469720Y-104651536D01*
X140428025Y-104707514D01*
X140412084Y-104725052D01*
X140386381Y-104753330D01*
X140374277Y-104765378D01*
X140357728Y-104783896D01*
X140351238Y-104794371D01*
X138783737Y-104794371D01*
X138775066Y-104708097D01*
X138756109Y-104365643D01*
X138754282Y-104180970D01*
X138956904Y-104180970D01*
X138963431Y-104396895D01*
X138978379Y-104625540D01*
X138979228Y-104637232D01*
X138980732Y-104664814D01*
X138982434Y-104687766D01*
X138985943Y-104706498D01*
X138992873Y-104721419D01*
X139004835Y-104732941D01*
X139023440Y-104741472D01*
X139050299Y-104747423D01*
X139087026Y-104751204D01*
X139135230Y-104753224D01*
X139196525Y-104753895D01*
X139272520Y-104753626D01*
X139364829Y-104752826D01*
X139475062Y-104751907D01*
X139535131Y-104751480D01*
X139630966Y-104750738D01*
X139710201Y-104749969D01*
X139774735Y-104749077D01*
X139826470Y-104747967D01*
X139867303Y-104746542D01*
X139899135Y-104744708D01*
X139923867Y-104742369D01*
X139943396Y-104739430D01*
X139959625Y-104735795D01*
X139974451Y-104731369D01*
X139989776Y-104726057D01*
X140046643Y-104702808D01*
X140140571Y-104649197D01*
X140221520Y-104581901D01*
X140288391Y-104502104D01*
X140340089Y-104410991D01*
X140375514Y-104309745D01*
X140381690Y-104279314D01*
X140388235Y-104216956D01*
X140389441Y-104149471D01*
X140385301Y-104084831D01*
X140375804Y-104031006D01*
X140364991Y-104000164D01*
X140645552Y-104000164D01*
X140646502Y-104025577D01*
X140650860Y-104042380D01*
X140658640Y-104053631D01*
X140664782Y-104058290D01*
X140686933Y-104072065D01*
X140721145Y-104091755D01*
X140764106Y-104115473D01*
X140812505Y-104141331D01*
X140827636Y-104149290D01*
X140870646Y-104171923D01*
X140927720Y-104201968D01*
X140996685Y-104238280D01*
X141075372Y-104279716D01*
X141161609Y-104325133D01*
X141253224Y-104373388D01*
X141348048Y-104423337D01*
X141443908Y-104473837D01*
X141512431Y-104509833D01*
X141599579Y-104555299D01*
X141680525Y-104597178D01*
X141753692Y-104634672D01*
X141817501Y-104666983D01*
X141870373Y-104693312D01*
X141910729Y-104712863D01*
X141936992Y-104724837D01*
X141947581Y-104728436D01*
X141948275Y-104728024D01*
X141956603Y-104715357D01*
X141969407Y-104688334D01*
X141985073Y-104650596D01*
X142001984Y-104605788D01*
X142007622Y-104590022D01*
X142024272Y-104540808D01*
X142033918Y-104506362D01*
X142037169Y-104484186D01*
X142034634Y-104471783D01*
X142022509Y-104459944D01*
X141998023Y-104442287D01*
X141967061Y-104423330D01*
X141955333Y-104416837D01*
X141924004Y-104399856D01*
X141878541Y-104375451D01*
X141820871Y-104344643D01*
X141752921Y-104308450D01*
X141676618Y-104267894D01*
X141593888Y-104223995D01*
X141506659Y-104177773D01*
X141416858Y-104130248D01*
X141326411Y-104082441D01*
X141237245Y-104035370D01*
X141151288Y-103990058D01*
X141070466Y-103947523D01*
X140996707Y-103908787D01*
X140931936Y-103874868D01*
X140878082Y-103846788D01*
X140838261Y-103826079D01*
X140783112Y-103797985D01*
X140741830Y-103779165D01*
X140712137Y-103769967D01*
X140691754Y-103770739D01*
X140678404Y-103781832D01*
X140669807Y-103803593D01*
X140663686Y-103836372D01*
X140657763Y-103880517D01*
X140653810Y-103911265D01*
X140647993Y-103963080D01*
X140645552Y-104000164D01*
X140364991Y-104000164D01*
X140349433Y-103955789D01*
X140301182Y-103867927D01*
X140238076Y-103789304D01*
X140162469Y-103722751D01*
X140076714Y-103671101D01*
X140055266Y-103660953D01*
X140023422Y-103646880D01*
X139992647Y-103635196D01*
X139960881Y-103625680D01*
X139926064Y-103618111D01*
X139886135Y-103612268D01*
X139839033Y-103607931D01*
X139782696Y-103604878D01*
X139715065Y-103602887D01*
X139634079Y-103601740D01*
X139537677Y-103601213D01*
X139423798Y-103601086D01*
X139003534Y-103601086D01*
X138989452Y-103623067D01*
X138986024Y-103630636D01*
X138980169Y-103655869D01*
X138974781Y-103696821D01*
X138969710Y-103754767D01*
X138964804Y-103830978D01*
X138958715Y-103972895D01*
X138956904Y-104180970D01*
X138754282Y-104180970D01*
X138752704Y-104021485D01*
X138764862Y-103673106D01*
X138789180Y-103361679D01*
X139013837Y-103361679D01*
X139015551Y-103377642D01*
X139019367Y-103387538D01*
X139025240Y-103394051D01*
X139037044Y-103396678D01*
X139068351Y-103399246D01*
X139118739Y-103401556D01*
X139187971Y-103403603D01*
X139275811Y-103405379D01*
X139382025Y-103406877D01*
X139506375Y-103408091D01*
X139558308Y-103408512D01*
X139658244Y-103409388D01*
X139741400Y-103410276D01*
X139809667Y-103411264D01*
X139864933Y-103412441D01*
X139909092Y-103413896D01*
X139944032Y-103415717D01*
X139971645Y-103417994D01*
X139993822Y-103420814D01*
X140012454Y-103424267D01*
X140029430Y-103428441D01*
X140046643Y-103433425D01*
X140097769Y-103450923D01*
X140181888Y-103488017D01*
X140262027Y-103532964D01*
X140333013Y-103582734D01*
X140389673Y-103634298D01*
X140397103Y-103641907D01*
X140412084Y-103652192D01*
X140421274Y-103647595D01*
X140421947Y-103646415D01*
X140426928Y-103624919D01*
X140428649Y-103589326D01*
X140427240Y-103544318D01*
X140422834Y-103494575D01*
X140415563Y-103444779D01*
X140405656Y-103400409D01*
X140387689Y-103339552D01*
X140364757Y-103274581D01*
X140338510Y-103209331D01*
X140310603Y-103147638D01*
X140282690Y-103093338D01*
X140256422Y-103050266D01*
X140233455Y-103022259D01*
X140204391Y-102995394D01*
X139638155Y-102995394D01*
X139071919Y-102995394D01*
X139058191Y-103017375D01*
X139056064Y-103021985D01*
X139049623Y-103045867D01*
X139042438Y-103083769D01*
X139035199Y-103131756D01*
X139028597Y-103185894D01*
X139021734Y-103250553D01*
X139016885Y-103300818D01*
X139014267Y-103336966D01*
X139013837Y-103361679D01*
X138789180Y-103361679D01*
X138792592Y-103317987D01*
X138835905Y-102953611D01*
X138862603Y-102760405D01*
X138730132Y-102763111D01*
X138597661Y-102765817D01*
X138580937Y-102800009D01*
X138576860Y-102809565D01*
X138565461Y-102847056D01*
X138553257Y-102900735D01*
X138540581Y-102968206D01*
X138527764Y-103047073D01*
X138515138Y-103134944D01*
X138503036Y-103229421D01*
X138491789Y-103328111D01*
X138481729Y-103428619D01*
X138473189Y-103528550D01*
X138466500Y-103625509D01*
X138457120Y-103826451D01*
X138452749Y-104029938D01*
X138274378Y-104029938D01*
X138274371Y-104026944D01*
X138274795Y-103915288D01*
X138275931Y-103808953D01*
X138277790Y-103710778D01*
X138280382Y-103623605D01*
X138283721Y-103550273D01*
X138287816Y-103493625D01*
X138288090Y-103490728D01*
X138305740Y-103316514D01*
X138323863Y-103161563D01*
X138342499Y-103025607D01*
X138361687Y-102908378D01*
X138381468Y-102809610D01*
X138401881Y-102729035D01*
X138402970Y-102725263D01*
X138417893Y-102667601D01*
X138424857Y-102622414D01*
X138423744Y-102584568D01*
X138414434Y-102548930D01*
X138396809Y-102510367D01*
X138388501Y-102495285D01*
X138336329Y-102423468D01*
X138269870Y-102361682D01*
X138192771Y-102313444D01*
X138120035Y-102277356D01*
X137709194Y-102274347D01*
X137666846Y-102274069D01*
X137580058Y-102273703D01*
X137499441Y-102273631D01*
X137427223Y-102273838D01*
X137365631Y-102274311D01*
X137316893Y-102275035D01*
X137283237Y-102275995D01*
X137266891Y-102277178D01*
X137256232Y-102279691D01*
X137217283Y-102299250D01*
X137181611Y-102335052D01*
X137148682Y-102387913D01*
X137117958Y-102458648D01*
X137088905Y-102548073D01*
X137073410Y-102605396D01*
X137041709Y-102746807D01*
X137013885Y-102907089D01*
X136989963Y-103086043D01*
X136969967Y-103283474D01*
X136953922Y-103499182D01*
X136941852Y-103732971D01*
X136938365Y-103829494D01*
X136934528Y-104012646D01*
X136934227Y-104194255D01*
X136710405Y-104194255D01*
X136711181Y-104110626D01*
X136712427Y-104011705D01*
X136714002Y-103910922D01*
X136715868Y-103810760D01*
X136717987Y-103713698D01*
X136720319Y-103622218D01*
X136722828Y-103538801D01*
X136725475Y-103465928D01*
X136728221Y-103406081D01*
X136731028Y-103361740D01*
X136744873Y-103204064D01*
X136761621Y-103047439D01*
X136780364Y-102901773D01*
X136800835Y-102768780D01*
X136822771Y-102650173D01*
X136845906Y-102547665D01*
X136869975Y-102462971D01*
X136871216Y-102459177D01*
X136910287Y-102359027D01*
X136957089Y-102271025D01*
X137010330Y-102196977D01*
X137068721Y-102138687D01*
X137130969Y-102097960D01*
X137140295Y-102093411D01*
X137163840Y-102082547D01*
X137186690Y-102073567D01*
X137210867Y-102066292D01*
X137238395Y-102060542D01*
X137271298Y-102056136D01*
X137311598Y-102052897D01*
X137361320Y-102050643D01*
X137422486Y-102049196D01*
X137497120Y-102048375D01*
X137587246Y-102048001D01*
X137694886Y-102047895D01*
X137713518Y-102047891D01*
X137812996Y-102047949D01*
X137895346Y-102048200D01*
X137962628Y-102048725D01*
X138016904Y-102049601D01*
X138060234Y-102050909D01*
X138094681Y-102052727D01*
X138122305Y-102055133D01*
X138145167Y-102058208D01*
X138165330Y-102062030D01*
X138184854Y-102066678D01*
X138265100Y-102093064D01*
X138361887Y-102142328D01*
X138448776Y-102207118D01*
X138524079Y-102285880D01*
X138586105Y-102377059D01*
X138633167Y-102479101D01*
X138653305Y-102534308D01*
X138815983Y-102537940D01*
X138876267Y-102539553D01*
X138926692Y-102542024D01*
X138964213Y-102546013D01*
X138992297Y-102552323D01*
X139014412Y-102561758D01*
X139034024Y-102575120D01*
X139054602Y-102593212D01*
X139072865Y-102616737D01*
X139092015Y-102656994D01*
X139105467Y-102703234D01*
X139110545Y-102748052D01*
X139110545Y-102780471D01*
X139630757Y-102780664D01*
X139651827Y-102780680D01*
X139756208Y-102780973D01*
X139854977Y-102781604D01*
X139946144Y-102782539D01*
X140027720Y-102783744D01*
X140097716Y-102785186D01*
X140154142Y-102786831D01*
X140195008Y-102788645D01*
X140218326Y-102790594D01*
X140220137Y-102790860D01*
X140283046Y-102805502D01*
X140338625Y-102830642D01*
X140388825Y-102868056D01*
X140435597Y-102919523D01*
X140480890Y-102986822D01*
X140526655Y-103071731D01*
X140531739Y-103082103D01*
X140563925Y-103151826D01*
X140595455Y-103226390D01*
X140624173Y-103300287D01*
X140647921Y-103368007D01*
X140664545Y-103424043D01*
X140668502Y-103439766D01*
X140672853Y-103453780D01*
X140679156Y-103466143D01*
X140689311Y-103478236D01*
X140705214Y-103491437D01*
X140728765Y-103507127D01*
X140761859Y-103526685D01*
X140806397Y-103551490D01*
X140864275Y-103582923D01*
X140937391Y-103622361D01*
X140958312Y-103633649D01*
X141097259Y-103708652D01*
X141233656Y-103782332D01*
X141365672Y-103853697D01*
X141491474Y-103921754D01*
X141609230Y-103985513D01*
X141717109Y-104043981D01*
X141813279Y-104096166D01*
X141895907Y-104141076D01*
X141963161Y-104177721D01*
X142028010Y-104212621D01*
X142084470Y-104241707D01*
X142125105Y-104260883D01*
X142150332Y-104270345D01*
X142160565Y-104270286D01*
X142164496Y-104261305D01*
X142174773Y-104235714D01*
X142190396Y-104195878D01*
X142210530Y-104143958D01*
X142234335Y-104082116D01*
X142260974Y-104012511D01*
X142289610Y-103937305D01*
X142307703Y-103889703D01*
X142339007Y-103807472D01*
X142369690Y-103727026D01*
X142398491Y-103651663D01*
X142424149Y-103584678D01*
X142445404Y-103529370D01*
X142460995Y-103489035D01*
X142466005Y-103476038D01*
X142483359Y-103429245D01*
X142497404Y-103388635D01*
X142506807Y-103358187D01*
X142510238Y-103341882D01*
X142509522Y-103336782D01*
X142499042Y-103315384D01*
X142495584Y-103311264D01*
X142480035Y-103292741D01*
X142476045Y-103288503D01*
X142471415Y-103283586D01*
X142490699Y-103283586D01*
X142495584Y-103288471D01*
X142500468Y-103283586D01*
X142495584Y-103278702D01*
X142490699Y-103283586D01*
X142471415Y-103283586D01*
X142461031Y-103272558D01*
X142455377Y-103264048D01*
X142471161Y-103264048D01*
X142476045Y-103268932D01*
X142480930Y-103264048D01*
X142476045Y-103259163D01*
X142471161Y-103264048D01*
X142455377Y-103264048D01*
X142435010Y-103233392D01*
X142414959Y-103184048D01*
X142398691Y-103119877D01*
X142387726Y-103053959D01*
X142382685Y-102987767D01*
X142383834Y-102917903D01*
X142391388Y-102840728D01*
X142399703Y-102789034D01*
X142617699Y-102789034D01*
X142622610Y-102807695D01*
X142636125Y-102830370D01*
X142637404Y-102831947D01*
X142648325Y-102843848D01*
X142659465Y-102848234D01*
X142676962Y-102845649D01*
X142706952Y-102836635D01*
X142720668Y-102832685D01*
X142760491Y-102823095D01*
X142808561Y-102813216D01*
X142857321Y-102804655D01*
X142955288Y-102789164D01*
X143389744Y-102843742D01*
X143415712Y-102847006D01*
X143538486Y-102862488D01*
X143643587Y-102875862D01*
X143732458Y-102887346D01*
X143806542Y-102897155D01*
X143867281Y-102905505D01*
X143916117Y-102912614D01*
X143954494Y-102918698D01*
X143983853Y-102923974D01*
X144005636Y-102928656D01*
X144021288Y-102932963D01*
X144032249Y-102937111D01*
X144039963Y-102941316D01*
X144049936Y-102949469D01*
X144063561Y-102969147D01*
X144074570Y-102999245D01*
X144083952Y-103042802D01*
X144092700Y-103102856D01*
X144094055Y-103113492D01*
X144101985Y-103171570D01*
X144108500Y-103211065D01*
X144113746Y-103232753D01*
X144117867Y-103237406D01*
X144118705Y-103235859D01*
X144123008Y-103218870D01*
X144129236Y-103185713D01*
X144137037Y-103138888D01*
X144146057Y-103080894D01*
X144155945Y-103014232D01*
X144166347Y-102941399D01*
X144176911Y-102864897D01*
X144187285Y-102787223D01*
X144197115Y-102710879D01*
X144206049Y-102638363D01*
X144213735Y-102572175D01*
X144219819Y-102514814D01*
X144220932Y-102503009D01*
X144224719Y-102409128D01*
X144217450Y-102328794D01*
X144198402Y-102259241D01*
X144187713Y-102238393D01*
X144166849Y-102197700D01*
X144122067Y-102141401D01*
X144106461Y-102125172D01*
X144086820Y-102106385D01*
X144066797Y-102090415D01*
X144044489Y-102076750D01*
X144017995Y-102064879D01*
X143985413Y-102054291D01*
X143944840Y-102044475D01*
X143894375Y-102034917D01*
X143832114Y-102025108D01*
X143756157Y-102014536D01*
X143664602Y-102002689D01*
X143555545Y-101989055D01*
X143526582Y-101985479D01*
X143411444Y-101971660D01*
X143312661Y-101960498D01*
X143230825Y-101952051D01*
X143166528Y-101946378D01*
X143120361Y-101943536D01*
X143092917Y-101943584D01*
X143061080Y-101948210D01*
X142990714Y-101971223D01*
X142923170Y-102010013D01*
X142862970Y-102062247D01*
X142858902Y-102066579D01*
X142837956Y-102090348D01*
X142819422Y-102114897D01*
X142802533Y-102142254D01*
X142786522Y-102174443D01*
X142770623Y-102213490D01*
X142754066Y-102261422D01*
X142736086Y-102320266D01*
X142715915Y-102392045D01*
X142692785Y-102478788D01*
X142665929Y-102582520D01*
X142664006Y-102590029D01*
X142649343Y-102648290D01*
X142636628Y-102700544D01*
X142626614Y-102743568D01*
X142620053Y-102774139D01*
X142617699Y-102789034D01*
X142399703Y-102789034D01*
X142405563Y-102752606D01*
X142426574Y-102649900D01*
X142439905Y-102589034D01*
X142459582Y-102497290D01*
X142475051Y-102422175D01*
X142486593Y-102362196D01*
X142494489Y-102315863D01*
X142499021Y-102281684D01*
X142500468Y-102258169D01*
X142500463Y-102257474D01*
X142499154Y-102247794D01*
X142494601Y-102236562D01*
X142485455Y-102222271D01*
X142470371Y-102203416D01*
X142447998Y-102178489D01*
X142416991Y-102145986D01*
X142376000Y-102104399D01*
X142323679Y-102052222D01*
X142258680Y-101987949D01*
X142247483Y-101976913D01*
X142168595Y-101899934D01*
X142100867Y-101835430D01*
X142042448Y-101781733D01*
X141991488Y-101737175D01*
X141946137Y-101700090D01*
X141904545Y-101668810D01*
X141792199Y-101588209D01*
X141786761Y-101620167D01*
X141780965Y-101643429D01*
X141758973Y-101684223D01*
X141721887Y-101718644D01*
X141668303Y-101747822D01*
X141596815Y-101772888D01*
X141558682Y-101782234D01*
X141491697Y-101793914D01*
X141416448Y-101802943D01*
X141359010Y-101807261D01*
X141339549Y-101808724D01*
X141267614Y-101810657D01*
X141207259Y-101808145D01*
X141200719Y-101807530D01*
X141158235Y-101803598D01*
X141120034Y-101800158D01*
X141093699Y-101797895D01*
X141057997Y-101793914D01*
X141005465Y-101785664D01*
X140947381Y-101774619D01*
X140887887Y-101761739D01*
X140831129Y-101747983D01*
X140781250Y-101734312D01*
X140742395Y-101721685D01*
X140718709Y-101711061D01*
X140718162Y-101710721D01*
X140693601Y-101699621D01*
X140663853Y-101691033D01*
X140660705Y-101690368D01*
X140635520Y-101683485D01*
X140619891Y-101676615D01*
X140610105Y-101671013D01*
X140588713Y-101662613D01*
X140585150Y-101661417D01*
X140558043Y-101649497D01*
X140519090Y-101629534D01*
X140472090Y-101603708D01*
X140420845Y-101574199D01*
X140369155Y-101543185D01*
X140320821Y-101512848D01*
X140279644Y-101485365D01*
X140163789Y-101397265D01*
X140030751Y-101274497D01*
X139912442Y-101138991D01*
X139809235Y-100991182D01*
X139721502Y-100831509D01*
X139720063Y-100828522D01*
X139655691Y-100681719D01*
X139606226Y-100538247D01*
X139569758Y-100391677D01*
X139544377Y-100235586D01*
X139543568Y-100228948D01*
X139537202Y-100158157D01*
X139533171Y-100076909D01*
X139531515Y-99991170D01*
X139531783Y-99961462D01*
X139665145Y-99961462D01*
X139669241Y-100115401D01*
X139683460Y-100262113D01*
X139707671Y-100396779D01*
X139716871Y-100434489D01*
X139747995Y-100540872D01*
X139786528Y-100649265D01*
X139830605Y-100755377D01*
X139878358Y-100854919D01*
X139927923Y-100943598D01*
X139977433Y-101017125D01*
X140056133Y-101112899D01*
X140176652Y-101235413D01*
X140309754Y-101346556D01*
X140452688Y-101444305D01*
X140602703Y-101526631D01*
X140757050Y-101591509D01*
X140765006Y-101594312D01*
X140876110Y-101627327D01*
X140995233Y-101652575D01*
X141118204Y-101669748D01*
X141240854Y-101678536D01*
X141359010Y-101678629D01*
X141468503Y-101669718D01*
X141565163Y-101651493D01*
X141603504Y-101640502D01*
X141631705Y-101628749D01*
X141646352Y-101616052D01*
X141650545Y-101600562D01*
X141648333Y-101591109D01*
X141636988Y-101569635D01*
X141620237Y-101546430D01*
X141602891Y-101527847D01*
X141589757Y-101520240D01*
X141576264Y-101523472D01*
X141550178Y-101532306D01*
X141517473Y-101544778D01*
X141478230Y-101558641D01*
X141468456Y-101561526D01*
X141428225Y-101573399D01*
X141380861Y-101584884D01*
X141370444Y-101587014D01*
X141333006Y-101593646D01*
X141304704Y-101595531D01*
X141277515Y-101592681D01*
X141243417Y-101585111D01*
X141210519Y-101575737D01*
X141179288Y-101563148D01*
X141149440Y-101545927D01*
X141118838Y-101522205D01*
X141085349Y-101490114D01*
X141046837Y-101447783D01*
X141001166Y-101393343D01*
X140946201Y-101324926D01*
X140943773Y-101321866D01*
X140898295Y-101264740D01*
X140862867Y-101220952D01*
X140835580Y-101188551D01*
X140814522Y-101165589D01*
X140797784Y-101150113D01*
X140783456Y-101140176D01*
X140769628Y-101133827D01*
X140754389Y-101129115D01*
X140752474Y-101128580D01*
X140719133Y-101117541D01*
X140677392Y-101101544D01*
X140637346Y-101084509D01*
X140635818Y-101083859D01*
X140632292Y-101082257D01*
X140526189Y-101023207D01*
X140431163Y-100948585D01*
X140347715Y-100859232D01*
X140276345Y-100755989D01*
X140217554Y-100639697D01*
X140181280Y-100537726D01*
X140313224Y-100537726D01*
X140317879Y-100553905D01*
X140331587Y-100585377D01*
X140354622Y-100633005D01*
X140359735Y-100643189D01*
X140411239Y-100733002D01*
X140466832Y-100806747D01*
X140528811Y-100867516D01*
X140550053Y-100885078D01*
X140588246Y-100915123D01*
X140618028Y-100936395D01*
X140637346Y-100947480D01*
X140644145Y-100946963D01*
X140639740Y-100939902D01*
X140624885Y-100919649D01*
X140601429Y-100888800D01*
X140571327Y-100849837D01*
X140536538Y-100805239D01*
X140499016Y-100757487D01*
X140460719Y-100709063D01*
X140423603Y-100662446D01*
X140389624Y-100620117D01*
X140360739Y-100584557D01*
X140338904Y-100558246D01*
X140326075Y-100543666D01*
X140317346Y-100535979D01*
X140313224Y-100537726D01*
X140181280Y-100537726D01*
X140171843Y-100511196D01*
X140139714Y-100371328D01*
X140121668Y-100220932D01*
X140120346Y-100204962D01*
X140113399Y-100147551D01*
X140103390Y-100085752D01*
X140092013Y-100030432D01*
X140091400Y-100027848D01*
X140083685Y-99993615D01*
X140313842Y-99993615D01*
X140319548Y-100016191D01*
X140331883Y-100052604D01*
X140345778Y-100089965D01*
X140362051Y-100128673D01*
X140380525Y-100166410D01*
X140402536Y-100205133D01*
X140429421Y-100246799D01*
X140462516Y-100293363D01*
X140503158Y-100346783D01*
X140552683Y-100409014D01*
X140612427Y-100482015D01*
X140683726Y-100567740D01*
X140732231Y-100625873D01*
X140790275Y-100695668D01*
X140848498Y-100765891D01*
X140903715Y-100832694D01*
X140952739Y-100892229D01*
X140992387Y-100940646D01*
X141027513Y-100983478D01*
X141072074Y-101036395D01*
X141109336Y-101077918D01*
X141142047Y-101110519D01*
X141172958Y-101136666D01*
X141204819Y-101158830D01*
X141240379Y-101179480D01*
X141282389Y-101201086D01*
X141343633Y-101229174D01*
X141410573Y-101252575D01*
X141468456Y-101263194D01*
X141519857Y-101261687D01*
X141529033Y-101260302D01*
X141549246Y-101256871D01*
X141567698Y-101252428D01*
X141586050Y-101245804D01*
X141605964Y-101235830D01*
X141629100Y-101221338D01*
X141657119Y-101201159D01*
X141691682Y-101174125D01*
X141695091Y-101171330D01*
X142012322Y-101171330D01*
X142013723Y-101177838D01*
X142020949Y-101201047D01*
X142033233Y-101237066D01*
X142049341Y-101282563D01*
X142068043Y-101334204D01*
X142088106Y-101388656D01*
X142108298Y-101442585D01*
X142127388Y-101492659D01*
X142144143Y-101535543D01*
X142157332Y-101567905D01*
X142165722Y-101586411D01*
X142167472Y-101589269D01*
X142181826Y-101607404D01*
X142206756Y-101635455D01*
X142240080Y-101671231D01*
X142279614Y-101712541D01*
X142323174Y-101757195D01*
X142368578Y-101803003D01*
X142413641Y-101847773D01*
X142456180Y-101889315D01*
X142494012Y-101925439D01*
X142524954Y-101953954D01*
X142546821Y-101972669D01*
X142557431Y-101979394D01*
X142563148Y-101976832D01*
X142581173Y-101963037D01*
X142606922Y-101939978D01*
X142636862Y-101910712D01*
X142670193Y-101878416D01*
X142706207Y-101849131D01*
X142745594Y-101824619D01*
X142795983Y-101799552D01*
X142828348Y-101783794D01*
X142879753Y-101753697D01*
X142914390Y-101724334D01*
X142933940Y-101694094D01*
X142940084Y-101661366D01*
X142939682Y-101654139D01*
X142936216Y-101640428D01*
X142927787Y-101624004D01*
X142912705Y-101602571D01*
X142889280Y-101573827D01*
X142855822Y-101535473D01*
X142810641Y-101485211D01*
X142810638Y-101485207D01*
X142768235Y-101437902D01*
X142728257Y-101392414D01*
X142693405Y-101351885D01*
X142666380Y-101319454D01*
X142649881Y-101298262D01*
X142625148Y-101256289D01*
X142612108Y-101212469D01*
X142612415Y-101165409D01*
X142614550Y-101157004D01*
X142881628Y-101157004D01*
X142885251Y-101191821D01*
X142898565Y-101224644D01*
X142907940Y-101238888D01*
X142932013Y-101269831D01*
X142968564Y-101313471D01*
X143016933Y-101369054D01*
X143076463Y-101435826D01*
X143146493Y-101513033D01*
X143226366Y-101599921D01*
X143255271Y-101630949D01*
X143289711Y-101666672D01*
X143315638Y-101691243D01*
X143335620Y-101706834D01*
X143352225Y-101715618D01*
X143368019Y-101719766D01*
X143371598Y-101720282D01*
X143395474Y-101723199D01*
X143435206Y-101727667D01*
X143488021Y-101733388D01*
X143551142Y-101740065D01*
X143621793Y-101747400D01*
X143697199Y-101755095D01*
X143774016Y-101762998D01*
X143858941Y-101772324D01*
X143928280Y-101781000D01*
X143984236Y-101789566D01*
X144029011Y-101798559D01*
X144064807Y-101808518D01*
X144093828Y-101819981D01*
X144118276Y-101833488D01*
X144140354Y-101849576D01*
X144162264Y-101868783D01*
X144187713Y-101892413D01*
X144199813Y-101817405D01*
X144202539Y-101798933D01*
X144206142Y-101741130D01*
X144198933Y-101694917D01*
X144179753Y-101655921D01*
X144147444Y-101619769D01*
X144129932Y-101606469D01*
X144093299Y-101583372D01*
X144040131Y-101552730D01*
X143971076Y-101514907D01*
X143886786Y-101470264D01*
X143787908Y-101419163D01*
X143752740Y-101401181D01*
X143673904Y-101360802D01*
X143609019Y-101327059D01*
X143555671Y-101298213D01*
X143511442Y-101272527D01*
X143473918Y-101248260D01*
X143440682Y-101223675D01*
X143409318Y-101197033D01*
X143377410Y-101166595D01*
X143342542Y-101130622D01*
X143302298Y-101087375D01*
X143254263Y-101035117D01*
X143221449Y-100999178D01*
X143183813Y-100956794D01*
X143157518Y-100925180D01*
X143141136Y-100902476D01*
X143133240Y-100886825D01*
X143132404Y-100876367D01*
X143132423Y-100876294D01*
X143135138Y-100863923D01*
X143133009Y-100858207D01*
X143122834Y-100859569D01*
X143101405Y-100868436D01*
X143065519Y-100885232D01*
X143064832Y-100885557D01*
X143032194Y-100900167D01*
X143005715Y-100910572D01*
X142991071Y-100914540D01*
X142983400Y-100921103D01*
X142968936Y-100942147D01*
X142950412Y-100974235D01*
X142930013Y-101013816D01*
X142905554Y-101067317D01*
X142888221Y-101116675D01*
X142881628Y-101157004D01*
X142614550Y-101157004D01*
X142626116Y-101111478D01*
X142653262Y-101047046D01*
X142662380Y-101027437D01*
X142672414Y-101004092D01*
X142676315Y-100992337D01*
X142670218Y-100989847D01*
X142648180Y-100986454D01*
X142613840Y-100983124D01*
X142571179Y-100980313D01*
X142546361Y-100978611D01*
X142488690Y-100972431D01*
X142431894Y-100963840D01*
X142385303Y-100954152D01*
X142304563Y-100933537D01*
X142188248Y-101012372D01*
X142176905Y-101020124D01*
X142132591Y-101051587D01*
X142092665Y-101081668D01*
X142061125Y-101107279D01*
X142041970Y-101125333D01*
X142033239Y-101135811D01*
X142018149Y-101157365D01*
X142012322Y-101171330D01*
X141695091Y-101171330D01*
X141734450Y-101139065D01*
X141787083Y-101094812D01*
X141851242Y-101040197D01*
X141928589Y-100974051D01*
X141961504Y-100946247D01*
X142000697Y-100914157D01*
X142033275Y-100888636D01*
X142056541Y-100871785D01*
X142067801Y-100865702D01*
X142079316Y-100862230D01*
X142078633Y-100851180D01*
X142064542Y-100835359D01*
X142038797Y-100817674D01*
X142037649Y-100817018D01*
X141967930Y-100770601D01*
X141894915Y-100710501D01*
X141822948Y-100640915D01*
X141756373Y-100566036D01*
X141699535Y-100490062D01*
X141680760Y-100462872D01*
X141660487Y-100436640D01*
X141647804Y-100425496D01*
X141641594Y-100428251D01*
X141635670Y-100437934D01*
X141617749Y-100460704D01*
X141590752Y-100492286D01*
X141557335Y-100529818D01*
X141520160Y-100570435D01*
X141481885Y-100611276D01*
X141445169Y-100649477D01*
X141412672Y-100682175D01*
X141387052Y-100706508D01*
X141370969Y-100719612D01*
X141350606Y-100730265D01*
X141318870Y-100737029D01*
X141284718Y-100730834D01*
X141244928Y-100710883D01*
X141196276Y-100676378D01*
X141193890Y-100674510D01*
X141168544Y-100653882D01*
X141131103Y-100622520D01*
X141083811Y-100582365D01*
X141028909Y-100535359D01*
X140968641Y-100483442D01*
X140905247Y-100428555D01*
X140840971Y-100372638D01*
X140778055Y-100317634D01*
X140718742Y-100265482D01*
X140665273Y-100218123D01*
X140619891Y-100177498D01*
X140579320Y-100141383D01*
X140533362Y-100101548D01*
X140491613Y-100066448D01*
X140457457Y-100038920D01*
X140434276Y-100021802D01*
X140429381Y-100018602D01*
X140391878Y-99996604D01*
X140358051Y-99980758D01*
X140332013Y-99972744D01*
X140317876Y-99974243D01*
X140314004Y-99980622D01*
X140313842Y-99993615D01*
X140083685Y-99993615D01*
X140076102Y-99959971D01*
X140066361Y-99907295D01*
X140062008Y-99866457D01*
X140062877Y-99834091D01*
X140068799Y-99806833D01*
X140079607Y-99781317D01*
X140083597Y-99773848D01*
X140108727Y-99740610D01*
X140143068Y-99718325D01*
X140174926Y-99698324D01*
X140190225Y-99674364D01*
X140194611Y-99659162D01*
X140202735Y-99637061D01*
X140215363Y-99607496D01*
X140233927Y-99567138D01*
X140259859Y-99512663D01*
X140291955Y-99448578D01*
X140330661Y-99380554D01*
X140371513Y-99320696D01*
X140418634Y-99263076D01*
X140476144Y-99201773D01*
X140528360Y-99152525D01*
X140611306Y-99089016D01*
X140694960Y-99042077D01*
X140778025Y-99012127D01*
X140859208Y-98999587D01*
X140937214Y-99004875D01*
X141010749Y-99028413D01*
X141016518Y-99031147D01*
X141062874Y-99057372D01*
X141106311Y-99088615D01*
X141141735Y-99120836D01*
X141164052Y-99149994D01*
X141170094Y-99162263D01*
X141167365Y-99164513D01*
X141151328Y-99154760D01*
X141110178Y-99136118D01*
X141054993Y-99123094D01*
X140991639Y-99116337D01*
X140925421Y-99116127D01*
X140861640Y-99122746D01*
X140805601Y-99136474D01*
X140732603Y-99167475D01*
X140641254Y-99224370D01*
X140556815Y-99298479D01*
X140480121Y-99388916D01*
X140412009Y-99494798D01*
X140353314Y-99615240D01*
X140336743Y-99654764D01*
X140323501Y-99687746D01*
X140316349Y-99709012D01*
X140314435Y-99721956D01*
X140316909Y-99729968D01*
X140322921Y-99736442D01*
X140322939Y-99736458D01*
X140336369Y-99746225D01*
X140362753Y-99763562D01*
X140398285Y-99786025D01*
X140439161Y-99811166D01*
X140439582Y-99811422D01*
X140549746Y-99879471D01*
X140643499Y-99939872D01*
X140720644Y-99992480D01*
X140780985Y-100037151D01*
X140824329Y-100073740D01*
X140850478Y-100102102D01*
X140859238Y-100122093D01*
X140859530Y-100123732D01*
X140867794Y-100138889D01*
X140884733Y-100162982D01*
X140906705Y-100191423D01*
X140930066Y-100219628D01*
X140951174Y-100243009D01*
X140966385Y-100256981D01*
X140970986Y-100259892D01*
X140993209Y-100268478D01*
X141026959Y-100274438D01*
X141076226Y-100278557D01*
X141082979Y-100280537D01*
X141104961Y-100291507D01*
X141135947Y-100309854D01*
X141171513Y-100333047D01*
X141211318Y-100359765D01*
X141257130Y-100388421D01*
X141292760Y-100406604D01*
X141321359Y-100415124D01*
X141346076Y-100414788D01*
X141370062Y-100406406D01*
X141396467Y-100390786D01*
X141406268Y-100383996D01*
X141419862Y-100372436D01*
X141431799Y-100357829D01*
X141443287Y-100337563D01*
X141455534Y-100309026D01*
X141469750Y-100269605D01*
X141487142Y-100216689D01*
X141508918Y-100147663D01*
X141513229Y-100134035D01*
X141532679Y-100077782D01*
X141549976Y-100038450D01*
X141566328Y-100014141D01*
X141582944Y-100002958D01*
X141601031Y-100003004D01*
X141611834Y-100006869D01*
X141628128Y-100019072D01*
X141642664Y-100040907D01*
X141657321Y-100075546D01*
X141673978Y-100126162D01*
X141706387Y-100219189D01*
X141767135Y-100349747D01*
X141841133Y-100466432D01*
X141927825Y-100568774D01*
X142026655Y-100656306D01*
X142137065Y-100728559D01*
X142258501Y-100785066D01*
X142390406Y-100825356D01*
X142532224Y-100848963D01*
X142594715Y-100853348D01*
X142728006Y-100848773D01*
X142857760Y-100825292D01*
X142982692Y-100783290D01*
X143101516Y-100723152D01*
X143212947Y-100645262D01*
X143289683Y-100576281D01*
X143380052Y-100472436D01*
X143456162Y-100356065D01*
X143517242Y-100228388D01*
X143562524Y-100090626D01*
X143565357Y-100079637D01*
X143575348Y-100037099D01*
X143581996Y-99998768D01*
X143585933Y-99958713D01*
X143587791Y-99911002D01*
X143588202Y-99849702D01*
X143587903Y-99818203D01*
X143581940Y-99710330D01*
X143567363Y-99614352D01*
X143542882Y-99525254D01*
X143507205Y-99438023D01*
X143459044Y-99347645D01*
X143435113Y-99310662D01*
X143389374Y-99250808D01*
X143334814Y-99188256D01*
X143275892Y-99127761D01*
X143217074Y-99074080D01*
X143162820Y-99031967D01*
X143123893Y-99005707D01*
X143077984Y-98977085D01*
X143045637Y-98960850D01*
X143026006Y-98956906D01*
X143018241Y-98965162D01*
X143021495Y-98985523D01*
X143034919Y-99017897D01*
X143049083Y-99052769D01*
X143063894Y-99118374D01*
X143063718Y-99181523D01*
X143048271Y-99237533D01*
X143047354Y-99239527D01*
X143014064Y-99294583D01*
X142968892Y-99340045D01*
X142910101Y-99377015D01*
X142835949Y-99406594D01*
X142744699Y-99429884D01*
X142703997Y-99438750D01*
X142629535Y-99459255D01*
X142569551Y-99483390D01*
X142520606Y-99513045D01*
X142479266Y-99550115D01*
X142442091Y-99596491D01*
X142433514Y-99608432D01*
X142400335Y-99647400D01*
X142367970Y-99670820D01*
X142335289Y-99680154D01*
X142332041Y-99681082D01*
X142288170Y-99680580D01*
X142251583Y-99671637D01*
X142229937Y-99666346D01*
X142170353Y-99633763D01*
X142115402Y-99584882D01*
X142066313Y-99521318D01*
X142024318Y-99444683D01*
X141990647Y-99356594D01*
X141966530Y-99258663D01*
X141960803Y-99220416D01*
X141954911Y-99150390D01*
X141952818Y-99074041D01*
X141953190Y-99057002D01*
X142068789Y-99057002D01*
X142072387Y-99173670D01*
X142088264Y-99278593D01*
X142116178Y-99370724D01*
X142155886Y-99449016D01*
X142207144Y-99512422D01*
X142213086Y-99518125D01*
X142237377Y-99538135D01*
X142251583Y-99542499D01*
X142255906Y-99530830D01*
X142250551Y-99502738D01*
X142235720Y-99457837D01*
X142233052Y-99450450D01*
X142207909Y-99368976D01*
X142198006Y-99319002D01*
X142310234Y-99319002D01*
X142310971Y-99361945D01*
X142313652Y-99406619D01*
X142317851Y-99448770D01*
X142323141Y-99484144D01*
X142329096Y-99508488D01*
X142335289Y-99517548D01*
X142340186Y-99515525D01*
X142356072Y-99502581D01*
X142376209Y-99481626D01*
X142378931Y-99478623D01*
X142404633Y-99454653D01*
X142439361Y-99426895D01*
X142476406Y-99400765D01*
X142504631Y-99383200D01*
X142538130Y-99365378D01*
X142574752Y-99349891D01*
X142618518Y-99335261D01*
X142673451Y-99320012D01*
X142743571Y-99302667D01*
X142752487Y-99300467D01*
X142796356Y-99287901D01*
X142836542Y-99273902D01*
X142865309Y-99261112D01*
X142891135Y-99243406D01*
X142920927Y-99213491D01*
X142941883Y-99181235D01*
X142949693Y-99152199D01*
X142947270Y-99140004D01*
X142938261Y-99112166D01*
X142924161Y-99074800D01*
X142906632Y-99032529D01*
X142894354Y-99003004D01*
X142875940Y-98954471D01*
X142860964Y-98909922D01*
X142851831Y-98876221D01*
X142841661Y-98795526D01*
X142843960Y-98693694D01*
X142860850Y-98585243D01*
X142891861Y-98473026D01*
X142936526Y-98359894D01*
X142941171Y-98349702D01*
X142964651Y-98298018D01*
X142981108Y-98260853D01*
X142991443Y-98235402D01*
X142996557Y-98218857D01*
X142997350Y-98208413D01*
X142994725Y-98201263D01*
X142989580Y-98194600D01*
X142981409Y-98187327D01*
X142953435Y-98179690D01*
X142915370Y-98185126D01*
X142869278Y-98202575D01*
X142817221Y-98230974D01*
X142761263Y-98269265D01*
X142703469Y-98316386D01*
X142645900Y-98371275D01*
X142588412Y-98435571D01*
X142510773Y-98541737D01*
X142446475Y-98654896D01*
X142398524Y-98770202D01*
X142389740Y-98797322D01*
X142364490Y-98888749D01*
X142343282Y-98985783D01*
X142327662Y-99080720D01*
X142319174Y-99165856D01*
X142317964Y-99186874D01*
X142315447Y-99228697D01*
X142313261Y-99262719D01*
X142311775Y-99283086D01*
X142310234Y-99319002D01*
X142198006Y-99319002D01*
X142191954Y-99288462D01*
X142184235Y-99202429D01*
X142183800Y-99104393D01*
X142183976Y-99098152D01*
X142185705Y-99051056D01*
X142187836Y-99011543D01*
X142190114Y-98983597D01*
X142192285Y-98971203D01*
X142192539Y-98970731D01*
X142196499Y-98956116D01*
X142201792Y-98928219D01*
X142207347Y-98892634D01*
X142212491Y-98861876D01*
X142230434Y-98792899D01*
X142258277Y-98723339D01*
X142297752Y-98649257D01*
X142350592Y-98566711D01*
X142363397Y-98547666D01*
X142383635Y-98516233D01*
X142397581Y-98492745D01*
X142402776Y-98481231D01*
X142398604Y-98475555D01*
X142380705Y-98472243D01*
X142353847Y-98474157D01*
X142323684Y-98480756D01*
X142295870Y-98491495D01*
X142286394Y-98496900D01*
X142254956Y-98520387D01*
X142227583Y-98547668D01*
X142219864Y-98557659D01*
X142195305Y-98595583D01*
X142170061Y-98641511D01*
X142148219Y-98687657D01*
X142133862Y-98726240D01*
X142127641Y-98743993D01*
X142119146Y-98760432D01*
X142117077Y-98763714D01*
X142108623Y-98785698D01*
X142099048Y-98820210D01*
X142089583Y-98861963D01*
X142081460Y-98905671D01*
X142075910Y-98946048D01*
X142068789Y-99057002D01*
X141953190Y-99057002D01*
X141954485Y-98997748D01*
X141959872Y-98927892D01*
X141968939Y-98870852D01*
X141976692Y-98836307D01*
X141984921Y-98795593D01*
X141988172Y-98764536D01*
X141985732Y-98737691D01*
X141976887Y-98709613D01*
X141960924Y-98674854D01*
X141937129Y-98627971D01*
X141914857Y-98585629D01*
X141885161Y-98532015D01*
X141856089Y-98482143D01*
X141831589Y-98442932D01*
X141830674Y-98441558D01*
X141803685Y-98405230D01*
X141767415Y-98361999D01*
X141724954Y-98315011D01*
X141679396Y-98267415D01*
X141633832Y-98222359D01*
X141591354Y-98182989D01*
X141555054Y-98152454D01*
X141528025Y-98133902D01*
X141508425Y-98123220D01*
X141472039Y-98103071D01*
X141435622Y-98082619D01*
X141427849Y-98078397D01*
X141382441Y-98057773D01*
X141324883Y-98036234D01*
X141261010Y-98015690D01*
X141196657Y-97998047D01*
X141137661Y-97985213D01*
X141130714Y-97983987D01*
X140996606Y-97970178D01*
X140865643Y-97975466D01*
X140738315Y-97999600D01*
X140615115Y-98042330D01*
X140496533Y-98103405D01*
X140383060Y-98182574D01*
X140275189Y-98279586D01*
X140173409Y-98394190D01*
X140078213Y-98526135D01*
X140046029Y-98578321D01*
X139994779Y-98672057D01*
X139944351Y-98776112D01*
X139897194Y-98885032D01*
X139855757Y-98993361D01*
X139822489Y-99095646D01*
X139807183Y-99150013D01*
X139789350Y-99216649D01*
X139770610Y-99289388D01*
X139751826Y-99364663D01*
X139733859Y-99438911D01*
X139717571Y-99508565D01*
X139703825Y-99570061D01*
X139693482Y-99619833D01*
X139687404Y-99654317D01*
X139671305Y-99805118D01*
X139665145Y-99961462D01*
X139531783Y-99961462D01*
X139532275Y-99906905D01*
X139535491Y-99830081D01*
X139541203Y-99766663D01*
X139544409Y-99741519D01*
X139551797Y-99683848D01*
X139557460Y-99640588D01*
X139561940Y-99608087D01*
X139565776Y-99582694D01*
X139569511Y-99560760D01*
X139573685Y-99538633D01*
X139578838Y-99512663D01*
X139581180Y-99500819D01*
X139589627Y-99456592D01*
X139597227Y-99414971D01*
X139597894Y-99411325D01*
X139604731Y-99379109D01*
X139615304Y-99334036D01*
X139628439Y-99280661D01*
X139642966Y-99223536D01*
X139657711Y-99167217D01*
X139671503Y-99116256D01*
X139683168Y-99075207D01*
X139691536Y-99048625D01*
X139692828Y-99044961D01*
X139704541Y-99010519D01*
X139715962Y-98975356D01*
X139737411Y-98914885D01*
X139775489Y-98828817D01*
X139780370Y-98818373D01*
X139790428Y-98793629D01*
X139794419Y-98778440D01*
X139795143Y-98775158D01*
X139802663Y-98756568D01*
X139816772Y-98726212D01*
X139835505Y-98687943D01*
X139856899Y-98645615D01*
X139878990Y-98603080D01*
X139899814Y-98564192D01*
X139917409Y-98532802D01*
X139929811Y-98512765D01*
X139929998Y-98512498D01*
X139943797Y-98491500D01*
X139951749Y-98477115D01*
X139955575Y-98470366D01*
X139968895Y-98449798D01*
X139989146Y-98419830D01*
X140013758Y-98384308D01*
X140037550Y-98352454D01*
X140083131Y-98297780D01*
X140136853Y-98238709D01*
X140194760Y-98179260D01*
X140252895Y-98123449D01*
X140307300Y-98075294D01*
X140354021Y-98038813D01*
X140447707Y-97979446D01*
X140577555Y-97916967D01*
X140713496Y-97872776D01*
X140854485Y-97847119D01*
X140999478Y-97840242D01*
X141147430Y-97852389D01*
G37*
%TD*%
M02*
