%TF.GenerationSoftware,KiCad,Pcbnew,9.0.4-9.0.4-0~ubuntu24.04.1*%
%TF.CreationDate,2025-09-15T00:30:56+02:00*%
%TF.ProjectId,kinect,6b696e65-6374-42e6-9b69-6361645f7063,rev?*%
%TF.SameCoordinates,Original*%
%TF.FileFunction,Legend,Bot*%
%TF.FilePolarity,Positive*%
%FSLAX46Y46*%
G04 Gerber Fmt 4.6, Leading zero omitted, Abs format (unit mm)*
G04 Created by KiCad (PCBNEW 9.0.4-9.0.4-0~ubuntu24.04.1) date 2025-09-15 00:30:56*
%MOMM*%
%LPD*%
G01*
G04 APERTURE LIST*
G04 Aperture macros list*
%AMRoundRect*
0 Rectangle with rounded corners*
0 $1 Rounding radius*
0 $2 $3 $4 $5 $6 $7 $8 $9 X,Y pos of 4 corners*
0 Add a 4 corners polygon primitive as box body*
4,1,4,$2,$3,$4,$5,$6,$7,$8,$9,$2,$3,0*
0 Add four circle primitives for the rounded corners*
1,1,$1+$1,$2,$3*
1,1,$1+$1,$4,$5*
1,1,$1+$1,$6,$7*
1,1,$1+$1,$8,$9*
0 Add four rect primitives between the rounded corners*
20,1,$1+$1,$2,$3,$4,$5,0*
20,1,$1+$1,$4,$5,$6,$7,0*
20,1,$1+$1,$6,$7,$8,$9,0*
20,1,$1+$1,$8,$9,$2,$3,0*%
G04 Aperture macros list end*
%ADD10C,0.160000*%
%ADD11C,0.300000*%
%ADD12C,0.150000*%
%ADD13C,0.120000*%
%ADD14C,5.600000*%
%ADD15R,1.000000X1.000000*%
%ADD16O,1.000000X1.000000*%
%ADD17RoundRect,0.150000X0.150000X-0.512500X0.150000X0.512500X-0.150000X0.512500X-0.150000X-0.512500X0*%
%ADD18RoundRect,0.237500X-0.237500X0.300000X-0.237500X-0.300000X0.237500X-0.300000X0.237500X0.300000X0*%
%ADD19C,3.400000*%
%ADD20RoundRect,0.150000X-0.200000X0.150000X-0.200000X-0.150000X0.200000X-0.150000X0.200000X0.150000X0*%
%ADD21RoundRect,0.150000X-0.512500X-0.150000X0.512500X-0.150000X0.512500X0.150000X-0.512500X0.150000X0*%
%ADD22RoundRect,0.237500X0.237500X-0.250000X0.237500X0.250000X-0.237500X0.250000X-0.237500X-0.250000X0*%
%ADD23RoundRect,0.250001X0.849999X-0.462499X0.849999X0.462499X-0.849999X0.462499X-0.849999X-0.462499X0*%
%ADD24RoundRect,0.237500X0.237500X-0.300000X0.237500X0.300000X-0.237500X0.300000X-0.237500X-0.300000X0*%
%ADD25RoundRect,0.250001X-0.849999X0.462499X-0.849999X-0.462499X0.849999X-0.462499X0.849999X0.462499X0*%
%ADD26RoundRect,0.237500X-0.237500X0.250000X-0.237500X-0.250000X0.237500X-0.250000X0.237500X0.250000X0*%
%ADD27RoundRect,0.150000X0.200000X-0.150000X0.200000X0.150000X-0.200000X0.150000X-0.200000X-0.150000X0*%
%ADD28C,0.650000*%
%ADD29R,1.240000X0.600000*%
%ADD30R,1.240000X0.300000*%
%ADD31O,1.800000X1.000000*%
%ADD32O,2.100000X1.000000*%
G04 APERTURE END LIST*
D10*
X61404260Y-57169299D02*
X61404260Y-57978822D01*
X61404260Y-57978822D02*
X61366165Y-58074060D01*
X61366165Y-58074060D02*
X61328070Y-58121680D01*
X61328070Y-58121680D02*
X61251879Y-58169299D01*
X61251879Y-58169299D02*
X61099498Y-58169299D01*
X61099498Y-58169299D02*
X61023308Y-58121680D01*
X61023308Y-58121680D02*
X60985213Y-58074060D01*
X60985213Y-58074060D02*
X60947117Y-57978822D01*
X60947117Y-57978822D02*
X60947117Y-57169299D01*
X60604261Y-58121680D02*
X60489975Y-58169299D01*
X60489975Y-58169299D02*
X60299499Y-58169299D01*
X60299499Y-58169299D02*
X60223308Y-58121680D01*
X60223308Y-58121680D02*
X60185213Y-58074060D01*
X60185213Y-58074060D02*
X60147118Y-57978822D01*
X60147118Y-57978822D02*
X60147118Y-57883584D01*
X60147118Y-57883584D02*
X60185213Y-57788346D01*
X60185213Y-57788346D02*
X60223308Y-57740727D01*
X60223308Y-57740727D02*
X60299499Y-57693108D01*
X60299499Y-57693108D02*
X60451880Y-57645489D01*
X60451880Y-57645489D02*
X60528070Y-57597870D01*
X60528070Y-57597870D02*
X60566165Y-57550251D01*
X60566165Y-57550251D02*
X60604261Y-57455013D01*
X60604261Y-57455013D02*
X60604261Y-57359775D01*
X60604261Y-57359775D02*
X60566165Y-57264537D01*
X60566165Y-57264537D02*
X60528070Y-57216918D01*
X60528070Y-57216918D02*
X60451880Y-57169299D01*
X60451880Y-57169299D02*
X60261403Y-57169299D01*
X60261403Y-57169299D02*
X60147118Y-57216918D01*
X59537594Y-57645489D02*
X59423308Y-57693108D01*
X59423308Y-57693108D02*
X59385213Y-57740727D01*
X59385213Y-57740727D02*
X59347117Y-57835965D01*
X59347117Y-57835965D02*
X59347117Y-57978822D01*
X59347117Y-57978822D02*
X59385213Y-58074060D01*
X59385213Y-58074060D02*
X59423308Y-58121680D01*
X59423308Y-58121680D02*
X59499498Y-58169299D01*
X59499498Y-58169299D02*
X59804260Y-58169299D01*
X59804260Y-58169299D02*
X59804260Y-57169299D01*
X59804260Y-57169299D02*
X59537594Y-57169299D01*
X59537594Y-57169299D02*
X59461403Y-57216918D01*
X59461403Y-57216918D02*
X59423308Y-57264537D01*
X59423308Y-57264537D02*
X59385213Y-57359775D01*
X59385213Y-57359775D02*
X59385213Y-57455013D01*
X59385213Y-57455013D02*
X59423308Y-57550251D01*
X59423308Y-57550251D02*
X59461403Y-57597870D01*
X59461403Y-57597870D02*
X59537594Y-57645489D01*
X59537594Y-57645489D02*
X59804260Y-57645489D01*
X59004260Y-57788346D02*
X58394737Y-57788346D01*
X57556641Y-58074060D02*
X57594737Y-58121680D01*
X57594737Y-58121680D02*
X57709022Y-58169299D01*
X57709022Y-58169299D02*
X57785213Y-58169299D01*
X57785213Y-58169299D02*
X57899499Y-58121680D01*
X57899499Y-58121680D02*
X57975689Y-58026441D01*
X57975689Y-58026441D02*
X58013784Y-57931203D01*
X58013784Y-57931203D02*
X58051880Y-57740727D01*
X58051880Y-57740727D02*
X58051880Y-57597870D01*
X58051880Y-57597870D02*
X58013784Y-57407394D01*
X58013784Y-57407394D02*
X57975689Y-57312156D01*
X57975689Y-57312156D02*
X57899499Y-57216918D01*
X57899499Y-57216918D02*
X57785213Y-57169299D01*
X57785213Y-57169299D02*
X57709022Y-57169299D01*
X57709022Y-57169299D02*
X57594737Y-57216918D01*
X57594737Y-57216918D02*
X57556641Y-57264537D01*
D11*
G36*
X96848822Y-53443619D02*
G01*
X96782693Y-53443619D01*
X96744808Y-53440622D01*
X96716656Y-53432628D01*
X96692419Y-53418445D01*
X96671502Y-53397457D01*
X96252839Y-52867602D01*
X96224927Y-52838232D01*
X96197793Y-52820891D01*
X96166620Y-52811353D01*
X96124795Y-52807793D01*
X95881345Y-52807793D01*
X96392424Y-53438398D01*
X96440134Y-53489301D01*
X96485755Y-53520189D01*
X96452736Y-53535366D01*
X96423381Y-53555360D01*
X96396947Y-53580611D01*
X96370350Y-53614619D01*
X95843610Y-54325000D01*
X96092280Y-54325000D01*
X96139052Y-54320913D01*
X96167293Y-54310894D01*
X96189674Y-54293733D01*
X96208784Y-54269404D01*
X96637888Y-53709050D01*
X96659983Y-53684469D01*
X96684141Y-53669207D01*
X96713412Y-53660984D01*
X96759612Y-53657667D01*
X96848822Y-53657667D01*
X96848822Y-54325000D01*
X97131106Y-54325000D01*
X97131106Y-52807793D01*
X96848822Y-52807793D01*
X96848822Y-53443619D01*
G37*
G36*
X95464331Y-53248438D02*
G01*
X95464331Y-54325000D01*
X95724542Y-54325000D01*
X95724542Y-53248438D01*
X95464331Y-53248438D01*
G37*
G36*
X95428611Y-52934739D02*
G01*
X95432051Y-52967360D01*
X95442258Y-52997662D01*
X95478528Y-53049136D01*
X95502866Y-53068789D01*
X95531468Y-53084215D01*
X95562753Y-53094003D01*
X95596497Y-53097313D01*
X95629303Y-53094016D01*
X95660061Y-53084215D01*
X95711994Y-53049136D01*
X95747073Y-52997662D01*
X95756864Y-52967386D01*
X95760170Y-52934739D01*
X95756860Y-52900994D01*
X95747073Y-52869709D01*
X95731614Y-52841130D01*
X95711994Y-52817227D01*
X95688111Y-52797491D01*
X95660061Y-52782056D01*
X95629303Y-52772255D01*
X95596497Y-52768959D01*
X95562753Y-52772269D01*
X95531468Y-52782056D01*
X95502873Y-52797501D01*
X95478528Y-52817227D01*
X95458276Y-52841155D01*
X95442258Y-52869709D01*
X95432054Y-52901020D01*
X95428611Y-52934739D01*
G37*
G36*
X94957100Y-53380696D02*
G01*
X94888407Y-53320337D01*
X94811745Y-53273076D01*
X94725191Y-53242668D01*
X94677813Y-53234523D01*
X94624441Y-53231677D01*
X94539677Y-53239484D01*
X94468187Y-53261627D01*
X94405246Y-53297797D01*
X94354339Y-53345525D01*
X94314625Y-53403974D01*
X94285096Y-53474576D01*
X94267577Y-53551981D01*
X94261466Y-53639807D01*
X94261466Y-54325000D01*
X94520577Y-54325000D01*
X94520577Y-53639807D01*
X94526250Y-53575480D01*
X94541743Y-53525641D01*
X94565731Y-53487124D01*
X94599436Y-53458088D01*
X94644091Y-53439773D01*
X94703210Y-53433086D01*
X94768366Y-53440736D01*
X94829147Y-53463586D01*
X94885507Y-53498922D01*
X94940339Y-53546475D01*
X94940339Y-54325000D01*
X95199450Y-54325000D01*
X95199450Y-53248438D01*
X95041089Y-53248438D01*
X95010886Y-53253881D01*
X94989561Y-53269155D01*
X94974960Y-53295699D01*
X94957100Y-53380696D01*
G37*
G36*
X93673295Y-53242536D02*
G01*
X93773560Y-53273626D01*
X93862875Y-53323521D01*
X93936226Y-53387473D01*
X93994759Y-53465113D01*
X94038533Y-53556459D01*
X94065115Y-53655944D01*
X94074162Y-53763638D01*
X94069275Y-53857470D01*
X94055343Y-53940061D01*
X94033221Y-54012857D01*
X93983842Y-54113068D01*
X93920930Y-54193292D01*
X93843430Y-54257195D01*
X93753044Y-54303476D01*
X93653620Y-54331249D01*
X93544308Y-54340753D01*
X93427346Y-54332327D01*
X93367606Y-54320992D01*
X93308736Y-54303567D01*
X93251852Y-54279749D01*
X93196994Y-54248979D01*
X93146308Y-54210971D01*
X93100457Y-54164440D01*
X93174921Y-54070010D01*
X93194467Y-54052145D01*
X93223189Y-54045922D01*
X93247120Y-54049400D01*
X93273107Y-54060576D01*
X93332916Y-54093091D01*
X93412600Y-54125697D01*
X93460626Y-54136422D01*
X93521227Y-54140352D01*
X93582299Y-54135345D01*
X93636082Y-54120935D01*
X93684578Y-54096490D01*
X93725841Y-54062225D01*
X93759267Y-54018652D01*
X93786658Y-53962482D01*
X93805062Y-53898834D01*
X93816058Y-53819234D01*
X93149733Y-53819234D01*
X93118568Y-53813551D01*
X93101557Y-53798809D01*
X93092865Y-53773276D01*
X93088917Y-53719583D01*
X93093554Y-53662888D01*
X93321833Y-53662888D01*
X93810746Y-53662888D01*
X93792584Y-53587187D01*
X93764907Y-53527726D01*
X93728497Y-53481446D01*
X93681794Y-53446760D01*
X93623905Y-53425153D01*
X93551635Y-53417424D01*
X93496264Y-53422515D01*
X93450427Y-53436841D01*
X93410293Y-53460005D01*
X93378528Y-53489781D01*
X93353865Y-53525851D01*
X93336030Y-53567999D01*
X93325447Y-53613544D01*
X93321833Y-53662888D01*
X93093554Y-53662888D01*
X93098111Y-53607176D01*
X93124088Y-53512312D01*
X93166484Y-53427687D01*
X93221083Y-53359172D01*
X93288635Y-53304457D01*
X93369094Y-53264192D01*
X93457870Y-53240009D01*
X93556856Y-53231677D01*
X93673295Y-53242536D01*
G37*
G36*
X92123089Y-53476133D02*
G01*
X92145712Y-53499214D01*
X92177677Y-53507641D01*
X92197090Y-53504705D01*
X92216512Y-53495551D01*
X92261666Y-53468257D01*
X92324040Y-53441054D01*
X92362567Y-53432264D01*
X92413799Y-53428964D01*
X92479103Y-53435400D01*
X92533417Y-53453602D01*
X92580436Y-53483591D01*
X92618872Y-53524402D01*
X92648110Y-53574263D01*
X92669796Y-53636143D01*
X92682145Y-53704108D01*
X92686557Y-53784612D01*
X92681722Y-53868073D01*
X92668239Y-53937844D01*
X92645125Y-54001000D01*
X92615208Y-54050684D01*
X92576683Y-54090999D01*
X92531311Y-54119927D01*
X92479659Y-54137399D01*
X92420027Y-54143466D01*
X92361335Y-54139244D01*
X92319827Y-54128262D01*
X92255347Y-54094740D01*
X92209643Y-54061126D01*
X92188993Y-54049700D01*
X92166137Y-54045922D01*
X92138279Y-54052092D01*
X92118876Y-54070010D01*
X92044412Y-54164440D01*
X92089777Y-54211201D01*
X92137835Y-54248979D01*
X92189369Y-54279825D01*
X92242158Y-54303567D01*
X92296989Y-54320967D01*
X92353441Y-54332327D01*
X92467288Y-54340753D01*
X92564532Y-54331343D01*
X92655142Y-54303476D01*
X92737600Y-54257790D01*
X92809381Y-54194849D01*
X92867673Y-54116855D01*
X92913703Y-54020184D01*
X92941972Y-53912340D01*
X92951988Y-53784612D01*
X92943251Y-53669017D01*
X92917916Y-53564885D01*
X92875377Y-53469617D01*
X92817716Y-53389580D01*
X92744409Y-53324068D01*
X92654043Y-53273626D01*
X92587766Y-53250854D01*
X92513336Y-53236636D01*
X92429461Y-53231677D01*
X92313632Y-53241883D01*
X92218069Y-53270512D01*
X92132259Y-53317485D01*
X92054945Y-53381703D01*
X92123089Y-53476133D01*
G37*
G36*
X91524267Y-54341761D02*
G01*
X91614764Y-54332041D01*
X91685113Y-54305193D01*
X91739964Y-54262534D01*
X91780389Y-54205468D01*
X91805822Y-54133925D01*
X91814977Y-54043815D01*
X91814977Y-53442611D01*
X91925161Y-53442611D01*
X91944661Y-53439159D01*
X91960790Y-53428964D01*
X91971474Y-53412740D01*
X91975444Y-53388023D01*
X91975444Y-53285166D01*
X91802337Y-53256864D01*
X91747841Y-52963040D01*
X91740004Y-52944119D01*
X91727874Y-52930525D01*
X91711549Y-52922027D01*
X91690047Y-52918985D01*
X91555774Y-52918985D01*
X91555774Y-53257872D01*
X91268270Y-53257872D01*
X91268270Y-53442611D01*
X91555774Y-53442611D01*
X91555774Y-54025955D01*
X91549136Y-54072329D01*
X91531136Y-54104723D01*
X91502505Y-54125691D01*
X91463450Y-54133025D01*
X91423059Y-54127254D01*
X91394757Y-54115164D01*
X91373233Y-54103074D01*
X91354365Y-54097304D01*
X91335498Y-54103074D01*
X91319744Y-54120385D01*
X91242075Y-54246323D01*
X91302510Y-54287535D01*
X91372134Y-54317672D01*
X91446734Y-54335713D01*
X91524267Y-54341761D01*
G37*
G36*
X90332942Y-53363843D02*
G01*
X90266598Y-53310481D01*
X90194456Y-53268405D01*
X90114466Y-53241309D01*
X90017044Y-53231677D01*
X89932280Y-53239484D01*
X89860790Y-53261627D01*
X89797849Y-53297797D01*
X89746942Y-53345525D01*
X89707227Y-53403974D01*
X89677699Y-53474576D01*
X89660180Y-53551981D01*
X89654069Y-53639807D01*
X89654069Y-54325000D01*
X89913180Y-54325000D01*
X89913180Y-53639807D01*
X89918853Y-53575480D01*
X89934346Y-53525641D01*
X89958334Y-53487124D01*
X89992039Y-53458088D01*
X90036694Y-53439773D01*
X90095812Y-53433086D01*
X90160968Y-53440736D01*
X90221750Y-53463586D01*
X90278110Y-53498922D01*
X90332942Y-53546475D01*
X90332942Y-54325000D01*
X90592053Y-54325000D01*
X90592053Y-52765753D01*
X90332942Y-52765753D01*
X90332942Y-53363843D01*
G37*
G36*
X89114014Y-53239432D02*
G01*
X89229650Y-53271377D01*
X89335447Y-53324000D01*
X89433151Y-53398464D01*
X89386989Y-53481354D01*
X89356581Y-53514510D01*
X89336036Y-53524956D01*
X89310419Y-53528615D01*
X89280150Y-53524893D01*
X89253266Y-53513961D01*
X89196113Y-53480896D01*
X89123207Y-53447832D01*
X89078795Y-53437129D01*
X89018702Y-53433086D01*
X88962923Y-53439414D01*
X88919463Y-53456969D01*
X88885437Y-53485109D01*
X88861314Y-53522568D01*
X88845294Y-53574384D01*
X88839275Y-53645119D01*
X88839275Y-53708042D01*
X88958707Y-53714470D01*
X89057628Y-53726360D01*
X89149857Y-53744442D01*
X89224965Y-53765744D01*
X89293114Y-53792881D01*
X89346140Y-53822439D01*
X89391895Y-53856925D01*
X89426373Y-53891682D01*
X89453330Y-53929893D01*
X89470978Y-53968802D01*
X89481247Y-54009530D01*
X89484625Y-54050135D01*
X89478561Y-54119646D01*
X89461544Y-54177080D01*
X89433509Y-54227467D01*
X89396515Y-54268305D01*
X89351056Y-54300178D01*
X89296772Y-54323442D01*
X89237367Y-54337045D01*
X89170834Y-54341761D01*
X89114481Y-54339155D01*
X89065413Y-54331777D01*
X88975745Y-54303018D01*
X88894962Y-54256306D01*
X88815186Y-54191734D01*
X88792105Y-54269404D01*
X88777529Y-54298602D01*
X88760598Y-54314009D01*
X88738218Y-54321893D01*
X88703903Y-54325000D01*
X88586392Y-54325000D01*
X88586392Y-54046929D01*
X88839275Y-54046929D01*
X88897125Y-54099462D01*
X88953122Y-54134582D01*
X89014975Y-54155842D01*
X89091150Y-54163433D01*
X89151802Y-54155575D01*
X89196571Y-54134032D01*
X89218153Y-54111450D01*
X89231877Y-54079969D01*
X89236963Y-54036488D01*
X89232025Y-54003270D01*
X89217088Y-53972465D01*
X89192128Y-53946144D01*
X89150959Y-53921083D01*
X89100579Y-53902012D01*
X89028227Y-53884904D01*
X88947072Y-53873392D01*
X88839275Y-53865396D01*
X88839275Y-54046929D01*
X88586392Y-54046929D01*
X88586392Y-53645119D01*
X88593298Y-53556267D01*
X88613228Y-53477233D01*
X88646492Y-53405369D01*
X88691355Y-53345525D01*
X88748003Y-53296794D01*
X88817293Y-53259429D01*
X88895088Y-53236518D01*
X88986187Y-53228471D01*
X89114014Y-53239432D01*
G37*
G36*
X87571379Y-53476133D02*
G01*
X87594002Y-53499214D01*
X87625968Y-53507641D01*
X87645380Y-53504705D01*
X87664802Y-53495551D01*
X87709957Y-53468257D01*
X87772330Y-53441054D01*
X87810857Y-53432264D01*
X87862090Y-53428964D01*
X87927393Y-53435400D01*
X87981707Y-53453602D01*
X88028727Y-53483591D01*
X88067162Y-53524402D01*
X88096400Y-53574263D01*
X88118087Y-53636143D01*
X88130435Y-53704108D01*
X88134848Y-53784612D01*
X88130013Y-53868073D01*
X88116530Y-53937844D01*
X88093415Y-54001000D01*
X88063498Y-54050684D01*
X88024973Y-54090999D01*
X87979601Y-54119927D01*
X87927949Y-54137399D01*
X87868318Y-54143466D01*
X87809625Y-54139244D01*
X87768117Y-54128262D01*
X87703637Y-54094740D01*
X87657933Y-54061126D01*
X87637283Y-54049700D01*
X87614427Y-54045922D01*
X87586569Y-54052092D01*
X87567166Y-54070010D01*
X87492703Y-54164440D01*
X87538067Y-54211201D01*
X87586126Y-54248979D01*
X87637660Y-54279825D01*
X87690448Y-54303567D01*
X87745279Y-54320967D01*
X87801731Y-54332327D01*
X87915579Y-54340753D01*
X88012822Y-54331343D01*
X88103432Y-54303476D01*
X88185891Y-54257790D01*
X88257671Y-54194849D01*
X88315963Y-54116855D01*
X88361994Y-54020184D01*
X88390262Y-53912340D01*
X88400279Y-53784612D01*
X88391541Y-53669017D01*
X88366207Y-53564885D01*
X88323667Y-53469617D01*
X88266006Y-53389580D01*
X88192699Y-53324068D01*
X88102333Y-53273626D01*
X88036056Y-53250854D01*
X87961626Y-53236636D01*
X87877752Y-53231677D01*
X87761923Y-53241883D01*
X87666359Y-53270512D01*
X87580549Y-53317485D01*
X87503236Y-53381703D01*
X87571379Y-53476133D01*
G37*
G36*
X87072300Y-52765753D02*
G01*
X87072300Y-53658674D01*
X87024031Y-53658674D01*
X86982540Y-53651897D01*
X86951583Y-53624053D01*
X86684045Y-53293592D01*
X86646859Y-53259979D01*
X86624448Y-53251570D01*
X86593828Y-53248438D01*
X86356699Y-53248438D01*
X86691372Y-53648233D01*
X86729581Y-53690770D01*
X86769042Y-53720590D01*
X86729658Y-53757318D01*
X86696593Y-53802472D01*
X86337831Y-54325000D01*
X86571755Y-54325000D01*
X86600835Y-54322357D01*
X86624236Y-54315016D01*
X86643951Y-54301472D01*
X86660964Y-54278838D01*
X86935829Y-53870708D01*
X86951818Y-53849736D01*
X86966329Y-53839200D01*
X87013498Y-53831873D01*
X87072300Y-53831873D01*
X87072300Y-54325000D01*
X87331411Y-54325000D01*
X87331411Y-52765753D01*
X87072300Y-52765753D01*
G37*
G36*
X85922493Y-53242536D02*
G01*
X86022758Y-53273626D01*
X86112073Y-53323521D01*
X86185423Y-53387473D01*
X86243956Y-53465113D01*
X86287731Y-53556459D01*
X86314313Y-53655944D01*
X86323360Y-53763638D01*
X86318472Y-53857470D01*
X86304541Y-53940061D01*
X86282418Y-54012857D01*
X86233040Y-54113068D01*
X86170128Y-54193292D01*
X86092628Y-54257195D01*
X86002241Y-54303476D01*
X85902818Y-54331249D01*
X85793505Y-54340753D01*
X85676543Y-54332327D01*
X85616804Y-54320992D01*
X85557933Y-54303567D01*
X85501049Y-54279749D01*
X85446192Y-54248979D01*
X85395506Y-54210971D01*
X85349655Y-54164440D01*
X85424118Y-54070010D01*
X85443664Y-54052145D01*
X85472387Y-54045922D01*
X85496317Y-54049400D01*
X85522304Y-54060576D01*
X85582113Y-54093091D01*
X85661797Y-54125697D01*
X85709823Y-54136422D01*
X85770424Y-54140352D01*
X85831497Y-54135345D01*
X85885280Y-54120935D01*
X85933775Y-54096490D01*
X85975039Y-54062225D01*
X86008464Y-54018652D01*
X86035855Y-53962482D01*
X86054259Y-53898834D01*
X86065256Y-53819234D01*
X85398931Y-53819234D01*
X85367766Y-53813551D01*
X85350754Y-53798809D01*
X85342062Y-53773276D01*
X85338114Y-53719583D01*
X85342752Y-53662888D01*
X85571031Y-53662888D01*
X86059944Y-53662888D01*
X86041781Y-53587187D01*
X86014105Y-53527726D01*
X85977695Y-53481446D01*
X85930991Y-53446760D01*
X85873103Y-53425153D01*
X85800833Y-53417424D01*
X85745462Y-53422515D01*
X85699624Y-53436841D01*
X85659490Y-53460005D01*
X85627725Y-53489781D01*
X85603063Y-53525851D01*
X85585227Y-53567999D01*
X85574645Y-53613544D01*
X85571031Y-53662888D01*
X85342752Y-53662888D01*
X85347309Y-53607176D01*
X85373285Y-53512312D01*
X85415682Y-53427687D01*
X85470280Y-53359172D01*
X85537832Y-53304457D01*
X85618292Y-53264192D01*
X85707067Y-53240009D01*
X85806053Y-53231677D01*
X85922493Y-53242536D01*
G37*
G36*
X84899027Y-53435192D02*
G01*
X84842360Y-53347044D01*
X84779409Y-53283609D01*
X84730796Y-53253142D01*
X84676752Y-53234783D01*
X84615736Y-53228471D01*
X84546365Y-53237246D01*
X84496118Y-53261078D01*
X84512879Y-53455159D01*
X84528175Y-53481904D01*
X84554919Y-53489781D01*
X84601539Y-53484560D01*
X84661898Y-53479248D01*
X84703460Y-53482553D01*
X84738559Y-53491887D01*
X84770398Y-53507212D01*
X84798826Y-53528066D01*
X84846087Y-53585310D01*
X84884372Y-53661880D01*
X84884372Y-54325000D01*
X85143483Y-54325000D01*
X85143483Y-53248438D01*
X84991351Y-53248438D01*
X84955207Y-53252618D01*
X84935755Y-53262635D01*
X84923441Y-53280510D01*
X84914781Y-53313468D01*
X84899027Y-53435192D01*
G37*
G36*
X83894914Y-54325000D02*
G01*
X83723913Y-54325000D01*
X83699619Y-54321872D01*
X83682514Y-54313459D01*
X83670029Y-54298940D01*
X83660990Y-54274624D01*
X83649450Y-54202267D01*
X83594312Y-54259420D01*
X83530840Y-54303018D01*
X83455368Y-54330770D01*
X83364052Y-54340753D01*
X83263776Y-54330024D01*
X83175191Y-54298804D01*
X83096561Y-54248437D01*
X83029836Y-54180744D01*
X82977251Y-54098510D01*
X82936963Y-53997653D01*
X82912905Y-53886938D01*
X82905074Y-53768859D01*
X83171986Y-53768859D01*
X83176812Y-53863912D01*
X83189846Y-53938394D01*
X83212487Y-54004786D01*
X83241320Y-54054806D01*
X83278784Y-54094720D01*
X83322561Y-54121942D01*
X83372417Y-54137906D01*
X83430089Y-54143466D01*
X83486515Y-54137942D01*
X83539815Y-54121484D01*
X83588533Y-54092531D01*
X83635803Y-54045922D01*
X83635803Y-53563237D01*
X83582760Y-53507053D01*
X83529832Y-53467249D01*
X83470579Y-53441913D01*
X83399681Y-53433086D01*
X83330210Y-53442389D01*
X83275072Y-53468699D01*
X83230787Y-53512312D01*
X83200810Y-53568647D01*
X83180015Y-53651206D01*
X83171986Y-53768859D01*
X82905074Y-53768859D01*
X82904448Y-53759425D01*
X82911877Y-53641227D01*
X82932841Y-53540156D01*
X82968126Y-53448196D01*
X83014174Y-53373918D01*
X83072933Y-53312899D01*
X83142127Y-53268405D01*
X83220567Y-53241112D01*
X83310471Y-53231677D01*
X83408189Y-53242118D01*
X83491547Y-53272069D01*
X83566655Y-53319028D01*
X83635803Y-53380696D01*
X83635803Y-52765753D01*
X83894914Y-52765753D01*
X83894914Y-54325000D01*
G37*
G36*
X82344091Y-53241700D02*
G01*
X82446493Y-53270512D01*
X82538543Y-53317881D01*
X82614929Y-53380696D01*
X82676141Y-53458901D01*
X82722915Y-53554902D01*
X82751277Y-53661624D01*
X82761200Y-53784612D01*
X82751257Y-53908577D01*
X82722915Y-54015513D01*
X82676200Y-54111631D01*
X82614929Y-54190727D01*
X82538469Y-54254343D01*
X82446493Y-54301919D01*
X82344091Y-54330730D01*
X82227132Y-54340753D01*
X82111209Y-54330741D01*
X82009420Y-54301919D01*
X81917908Y-54254376D01*
X81841534Y-54190727D01*
X81780313Y-54111606D01*
X81734006Y-54015513D01*
X81706075Y-53908604D01*
X81696437Y-53786719D01*
X81963808Y-53786719D01*
X81972228Y-53901580D01*
X81994717Y-53987571D01*
X82028380Y-54051142D01*
X82064016Y-54089810D01*
X82107756Y-54117627D01*
X82161278Y-54135108D01*
X82227132Y-54141359D01*
X82294133Y-54135057D01*
X82348559Y-54117442D01*
X82393003Y-54089447D01*
X82429182Y-54050593D01*
X82463458Y-53986612D01*
X82486255Y-53900730D01*
X82494761Y-53786719D01*
X82486277Y-53672714D01*
X82463497Y-53586446D01*
X82429182Y-53521837D01*
X82392931Y-53482453D01*
X82348454Y-53454129D01*
X82294052Y-53436334D01*
X82227132Y-53429972D01*
X82161359Y-53436282D01*
X82107861Y-53453944D01*
X82064088Y-53482089D01*
X82028380Y-53521288D01*
X81994678Y-53585487D01*
X81972205Y-53671865D01*
X81963808Y-53786719D01*
X81696437Y-53786719D01*
X81696270Y-53784612D01*
X81706055Y-53661597D01*
X81734006Y-53554902D01*
X81780372Y-53458927D01*
X81841534Y-53380696D01*
X81917834Y-53317848D01*
X82009420Y-53270512D01*
X82111209Y-53241689D01*
X82227132Y-53231677D01*
X82344091Y-53241700D01*
G37*
G36*
X81203476Y-53239432D02*
G01*
X81319112Y-53271377D01*
X81424910Y-53324000D01*
X81522614Y-53398464D01*
X81476452Y-53481354D01*
X81446044Y-53514510D01*
X81425499Y-53524956D01*
X81399882Y-53528615D01*
X81369612Y-53524893D01*
X81342729Y-53513961D01*
X81285576Y-53480896D01*
X81212670Y-53447832D01*
X81168257Y-53437129D01*
X81108164Y-53433086D01*
X81052386Y-53439414D01*
X81008925Y-53456969D01*
X80974899Y-53485109D01*
X80950777Y-53522568D01*
X80934757Y-53574384D01*
X80928737Y-53645119D01*
X80928737Y-53708042D01*
X81048169Y-53714470D01*
X81147090Y-53726360D01*
X81239320Y-53744442D01*
X81314427Y-53765744D01*
X81382576Y-53792881D01*
X81435602Y-53822439D01*
X81481358Y-53856925D01*
X81515836Y-53891682D01*
X81542793Y-53929893D01*
X81560441Y-53968802D01*
X81570709Y-54009530D01*
X81574088Y-54050135D01*
X81568023Y-54119646D01*
X81551007Y-54177080D01*
X81522971Y-54227467D01*
X81485977Y-54268305D01*
X81440519Y-54300178D01*
X81386235Y-54323442D01*
X81326829Y-54337045D01*
X81260297Y-54341761D01*
X81203944Y-54339155D01*
X81154876Y-54331777D01*
X81065208Y-54303018D01*
X80984425Y-54256306D01*
X80904649Y-54191734D01*
X80881568Y-54269404D01*
X80866991Y-54298602D01*
X80850061Y-54314009D01*
X80827680Y-54321893D01*
X80793366Y-54325000D01*
X80675854Y-54325000D01*
X80675854Y-54046929D01*
X80928737Y-54046929D01*
X80986588Y-54099462D01*
X81042585Y-54134582D01*
X81104438Y-54155842D01*
X81180613Y-54163433D01*
X81241264Y-54155575D01*
X81286034Y-54134032D01*
X81307616Y-54111450D01*
X81321340Y-54079969D01*
X81326426Y-54036488D01*
X81321487Y-54003270D01*
X81306550Y-53972465D01*
X81281590Y-53946144D01*
X81240422Y-53921083D01*
X81190041Y-53902012D01*
X81117690Y-53884904D01*
X81036535Y-53873392D01*
X80928737Y-53865396D01*
X80928737Y-54046929D01*
X80675854Y-54046929D01*
X80675854Y-53645119D01*
X80682760Y-53556267D01*
X80702691Y-53477233D01*
X80735955Y-53405369D01*
X80780818Y-53345525D01*
X80837465Y-53296794D01*
X80906755Y-53259429D01*
X80984551Y-53236518D01*
X81075649Y-53228471D01*
X81203476Y-53239432D01*
G37*
G36*
X80187582Y-53435192D02*
G01*
X80130916Y-53347044D01*
X80067964Y-53283609D01*
X80019352Y-53253142D01*
X79965308Y-53234783D01*
X79904291Y-53228471D01*
X79834921Y-53237246D01*
X79784673Y-53261078D01*
X79801434Y-53455159D01*
X79816730Y-53481904D01*
X79843475Y-53489781D01*
X79890095Y-53484560D01*
X79950453Y-53479248D01*
X79992016Y-53482553D01*
X80027115Y-53491887D01*
X80058953Y-53507212D01*
X80087382Y-53528066D01*
X80134643Y-53585310D01*
X80172928Y-53661880D01*
X80172928Y-54325000D01*
X80432039Y-54325000D01*
X80432039Y-53248438D01*
X80279906Y-53248438D01*
X80243762Y-53252618D01*
X80224310Y-53262635D01*
X80211996Y-53280510D01*
X80203336Y-53313468D01*
X80187582Y-53435192D01*
G37*
G36*
X79001661Y-53333435D02*
G01*
X79055425Y-53290173D01*
X79116058Y-53256864D01*
X79184056Y-53236040D01*
X79270206Y-53228471D01*
X79372217Y-53239384D01*
X79461174Y-53270969D01*
X79539961Y-53321582D01*
X79607078Y-53389030D01*
X79660230Y-53470251D01*
X79700501Y-53567450D01*
X79724678Y-53673007D01*
X79733016Y-53789833D01*
X79725400Y-53917976D01*
X79704165Y-54024947D01*
X79668195Y-54121621D01*
X79622282Y-54197505D01*
X79563655Y-54259462D01*
X79495887Y-54304025D01*
X79419452Y-54331410D01*
X79334228Y-54340753D01*
X79260543Y-54335333D01*
X79195427Y-54319755D01*
X79137491Y-54294591D01*
X79058147Y-54241532D01*
X78988014Y-54173874D01*
X78965941Y-54277739D01*
X78952499Y-54304175D01*
X78931634Y-54319475D01*
X78900911Y-54325000D01*
X78742459Y-54325000D01*
X78742459Y-53523394D01*
X79001661Y-53523394D01*
X79001661Y-54005988D01*
X79054913Y-54061980D01*
X79108731Y-54101517D01*
X79169599Y-54126218D01*
X79246118Y-54135040D01*
X79294788Y-54130328D01*
X79337434Y-54116721D01*
X79374668Y-54093041D01*
X79406677Y-54056912D01*
X79430871Y-54011429D01*
X79450183Y-53949842D01*
X79461237Y-53880621D01*
X79465387Y-53789833D01*
X79460618Y-53699744D01*
X79447618Y-53627808D01*
X79425044Y-53563320D01*
X79396236Y-53514419D01*
X79358881Y-53475180D01*
X79315452Y-53447832D01*
X79266090Y-53431441D01*
X79209390Y-53425758D01*
X79151154Y-53431355D01*
X79097649Y-53447832D01*
X79048942Y-53476731D01*
X79001661Y-53523394D01*
X78742459Y-53523394D01*
X78742459Y-52765753D01*
X79001661Y-52765753D01*
X79001661Y-53333435D01*
G37*
G36*
X96201456Y-55768438D02*
G01*
X96628454Y-56845000D01*
X96863476Y-56845000D01*
X97290566Y-55768438D01*
X97076517Y-55768438D01*
X97048948Y-55772039D01*
X97027699Y-55782085D01*
X97011426Y-55797739D01*
X97001962Y-55816707D01*
X96794234Y-56391715D01*
X96764924Y-56490359D01*
X96742851Y-56586896D01*
X96719770Y-56490359D01*
X96689362Y-56391715D01*
X96477420Y-55816707D01*
X96467214Y-55797663D01*
X96451133Y-55782085D01*
X96430755Y-55771955D01*
X96405979Y-55768438D01*
X96201456Y-55768438D01*
G37*
G36*
X95106119Y-56650918D02*
G01*
X95106119Y-56845000D01*
X95945551Y-56845000D01*
X95945551Y-56650918D01*
X95638080Y-56650918D01*
X95638080Y-55766331D01*
X95634965Y-55658254D01*
X95853227Y-55840887D01*
X95890505Y-55859205D01*
X95925126Y-55859754D01*
X95953977Y-55848763D01*
X95972845Y-55831453D01*
X96054636Y-55719162D01*
X95591918Y-55325687D01*
X95378968Y-55325687D01*
X95378968Y-56650918D01*
X95106119Y-56650918D01*
G37*
G36*
X94884102Y-56702301D02*
G01*
X94881063Y-56670480D01*
X94872012Y-56640385D01*
X94857561Y-56612878D01*
X94838948Y-56590010D01*
X94788664Y-56556488D01*
X94758398Y-56547046D01*
X94725649Y-56543848D01*
X94692979Y-56547058D01*
X94663184Y-56556488D01*
X94612901Y-56590010D01*
X94593749Y-56612902D01*
X94578829Y-56640385D01*
X94569361Y-56670505D01*
X94566189Y-56702301D01*
X94569400Y-56734971D01*
X94578829Y-56764766D01*
X94593716Y-56791786D01*
X94612901Y-56814591D01*
X94663184Y-56847564D01*
X94692952Y-56856578D01*
X94725649Y-56859654D01*
X94758424Y-56856590D01*
X94788664Y-56847564D01*
X94816090Y-56833190D01*
X94838948Y-56814591D01*
X94857594Y-56791809D01*
X94872012Y-56764766D01*
X94881026Y-56734998D01*
X94884102Y-56702301D01*
G37*
G36*
X93947575Y-55316253D02*
G01*
X94020594Y-55331874D01*
X94089458Y-55357652D01*
X94153252Y-55393729D01*
X94211680Y-55440800D01*
X94265221Y-55499893D01*
X94309676Y-55566363D01*
X94348645Y-55646150D01*
X94381633Y-55741236D01*
X94404055Y-55839290D01*
X94418458Y-55953576D01*
X94423582Y-56086351D01*
X94418475Y-56218420D01*
X94404086Y-56332623D01*
X94381633Y-56431099D01*
X94348630Y-56526495D01*
X94309658Y-56606455D01*
X94265221Y-56672991D01*
X94211685Y-56732027D01*
X94153258Y-56779069D01*
X94089458Y-56815141D01*
X94020598Y-56840867D01*
X93947579Y-56856459D01*
X93869548Y-56861761D01*
X93791566Y-56856474D01*
X93718230Y-56840897D01*
X93648722Y-56815141D01*
X93584199Y-56779024D01*
X93525260Y-56731970D01*
X93471401Y-56672991D01*
X93426598Y-56606431D01*
X93387262Y-56526467D01*
X93353890Y-56431099D01*
X93331138Y-56332597D01*
X93316564Y-56218397D01*
X93311392Y-56086351D01*
X93578929Y-56086351D01*
X93585623Y-56244046D01*
X93603109Y-56359200D01*
X93632906Y-56460565D01*
X93667589Y-56531300D01*
X93712537Y-56587149D01*
X93760463Y-56620968D01*
X93814189Y-56640321D01*
X93869548Y-56646705D01*
X93924033Y-56640333D01*
X93977167Y-56620968D01*
X94024533Y-56587177D01*
X94068941Y-56531300D01*
X94103111Y-56460600D01*
X94132414Y-56359200D01*
X94149502Y-56244056D01*
X94156045Y-56086351D01*
X94149503Y-55928726D01*
X94132414Y-55813592D01*
X94103111Y-55712193D01*
X94068941Y-55641493D01*
X94024522Y-55585560D01*
X93977167Y-55551825D01*
X93924033Y-55532460D01*
X93869548Y-55526088D01*
X93814189Y-55532472D01*
X93760463Y-55551825D01*
X93712548Y-55585588D01*
X93667589Y-55641493D01*
X93632906Y-55712228D01*
X93603109Y-55813592D01*
X93585622Y-55928736D01*
X93578929Y-56086351D01*
X93311392Y-56086351D01*
X93316581Y-55953599D01*
X93331170Y-55839315D01*
X93353890Y-55741236D01*
X93387247Y-55646177D01*
X93426580Y-55566387D01*
X93471401Y-55499893D01*
X93525265Y-55440857D01*
X93584205Y-55393775D01*
X93648722Y-55357652D01*
X93718235Y-55331844D01*
X93791570Y-55316237D01*
X93869548Y-55310941D01*
X93947575Y-55316253D01*
G37*
D12*
X79214285Y-73169104D02*
X78738095Y-73169104D01*
X79309523Y-73454819D02*
X78976190Y-72454819D01*
X78976190Y-72454819D02*
X78642857Y-73454819D01*
X78309523Y-73454819D02*
X78309523Y-72454819D01*
X78309523Y-72454819D02*
X77928571Y-72454819D01*
X77928571Y-72454819D02*
X77833333Y-72502438D01*
X77833333Y-72502438D02*
X77785714Y-72550057D01*
X77785714Y-72550057D02*
X77738095Y-72645295D01*
X77738095Y-72645295D02*
X77738095Y-72788152D01*
X77738095Y-72788152D02*
X77785714Y-72883390D01*
X77785714Y-72883390D02*
X77833333Y-72931009D01*
X77833333Y-72931009D02*
X77928571Y-72978628D01*
X77928571Y-72978628D02*
X78309523Y-72978628D01*
X76880952Y-72454819D02*
X77071428Y-72454819D01*
X77071428Y-72454819D02*
X77166666Y-72502438D01*
X77166666Y-72502438D02*
X77214285Y-72550057D01*
X77214285Y-72550057D02*
X77309523Y-72692914D01*
X77309523Y-72692914D02*
X77357142Y-72883390D01*
X77357142Y-72883390D02*
X77357142Y-73264342D01*
X77357142Y-73264342D02*
X77309523Y-73359580D01*
X77309523Y-73359580D02*
X77261904Y-73407200D01*
X77261904Y-73407200D02*
X77166666Y-73454819D01*
X77166666Y-73454819D02*
X76976190Y-73454819D01*
X76976190Y-73454819D02*
X76880952Y-73407200D01*
X76880952Y-73407200D02*
X76833333Y-73359580D01*
X76833333Y-73359580D02*
X76785714Y-73264342D01*
X76785714Y-73264342D02*
X76785714Y-73026247D01*
X76785714Y-73026247D02*
X76833333Y-72931009D01*
X76833333Y-72931009D02*
X76880952Y-72883390D01*
X76880952Y-72883390D02*
X76976190Y-72835771D01*
X76976190Y-72835771D02*
X77166666Y-72835771D01*
X77166666Y-72835771D02*
X77261904Y-72883390D01*
X77261904Y-72883390D02*
X77309523Y-72931009D01*
X77309523Y-72931009D02*
X77357142Y-73026247D01*
X76452380Y-72454819D02*
X75833333Y-72454819D01*
X75833333Y-72454819D02*
X76166666Y-72835771D01*
X76166666Y-72835771D02*
X76023809Y-72835771D01*
X76023809Y-72835771D02*
X75928571Y-72883390D01*
X75928571Y-72883390D02*
X75880952Y-72931009D01*
X75880952Y-72931009D02*
X75833333Y-73026247D01*
X75833333Y-73026247D02*
X75833333Y-73264342D01*
X75833333Y-73264342D02*
X75880952Y-73359580D01*
X75880952Y-73359580D02*
X75928571Y-73407200D01*
X75928571Y-73407200D02*
X76023809Y-73454819D01*
X76023809Y-73454819D02*
X76309523Y-73454819D01*
X76309523Y-73454819D02*
X76404761Y-73407200D01*
X76404761Y-73407200D02*
X76452380Y-73359580D01*
X75452380Y-72550057D02*
X75404761Y-72502438D01*
X75404761Y-72502438D02*
X75309523Y-72454819D01*
X75309523Y-72454819D02*
X75071428Y-72454819D01*
X75071428Y-72454819D02*
X74976190Y-72502438D01*
X74976190Y-72502438D02*
X74928571Y-72550057D01*
X74928571Y-72550057D02*
X74880952Y-72645295D01*
X74880952Y-72645295D02*
X74880952Y-72740533D01*
X74880952Y-72740533D02*
X74928571Y-72883390D01*
X74928571Y-72883390D02*
X75499999Y-73454819D01*
X75499999Y-73454819D02*
X74880952Y-73454819D01*
X74261904Y-72454819D02*
X74166666Y-72454819D01*
X74166666Y-72454819D02*
X74071428Y-72502438D01*
X74071428Y-72502438D02*
X74023809Y-72550057D01*
X74023809Y-72550057D02*
X73976190Y-72645295D01*
X73976190Y-72645295D02*
X73928571Y-72835771D01*
X73928571Y-72835771D02*
X73928571Y-73073866D01*
X73928571Y-73073866D02*
X73976190Y-73264342D01*
X73976190Y-73264342D02*
X74023809Y-73359580D01*
X74023809Y-73359580D02*
X74071428Y-73407200D01*
X74071428Y-73407200D02*
X74166666Y-73454819D01*
X74166666Y-73454819D02*
X74261904Y-73454819D01*
X74261904Y-73454819D02*
X74357142Y-73407200D01*
X74357142Y-73407200D02*
X74404761Y-73359580D01*
X74404761Y-73359580D02*
X74452380Y-73264342D01*
X74452380Y-73264342D02*
X74499999Y-73073866D01*
X74499999Y-73073866D02*
X74499999Y-72835771D01*
X74499999Y-72835771D02*
X74452380Y-72645295D01*
X74452380Y-72645295D02*
X74404761Y-72550057D01*
X74404761Y-72550057D02*
X74357142Y-72502438D01*
X74357142Y-72502438D02*
X74261904Y-72454819D01*
X73595237Y-72454819D02*
X72976190Y-72454819D01*
X72976190Y-72454819D02*
X73309523Y-72835771D01*
X73309523Y-72835771D02*
X73166666Y-72835771D01*
X73166666Y-72835771D02*
X73071428Y-72883390D01*
X73071428Y-72883390D02*
X73023809Y-72931009D01*
X73023809Y-72931009D02*
X72976190Y-73026247D01*
X72976190Y-73026247D02*
X72976190Y-73264342D01*
X72976190Y-73264342D02*
X73023809Y-73359580D01*
X73023809Y-73359580D02*
X73071428Y-73407200D01*
X73071428Y-73407200D02*
X73166666Y-73454819D01*
X73166666Y-73454819D02*
X73452380Y-73454819D01*
X73452380Y-73454819D02*
X73547618Y-73407200D01*
X73547618Y-73407200D02*
X73595237Y-73359580D01*
X72642856Y-72454819D02*
X72404761Y-73454819D01*
X72404761Y-73454819D02*
X72214285Y-72740533D01*
X72214285Y-72740533D02*
X72023809Y-73454819D01*
X72023809Y-73454819D02*
X71785714Y-72454819D01*
X71404761Y-72454819D02*
X71404761Y-73264342D01*
X71404761Y-73264342D02*
X71357142Y-73359580D01*
X71357142Y-73359580D02*
X71309523Y-73407200D01*
X71309523Y-73407200D02*
X71214285Y-73454819D01*
X71214285Y-73454819D02*
X71023809Y-73454819D01*
X71023809Y-73454819D02*
X70928571Y-73407200D01*
X70928571Y-73407200D02*
X70880952Y-73359580D01*
X70880952Y-73359580D02*
X70833333Y-73264342D01*
X70833333Y-73264342D02*
X70833333Y-72454819D01*
X108842857Y-65254819D02*
X109414285Y-65254819D01*
X109128571Y-65254819D02*
X109128571Y-64254819D01*
X109128571Y-64254819D02*
X109223809Y-64397676D01*
X109223809Y-64397676D02*
X109319047Y-64492914D01*
X109319047Y-64492914D02*
X109414285Y-64540533D01*
X108223809Y-64254819D02*
X108128571Y-64254819D01*
X108128571Y-64254819D02*
X108033333Y-64302438D01*
X108033333Y-64302438D02*
X107985714Y-64350057D01*
X107985714Y-64350057D02*
X107938095Y-64445295D01*
X107938095Y-64445295D02*
X107890476Y-64635771D01*
X107890476Y-64635771D02*
X107890476Y-64873866D01*
X107890476Y-64873866D02*
X107938095Y-65064342D01*
X107938095Y-65064342D02*
X107985714Y-65159580D01*
X107985714Y-65159580D02*
X108033333Y-65207200D01*
X108033333Y-65207200D02*
X108128571Y-65254819D01*
X108128571Y-65254819D02*
X108223809Y-65254819D01*
X108223809Y-65254819D02*
X108319047Y-65207200D01*
X108319047Y-65207200D02*
X108366666Y-65159580D01*
X108366666Y-65159580D02*
X108414285Y-65064342D01*
X108414285Y-65064342D02*
X108461904Y-64873866D01*
X108461904Y-64873866D02*
X108461904Y-64635771D01*
X108461904Y-64635771D02*
X108414285Y-64445295D01*
X108414285Y-64445295D02*
X108366666Y-64350057D01*
X108366666Y-64350057D02*
X108319047Y-64302438D01*
X108319047Y-64302438D02*
X108223809Y-64254819D01*
X107033333Y-64588152D02*
X107033333Y-65254819D01*
X107461904Y-64588152D02*
X107461904Y-65111961D01*
X107461904Y-65111961D02*
X107414285Y-65207200D01*
X107414285Y-65207200D02*
X107319047Y-65254819D01*
X107319047Y-65254819D02*
X107176190Y-65254819D01*
X107176190Y-65254819D02*
X107080952Y-65207200D01*
X107080952Y-65207200D02*
X107033333Y-65159580D01*
X136538094Y-59354819D02*
X135919047Y-59354819D01*
X135919047Y-59354819D02*
X136252380Y-59735771D01*
X136252380Y-59735771D02*
X136109523Y-59735771D01*
X136109523Y-59735771D02*
X136014285Y-59783390D01*
X136014285Y-59783390D02*
X135966666Y-59831009D01*
X135966666Y-59831009D02*
X135919047Y-59926247D01*
X135919047Y-59926247D02*
X135919047Y-60164342D01*
X135919047Y-60164342D02*
X135966666Y-60259580D01*
X135966666Y-60259580D02*
X136014285Y-60307200D01*
X136014285Y-60307200D02*
X136109523Y-60354819D01*
X136109523Y-60354819D02*
X136395237Y-60354819D01*
X136395237Y-60354819D02*
X136490475Y-60307200D01*
X136490475Y-60307200D02*
X136538094Y-60259580D01*
X135633332Y-59354819D02*
X135299999Y-60354819D01*
X135299999Y-60354819D02*
X134966666Y-59354819D01*
X134728570Y-59354819D02*
X134109523Y-59354819D01*
X134109523Y-59354819D02*
X134442856Y-59735771D01*
X134442856Y-59735771D02*
X134299999Y-59735771D01*
X134299999Y-59735771D02*
X134204761Y-59783390D01*
X134204761Y-59783390D02*
X134157142Y-59831009D01*
X134157142Y-59831009D02*
X134109523Y-59926247D01*
X134109523Y-59926247D02*
X134109523Y-60164342D01*
X134109523Y-60164342D02*
X134157142Y-60259580D01*
X134157142Y-60259580D02*
X134204761Y-60307200D01*
X134204761Y-60307200D02*
X134299999Y-60354819D01*
X134299999Y-60354819D02*
X134585713Y-60354819D01*
X134585713Y-60354819D02*
X134680951Y-60307200D01*
X134680951Y-60307200D02*
X134728570Y-60259580D01*
X135919047Y-67854819D02*
X136490475Y-67854819D01*
X136204761Y-67854819D02*
X136204761Y-66854819D01*
X136204761Y-66854819D02*
X136299999Y-66997676D01*
X136299999Y-66997676D02*
X136395237Y-67092914D01*
X136395237Y-67092914D02*
X136490475Y-67140533D01*
X135633332Y-66854819D02*
X135299999Y-67854819D01*
X135299999Y-67854819D02*
X134966666Y-66854819D01*
X134490475Y-67283390D02*
X134585713Y-67235771D01*
X134585713Y-67235771D02*
X134633332Y-67188152D01*
X134633332Y-67188152D02*
X134680951Y-67092914D01*
X134680951Y-67092914D02*
X134680951Y-67045295D01*
X134680951Y-67045295D02*
X134633332Y-66950057D01*
X134633332Y-66950057D02*
X134585713Y-66902438D01*
X134585713Y-66902438D02*
X134490475Y-66854819D01*
X134490475Y-66854819D02*
X134299999Y-66854819D01*
X134299999Y-66854819D02*
X134204761Y-66902438D01*
X134204761Y-66902438D02*
X134157142Y-66950057D01*
X134157142Y-66950057D02*
X134109523Y-67045295D01*
X134109523Y-67045295D02*
X134109523Y-67092914D01*
X134109523Y-67092914D02*
X134157142Y-67188152D01*
X134157142Y-67188152D02*
X134204761Y-67235771D01*
X134204761Y-67235771D02*
X134299999Y-67283390D01*
X134299999Y-67283390D02*
X134490475Y-67283390D01*
X134490475Y-67283390D02*
X134585713Y-67331009D01*
X134585713Y-67331009D02*
X134633332Y-67378628D01*
X134633332Y-67378628D02*
X134680951Y-67473866D01*
X134680951Y-67473866D02*
X134680951Y-67664342D01*
X134680951Y-67664342D02*
X134633332Y-67759580D01*
X134633332Y-67759580D02*
X134585713Y-67807200D01*
X134585713Y-67807200D02*
X134490475Y-67854819D01*
X134490475Y-67854819D02*
X134299999Y-67854819D01*
X134299999Y-67854819D02*
X134204761Y-67807200D01*
X134204761Y-67807200D02*
X134157142Y-67759580D01*
X134157142Y-67759580D02*
X134109523Y-67664342D01*
X134109523Y-67664342D02*
X134109523Y-67473866D01*
X134109523Y-67473866D02*
X134157142Y-67378628D01*
X134157142Y-67378628D02*
X134204761Y-67331009D01*
X134204761Y-67331009D02*
X134299999Y-67283390D01*
X64638094Y-65454819D02*
X64638094Y-64454819D01*
X64638094Y-64454819D02*
X64399999Y-64454819D01*
X64399999Y-64454819D02*
X64257142Y-64502438D01*
X64257142Y-64502438D02*
X64161904Y-64597676D01*
X64161904Y-64597676D02*
X64114285Y-64692914D01*
X64114285Y-64692914D02*
X64066666Y-64883390D01*
X64066666Y-64883390D02*
X64066666Y-65026247D01*
X64066666Y-65026247D02*
X64114285Y-65216723D01*
X64114285Y-65216723D02*
X64161904Y-65311961D01*
X64161904Y-65311961D02*
X64257142Y-65407200D01*
X64257142Y-65407200D02*
X64399999Y-65454819D01*
X64399999Y-65454819D02*
X64638094Y-65454819D01*
X63685713Y-64550057D02*
X63638094Y-64502438D01*
X63638094Y-64502438D02*
X63542856Y-64454819D01*
X63542856Y-64454819D02*
X63304761Y-64454819D01*
X63304761Y-64454819D02*
X63209523Y-64502438D01*
X63209523Y-64502438D02*
X63161904Y-64550057D01*
X63161904Y-64550057D02*
X63114285Y-64645295D01*
X63114285Y-64645295D02*
X63114285Y-64740533D01*
X63114285Y-64740533D02*
X63161904Y-64883390D01*
X63161904Y-64883390D02*
X63733332Y-65454819D01*
X63733332Y-65454819D02*
X63114285Y-65454819D01*
X103852380Y-65354819D02*
X104328570Y-65354819D01*
X104328570Y-65354819D02*
X104328570Y-64354819D01*
X103519046Y-65354819D02*
X103519046Y-64354819D01*
X103519046Y-64354819D02*
X103185713Y-65069104D01*
X103185713Y-65069104D02*
X102852380Y-64354819D01*
X102852380Y-64354819D02*
X102852380Y-65354819D01*
X102471427Y-64354819D02*
X101852380Y-64354819D01*
X101852380Y-64354819D02*
X102185713Y-64735771D01*
X102185713Y-64735771D02*
X102042856Y-64735771D01*
X102042856Y-64735771D02*
X101947618Y-64783390D01*
X101947618Y-64783390D02*
X101899999Y-64831009D01*
X101899999Y-64831009D02*
X101852380Y-64926247D01*
X101852380Y-64926247D02*
X101852380Y-65164342D01*
X101852380Y-65164342D02*
X101899999Y-65259580D01*
X101899999Y-65259580D02*
X101947618Y-65307200D01*
X101947618Y-65307200D02*
X102042856Y-65354819D01*
X102042856Y-65354819D02*
X102328570Y-65354819D01*
X102328570Y-65354819D02*
X102423808Y-65307200D01*
X102423808Y-65307200D02*
X102471427Y-65259580D01*
X100995237Y-64354819D02*
X101185713Y-64354819D01*
X101185713Y-64354819D02*
X101280951Y-64402438D01*
X101280951Y-64402438D02*
X101328570Y-64450057D01*
X101328570Y-64450057D02*
X101423808Y-64592914D01*
X101423808Y-64592914D02*
X101471427Y-64783390D01*
X101471427Y-64783390D02*
X101471427Y-65164342D01*
X101471427Y-65164342D02*
X101423808Y-65259580D01*
X101423808Y-65259580D02*
X101376189Y-65307200D01*
X101376189Y-65307200D02*
X101280951Y-65354819D01*
X101280951Y-65354819D02*
X101090475Y-65354819D01*
X101090475Y-65354819D02*
X100995237Y-65307200D01*
X100995237Y-65307200D02*
X100947618Y-65259580D01*
X100947618Y-65259580D02*
X100899999Y-65164342D01*
X100899999Y-65164342D02*
X100899999Y-64926247D01*
X100899999Y-64926247D02*
X100947618Y-64831009D01*
X100947618Y-64831009D02*
X100995237Y-64783390D01*
X100995237Y-64783390D02*
X101090475Y-64735771D01*
X101090475Y-64735771D02*
X101280951Y-64735771D01*
X101280951Y-64735771D02*
X101376189Y-64783390D01*
X101376189Y-64783390D02*
X101423808Y-64831009D01*
X101423808Y-64831009D02*
X101471427Y-64926247D01*
X100566665Y-64354819D02*
X99899999Y-64354819D01*
X99899999Y-64354819D02*
X100328570Y-65354819D01*
X99328570Y-64354819D02*
X99233332Y-64354819D01*
X99233332Y-64354819D02*
X99138094Y-64402438D01*
X99138094Y-64402438D02*
X99090475Y-64450057D01*
X99090475Y-64450057D02*
X99042856Y-64545295D01*
X99042856Y-64545295D02*
X98995237Y-64735771D01*
X98995237Y-64735771D02*
X98995237Y-64973866D01*
X98995237Y-64973866D02*
X99042856Y-65164342D01*
X99042856Y-65164342D02*
X99090475Y-65259580D01*
X99090475Y-65259580D02*
X99138094Y-65307200D01*
X99138094Y-65307200D02*
X99233332Y-65354819D01*
X99233332Y-65354819D02*
X99328570Y-65354819D01*
X99328570Y-65354819D02*
X99423808Y-65307200D01*
X99423808Y-65307200D02*
X99471427Y-65259580D01*
X99471427Y-65259580D02*
X99519046Y-65164342D01*
X99519046Y-65164342D02*
X99566665Y-64973866D01*
X99566665Y-64973866D02*
X99566665Y-64735771D01*
X99566665Y-64735771D02*
X99519046Y-64545295D01*
X99519046Y-64545295D02*
X99471427Y-64450057D01*
X99471427Y-64450057D02*
X99423808Y-64402438D01*
X99423808Y-64402438D02*
X99328570Y-64354819D01*
X98566665Y-65354819D02*
X98566665Y-64354819D01*
X98566665Y-64354819D02*
X98233332Y-65069104D01*
X98233332Y-65069104D02*
X97899999Y-64354819D01*
X97899999Y-64354819D02*
X97899999Y-65354819D01*
X97090475Y-64831009D02*
X97423808Y-64831009D01*
X97423808Y-65354819D02*
X97423808Y-64354819D01*
X97423808Y-64354819D02*
X96947618Y-64354819D01*
X96661903Y-64354819D02*
X95995237Y-65354819D01*
X95995237Y-64354819D02*
X96661903Y-65354819D01*
X95614284Y-64973866D02*
X94852380Y-64973866D01*
X93852380Y-65354819D02*
X94423808Y-65354819D01*
X94138094Y-65354819D02*
X94138094Y-64354819D01*
X94138094Y-64354819D02*
X94233332Y-64497676D01*
X94233332Y-64497676D02*
X94328570Y-64592914D01*
X94328570Y-64592914D02*
X94423808Y-64640533D01*
X93423808Y-65259580D02*
X93376189Y-65307200D01*
X93376189Y-65307200D02*
X93423808Y-65354819D01*
X93423808Y-65354819D02*
X93471427Y-65307200D01*
X93471427Y-65307200D02*
X93423808Y-65259580D01*
X93423808Y-65259580D02*
X93423808Y-65354819D01*
X92804761Y-64783390D02*
X92899999Y-64735771D01*
X92899999Y-64735771D02*
X92947618Y-64688152D01*
X92947618Y-64688152D02*
X92995237Y-64592914D01*
X92995237Y-64592914D02*
X92995237Y-64545295D01*
X92995237Y-64545295D02*
X92947618Y-64450057D01*
X92947618Y-64450057D02*
X92899999Y-64402438D01*
X92899999Y-64402438D02*
X92804761Y-64354819D01*
X92804761Y-64354819D02*
X92614285Y-64354819D01*
X92614285Y-64354819D02*
X92519047Y-64402438D01*
X92519047Y-64402438D02*
X92471428Y-64450057D01*
X92471428Y-64450057D02*
X92423809Y-64545295D01*
X92423809Y-64545295D02*
X92423809Y-64592914D01*
X92423809Y-64592914D02*
X92471428Y-64688152D01*
X92471428Y-64688152D02*
X92519047Y-64735771D01*
X92519047Y-64735771D02*
X92614285Y-64783390D01*
X92614285Y-64783390D02*
X92804761Y-64783390D01*
X92804761Y-64783390D02*
X92899999Y-64831009D01*
X92899999Y-64831009D02*
X92947618Y-64878628D01*
X92947618Y-64878628D02*
X92995237Y-64973866D01*
X92995237Y-64973866D02*
X92995237Y-65164342D01*
X92995237Y-65164342D02*
X92947618Y-65259580D01*
X92947618Y-65259580D02*
X92899999Y-65307200D01*
X92899999Y-65307200D02*
X92804761Y-65354819D01*
X92804761Y-65354819D02*
X92614285Y-65354819D01*
X92614285Y-65354819D02*
X92519047Y-65307200D01*
X92519047Y-65307200D02*
X92471428Y-65259580D01*
X92471428Y-65259580D02*
X92423809Y-65164342D01*
X92423809Y-65164342D02*
X92423809Y-64973866D01*
X92423809Y-64973866D02*
X92471428Y-64878628D01*
X92471428Y-64878628D02*
X92519047Y-64831009D01*
X92519047Y-64831009D02*
X92614285Y-64783390D01*
X64238095Y-53454819D02*
X64714285Y-53454819D01*
X64714285Y-53454819D02*
X64761904Y-53931009D01*
X64761904Y-53931009D02*
X64714285Y-53883390D01*
X64714285Y-53883390D02*
X64619047Y-53835771D01*
X64619047Y-53835771D02*
X64380952Y-53835771D01*
X64380952Y-53835771D02*
X64285714Y-53883390D01*
X64285714Y-53883390D02*
X64238095Y-53931009D01*
X64238095Y-53931009D02*
X64190476Y-54026247D01*
X64190476Y-54026247D02*
X64190476Y-54264342D01*
X64190476Y-54264342D02*
X64238095Y-54359580D01*
X64238095Y-54359580D02*
X64285714Y-54407200D01*
X64285714Y-54407200D02*
X64380952Y-54454819D01*
X64380952Y-54454819D02*
X64619047Y-54454819D01*
X64619047Y-54454819D02*
X64714285Y-54407200D01*
X64714285Y-54407200D02*
X64761904Y-54359580D01*
X63761904Y-54454819D02*
X63761904Y-53454819D01*
X63190476Y-54454819D02*
X63619047Y-53883390D01*
X63190476Y-53454819D02*
X63761904Y-54026247D01*
X62238095Y-54454819D02*
X62809523Y-54454819D01*
X62523809Y-54454819D02*
X62523809Y-53454819D01*
X62523809Y-53454819D02*
X62619047Y-53597676D01*
X62619047Y-53597676D02*
X62714285Y-53692914D01*
X62714285Y-53692914D02*
X62809523Y-53740533D01*
X107138095Y-70288152D02*
X107138095Y-70954819D01*
X107376190Y-69907200D02*
X107614285Y-70621485D01*
X107614285Y-70621485D02*
X106995238Y-70621485D01*
X106185714Y-70288152D02*
X106185714Y-70954819D01*
X106614285Y-70288152D02*
X106614285Y-70811961D01*
X106614285Y-70811961D02*
X106566666Y-70907200D01*
X106566666Y-70907200D02*
X106471428Y-70954819D01*
X106471428Y-70954819D02*
X106328571Y-70954819D01*
X106328571Y-70954819D02*
X106233333Y-70907200D01*
X106233333Y-70907200D02*
X106185714Y-70859580D01*
X105804761Y-69954819D02*
X105138095Y-69954819D01*
X105138095Y-69954819D02*
X105566666Y-70954819D01*
X74742857Y-67954819D02*
X75314285Y-67954819D01*
X75028571Y-67954819D02*
X75028571Y-66954819D01*
X75028571Y-66954819D02*
X75123809Y-67097676D01*
X75123809Y-67097676D02*
X75219047Y-67192914D01*
X75219047Y-67192914D02*
X75314285Y-67240533D01*
X74123809Y-66954819D02*
X74028571Y-66954819D01*
X74028571Y-66954819D02*
X73933333Y-67002438D01*
X73933333Y-67002438D02*
X73885714Y-67050057D01*
X73885714Y-67050057D02*
X73838095Y-67145295D01*
X73838095Y-67145295D02*
X73790476Y-67335771D01*
X73790476Y-67335771D02*
X73790476Y-67573866D01*
X73790476Y-67573866D02*
X73838095Y-67764342D01*
X73838095Y-67764342D02*
X73885714Y-67859580D01*
X73885714Y-67859580D02*
X73933333Y-67907200D01*
X73933333Y-67907200D02*
X74028571Y-67954819D01*
X74028571Y-67954819D02*
X74123809Y-67954819D01*
X74123809Y-67954819D02*
X74219047Y-67907200D01*
X74219047Y-67907200D02*
X74266666Y-67859580D01*
X74266666Y-67859580D02*
X74314285Y-67764342D01*
X74314285Y-67764342D02*
X74361904Y-67573866D01*
X74361904Y-67573866D02*
X74361904Y-67335771D01*
X74361904Y-67335771D02*
X74314285Y-67145295D01*
X74314285Y-67145295D02*
X74266666Y-67050057D01*
X74266666Y-67050057D02*
X74219047Y-67002438D01*
X74219047Y-67002438D02*
X74123809Y-66954819D01*
X72933333Y-67288152D02*
X72933333Y-67954819D01*
X73361904Y-67288152D02*
X73361904Y-67811961D01*
X73361904Y-67811961D02*
X73314285Y-67907200D01*
X73314285Y-67907200D02*
X73219047Y-67954819D01*
X73219047Y-67954819D02*
X73076190Y-67954819D01*
X73076190Y-67954819D02*
X72980952Y-67907200D01*
X72980952Y-67907200D02*
X72933333Y-67859580D01*
X83038095Y-72888152D02*
X83038095Y-73554819D01*
X83276190Y-72507200D02*
X83514285Y-73221485D01*
X83514285Y-73221485D02*
X82895238Y-73221485D01*
X82085714Y-72888152D02*
X82085714Y-73554819D01*
X82514285Y-72888152D02*
X82514285Y-73411961D01*
X82514285Y-73411961D02*
X82466666Y-73507200D01*
X82466666Y-73507200D02*
X82371428Y-73554819D01*
X82371428Y-73554819D02*
X82228571Y-73554819D01*
X82228571Y-73554819D02*
X82133333Y-73507200D01*
X82133333Y-73507200D02*
X82085714Y-73459580D01*
X81704761Y-72554819D02*
X81038095Y-72554819D01*
X81038095Y-72554819D02*
X81466666Y-73554819D01*
X88214285Y-72150057D02*
X88166666Y-72102438D01*
X88166666Y-72102438D02*
X88071428Y-72054819D01*
X88071428Y-72054819D02*
X87833333Y-72054819D01*
X87833333Y-72054819D02*
X87738095Y-72102438D01*
X87738095Y-72102438D02*
X87690476Y-72150057D01*
X87690476Y-72150057D02*
X87642857Y-72245295D01*
X87642857Y-72245295D02*
X87642857Y-72340533D01*
X87642857Y-72340533D02*
X87690476Y-72483390D01*
X87690476Y-72483390D02*
X88261904Y-73054819D01*
X88261904Y-73054819D02*
X87642857Y-73054819D01*
X87261904Y-72150057D02*
X87214285Y-72102438D01*
X87214285Y-72102438D02*
X87119047Y-72054819D01*
X87119047Y-72054819D02*
X86880952Y-72054819D01*
X86880952Y-72054819D02*
X86785714Y-72102438D01*
X86785714Y-72102438D02*
X86738095Y-72150057D01*
X86738095Y-72150057D02*
X86690476Y-72245295D01*
X86690476Y-72245295D02*
X86690476Y-72340533D01*
X86690476Y-72340533D02*
X86738095Y-72483390D01*
X86738095Y-72483390D02*
X87309523Y-73054819D01*
X87309523Y-73054819D02*
X86690476Y-73054819D01*
X85833333Y-72388152D02*
X85833333Y-73054819D01*
X86261904Y-72388152D02*
X86261904Y-72911961D01*
X86261904Y-72911961D02*
X86214285Y-73007200D01*
X86214285Y-73007200D02*
X86119047Y-73054819D01*
X86119047Y-73054819D02*
X85976190Y-73054819D01*
X85976190Y-73054819D02*
X85880952Y-73007200D01*
X85880952Y-73007200D02*
X85833333Y-72959580D01*
X64138095Y-70354819D02*
X64614285Y-70354819D01*
X64614285Y-70354819D02*
X64661904Y-70831009D01*
X64661904Y-70831009D02*
X64614285Y-70783390D01*
X64614285Y-70783390D02*
X64519047Y-70735771D01*
X64519047Y-70735771D02*
X64280952Y-70735771D01*
X64280952Y-70735771D02*
X64185714Y-70783390D01*
X64185714Y-70783390D02*
X64138095Y-70831009D01*
X64138095Y-70831009D02*
X64090476Y-70926247D01*
X64090476Y-70926247D02*
X64090476Y-71164342D01*
X64090476Y-71164342D02*
X64138095Y-71259580D01*
X64138095Y-71259580D02*
X64185714Y-71307200D01*
X64185714Y-71307200D02*
X64280952Y-71354819D01*
X64280952Y-71354819D02*
X64519047Y-71354819D01*
X64519047Y-71354819D02*
X64614285Y-71307200D01*
X64614285Y-71307200D02*
X64661904Y-71259580D01*
X63661904Y-71354819D02*
X63661904Y-70354819D01*
X63090476Y-71354819D02*
X63519047Y-70783390D01*
X63090476Y-70354819D02*
X63661904Y-70926247D01*
X62138095Y-71354819D02*
X62709523Y-71354819D01*
X62423809Y-71354819D02*
X62423809Y-70354819D01*
X62423809Y-70354819D02*
X62519047Y-70497676D01*
X62519047Y-70497676D02*
X62614285Y-70592914D01*
X62614285Y-70592914D02*
X62709523Y-70640533D01*
X85714285Y-67050057D02*
X85666666Y-67002438D01*
X85666666Y-67002438D02*
X85571428Y-66954819D01*
X85571428Y-66954819D02*
X85333333Y-66954819D01*
X85333333Y-66954819D02*
X85238095Y-67002438D01*
X85238095Y-67002438D02*
X85190476Y-67050057D01*
X85190476Y-67050057D02*
X85142857Y-67145295D01*
X85142857Y-67145295D02*
X85142857Y-67240533D01*
X85142857Y-67240533D02*
X85190476Y-67383390D01*
X85190476Y-67383390D02*
X85761904Y-67954819D01*
X85761904Y-67954819D02*
X85142857Y-67954819D01*
X84761904Y-67050057D02*
X84714285Y-67002438D01*
X84714285Y-67002438D02*
X84619047Y-66954819D01*
X84619047Y-66954819D02*
X84380952Y-66954819D01*
X84380952Y-66954819D02*
X84285714Y-67002438D01*
X84285714Y-67002438D02*
X84238095Y-67050057D01*
X84238095Y-67050057D02*
X84190476Y-67145295D01*
X84190476Y-67145295D02*
X84190476Y-67240533D01*
X84190476Y-67240533D02*
X84238095Y-67383390D01*
X84238095Y-67383390D02*
X84809523Y-67954819D01*
X84809523Y-67954819D02*
X84190476Y-67954819D01*
X83333333Y-67288152D02*
X83333333Y-67954819D01*
X83761904Y-67288152D02*
X83761904Y-67811961D01*
X83761904Y-67811961D02*
X83714285Y-67907200D01*
X83714285Y-67907200D02*
X83619047Y-67954819D01*
X83619047Y-67954819D02*
X83476190Y-67954819D01*
X83476190Y-67954819D02*
X83380952Y-67907200D01*
X83380952Y-67907200D02*
X83333333Y-67859580D01*
X135490476Y-51854819D02*
X135966666Y-51854819D01*
X135966666Y-51854819D02*
X136014285Y-52331009D01*
X136014285Y-52331009D02*
X135966666Y-52283390D01*
X135966666Y-52283390D02*
X135871428Y-52235771D01*
X135871428Y-52235771D02*
X135633333Y-52235771D01*
X135633333Y-52235771D02*
X135538095Y-52283390D01*
X135538095Y-52283390D02*
X135490476Y-52331009D01*
X135490476Y-52331009D02*
X135442857Y-52426247D01*
X135442857Y-52426247D02*
X135442857Y-52664342D01*
X135442857Y-52664342D02*
X135490476Y-52759580D01*
X135490476Y-52759580D02*
X135538095Y-52807200D01*
X135538095Y-52807200D02*
X135633333Y-52854819D01*
X135633333Y-52854819D02*
X135871428Y-52854819D01*
X135871428Y-52854819D02*
X135966666Y-52807200D01*
X135966666Y-52807200D02*
X136014285Y-52759580D01*
X135157142Y-51854819D02*
X134823809Y-52854819D01*
X134823809Y-52854819D02*
X134490476Y-51854819D01*
X97538095Y-68488152D02*
X97538095Y-69154819D01*
X97776190Y-68107200D02*
X98014285Y-68821485D01*
X98014285Y-68821485D02*
X97395238Y-68821485D01*
X96585714Y-68488152D02*
X96585714Y-69154819D01*
X97014285Y-68488152D02*
X97014285Y-69011961D01*
X97014285Y-69011961D02*
X96966666Y-69107200D01*
X96966666Y-69107200D02*
X96871428Y-69154819D01*
X96871428Y-69154819D02*
X96728571Y-69154819D01*
X96728571Y-69154819D02*
X96633333Y-69107200D01*
X96633333Y-69107200D02*
X96585714Y-69059580D01*
X96204761Y-68154819D02*
X95538095Y-68154819D01*
X95538095Y-68154819D02*
X95966666Y-69154819D01*
X68738094Y-58454819D02*
X68738094Y-57454819D01*
X68738094Y-57454819D02*
X68499999Y-57454819D01*
X68499999Y-57454819D02*
X68357142Y-57502438D01*
X68357142Y-57502438D02*
X68261904Y-57597676D01*
X68261904Y-57597676D02*
X68214285Y-57692914D01*
X68214285Y-57692914D02*
X68166666Y-57883390D01*
X68166666Y-57883390D02*
X68166666Y-58026247D01*
X68166666Y-58026247D02*
X68214285Y-58216723D01*
X68214285Y-58216723D02*
X68261904Y-58311961D01*
X68261904Y-58311961D02*
X68357142Y-58407200D01*
X68357142Y-58407200D02*
X68499999Y-58454819D01*
X68499999Y-58454819D02*
X68738094Y-58454819D01*
X67214285Y-58454819D02*
X67785713Y-58454819D01*
X67499999Y-58454819D02*
X67499999Y-57454819D01*
X67499999Y-57454819D02*
X67595237Y-57597676D01*
X67595237Y-57597676D02*
X67690475Y-57692914D01*
X67690475Y-57692914D02*
X67785713Y-57740533D01*
X127861904Y-51802438D02*
X127957142Y-51754819D01*
X127957142Y-51754819D02*
X128099999Y-51754819D01*
X128099999Y-51754819D02*
X128242856Y-51802438D01*
X128242856Y-51802438D02*
X128338094Y-51897676D01*
X128338094Y-51897676D02*
X128385713Y-51992914D01*
X128385713Y-51992914D02*
X128433332Y-52183390D01*
X128433332Y-52183390D02*
X128433332Y-52326247D01*
X128433332Y-52326247D02*
X128385713Y-52516723D01*
X128385713Y-52516723D02*
X128338094Y-52611961D01*
X128338094Y-52611961D02*
X128242856Y-52707200D01*
X128242856Y-52707200D02*
X128099999Y-52754819D01*
X128099999Y-52754819D02*
X128004761Y-52754819D01*
X128004761Y-52754819D02*
X127861904Y-52707200D01*
X127861904Y-52707200D02*
X127814285Y-52659580D01*
X127814285Y-52659580D02*
X127814285Y-52326247D01*
X127814285Y-52326247D02*
X128004761Y-52326247D01*
X127385713Y-52754819D02*
X127385713Y-51754819D01*
X127385713Y-51754819D02*
X126814285Y-52754819D01*
X126814285Y-52754819D02*
X126814285Y-51754819D01*
X126338094Y-52754819D02*
X126338094Y-51754819D01*
X126338094Y-51754819D02*
X126099999Y-51754819D01*
X126099999Y-51754819D02*
X125957142Y-51802438D01*
X125957142Y-51802438D02*
X125861904Y-51897676D01*
X125861904Y-51897676D02*
X125814285Y-51992914D01*
X125814285Y-51992914D02*
X125766666Y-52183390D01*
X125766666Y-52183390D02*
X125766666Y-52326247D01*
X125766666Y-52326247D02*
X125814285Y-52516723D01*
X125814285Y-52516723D02*
X125861904Y-52611961D01*
X125861904Y-52611961D02*
X125957142Y-52707200D01*
X125957142Y-52707200D02*
X126099999Y-52754819D01*
X126099999Y-52754819D02*
X126338094Y-52754819D01*
X80219047Y-65854819D02*
X80790475Y-65854819D01*
X80504761Y-65854819D02*
X80504761Y-64854819D01*
X80504761Y-64854819D02*
X80599999Y-64997676D01*
X80599999Y-64997676D02*
X80695237Y-65092914D01*
X80695237Y-65092914D02*
X80790475Y-65140533D01*
X79599999Y-64854819D02*
X79504761Y-64854819D01*
X79504761Y-64854819D02*
X79409523Y-64902438D01*
X79409523Y-64902438D02*
X79361904Y-64950057D01*
X79361904Y-64950057D02*
X79314285Y-65045295D01*
X79314285Y-65045295D02*
X79266666Y-65235771D01*
X79266666Y-65235771D02*
X79266666Y-65473866D01*
X79266666Y-65473866D02*
X79314285Y-65664342D01*
X79314285Y-65664342D02*
X79361904Y-65759580D01*
X79361904Y-65759580D02*
X79409523Y-65807200D01*
X79409523Y-65807200D02*
X79504761Y-65854819D01*
X79504761Y-65854819D02*
X79599999Y-65854819D01*
X79599999Y-65854819D02*
X79695237Y-65807200D01*
X79695237Y-65807200D02*
X79742856Y-65759580D01*
X79742856Y-65759580D02*
X79790475Y-65664342D01*
X79790475Y-65664342D02*
X79838094Y-65473866D01*
X79838094Y-65473866D02*
X79838094Y-65235771D01*
X79838094Y-65235771D02*
X79790475Y-65045295D01*
X79790475Y-65045295D02*
X79742856Y-64950057D01*
X79742856Y-64950057D02*
X79695237Y-64902438D01*
X79695237Y-64902438D02*
X79599999Y-64854819D01*
X78647618Y-64854819D02*
X78552380Y-64854819D01*
X78552380Y-64854819D02*
X78457142Y-64902438D01*
X78457142Y-64902438D02*
X78409523Y-64950057D01*
X78409523Y-64950057D02*
X78361904Y-65045295D01*
X78361904Y-65045295D02*
X78314285Y-65235771D01*
X78314285Y-65235771D02*
X78314285Y-65473866D01*
X78314285Y-65473866D02*
X78361904Y-65664342D01*
X78361904Y-65664342D02*
X78409523Y-65759580D01*
X78409523Y-65759580D02*
X78457142Y-65807200D01*
X78457142Y-65807200D02*
X78552380Y-65854819D01*
X78552380Y-65854819D02*
X78647618Y-65854819D01*
X78647618Y-65854819D02*
X78742856Y-65807200D01*
X78742856Y-65807200D02*
X78790475Y-65759580D01*
X78790475Y-65759580D02*
X78838094Y-65664342D01*
X78838094Y-65664342D02*
X78885713Y-65473866D01*
X78885713Y-65473866D02*
X78885713Y-65235771D01*
X78885713Y-65235771D02*
X78838094Y-65045295D01*
X78838094Y-65045295D02*
X78790475Y-64950057D01*
X78790475Y-64950057D02*
X78742856Y-64902438D01*
X78742856Y-64902438D02*
X78647618Y-64854819D01*
X77885713Y-65188152D02*
X77885713Y-65854819D01*
X77885713Y-65283390D02*
X77838094Y-65235771D01*
X77838094Y-65235771D02*
X77742856Y-65188152D01*
X77742856Y-65188152D02*
X77599999Y-65188152D01*
X77599999Y-65188152D02*
X77504761Y-65235771D01*
X77504761Y-65235771D02*
X77457142Y-65331009D01*
X77457142Y-65331009D02*
X77457142Y-65854819D01*
D13*
%TO.C,J3*%
X118965000Y-71595000D02*
X118965000Y-70645000D01*
X119030000Y-69067470D02*
X119030000Y-68425000D01*
X119030000Y-69885000D02*
X119030000Y-69682530D01*
X119725000Y-71595000D02*
X118965000Y-71595000D01*
X120360000Y-71595000D02*
X120360000Y-71405000D01*
X125500000Y-68425000D02*
X119030000Y-68425000D01*
X125500000Y-69067470D02*
X125500000Y-68425000D01*
X125500000Y-70337470D02*
X125500000Y-69682530D01*
X125500000Y-71595000D02*
X120360000Y-71595000D01*
X125500000Y-71595000D02*
X125500000Y-70952530D01*
%TO.C,U2*%
X75940000Y-69200000D02*
X75940000Y-70000000D01*
X75940000Y-70800000D02*
X75940000Y-70000000D01*
X79060000Y-69200000D02*
X79060000Y-70000000D01*
X79060000Y-70800000D02*
X79060000Y-70000000D01*
X79340000Y-71540000D02*
X79010000Y-71300000D01*
X79340000Y-71060000D01*
X79340000Y-71540000D01*
G36*
X79340000Y-71540000D02*
G01*
X79010000Y-71300000D01*
X79340000Y-71060000D01*
X79340000Y-71540000D01*
G37*
%TO.C,C1*%
X108190000Y-67646267D02*
X108190000Y-67353733D01*
X109210000Y-67646267D02*
X109210000Y-67353733D01*
%TO.C,TP2*%
X134400000Y-62500000D02*
G75*
G02*
X130600000Y-62500000I-1900000J0D01*
G01*
X130600000Y-62500000D02*
G75*
G02*
X134400000Y-62500000I1900000J0D01*
G01*
%TO.C,TP1*%
X134400000Y-70000000D02*
G75*
G02*
X130600000Y-70000000I-1900000J0D01*
G01*
X130600000Y-70000000D02*
G75*
G02*
X134400000Y-70000000I1900000J0D01*
G01*
%TO.C,D2*%
X63400000Y-64010000D02*
X63400000Y-62050000D01*
X63400000Y-64010000D02*
X64600000Y-64010000D01*
X64600000Y-64010000D02*
X64600000Y-62050000D01*
%TO.C,U1*%
X101700000Y-65940000D02*
X102500000Y-65940000D01*
X101700000Y-69060000D02*
X102500000Y-69060000D01*
X103300000Y-65940000D02*
X102500000Y-65940000D01*
X103300000Y-69060000D02*
X102500000Y-69060000D01*
X101440000Y-69340000D02*
X100960000Y-69340000D01*
X101200000Y-69010000D01*
X101440000Y-69340000D01*
G36*
X101440000Y-69340000D02*
G01*
X100960000Y-69340000D01*
X101200000Y-69010000D01*
X101440000Y-69340000D01*
G37*
%TO.C,R2*%
X63477500Y-56745276D02*
X63477500Y-57254724D01*
X64522500Y-56745276D02*
X64522500Y-57254724D01*
%TO.C,L1*%
X105190000Y-67238748D02*
X105190000Y-67761252D01*
X107410000Y-67238748D02*
X107410000Y-67761252D01*
%TO.C,C7*%
X74045374Y-69848338D02*
X74045374Y-70140872D01*
X75065374Y-69848338D02*
X75065374Y-70140872D01*
%TO.C,L2*%
X81190000Y-70361252D02*
X81190000Y-69838748D01*
X83410000Y-70361252D02*
X83410000Y-69838748D01*
%TO.C,C6*%
X86490000Y-69753733D02*
X86490000Y-70046267D01*
X87510000Y-69753733D02*
X87510000Y-70046267D01*
%TO.C,R1*%
X63477500Y-68254724D02*
X63477500Y-67745276D01*
X64522500Y-68254724D02*
X64522500Y-67745276D01*
%TO.C,C5*%
X84590000Y-69753733D02*
X84590000Y-70046267D01*
X85610000Y-69753733D02*
X85610000Y-70046267D01*
%TO.C,TP3*%
X134400000Y-55000000D02*
G75*
G02*
X130600000Y-55000000I-1900000J0D01*
G01*
X130600000Y-55000000D02*
G75*
G02*
X134400000Y-55000000I1900000J0D01*
G01*
%TO.C,C2*%
X98490000Y-67746267D02*
X98490000Y-67453733D01*
X99510000Y-67746267D02*
X99510000Y-67453733D01*
%TO.C,D1*%
X67400000Y-59240000D02*
X67400000Y-61200000D01*
X68600000Y-59240000D02*
X67400000Y-59240000D01*
X68600000Y-59240000D02*
X68600000Y-61200000D01*
%TO.C,TP4*%
X126200000Y-54900000D02*
G75*
G02*
X122400000Y-54900000I-1900000J0D01*
G01*
X122400000Y-54900000D02*
G75*
G02*
X126200000Y-54900000I1900000J0D01*
G01*
%TO.C,C4*%
X79590000Y-68046267D02*
X79590000Y-67753733D01*
X80610000Y-68046267D02*
X80610000Y-67753733D01*
%TO.C,J2*%
X48715000Y-57520000D02*
X50420000Y-57520000D01*
X48715000Y-66680000D02*
X48715000Y-57520000D01*
X50420000Y-66680000D02*
X48715000Y-66680000D01*
X52430000Y-66680000D02*
X54350000Y-66680000D01*
X54350000Y-57520000D02*
X52430000Y-57520000D01*
%TD*%
%LPC*%
D14*
%TO.C,H1*%
X53600000Y-70600000D03*
%TD*%
%TO.C,H2*%
X53600000Y-53600000D03*
%TD*%
D15*
%TO.C,J3*%
X119725000Y-70645000D03*
D16*
X119725000Y-69375000D03*
X120995000Y-70645000D03*
X120995000Y-69375000D03*
X122265000Y-70645000D03*
X122265000Y-69375000D03*
X123535000Y-70645000D03*
X123535000Y-69375000D03*
X124805000Y-70645000D03*
X124805000Y-69375000D03*
%TD*%
D17*
%TO.C,U2*%
X78450000Y-71137500D03*
X77500000Y-71137500D03*
X76550000Y-71137500D03*
X76550000Y-68862500D03*
X77500000Y-68862500D03*
X78450000Y-68862500D03*
%TD*%
D18*
%TO.C,C1*%
X108700000Y-66637500D03*
X108700000Y-68362500D03*
%TD*%
D19*
%TO.C,TP2*%
X132500000Y-62500000D03*
%TD*%
%TO.C,TP1*%
X132500000Y-70000000D03*
%TD*%
D20*
%TO.C,D2*%
X64000000Y-63450000D03*
X64000000Y-62050000D03*
%TD*%
D21*
%TO.C,U1*%
X101362500Y-68450000D03*
X101362500Y-67500000D03*
X101362500Y-66550000D03*
X103637500Y-66550000D03*
X103637500Y-68450000D03*
%TD*%
D22*
%TO.C,R2*%
X64000000Y-57912500D03*
X64000000Y-56087500D03*
%TD*%
D23*
%TO.C,L1*%
X106300000Y-68662500D03*
X106300000Y-66337500D03*
%TD*%
D24*
%TO.C,C7*%
X74555374Y-70857105D03*
X74555374Y-69132105D03*
%TD*%
D25*
%TO.C,L2*%
X82300000Y-68937500D03*
X82300000Y-71262500D03*
%TD*%
D24*
%TO.C,C6*%
X87000000Y-70762500D03*
X87000000Y-69037500D03*
%TD*%
D26*
%TO.C,R1*%
X64000000Y-67087500D03*
X64000000Y-68912500D03*
%TD*%
D24*
%TO.C,C5*%
X85100000Y-70762500D03*
X85100000Y-69037500D03*
%TD*%
D19*
%TO.C,TP3*%
X132500000Y-55000000D03*
%TD*%
D18*
%TO.C,C2*%
X99000000Y-66737500D03*
X99000000Y-68462500D03*
%TD*%
D27*
%TO.C,D1*%
X68000000Y-59800000D03*
X68000000Y-61200000D03*
%TD*%
D19*
%TO.C,TP4*%
X124300000Y-54900000D03*
%TD*%
D18*
%TO.C,C4*%
X80100000Y-67037500D03*
X80100000Y-68762500D03*
%TD*%
D28*
%TO.C,J2*%
X55105000Y-64990000D03*
X55105000Y-59210000D03*
D29*
X56225000Y-65300000D03*
X56225000Y-64500000D03*
D30*
X56225000Y-63350000D03*
X56225000Y-62350000D03*
X56225000Y-61850000D03*
X56225000Y-60850000D03*
D29*
X56225000Y-59700000D03*
X56225000Y-58900000D03*
X56225000Y-58900000D03*
X56225000Y-59700000D03*
D30*
X56225000Y-60350000D03*
X56225000Y-61350000D03*
X56225000Y-62850000D03*
X56225000Y-63850000D03*
D29*
X56225000Y-64500000D03*
X56225000Y-65300000D03*
D31*
X51425000Y-66420000D03*
D32*
X55625000Y-66420000D03*
D31*
X51425000Y-57780000D03*
D32*
X55625000Y-57780000D03*
%TD*%
%LPD*%
M02*
