M48
; DRILL file {KiCad 9.0.4-9.0.4-0~ubuntu24.04.1} date 2025-09-15T00:30:53+0200
; FORMAT={-:-/ absolute / metric / decimal}
; #@! TF.CreationDate,2025-09-15T00:30:53+02:00
; #@! TF.GenerationSoftware,Kicad,Pcbnew,9.0.4-9.0.4-0~ubuntu24.04.1
; #@! TF.FileFunction,Plated,1,2,PTH
FMAT,2
METRIC
; #@! TA.AperFunction,Plated,PTH,ViaDrill
T1C0.300
; #@! TA.AperFunction,Plated,PTH,ComponentDrill
T2C0.600
; #@! TA.AperFunction,Plated,PTH,ComponentDrill
T3C0.700
; #@! TA.AperFunction,Plated,PTH,ComponentDrill
T4C1.850
; #@! TA.AperFunction,Plated,PTH,ComponentDrill
T5C3.200
%
G90
G05
T1
X52.0Y-62.0
X54.5Y-62.0
X59.0Y-59.0
X60.0Y-64.5
X62.0Y-63.0
X62.5Y-67.0
X64.0Y-60.0
X65.0Y-73.0
X66.0Y-60.0
X66.0Y-63.0
X67.0Y-71.0
X68.0Y-63.0
X70.0Y-60.0
X70.0Y-63.0
X72.0Y-60.0
X72.0Y-63.0
X74.0Y-60.0
X74.0Y-63.0
X76.0Y-60.0
X76.0Y-63.0
X78.0Y-60.0
X78.0Y-63.0
X80.0Y-60.0
X80.0Y-63.0
X82.0Y-60.0
X82.0Y-63.0
X84.0Y-60.0
X84.0Y-63.0
X86.0Y-60.0
X86.0Y-63.0
X88.0Y-60.0
X88.0Y-63.0
X90.0Y-60.0
X90.0Y-63.0
X92.0Y-60.0
X92.0Y-63.0
X94.0Y-60.0
X94.0Y-63.0
X95.5Y-72.0
X96.0Y-60.0
X96.0Y-63.0
X97.5Y-70.4
X97.5Y-73.0
X98.0Y-60.0
X98.0Y-63.0
X99.0Y-69.7
X99.5Y-72.0
X100.0Y-60.0
X100.0Y-63.0
X100.0Y-65.0
X100.0Y-67.9
X100.0Y-68.5
X102.0Y-60.0
X102.0Y-63.0
X102.0Y-65.0
X102.4Y-67.5
X104.0Y-60.0
X104.0Y-63.0
X104.0Y-65.0
X105.0Y-70.0
X106.0Y-60.0
X106.0Y-63.0
X107.0Y-72.0
X108.0Y-60.0
X108.0Y-63.0
X110.0Y-60.0
X110.0Y-63.0
X112.0Y-60.0
X112.0Y-63.0
X113.5Y-72.0
X114.0Y-60.0
X114.0Y-63.0
X114.2Y-66.631
X114.5Y-69.5
X114.8Y-71.162
X116.0Y-60.0
X116.0Y-63.0
X116.5Y-66.5
X116.7Y-74.15
X118.0Y-60.0
X118.0Y-63.0
X118.0Y-69.5
X120.0Y-60.0
X120.0Y-65.0
X121.0Y-61.0
X121.0Y-67.0
X121.5Y-64.75
X123.0Y-63.0
X124.0Y-65.0
X126.0Y-68.0
X127.0Y-60.0
X127.0Y-67.0
X128.0Y-57.0
X129.5Y-71.0
X130.0Y-60.0
X130.0Y-65.5
T3
X119.725Y-69.375
X119.725Y-70.645
X120.995Y-69.375
X120.995Y-70.645
X122.265Y-69.375
X122.265Y-70.645
X123.535Y-69.375
X123.535Y-70.645
X124.805Y-69.375
X124.805Y-70.645
T4
X124.3Y-54.9
X132.5Y-55.0
X132.5Y-62.5
X132.5Y-70.0
T5
X53.6Y-53.6
X53.6Y-70.6
T2
G00X51.025Y-57.78
M15
G01X51.825Y-57.78
M16
G05
G00X51.025Y-66.42
M15
G01X51.825Y-66.42
M16
G05
G00X55.075Y-57.78
M15
G01X56.175Y-57.78
M16
G05
G00X55.075Y-66.42
M15
G01X56.175Y-66.42
M16
G05
M30
