M48
; DRILL file {KiCad 9.0.4-9.0.4-0~ubuntu24.04.1} date 2025-09-14T23:51:24+0200
; FORMAT={-:-/ absolute / inch / decimal}
; #@! TF.CreationDate,2025-09-14T23:51:24+02:00
; #@! TF.GenerationSoftware,Kicad,Pcbnew,9.0.4-9.0.4-0~ubuntu24.04.1
; #@! TF.FileFunction,Plated,1,2,PTH
FMAT,2
INCH
; #@! TA.AperFunction,Plated,PTH,ComponentDrill
T1C0.0315
; #@! TA.AperFunction,Plated,PTH,ComponentDrill
T2C0.0354
; #@! TA.AperFunction,Plated,PTH,ComponentDrill
T3C0.0394
; #@! TA.AperFunction,Plated,PTH,ComponentDrill
T4C0.0433
; #@! TA.AperFunction,Plated,PTH,ComponentDrill
T5C0.0598
%
G90
G05
T1
X5.3106Y-3.7856
X5.3894Y-3.7856
X5.4681Y-3.7856
T2
X5.2144Y-4.0356
X5.3144Y-4.0356
T3
X5.25Y-2.6852
X5.25Y-4.7362
X5.35Y-2.6852
X5.35Y-4.7362
X5.45Y-2.6852
X5.45Y-4.7362
X6.1144Y-2.7604
X6.1144Y-2.8604
X6.1144Y-4.5606
X6.1144Y-4.6606
T4
X5.2528Y-3.1096
X5.2544Y-4.2706
X5.3528Y-3.1096
X5.3544Y-4.2706
X5.4528Y-3.1096
X5.4544Y-4.2706
T5
X5.6894Y-2.775
X5.6894Y-4.6484
X5.8894Y-2.775
X5.8894Y-4.6484
T3
G00X5.4242Y-3.3726
M15
G01X5.4242Y-3.4514
M16
G05
G00X5.503Y-3.597
M15
G01X5.5817Y-3.597
M16
G05
G00X5.6683Y-3.3628
M15
G01X5.6683Y-3.4612
M16
G05
M30
