%TF.GenerationSoftware,KiCad,Pcbnew,9.0.4-9.0.4-0~ubuntu24.04.1*%
%TF.CreationDate,2025-09-14T23:51:24+02:00*%
%TF.ProjectId,breadboard_power_supply,62726561-6462-46f6-9172-645f706f7765,rev?*%
%TF.SameCoordinates,Original*%
%TF.FileFunction,Soldermask,Top*%
%TF.FilePolarity,Negative*%
%FSLAX46Y46*%
G04 Gerber Fmt 4.6, Leading zero omitted, Abs format (unit mm)*
G04 Created by KiCad (PCBNEW 9.0.4-9.0.4-0~ubuntu24.04.1) date 2025-09-14 23:51:24*
%MOMM*%
%LPD*%
G01*
G04 APERTURE LIST*
G04 Aperture macros list*
%AMRoundRect*
0 Rectangle with rounded corners*
0 $1 Rounding radius*
0 $2 $3 $4 $5 $6 $7 $8 $9 X,Y pos of 4 corners*
0 Add a 4 corners polygon primitive as box body*
4,1,4,$2,$3,$4,$5,$6,$7,$8,$9,$2,$3,0*
0 Add four circle primitives for the rounded corners*
1,1,$1+$1,$2,$3*
1,1,$1+$1,$4,$5*
1,1,$1+$1,$6,$7*
1,1,$1+$1,$8,$9*
0 Add four rect primitives between the rounded corners*
20,1,$1+$1,$2,$3,$4,$5,0*
20,1,$1+$1,$4,$5,$6,$7,0*
20,1,$1+$1,$6,$7,$8,$9,0*
20,1,$1+$1,$8,$9,$2,$3,0*%
G04 Aperture macros list end*
%ADD10R,2.000000X4.500000*%
%ADD11O,2.000000X4.000000*%
%ADD12O,4.000000X2.000000*%
%ADD13R,1.800000X1.800000*%
%ADD14C,1.800000*%
%ADD15RoundRect,0.237500X-0.237500X0.300000X-0.237500X-0.300000X0.237500X-0.300000X0.237500X0.300000X0*%
%ADD16RoundRect,0.237500X-0.237500X0.250000X-0.237500X-0.250000X0.237500X-0.250000X0.237500X0.250000X0*%
%ADD17RoundRect,0.237500X0.237500X-0.250000X0.237500X0.250000X-0.237500X0.250000X-0.237500X-0.250000X0*%
%ADD18R,1.905000X2.000000*%
%ADD19O,1.905000X2.000000*%
%ADD20R,3.000000X3.000000*%
%ADD21C,3.000000*%
%ADD22RoundRect,0.102000X-0.654000X-0.654000X0.654000X-0.654000X0.654000X0.654000X-0.654000X0.654000X0*%
%ADD23C,1.512000*%
%ADD24R,1.700000X1.700000*%
%ADD25C,1.700000*%
G04 APERTURE END LIST*
D10*
%TO.C,J1*%
X143975000Y-86665000D03*
D11*
X137775000Y-86665000D03*
D12*
X140775000Y-91365000D03*
%TD*%
D13*
%TO.C,D1*%
X132445000Y-102505000D03*
D14*
X134985000Y-102505000D03*
%TD*%
D15*
%TO.C,C1*%
X133358530Y-72523133D03*
X133358530Y-74248133D03*
%TD*%
D16*
%TO.C,R1*%
X139430000Y-101592500D03*
X139430000Y-103417500D03*
%TD*%
D17*
%TO.C,R3*%
X135882000Y-115329000D03*
X135882000Y-113504000D03*
%TD*%
D18*
%TO.C,U2*%
X133420000Y-78985000D03*
D19*
X135960000Y-78985000D03*
X138500000Y-78985000D03*
%TD*%
D20*
%TO.C,J4*%
X149590000Y-70485000D03*
D21*
X144510000Y-70485000D03*
%TD*%
D15*
%TO.C,C2*%
X137795000Y-72523133D03*
X137795000Y-74248133D03*
%TD*%
D20*
%TO.C,J6*%
X144510000Y-118070000D03*
D21*
X149590000Y-118070000D03*
%TD*%
D22*
%TO.C,S1*%
X134890000Y-96155000D03*
D23*
X136890000Y-96155000D03*
X138890000Y-96155000D03*
%TD*%
D15*
%TO.C,C3*%
X139065000Y-113554000D03*
X139065000Y-115279000D03*
%TD*%
D16*
%TO.C,R2*%
X132699000Y-113504000D03*
X132699000Y-115329000D03*
%TD*%
D24*
%TO.C,J3*%
X155305000Y-70115000D03*
D25*
X155305000Y-72655000D03*
%TD*%
D24*
%TO.C,J2*%
X133350000Y-68205000D03*
D25*
X135890000Y-68205000D03*
X138430000Y-68205000D03*
%TD*%
D24*
%TO.C,J5*%
X133350000Y-120300000D03*
D25*
X135890000Y-120300000D03*
X138430000Y-120300000D03*
%TD*%
D18*
%TO.C,U1*%
X138541000Y-108474000D03*
D19*
X136001000Y-108474000D03*
X133461000Y-108474000D03*
%TD*%
D24*
%TO.C,J7*%
X155305000Y-115840000D03*
D25*
X155305000Y-118380000D03*
%TD*%
M02*
