%TF.GenerationSoftware,KiCad,Pcbnew,9.0.4-9.0.4-0~ubuntu24.04.1*%
%TF.CreationDate,2025-09-14T23:54:27+02:00*%
%TF.ProjectId,breadboard_power_supply,62726561-6462-46f6-9172-645f706f7765,rev?*%
%TF.SameCoordinates,Original*%
%TF.FileFunction,Copper,L1,Top*%
%TF.FilePolarity,Positive*%
%FSLAX46Y46*%
G04 Gerber Fmt 4.6, Leading zero omitted, Abs format (unit mm)*
G04 Created by KiCad (PCBNEW 9.0.4-9.0.4-0~ubuntu24.04.1) date 2025-09-14 23:54:27*
%MOMM*%
%LPD*%
G01*
G04 APERTURE LIST*
G04 Aperture macros list*
%AMRoundRect*
0 Rectangle with rounded corners*
0 $1 Rounding radius*
0 $2 $3 $4 $5 $6 $7 $8 $9 X,Y pos of 4 corners*
0 Add a 4 corners polygon primitive as box body*
4,1,4,$2,$3,$4,$5,$6,$7,$8,$9,$2,$3,0*
0 Add four circle primitives for the rounded corners*
1,1,$1+$1,$2,$3*
1,1,$1+$1,$4,$5*
1,1,$1+$1,$6,$7*
1,1,$1+$1,$8,$9*
0 Add four rect primitives between the rounded corners*
20,1,$1+$1,$2,$3,$4,$5,0*
20,1,$1+$1,$4,$5,$6,$7,0*
20,1,$1+$1,$6,$7,$8,$9,0*
20,1,$1+$1,$8,$9,$2,$3,0*%
G04 Aperture macros list end*
%TA.AperFunction,ComponentPad*%
%ADD10R,2.000000X4.500000*%
%TD*%
%TA.AperFunction,ComponentPad*%
%ADD11O,2.000000X4.000000*%
%TD*%
%TA.AperFunction,ComponentPad*%
%ADD12O,4.000000X2.000000*%
%TD*%
%TA.AperFunction,ComponentPad*%
%ADD13R,1.800000X1.800000*%
%TD*%
%TA.AperFunction,ComponentPad*%
%ADD14C,1.800000*%
%TD*%
%TA.AperFunction,SMDPad,CuDef*%
%ADD15RoundRect,0.237500X-0.237500X0.300000X-0.237500X-0.300000X0.237500X-0.300000X0.237500X0.300000X0*%
%TD*%
%TA.AperFunction,SMDPad,CuDef*%
%ADD16RoundRect,0.237500X-0.237500X0.250000X-0.237500X-0.250000X0.237500X-0.250000X0.237500X0.250000X0*%
%TD*%
%TA.AperFunction,SMDPad,CuDef*%
%ADD17RoundRect,0.237500X0.237500X-0.250000X0.237500X0.250000X-0.237500X0.250000X-0.237500X-0.250000X0*%
%TD*%
%TA.AperFunction,ComponentPad*%
%ADD18R,1.905000X2.000000*%
%TD*%
%TA.AperFunction,ComponentPad*%
%ADD19O,1.905000X2.000000*%
%TD*%
%TA.AperFunction,ComponentPad*%
%ADD20R,3.000000X3.000000*%
%TD*%
%TA.AperFunction,ComponentPad*%
%ADD21C,3.000000*%
%TD*%
%TA.AperFunction,ComponentPad*%
%ADD22R,1.308000X1.308000*%
%TD*%
%TA.AperFunction,ComponentPad*%
%ADD23C,1.308000*%
%TD*%
%TA.AperFunction,ComponentPad*%
%ADD24R,1.700000X1.700000*%
%TD*%
%TA.AperFunction,ComponentPad*%
%ADD25C,1.700000*%
%TD*%
%TA.AperFunction,Conductor*%
%ADD26C,0.250000*%
%TD*%
%TA.AperFunction,Conductor*%
%ADD27C,0.350000*%
%TD*%
G04 APERTURE END LIST*
D10*
%TO.P,J1,1*%
%TO.N,/PWR_input*%
X143975000Y-86665000D03*
D11*
%TO.P,J1,2*%
%TO.N,GND*%
X137775000Y-86665000D03*
D12*
%TO.P,J1,3*%
X140775000Y-91365000D03*
%TD*%
D13*
%TO.P,D1,1,K*%
%TO.N,GND*%
X132445000Y-102505000D03*
D14*
%TO.P,D1,2,A*%
%TO.N,Net-(D1-A)*%
X134985000Y-102505000D03*
%TD*%
D15*
%TO.P,C1,1*%
%TO.N,GND*%
X133358530Y-72523133D03*
%TO.P,C1,2*%
%TO.N,/12V*%
X133358530Y-74248133D03*
%TD*%
D16*
%TO.P,R1,1*%
%TO.N,/12V*%
X139430000Y-101592500D03*
%TO.P,R1,2*%
%TO.N,Net-(D1-A)*%
X139430000Y-103417500D03*
%TD*%
D17*
%TO.P,R3,1*%
%TO.N,GND*%
X135882000Y-115329000D03*
%TO.P,R3,2*%
%TO.N,Net-(U1-ADJ)*%
X135882000Y-113504000D03*
%TD*%
D18*
%TO.P,U2,1,VI*%
%TO.N,/12V*%
X133420000Y-78985000D03*
D19*
%TO.P,U2,2,GND*%
%TO.N,GND*%
X135960000Y-78985000D03*
%TO.P,U2,3,VO*%
%TO.N,/5V*%
X138500000Y-78985000D03*
%TD*%
D20*
%TO.P,J4,1,Pin_1*%
%TO.N,GND*%
X149590000Y-70485000D03*
D21*
%TO.P,J4,2,Pin_2*%
%TO.N,/PWR_output_A*%
X144510000Y-70485000D03*
%TD*%
D15*
%TO.P,C2,1*%
%TO.N,GND*%
X137795000Y-72523133D03*
%TO.P,C2,2*%
%TO.N,/5V*%
X137795000Y-74248133D03*
%TD*%
D20*
%TO.P,J6,1,Pin_1*%
%TO.N,GND*%
X144510000Y-118070000D03*
D21*
%TO.P,J6,2,Pin_2*%
%TO.N,/PWR_output_B*%
X149590000Y-118070000D03*
%TD*%
D22*
%TO.P,S1,1,1*%
%TO.N,/12V*%
X134890000Y-96155000D03*
D23*
%TO.P,S1,2,2*%
%TO.N,/PWR_input*%
X136890000Y-96155000D03*
%TO.P,S1,3,3*%
%TO.N,unconnected-(S1-Pad3)*%
X138890000Y-96155000D03*
%TD*%
D15*
%TO.P,C3,1*%
%TO.N,GND*%
X139065000Y-113554000D03*
%TO.P,C3,2*%
%TO.N,/3.3V*%
X139065000Y-115279000D03*
%TD*%
D16*
%TO.P,R2,1*%
%TO.N,Net-(U1-ADJ)*%
X132699000Y-113504000D03*
%TO.P,R2,2*%
%TO.N,/3.3V*%
X132699000Y-115329000D03*
%TD*%
D24*
%TO.P,J3,1,Pin_1*%
%TO.N,GND*%
X155305000Y-70115000D03*
D25*
%TO.P,J3,2,Pin_2*%
%TO.N,/PWR_output_A*%
X155305000Y-72655000D03*
%TD*%
D24*
%TO.P,J2,1,Pin_1*%
%TO.N,/3.3V*%
X133350000Y-68205000D03*
D25*
%TO.P,J2,2,Pin_2*%
%TO.N,/PWR_output_A*%
X135890000Y-68205000D03*
%TO.P,J2,3,Pin_3*%
%TO.N,/5V*%
X138430000Y-68205000D03*
%TD*%
D24*
%TO.P,J5,1,Pin_1*%
%TO.N,/3.3V*%
X133350000Y-120300000D03*
D25*
%TO.P,J5,2,Pin_2*%
%TO.N,/PWR_output_B*%
X135890000Y-120300000D03*
%TO.P,J5,3,Pin_3*%
%TO.N,/5V*%
X138430000Y-120300000D03*
%TD*%
D18*
%TO.P,U1,1,ADJ*%
%TO.N,Net-(U1-ADJ)*%
X138541000Y-108474000D03*
D19*
%TO.P,U1,2,VO*%
%TO.N,/3.3V*%
X136001000Y-108474000D03*
%TO.P,U1,3,VI*%
%TO.N,/12V*%
X133461000Y-108474000D03*
%TD*%
D24*
%TO.P,J7,1,Pin_1*%
%TO.N,GND*%
X155305000Y-115840000D03*
D25*
%TO.P,J7,2,Pin_2*%
%TO.N,/PWR_output_B*%
X155305000Y-118380000D03*
%TD*%
D26*
%TO.N,GND*%
X135960000Y-78985000D02*
X135960000Y-74358133D01*
X137795000Y-72523133D02*
X133358530Y-72523133D01*
X135960000Y-74358133D02*
X137795000Y-72523133D01*
X142859000Y-111093500D02*
X142859000Y-93449000D01*
X140398500Y-113554000D02*
X142859000Y-111093500D01*
X137290000Y-115329000D02*
X139065000Y-113554000D01*
X139065000Y-113554000D02*
X140398500Y-113554000D01*
X142859000Y-93449000D02*
X140775000Y-91365000D01*
X135882000Y-115329000D02*
X137290000Y-115329000D01*
D27*
%TO.N,/12V*%
X137263000Y-105172000D02*
X135993000Y-106442000D01*
X133461000Y-106950000D02*
X133461000Y-108474000D01*
X133420000Y-78985000D02*
X133420000Y-94685000D01*
X133420000Y-74309603D02*
X133420000Y-78985000D01*
X139430000Y-100695000D02*
X139430000Y-101592500D01*
X135993000Y-106442000D02*
X133969000Y-106442000D01*
X133358530Y-74248133D02*
X133420000Y-74309603D01*
X133420000Y-94685000D02*
X134890000Y-96155000D01*
X133969000Y-106442000D02*
X133461000Y-106950000D01*
X140573000Y-103902000D02*
X139303000Y-105172000D01*
X139303000Y-105172000D02*
X137263000Y-105172000D01*
X134890000Y-96155000D02*
X139430000Y-100695000D01*
X140573000Y-102735500D02*
X140573000Y-103902000D01*
X139430000Y-101592500D02*
X140573000Y-102735500D01*
%TO.N,/5V*%
X145729000Y-82566000D02*
X142148000Y-78985000D01*
X138500000Y-74953133D02*
X137795000Y-74248133D01*
X138500000Y-78985000D02*
X140065000Y-77420000D01*
X142148000Y-78985000D02*
X138500000Y-78985000D01*
X140065000Y-77420000D02*
X140065000Y-69430000D01*
X138885000Y-120255000D02*
X138840000Y-120300000D01*
X140065000Y-69430000D02*
X138840000Y-68205000D01*
X138430000Y-120300000D02*
X145729000Y-113001000D01*
X145729000Y-113001000D02*
X145729000Y-82566000D01*
X138500000Y-78985000D02*
X138500000Y-74953133D01*
%TO.N,/3.3V*%
X132535000Y-119075000D02*
X133760000Y-120300000D01*
X137758000Y-116586000D02*
X139065000Y-115279000D01*
X132699000Y-115329000D02*
X133956000Y-116586000D01*
X136001000Y-109744000D02*
X135493000Y-110252000D01*
X133956000Y-116586000D02*
X137758000Y-116586000D01*
X132699000Y-115075000D02*
X132699000Y-115329000D01*
X136001000Y-109744000D02*
X136001000Y-108474000D01*
X131429000Y-112030000D02*
X131429000Y-113805000D01*
X133207000Y-110252000D02*
X131429000Y-112030000D01*
X132953000Y-115583000D02*
X132953000Y-115837000D01*
X132535000Y-116255000D02*
X132535000Y-119075000D01*
X130382832Y-113872832D02*
X131839000Y-115329000D01*
X135493000Y-110252000D02*
X133207000Y-110252000D01*
X132953000Y-115837000D02*
X132535000Y-116255000D01*
X130382832Y-71172168D02*
X130382832Y-113872832D01*
X131429000Y-113805000D02*
X132699000Y-115075000D01*
X133350000Y-68205000D02*
X130382832Y-71172168D01*
X131839000Y-115329000D02*
X132699000Y-115329000D01*
X132699000Y-115329000D02*
X132953000Y-115583000D01*
D26*
%TO.N,Net-(D1-A)*%
X134985000Y-102505000D02*
X138517500Y-102505000D01*
X138517500Y-102505000D02*
X139430000Y-103417500D01*
D27*
%TO.N,/PWR_input*%
X144610000Y-86665000D02*
X143078000Y-86665000D01*
X136890000Y-92233331D02*
X142458331Y-86665000D01*
X142458331Y-86665000D02*
X143975000Y-86665000D01*
X136890000Y-96155000D02*
X136890000Y-92233331D01*
%TO.N,/PWR_output_A*%
X137166000Y-66929000D02*
X140589000Y-66929000D01*
X146315000Y-72655000D02*
X155305000Y-72655000D01*
X135890000Y-68205000D02*
X137166000Y-66929000D01*
X144145000Y-70485000D02*
X146315000Y-72655000D01*
X140589000Y-66929000D02*
X144145000Y-70485000D01*
D26*
%TO.N,Net-(U1-ADJ)*%
X137223500Y-113504000D02*
X138250000Y-112477500D01*
X138250000Y-108765000D02*
X138541000Y-108474000D01*
X132699000Y-113504000D02*
X136128000Y-113504000D01*
X136128000Y-113504000D02*
X137223500Y-113504000D01*
X138250000Y-112477500D02*
X138250000Y-108765000D01*
D27*
%TO.N,/PWR_output_B*%
X149590000Y-118070000D02*
X154995000Y-118070000D01*
X147248000Y-120412000D02*
X149590000Y-118070000D01*
X154995000Y-118070000D02*
X155305000Y-118380000D01*
X137576000Y-121576000D02*
X140171000Y-121576000D01*
X136300000Y-120300000D02*
X137576000Y-121576000D01*
X141335000Y-120412000D02*
X147248000Y-120412000D01*
X140171000Y-121576000D02*
X141335000Y-120412000D01*
%TD*%
M02*
