%TF.GenerationSoftware,KiCad,Pcbnew,9.0.4-9.0.4-0~ubuntu24.04.1*%
%TF.CreationDate,2025-09-15T00:30:56+02:00*%
%TF.ProjectId,kinect,6b696e65-6374-42e6-9b69-6361645f7063,rev?*%
%TF.SameCoordinates,Original*%
%TF.FileFunction,Soldermask,Bot*%
%TF.FilePolarity,Negative*%
%FSLAX46Y46*%
G04 Gerber Fmt 4.6, Leading zero omitted, Abs format (unit mm)*
G04 Created by KiCad (PCBNEW 9.0.4-9.0.4-0~ubuntu24.04.1) date 2025-09-15 00:30:56*
%MOMM*%
%LPD*%
G01*
G04 APERTURE LIST*
G04 Aperture macros list*
%AMRoundRect*
0 Rectangle with rounded corners*
0 $1 Rounding radius*
0 $2 $3 $4 $5 $6 $7 $8 $9 X,Y pos of 4 corners*
0 Add a 4 corners polygon primitive as box body*
4,1,4,$2,$3,$4,$5,$6,$7,$8,$9,$2,$3,0*
0 Add four circle primitives for the rounded corners*
1,1,$1+$1,$2,$3*
1,1,$1+$1,$4,$5*
1,1,$1+$1,$6,$7*
1,1,$1+$1,$8,$9*
0 Add four rect primitives between the rounded corners*
20,1,$1+$1,$2,$3,$4,$5,0*
20,1,$1+$1,$4,$5,$6,$7,0*
20,1,$1+$1,$6,$7,$8,$9,0*
20,1,$1+$1,$8,$9,$2,$3,0*%
G04 Aperture macros list end*
%ADD10C,5.600000*%
%ADD11R,1.000000X1.000000*%
%ADD12O,1.000000X1.000000*%
%ADD13RoundRect,0.150000X0.150000X-0.512500X0.150000X0.512500X-0.150000X0.512500X-0.150000X-0.512500X0*%
%ADD14RoundRect,0.237500X-0.237500X0.300000X-0.237500X-0.300000X0.237500X-0.300000X0.237500X0.300000X0*%
%ADD15C,3.400000*%
%ADD16RoundRect,0.150000X-0.200000X0.150000X-0.200000X-0.150000X0.200000X-0.150000X0.200000X0.150000X0*%
%ADD17RoundRect,0.150000X-0.512500X-0.150000X0.512500X-0.150000X0.512500X0.150000X-0.512500X0.150000X0*%
%ADD18RoundRect,0.237500X0.237500X-0.250000X0.237500X0.250000X-0.237500X0.250000X-0.237500X-0.250000X0*%
%ADD19RoundRect,0.250001X0.849999X-0.462499X0.849999X0.462499X-0.849999X0.462499X-0.849999X-0.462499X0*%
%ADD20RoundRect,0.237500X0.237500X-0.300000X0.237500X0.300000X-0.237500X0.300000X-0.237500X-0.300000X0*%
%ADD21RoundRect,0.250001X-0.849999X0.462499X-0.849999X-0.462499X0.849999X-0.462499X0.849999X0.462499X0*%
%ADD22RoundRect,0.237500X-0.237500X0.250000X-0.237500X-0.250000X0.237500X-0.250000X0.237500X0.250000X0*%
%ADD23RoundRect,0.150000X0.200000X-0.150000X0.200000X0.150000X-0.200000X0.150000X-0.200000X-0.150000X0*%
%ADD24C,0.650000*%
%ADD25R,1.240000X0.600000*%
%ADD26R,1.240000X0.300000*%
%ADD27O,1.800000X1.000000*%
%ADD28O,2.100000X1.000000*%
G04 APERTURE END LIST*
D10*
%TO.C,H1*%
X53600000Y-70600000D03*
%TD*%
%TO.C,H2*%
X53600000Y-53600000D03*
%TD*%
D11*
%TO.C,J3*%
X119725000Y-70645000D03*
D12*
X119725000Y-69375000D03*
X120995000Y-70645000D03*
X120995000Y-69375000D03*
X122265000Y-70645000D03*
X122265000Y-69375000D03*
X123535000Y-70645000D03*
X123535000Y-69375000D03*
X124805000Y-70645000D03*
X124805000Y-69375000D03*
%TD*%
D13*
%TO.C,U2*%
X78450000Y-71137500D03*
X77500000Y-71137500D03*
X76550000Y-71137500D03*
X76550000Y-68862500D03*
X77500000Y-68862500D03*
X78450000Y-68862500D03*
%TD*%
D14*
%TO.C,C1*%
X108700000Y-66637500D03*
X108700000Y-68362500D03*
%TD*%
D15*
%TO.C,TP2*%
X132500000Y-62500000D03*
%TD*%
%TO.C,TP1*%
X132500000Y-70000000D03*
%TD*%
D16*
%TO.C,D2*%
X64000000Y-63450000D03*
X64000000Y-62050000D03*
%TD*%
D17*
%TO.C,U1*%
X101362500Y-68450000D03*
X101362500Y-67500000D03*
X101362500Y-66550000D03*
X103637500Y-66550000D03*
X103637500Y-68450000D03*
%TD*%
D18*
%TO.C,R2*%
X64000000Y-57912500D03*
X64000000Y-56087500D03*
%TD*%
D19*
%TO.C,L1*%
X106300000Y-68662500D03*
X106300000Y-66337500D03*
%TD*%
D20*
%TO.C,C7*%
X74555374Y-70857105D03*
X74555374Y-69132105D03*
%TD*%
D21*
%TO.C,L2*%
X82300000Y-68937500D03*
X82300000Y-71262500D03*
%TD*%
D20*
%TO.C,C6*%
X87000000Y-70762500D03*
X87000000Y-69037500D03*
%TD*%
D22*
%TO.C,R1*%
X64000000Y-67087500D03*
X64000000Y-68912500D03*
%TD*%
D20*
%TO.C,C5*%
X85100000Y-70762500D03*
X85100000Y-69037500D03*
%TD*%
D15*
%TO.C,TP3*%
X132500000Y-55000000D03*
%TD*%
D14*
%TO.C,C2*%
X99000000Y-66737500D03*
X99000000Y-68462500D03*
%TD*%
D23*
%TO.C,D1*%
X68000000Y-59800000D03*
X68000000Y-61200000D03*
%TD*%
D15*
%TO.C,TP4*%
X124300000Y-54900000D03*
%TD*%
D14*
%TO.C,C4*%
X80100000Y-67037500D03*
X80100000Y-68762500D03*
%TD*%
D24*
%TO.C,J2*%
X55105000Y-64990000D03*
X55105000Y-59210000D03*
D25*
X56225000Y-65300000D03*
X56225000Y-64500000D03*
D26*
X56225000Y-63350000D03*
X56225000Y-62350000D03*
X56225000Y-61850000D03*
X56225000Y-60850000D03*
D25*
X56225000Y-59700000D03*
X56225000Y-58900000D03*
X56225000Y-58900000D03*
X56225000Y-59700000D03*
D26*
X56225000Y-60350000D03*
X56225000Y-61350000D03*
X56225000Y-62850000D03*
X56225000Y-63850000D03*
D25*
X56225000Y-64500000D03*
X56225000Y-65300000D03*
D27*
X51425000Y-66420000D03*
D28*
X55625000Y-66420000D03*
D27*
X51425000Y-57780000D03*
D28*
X55625000Y-57780000D03*
%TD*%
M02*
