%TF.GenerationSoftware,KiCad,Pcbnew,9.0.2-9.0.2-0~ubuntu24.04.1*%
%TF.CreationDate,2025-07-05T20:41:48+02:00*%
%TF.ProjectId,LED_torch,4c45445f-746f-4726-9368-2e6b69636164,0.1*%
%TF.SameCoordinates,Original*%
%TF.FileFunction,Legend,Bot*%
%TF.FilePolarity,Positive*%
%FSLAX46Y46*%
G04 Gerber Fmt 4.6, Leading zero omitted, Abs format (unit mm)*
G04 Created by KiCad (PCBNEW 9.0.2-9.0.2-0~ubuntu24.04.1) date 2025-07-05 20:41:48*
%MOMM*%
%LPD*%
G01*
G04 APERTURE LIST*
%ADD10C,0.200000*%
%ADD11C,0.000000*%
%ADD12C,0.010000*%
%ADD13R,1.800000X1.800000*%
%ADD14C,1.800000*%
%ADD15R,1.700000X1.700000*%
%ADD16C,1.700000*%
%ADD17C,1.400000*%
G04 APERTURE END LIST*
D10*
G36*
X112138860Y-139376988D02*
G01*
X111950000Y-139376988D01*
X111950000Y-139991197D01*
X112969164Y-139991197D01*
X112969164Y-139754770D01*
X112138860Y-139754770D01*
X112138860Y-139376988D01*
G37*
G36*
X112787325Y-139018683D02*
G01*
X112549494Y-139018683D01*
X112549494Y-138698298D01*
X112374616Y-138698298D01*
X112374616Y-139018683D01*
X112131899Y-139018683D01*
X112131899Y-138600357D01*
X111950000Y-138600357D01*
X111950000Y-139256515D01*
X112969164Y-139256515D01*
X112969164Y-138600357D01*
X112787325Y-138600357D01*
X112787325Y-139018683D01*
G37*
G36*
X112532380Y-137534028D02*
G01*
X112599880Y-137546832D01*
X112663128Y-137567820D01*
X112723018Y-137596939D01*
X112776574Y-137632659D01*
X112824389Y-137675165D01*
X112865910Y-137723878D01*
X112901327Y-137779243D01*
X112930696Y-137841983D01*
X112951734Y-137908054D01*
X112964699Y-137979941D01*
X112969164Y-138058504D01*
X112969164Y-138454421D01*
X111950000Y-138454421D01*
X111950000Y-138058504D01*
X112131899Y-138058504D01*
X112131899Y-138216590D01*
X112787325Y-138216590D01*
X112787325Y-138058504D01*
X112781400Y-137993084D01*
X112764549Y-137937481D01*
X112736808Y-137888244D01*
X112699520Y-137847600D01*
X112653403Y-137815606D01*
X112596327Y-137791302D01*
X112533259Y-137776811D01*
X112459918Y-137771702D01*
X112386030Y-137776821D01*
X112322836Y-137791302D01*
X112265760Y-137815606D01*
X112219644Y-137847600D01*
X112182356Y-137888244D01*
X112154614Y-137937481D01*
X112137809Y-137993081D01*
X112131899Y-138058504D01*
X111950000Y-138058504D01*
X111954423Y-137979927D01*
X111967268Y-137908038D01*
X111988101Y-137841983D01*
X112017322Y-137779276D01*
X112052754Y-137723912D01*
X112094469Y-137675165D01*
X112142505Y-137632639D01*
X112196169Y-137596922D01*
X112256036Y-137567820D01*
X112319289Y-137546849D01*
X112387007Y-137534037D01*
X112459918Y-137529657D01*
X112532380Y-137534028D01*
G37*
G36*
X112781707Y-136376709D02*
G01*
X112781707Y-136663511D01*
X111950000Y-136663511D01*
X111950000Y-136899938D01*
X112781707Y-136899938D01*
X112781707Y-137186740D01*
X112969164Y-137186740D01*
X112969164Y-136376709D01*
X112781707Y-136376709D01*
G37*
G36*
X112397670Y-135751733D02*
G01*
X112469382Y-135771719D01*
X112533649Y-135804422D01*
X112586496Y-135847251D01*
X112628931Y-135900253D01*
X112660685Y-135963694D01*
X112679895Y-136034019D01*
X112686575Y-136114086D01*
X112679890Y-136194790D01*
X112660685Y-136265517D01*
X112628944Y-136329399D01*
X112586496Y-136383059D01*
X112533594Y-136426470D01*
X112469382Y-136459324D01*
X112397673Y-136479264D01*
X112314471Y-136486252D01*
X112230529Y-136479265D01*
X112158094Y-136459324D01*
X112093196Y-136426444D01*
X112039881Y-136383059D01*
X111997109Y-136329390D01*
X111965020Y-136265517D01*
X111945587Y-136194776D01*
X111938825Y-136114086D01*
X112099720Y-136114086D01*
X112106099Y-136162607D01*
X112123751Y-136199163D01*
X112152477Y-136226744D01*
X112189594Y-136245102D01*
X112241615Y-136257638D01*
X112313066Y-136262403D01*
X112384480Y-136257630D01*
X112436340Y-136245090D01*
X112473229Y-136226744D01*
X112501771Y-136199187D01*
X112519330Y-136162634D01*
X112525680Y-136114086D01*
X112519381Y-136066952D01*
X112501873Y-136031177D01*
X112473229Y-136003933D01*
X112436365Y-135985752D01*
X112384506Y-135973314D01*
X112313066Y-135968579D01*
X112241589Y-135973307D01*
X112189570Y-135985740D01*
X112152477Y-136003933D01*
X112123648Y-136031201D01*
X112106048Y-136066979D01*
X112099720Y-136114086D01*
X111938825Y-136114086D01*
X111945581Y-136034034D01*
X111965020Y-135963694D01*
X111997122Y-135900262D01*
X112039881Y-135847251D01*
X112093141Y-135804447D01*
X112158094Y-135771719D01*
X112230532Y-135751732D01*
X112314471Y-135744730D01*
X112397670Y-135751733D01*
G37*
G36*
X112563476Y-135432771D02*
G01*
X112617119Y-135395651D01*
X112655800Y-135355468D01*
X112674448Y-135324905D01*
X112685588Y-135291720D01*
X112689384Y-135255084D01*
X112683250Y-135209431D01*
X112666303Y-135175339D01*
X112506812Y-135189322D01*
X112493212Y-135194317D01*
X112485807Y-135200862D01*
X112480251Y-135222905D01*
X112480922Y-135237621D01*
X112482693Y-135256489D01*
X112484769Y-135276456D01*
X112485807Y-135294957D01*
X112479128Y-135338823D01*
X112460589Y-135370856D01*
X112431665Y-135396222D01*
X112390675Y-135418788D01*
X111950000Y-135418788D01*
X111950000Y-135635615D01*
X112675401Y-135635615D01*
X112675401Y-135506899D01*
X112672592Y-135480032D01*
X112663799Y-135461836D01*
X112648107Y-135450601D01*
X112624354Y-135443945D01*
X112563476Y-135432771D01*
G37*
G36*
X112503332Y-134581890D02*
G01*
X112484403Y-134600758D01*
X112479361Y-134611134D01*
X112477442Y-134626648D01*
X112479396Y-134642043D01*
X112485136Y-134655651D01*
X112502233Y-134684716D01*
X112519391Y-134722452D01*
X112524987Y-134745570D01*
X112527084Y-134776307D01*
X112523215Y-134814355D01*
X112512369Y-134845245D01*
X112494611Y-134871666D01*
X112470420Y-134893178D01*
X112440917Y-134909247D01*
X112403620Y-134921143D01*
X112362752Y-134927845D01*
X112314471Y-134930241D01*
X112245893Y-134925062D01*
X112193667Y-134911110D01*
X112154248Y-134890002D01*
X112123072Y-134859659D01*
X112104694Y-134823361D01*
X112098316Y-134779116D01*
X112100959Y-134743518D01*
X112107719Y-134719338D01*
X112128724Y-134681907D01*
X112150034Y-134653575D01*
X112157289Y-134639354D01*
X112159865Y-134621030D01*
X112154987Y-134598001D01*
X112140936Y-134581890D01*
X112063328Y-134518936D01*
X112027871Y-134554024D01*
X112000680Y-134589584D01*
X111979022Y-134627422D01*
X111962944Y-134665482D01*
X111951376Y-134704542D01*
X111944077Y-134743457D01*
X111938825Y-134819722D01*
X111945135Y-134884780D01*
X111963982Y-134946667D01*
X111994814Y-135003442D01*
X112037072Y-135053035D01*
X112089612Y-135093563D01*
X112154919Y-135125758D01*
X112228015Y-135145649D01*
X112314471Y-135152686D01*
X112391016Y-135146705D01*
X112461017Y-135129238D01*
X112525116Y-135099943D01*
X112579230Y-135059995D01*
X112623524Y-135009270D01*
X112657876Y-134946667D01*
X112673429Y-134900794D01*
X112683169Y-134849001D01*
X112686575Y-134790351D01*
X112683325Y-134733944D01*
X112674052Y-134684348D01*
X112659281Y-134640630D01*
X112625988Y-134579797D01*
X112579535Y-134524493D01*
X112503332Y-134581890D01*
G37*
G36*
X112611714Y-134217113D02*
G01*
X112642150Y-134176125D01*
X112665936Y-134132117D01*
X112681101Y-134083455D01*
X112686575Y-134022635D01*
X112681195Y-133965472D01*
X112665936Y-133917366D01*
X112641139Y-133874969D01*
X112608539Y-133840063D01*
X112568843Y-133812698D01*
X112521100Y-133792497D01*
X112468980Y-133780519D01*
X112410947Y-133776377D01*
X111950000Y-133776377D01*
X111950000Y-133993265D01*
X112410947Y-133993265D01*
X112460005Y-133999913D01*
X112493867Y-134017750D01*
X112509991Y-134036001D01*
X112519998Y-134059473D01*
X112523604Y-134089802D01*
X112519806Y-134124454D01*
X112508522Y-134156602D01*
X112491099Y-134186833D01*
X112467611Y-134217113D01*
X111950000Y-134217113D01*
X111950000Y-134433940D01*
X112997191Y-134433940D01*
X112997191Y-134217113D01*
X112611714Y-134217113D01*
G37*
G36*
X110995401Y-137499188D02*
G01*
X110270000Y-137780373D01*
X110270000Y-137977660D01*
X110995401Y-138258844D01*
X110995401Y-138078349D01*
X110992551Y-138056649D01*
X110984532Y-138039575D01*
X110972205Y-138026205D01*
X110957604Y-138018204D01*
X110632334Y-137917454D01*
X110554665Y-137894068D01*
X110479132Y-137876177D01*
X110554623Y-137857997D01*
X110632334Y-137833556D01*
X110957604Y-137728593D01*
X110972230Y-137720707D01*
X110984532Y-137707649D01*
X110992613Y-137691063D01*
X110995401Y-137671257D01*
X110995401Y-137499188D01*
G37*
G36*
X110868937Y-136721846D02*
G01*
X110945613Y-136731696D01*
X111011460Y-136747042D01*
X111075249Y-136769555D01*
X111128918Y-136796141D01*
X111173759Y-136826482D01*
X111213465Y-136862898D01*
X111245077Y-136902875D01*
X111269258Y-136946772D01*
X111286442Y-136994043D01*
X111296858Y-137044090D01*
X111300399Y-137097470D01*
X111296848Y-137150883D01*
X111286422Y-137200719D01*
X111269258Y-137247557D01*
X111245107Y-137290972D01*
X111213502Y-137330607D01*
X111173759Y-137366808D01*
X111128933Y-137396905D01*
X111075268Y-137423249D01*
X111011460Y-137445516D01*
X110945630Y-137460663D01*
X110868953Y-137470389D01*
X110779918Y-137473848D01*
X110690925Y-137470390D01*
X110614245Y-137460665D01*
X110548375Y-137445516D01*
X110484608Y-137423251D01*
X110430961Y-137396908D01*
X110386137Y-137366808D01*
X110346365Y-137330621D01*
X110314633Y-137290984D01*
X110290272Y-137247557D01*
X110272935Y-137200704D01*
X110262410Y-137150871D01*
X110258825Y-137097470D01*
X110432971Y-137097470D01*
X110436486Y-137125623D01*
X110447320Y-137153829D01*
X110466575Y-137178737D01*
X110500504Y-137202799D01*
X110543384Y-137221026D01*
X110606444Y-137237054D01*
X110678471Y-137246383D01*
X110779918Y-137249999D01*
X110880816Y-137246391D01*
X110953025Y-137237054D01*
X111016408Y-137220996D01*
X111059026Y-137202799D01*
X111092645Y-137178762D01*
X111111844Y-137153829D01*
X111122678Y-137125623D01*
X111126193Y-137097470D01*
X111122687Y-137069325D01*
X111111844Y-137040866D01*
X111092626Y-137015465D01*
X111059026Y-136990858D01*
X111016360Y-136972037D01*
X110953025Y-136955503D01*
X110880814Y-136945902D01*
X110779918Y-136942192D01*
X110678472Y-136945911D01*
X110606444Y-136955503D01*
X110543431Y-136972005D01*
X110500504Y-136990858D01*
X110466595Y-137015490D01*
X110447320Y-137040866D01*
X110436476Y-137069325D01*
X110432971Y-137097470D01*
X110258825Y-137097470D01*
X110262399Y-137044102D01*
X110272915Y-136994057D01*
X110290272Y-136946772D01*
X110314663Y-136902862D01*
X110346403Y-136862884D01*
X110386137Y-136826482D01*
X110430977Y-136796138D01*
X110484627Y-136769552D01*
X110548375Y-136747042D01*
X110614262Y-136731694D01*
X110690941Y-136721845D01*
X110779918Y-136718344D01*
X110868937Y-136721846D01*
G37*
G36*
X110379848Y-136645865D02*
G01*
X110404314Y-136643478D01*
X110426681Y-136636461D01*
X110447020Y-136625211D01*
X110464417Y-136610571D01*
X110478787Y-136592781D01*
X110490001Y-136571737D01*
X110497048Y-136548553D01*
X110499466Y-136522766D01*
X110497062Y-136497572D01*
X110490001Y-136474528D01*
X110478805Y-136453419D01*
X110464417Y-136435327D01*
X110446992Y-136420409D01*
X110426681Y-136409132D01*
X110404311Y-136402070D01*
X110379848Y-136399668D01*
X110355280Y-136402063D01*
X110332587Y-136409132D01*
X110311957Y-136420429D01*
X110294424Y-136435327D01*
X110280180Y-136453430D01*
X110269328Y-136474528D01*
X110262544Y-136497555D01*
X110260230Y-136522766D01*
X110262557Y-136548570D01*
X110269328Y-136571737D01*
X110280197Y-136592769D01*
X110294424Y-136610571D01*
X110311929Y-136625191D01*
X110332587Y-136636461D01*
X110355277Y-136643484D01*
X110379848Y-136645865D01*
G37*
G36*
X110426681Y-135620655D02*
G01*
X110270000Y-135620655D01*
X110270000Y-136201220D01*
X110426681Y-136201220D01*
X110426681Y-136005399D01*
X110940812Y-136005399D01*
X110980319Y-136004727D01*
X111020558Y-136002590D01*
X110924021Y-136118666D01*
X110914294Y-136134441D01*
X110909672Y-136149136D01*
X110909672Y-136177468D01*
X110918770Y-136201220D01*
X110932447Y-136216608D01*
X111023367Y-136285179D01*
X111289897Y-135967602D01*
X111289897Y-135788511D01*
X110426681Y-135788511D01*
X110426681Y-135620655D01*
G37*
D11*
%TO.C,G\u002A\u002A\u002A*%
G36*
X95615730Y-130550261D02*
G01*
X95649197Y-130573898D01*
X95670755Y-130609058D01*
X95678426Y-130650015D01*
X95670232Y-130691043D01*
X95644194Y-130726416D01*
X95635952Y-130732956D01*
X95593949Y-130751935D01*
X95552977Y-130750722D01*
X95517807Y-130731623D01*
X95493207Y-130696942D01*
X95483947Y-130648984D01*
X95485991Y-130625406D01*
X95503542Y-130582308D01*
X95536320Y-130553798D01*
X95581001Y-130543492D01*
X95615730Y-130550261D01*
G37*
G36*
X100427018Y-130632039D02*
G01*
X100465153Y-130650933D01*
X100494190Y-130685273D01*
X100509173Y-130734196D01*
X100509271Y-130735083D01*
X100506724Y-130790513D01*
X100486626Y-130833123D01*
X100450153Y-130860400D01*
X100436136Y-130865377D01*
X100388978Y-130868894D01*
X100346221Y-130854440D01*
X100311656Y-130826012D01*
X100289074Y-130787606D01*
X100282265Y-130743220D01*
X100295022Y-130696851D01*
X100307562Y-130676684D01*
X100343267Y-130644051D01*
X100384737Y-130629458D01*
X100427018Y-130632039D01*
G37*
G36*
X96923593Y-128591869D02*
G01*
X96944050Y-128626879D01*
X96950489Y-128668596D01*
X96941293Y-128711741D01*
X96914844Y-128751039D01*
X96893804Y-128768045D01*
X96853283Y-128783095D01*
X96813738Y-128779764D01*
X96779384Y-128760897D01*
X96754435Y-128729336D01*
X96743104Y-128687926D01*
X96749605Y-128639511D01*
X96770539Y-128599009D01*
X96795330Y-128580179D01*
X96843614Y-128580179D01*
X96849475Y-128586040D01*
X96855336Y-128580179D01*
X96849475Y-128574318D01*
X96843614Y-128580179D01*
X96795330Y-128580179D01*
X96806657Y-128571576D01*
X96857093Y-128562597D01*
X96890735Y-128568844D01*
X96906911Y-128580179D01*
X96923593Y-128591869D01*
G37*
G36*
X100253109Y-130492989D02*
G01*
X100213481Y-130520690D01*
X100209414Y-130522278D01*
X100162380Y-130529600D01*
X100120618Y-130518241D01*
X100086946Y-130492496D01*
X100078388Y-130479025D01*
X100231062Y-130479025D01*
X100236923Y-130484886D01*
X100242784Y-130479025D01*
X100236923Y-130473165D01*
X100231062Y-130479025D01*
X100078388Y-130479025D01*
X100064182Y-130456664D01*
X100055142Y-130415040D01*
X100062644Y-130371922D01*
X100089506Y-130331608D01*
X100110799Y-130314539D01*
X100155395Y-130298134D01*
X100200988Y-130301409D01*
X100241750Y-130323360D01*
X100271858Y-130362987D01*
X100283023Y-130404785D01*
X100277060Y-130452273D01*
X100261323Y-130479025D01*
X100253109Y-130492989D01*
G37*
G36*
X100564006Y-130083066D02*
G01*
X100576971Y-130127089D01*
X100574944Y-130173263D01*
X100558096Y-130214726D01*
X100526600Y-130244614D01*
X100504135Y-130254429D01*
X100455992Y-130259585D01*
X100410819Y-130246091D01*
X100374449Y-130216356D01*
X100352716Y-130172790D01*
X100350869Y-130164001D01*
X100352900Y-130117608D01*
X100370840Y-130080502D01*
X100535816Y-130080502D01*
X100541676Y-130086363D01*
X100547537Y-130080502D01*
X100541676Y-130074641D01*
X100535816Y-130080502D01*
X100370840Y-130080502D01*
X100372329Y-130077423D01*
X100404536Y-130046751D01*
X100444897Y-130028898D01*
X100488790Y-130027170D01*
X100531592Y-130044871D01*
X100535878Y-130048059D01*
X100561946Y-130080502D01*
X100564006Y-130083066D01*
G37*
G36*
X95274544Y-131525282D02*
G01*
X95276548Y-131533940D01*
X95284685Y-131569104D01*
X95284617Y-131573775D01*
X95276233Y-131611842D01*
X95250423Y-131646194D01*
X95219604Y-131669996D01*
X95179193Y-131680456D01*
X95147707Y-131674301D01*
X95110430Y-131650017D01*
X95083843Y-131612926D01*
X95073702Y-131569104D01*
X95079533Y-131535868D01*
X95080660Y-131533940D01*
X95249521Y-131533940D01*
X95255382Y-131539801D01*
X95261242Y-131533940D01*
X95255382Y-131528079D01*
X95249521Y-131533940D01*
X95080660Y-131533940D01*
X95101220Y-131498776D01*
X95120587Y-131498776D01*
X95126448Y-131504637D01*
X95132308Y-131498776D01*
X95126448Y-131492916D01*
X95120587Y-131498776D01*
X95101220Y-131498776D01*
X95102539Y-131496520D01*
X95137678Y-131468456D01*
X95179193Y-131457752D01*
X95210680Y-131463906D01*
X95247957Y-131488191D01*
X95255544Y-131498776D01*
X95274544Y-131525282D01*
G37*
G36*
X96812199Y-129783530D02*
G01*
X96834729Y-129818269D01*
X96843614Y-129854288D01*
X96837654Y-129891574D01*
X96823932Y-129916404D01*
X96815370Y-129931896D01*
X96780824Y-129957527D01*
X96758323Y-129964787D01*
X96712646Y-129965623D01*
X96675782Y-129944813D01*
X96657460Y-129916404D01*
X96796729Y-129916404D01*
X96802590Y-129922265D01*
X96808451Y-129916404D01*
X96802590Y-129910544D01*
X96796729Y-129916404D01*
X96657460Y-129916404D01*
X96648644Y-129902734D01*
X96640036Y-129869802D01*
X96644513Y-129823378D01*
X96666539Y-129783991D01*
X96677492Y-129775749D01*
X96714680Y-129775749D01*
X96720541Y-129781610D01*
X96726402Y-129775749D01*
X96720541Y-129769888D01*
X96714680Y-129775749D01*
X96677492Y-129775749D01*
X96702845Y-129756670D01*
X96750164Y-129746446D01*
X96750946Y-129746454D01*
X96782209Y-129757212D01*
X96803332Y-129775749D01*
X96812199Y-129783530D01*
G37*
G36*
X93776521Y-129980158D02*
G01*
X93833470Y-129995517D01*
X93853228Y-130005077D01*
X93912028Y-130046001D01*
X93962220Y-130099144D01*
X94000427Y-130159514D01*
X94023268Y-130222119D01*
X94027364Y-130281965D01*
X94025750Y-130293531D01*
X94017504Y-130327777D01*
X94007071Y-130350085D01*
X93982159Y-130364922D01*
X93949642Y-130365378D01*
X93921412Y-130350672D01*
X93915975Y-130343061D01*
X93904411Y-130314383D01*
X93896013Y-130277414D01*
X93880588Y-130219204D01*
X93847800Y-130162972D01*
X93802723Y-130123457D01*
X93748727Y-130101891D01*
X93689183Y-130099505D01*
X93627461Y-130117530D01*
X93566932Y-130157198D01*
X93558757Y-130164240D01*
X93527744Y-130189188D01*
X93506277Y-130200616D01*
X93488139Y-130200657D01*
X93467117Y-130191442D01*
X93447698Y-130170316D01*
X93445575Y-130139933D01*
X93458867Y-130104195D01*
X93485494Y-130066901D01*
X93523376Y-130031845D01*
X93570434Y-130002825D01*
X93580027Y-129998523D01*
X93640006Y-129981933D01*
X93708768Y-129975720D01*
X93776521Y-129980158D01*
G37*
G36*
X100801257Y-130422711D02*
G01*
X100807840Y-130443862D01*
X100808248Y-130445173D01*
X100809877Y-130490747D01*
X100810001Y-130494214D01*
X100795746Y-130539264D01*
X100767290Y-130572372D01*
X100751333Y-130581471D01*
X100704990Y-130591290D01*
X100657221Y-130582060D01*
X100615502Y-130554654D01*
X100610217Y-130549300D01*
X100590728Y-130525208D01*
X100583859Y-130501059D01*
X100584423Y-130490747D01*
X100781962Y-130490747D01*
X100787823Y-130496607D01*
X100793684Y-130490747D01*
X100787823Y-130484886D01*
X100781962Y-130490747D01*
X100584423Y-130490747D01*
X100585808Y-130465432D01*
X100586519Y-130459737D01*
X100591287Y-130443862D01*
X100606143Y-130443862D01*
X100612004Y-130449722D01*
X100617864Y-130443862D01*
X100612004Y-130438001D01*
X100606143Y-130443862D01*
X100591287Y-130443862D01*
X100601636Y-130409405D01*
X100602282Y-130408698D01*
X100617864Y-130408698D01*
X100623725Y-130414558D01*
X100629586Y-130408698D01*
X100623725Y-130402837D01*
X100617864Y-130408698D01*
X100602282Y-130408698D01*
X100631440Y-130376797D01*
X100677172Y-130360490D01*
X100679743Y-130360097D01*
X100732828Y-130361461D01*
X100773623Y-130382478D01*
X100791632Y-130408698D01*
X100801257Y-130422711D01*
G37*
G36*
X96866512Y-129316967D02*
G01*
X96870345Y-129336201D01*
X96871906Y-129344036D01*
X96864966Y-129390837D01*
X96838974Y-129430300D01*
X96796729Y-129456820D01*
X96789767Y-129459118D01*
X96747277Y-129461708D01*
X96710696Y-129446460D01*
X96682398Y-129418042D01*
X96664762Y-129381121D01*
X96660162Y-129340365D01*
X96662941Y-129330105D01*
X96682021Y-129330105D01*
X96683424Y-129344015D01*
X96686949Y-129345849D01*
X96691238Y-129336201D01*
X96690392Y-129329996D01*
X96683424Y-129328387D01*
X96682021Y-129330105D01*
X96662941Y-129330105D01*
X96670976Y-129300441D01*
X96685088Y-129283456D01*
X96702959Y-129283456D01*
X96708820Y-129289316D01*
X96714680Y-129283456D01*
X96709583Y-129278358D01*
X96823046Y-129278358D01*
X96824435Y-129283456D01*
X96826032Y-129289316D01*
X96828441Y-129292786D01*
X96839137Y-129301037D01*
X96840741Y-129300274D01*
X96837754Y-129289316D01*
X96835346Y-129285846D01*
X96824649Y-129277595D01*
X96823046Y-129278358D01*
X96709583Y-129278358D01*
X96708820Y-129277595D01*
X96702959Y-129283456D01*
X96685088Y-129283456D01*
X96699579Y-129266016D01*
X96716855Y-129254692D01*
X96761517Y-129242077D01*
X96805131Y-129249406D01*
X96842022Y-129274947D01*
X96856783Y-129300274D01*
X96866512Y-129316967D01*
G37*
G36*
X99087228Y-133379804D02*
G01*
X99127370Y-133428003D01*
X99142020Y-133456121D01*
X99152478Y-133510886D01*
X99145982Y-133568900D01*
X99139626Y-133585163D01*
X99130464Y-133608605D01*
X99124332Y-133624296D01*
X99089328Y-133671204D01*
X99042770Y-133703758D01*
X99018988Y-133711513D01*
X98967535Y-133715730D01*
X98915504Y-133707659D01*
X98873710Y-133688289D01*
X98864843Y-133681329D01*
X98821892Y-133633590D01*
X98810485Y-133608605D01*
X99105820Y-133608605D01*
X99111681Y-133614466D01*
X99117541Y-133608605D01*
X99111681Y-133602745D01*
X99105820Y-133608605D01*
X98810485Y-133608605D01*
X98799783Y-133585163D01*
X98812788Y-133585163D01*
X98818649Y-133591024D01*
X98824510Y-133585163D01*
X98818649Y-133579302D01*
X98812788Y-133585163D01*
X98799783Y-133585163D01*
X98797198Y-133579501D01*
X98789670Y-133522957D01*
X98798218Y-133467848D01*
X98821753Y-133418067D01*
X98859183Y-133377507D01*
X98886723Y-133362459D01*
X98930001Y-133362459D01*
X98935862Y-133368319D01*
X98941722Y-133362459D01*
X98935862Y-133356598D01*
X98930001Y-133362459D01*
X98886723Y-133362459D01*
X98909419Y-133350058D01*
X98971371Y-133339613D01*
X98993064Y-133340228D01*
X99044362Y-133351623D01*
X99060845Y-133362459D01*
X99087228Y-133379804D01*
G37*
G36*
X98182639Y-128498130D02*
G01*
X98185061Y-128524689D01*
X98177264Y-128615343D01*
X98177169Y-128616442D01*
X98161584Y-128723032D01*
X98511306Y-128849768D01*
X98753845Y-128937662D01*
X98787982Y-128950035D01*
X98905195Y-128992543D01*
X99019279Y-129033955D01*
X99127532Y-129073286D01*
X99227252Y-129109554D01*
X99315737Y-129141776D01*
X99390285Y-129168968D01*
X99448194Y-129190147D01*
X99486762Y-129204331D01*
X99487472Y-129204594D01*
X99536688Y-129222650D01*
X99603396Y-129246909D01*
X99683085Y-129275743D01*
X99771246Y-129307524D01*
X99863367Y-129340621D01*
X99954940Y-129373407D01*
X100282463Y-129490444D01*
X100435512Y-129501262D01*
X100435543Y-129501264D01*
X100500049Y-129506470D01*
X100562555Y-129512648D01*
X100615926Y-129519023D01*
X100653028Y-129524824D01*
X100707423Y-129537564D01*
X100797841Y-129564681D01*
X100898586Y-129600350D01*
X101004945Y-129642498D01*
X101080491Y-129675288D01*
X101112202Y-129689052D01*
X101215645Y-129737938D01*
X101310557Y-129787085D01*
X101392225Y-129834418D01*
X101455936Y-129877866D01*
X101466726Y-129886284D01*
X101546457Y-129959874D01*
X101603800Y-130037320D01*
X101639650Y-130120622D01*
X101654899Y-130211778D01*
X101650443Y-130312789D01*
X101648600Y-130327229D01*
X101642766Y-130375672D01*
X101635893Y-130435151D01*
X101635278Y-130440470D01*
X101626687Y-130516738D01*
X101617548Y-130599592D01*
X101608412Y-130684148D01*
X101599719Y-130765138D01*
X101586632Y-130884049D01*
X101574955Y-130983512D01*
X101564117Y-131065963D01*
X101553548Y-131133832D01*
X101542674Y-131189553D01*
X101530925Y-131235558D01*
X101517729Y-131274282D01*
X101502515Y-131308155D01*
X101484710Y-131339612D01*
X101467268Y-131365794D01*
X101463743Y-131371085D01*
X101439043Y-131405006D01*
X101432671Y-131413688D01*
X101413801Y-131440755D01*
X101392393Y-131473577D01*
X101367368Y-131514011D01*
X101337643Y-131563910D01*
X101302138Y-131625133D01*
X101259773Y-131699535D01*
X101209467Y-131788971D01*
X101150138Y-131895299D01*
X101109987Y-131967627D01*
X101080707Y-132020373D01*
X100997399Y-132170626D01*
X100882105Y-132378249D01*
X100774271Y-132572047D01*
X100674838Y-132750331D01*
X100584746Y-132911413D01*
X100504938Y-133053603D01*
X100395160Y-133248762D01*
X100395160Y-133853580D01*
X100395160Y-134059083D01*
X100395160Y-134458398D01*
X100423887Y-134458398D01*
X100428916Y-134458434D01*
X100503421Y-134467705D01*
X100568755Y-134491886D01*
X100619071Y-134528865D01*
X100643701Y-134558770D01*
X100662020Y-134592522D01*
X100674765Y-134633918D01*
X100682800Y-134686884D01*
X100686988Y-134755344D01*
X100687103Y-134763737D01*
X100688192Y-134843225D01*
X100688192Y-135006689D01*
X100727061Y-135013981D01*
X100759824Y-135023666D01*
X100810381Y-135044805D01*
X100869124Y-135073703D01*
X100930189Y-135107277D01*
X100987711Y-135142448D01*
X101035825Y-135176137D01*
X101095769Y-135229573D01*
X101113723Y-135249584D01*
X101154777Y-135295343D01*
X101205802Y-135365122D01*
X101242594Y-135431203D01*
X101252584Y-135453746D01*
X101264562Y-135482504D01*
X101274444Y-135510292D01*
X101282456Y-135539552D01*
X101288824Y-135572725D01*
X101293775Y-135612251D01*
X101297533Y-135660573D01*
X101300327Y-135720131D01*
X101302381Y-135793367D01*
X101303922Y-135882721D01*
X101305177Y-135990635D01*
X101306370Y-136119549D01*
X101307047Y-136199578D01*
X101307063Y-136202052D01*
X101307832Y-136320279D01*
X101307967Y-136421302D01*
X101307261Y-136505029D01*
X101305519Y-136573839D01*
X101302550Y-136630113D01*
X101298160Y-136676231D01*
X101292156Y-136714575D01*
X101284345Y-136747525D01*
X101274534Y-136777462D01*
X101262530Y-136806765D01*
X101248140Y-136837816D01*
X101240697Y-136852359D01*
X101190740Y-136922917D01*
X101120980Y-136989883D01*
X101034427Y-137051066D01*
X100983445Y-137078102D01*
X100961341Y-137089824D01*
X100934093Y-137104274D01*
X100822987Y-137147315D01*
X100822329Y-137147527D01*
X100707785Y-137179880D01*
X100572453Y-137210209D01*
X100418914Y-137238129D01*
X100249748Y-137263259D01*
X100067537Y-137285213D01*
X99874861Y-137303608D01*
X99674302Y-137318061D01*
X99616795Y-137321584D01*
X99547722Y-137325903D01*
X99486978Y-137329798D01*
X99439587Y-137332943D01*
X99410573Y-137335017D01*
X99406913Y-137335287D01*
X99364143Y-137337129D01*
X99301278Y-137338299D01*
X99221295Y-137338845D01*
X99127171Y-137338812D01*
X99021882Y-137338245D01*
X98908406Y-137337192D01*
X98789719Y-137335697D01*
X98668798Y-137333807D01*
X98548622Y-137331569D01*
X98432165Y-137329027D01*
X98322406Y-137326228D01*
X98222321Y-137323217D01*
X98134887Y-137320042D01*
X98063082Y-137316748D01*
X98009881Y-137313380D01*
X97820698Y-137296768D01*
X97632778Y-137276673D01*
X97458006Y-137254186D01*
X97298438Y-137229624D01*
X97156132Y-137203305D01*
X97033141Y-137175548D01*
X96931524Y-137146669D01*
X96926972Y-137145179D01*
X96806811Y-137098301D01*
X96790871Y-137089824D01*
X98648690Y-137089824D01*
X98654551Y-137095684D01*
X98660412Y-137089824D01*
X98654551Y-137083963D01*
X98648690Y-137089824D01*
X96790871Y-137089824D01*
X96768830Y-137078102D01*
X99480901Y-137078102D01*
X99486762Y-137083963D01*
X99492622Y-137078102D01*
X99504343Y-137078102D01*
X99510204Y-137083963D01*
X99516065Y-137078102D01*
X99510204Y-137072242D01*
X99504343Y-137078102D01*
X99492622Y-137078102D01*
X99486762Y-137072242D01*
X99480901Y-137078102D01*
X96768830Y-137078102D01*
X96702712Y-137042939D01*
X97804759Y-137042939D01*
X97810619Y-137048799D01*
X97816480Y-137042939D01*
X97810619Y-137037078D01*
X97804759Y-137042939D01*
X96702712Y-137042939D01*
X96701225Y-137042148D01*
X96612380Y-136978268D01*
X96542443Y-136908211D01*
X96493578Y-136833524D01*
X96488120Y-136822335D01*
X96475086Y-136794085D01*
X96464311Y-136766669D01*
X96455582Y-136737661D01*
X96448683Y-136704632D01*
X96443398Y-136665155D01*
X96439511Y-136616802D01*
X96436807Y-136557145D01*
X96435070Y-136483757D01*
X96434085Y-136394210D01*
X96434073Y-136391426D01*
X96704351Y-136391426D01*
X96704600Y-136478074D01*
X96705167Y-136551973D01*
X96706035Y-136610450D01*
X96707188Y-136650831D01*
X96708607Y-136670443D01*
X96711621Y-136683231D01*
X96735089Y-136729964D01*
X96778045Y-136772763D01*
X96841468Y-136812272D01*
X96926337Y-136849135D01*
X97033630Y-136883994D01*
X97102407Y-136902584D01*
X97272074Y-136940619D01*
X97464383Y-136974003D01*
X97679096Y-137002705D01*
X97915976Y-137026697D01*
X98134333Y-137042939D01*
X98174786Y-137045948D01*
X98455289Y-137060429D01*
X98571100Y-137064614D01*
X98790847Y-137069217D01*
X99008745Y-137069578D01*
X99223256Y-137065875D01*
X99432843Y-137058284D01*
X99635966Y-137046985D01*
X99831090Y-137032154D01*
X100016676Y-137013970D01*
X100191186Y-136992611D01*
X100353084Y-136968255D01*
X100500830Y-136941078D01*
X100632888Y-136911261D01*
X100747719Y-136878979D01*
X100843787Y-136844411D01*
X100919553Y-136807735D01*
X100973479Y-136769130D01*
X100982691Y-136760559D01*
X100997104Y-136746292D01*
X101008864Y-136731641D01*
X101018241Y-136714300D01*
X101025505Y-136691965D01*
X101030924Y-136662328D01*
X101034770Y-136623084D01*
X101037311Y-136571927D01*
X101038818Y-136506551D01*
X101039560Y-136424651D01*
X101039808Y-136323919D01*
X101039830Y-136202052D01*
X101039706Y-136075912D01*
X101039171Y-135969048D01*
X101037987Y-135880666D01*
X101035914Y-135808270D01*
X101032715Y-135749364D01*
X101028150Y-135701453D01*
X101021982Y-135662043D01*
X101013972Y-135628636D01*
X101003881Y-135598739D01*
X100991470Y-135569855D01*
X100976502Y-135539488D01*
X100939580Y-135479179D01*
X100870155Y-135400449D01*
X100785452Y-135334885D01*
X100689689Y-135286212D01*
X100684043Y-135284020D01*
X100656430Y-135274716D01*
X100633639Y-135272409D01*
X100606693Y-135277366D01*
X100566616Y-135289852D01*
X100503801Y-135308843D01*
X100380737Y-135339075D01*
X100298636Y-135355075D01*
X100238486Y-135366797D01*
X100235500Y-135367379D01*
X100068845Y-135393628D01*
X99881528Y-135417696D01*
X99674302Y-135439456D01*
X99638209Y-135442473D01*
X99554990Y-135447554D01*
X99454296Y-135451878D01*
X99339537Y-135455430D01*
X99214120Y-135458197D01*
X99081453Y-135460166D01*
X98944945Y-135461323D01*
X98808003Y-135461653D01*
X98674037Y-135461144D01*
X98546453Y-135459781D01*
X98428662Y-135457551D01*
X98324070Y-135454440D01*
X98236086Y-135450435D01*
X98168118Y-135445521D01*
X98164643Y-135445192D01*
X97955619Y-135424015D01*
X97769705Y-135402271D01*
X97606583Y-135379912D01*
X97526460Y-135366797D01*
X97664104Y-135366797D01*
X97669964Y-135372657D01*
X97675825Y-135366797D01*
X97669964Y-135360936D01*
X97664104Y-135366797D01*
X97526460Y-135366797D01*
X97465930Y-135356889D01*
X97456872Y-135355075D01*
X97570333Y-135355075D01*
X97576194Y-135360936D01*
X97582055Y-135355075D01*
X97576194Y-135349215D01*
X97570333Y-135355075D01*
X97456872Y-135355075D01*
X97347426Y-135333156D01*
X97250751Y-135308664D01*
X97246226Y-135307358D01*
X97177043Y-135289453D01*
X97122826Y-135281097D01*
X97077418Y-135282433D01*
X97034659Y-135293603D01*
X96988390Y-135314750D01*
X96970294Y-135324718D01*
X96884128Y-135387315D01*
X96809996Y-135467053D01*
X96752120Y-135559557D01*
X96708820Y-135646827D01*
X96705210Y-136139760D01*
X96704877Y-136190571D01*
X96704438Y-136294700D01*
X96704351Y-136391426D01*
X96434073Y-136391426D01*
X96433637Y-136286076D01*
X96433509Y-136156927D01*
X96433504Y-136134573D01*
X96433574Y-136015217D01*
X96433876Y-135916413D01*
X96434505Y-135835687D01*
X96435557Y-135770566D01*
X96437126Y-135718577D01*
X96439306Y-135677248D01*
X96442194Y-135644104D01*
X96445883Y-135616673D01*
X96450469Y-135592482D01*
X96456045Y-135569057D01*
X96487703Y-135472776D01*
X96546812Y-135356650D01*
X96624548Y-135252399D01*
X96627492Y-135249584D01*
X99574671Y-135249584D01*
X99580532Y-135255444D01*
X99586392Y-135249584D01*
X99580532Y-135243723D01*
X99574671Y-135249584D01*
X96627492Y-135249584D01*
X96719047Y-135162049D01*
X96828445Y-135087629D01*
X96950877Y-135031164D01*
X97017115Y-135007002D01*
X97021473Y-134811819D01*
X97022969Y-134755883D01*
X97288390Y-134755883D01*
X97291637Y-134914824D01*
X97294883Y-135073765D01*
X97335908Y-135093830D01*
X97347373Y-135098721D01*
X97392356Y-135112398D01*
X97456760Y-135127041D01*
X97537712Y-135142250D01*
X97632339Y-135157628D01*
X97737767Y-135172777D01*
X97851123Y-135187297D01*
X97969533Y-135200792D01*
X98090124Y-135212862D01*
X98210023Y-135223108D01*
X98326355Y-135231134D01*
X98567448Y-135242388D01*
X98811595Y-135247631D01*
X99053345Y-135246872D01*
X99289766Y-135240268D01*
X99517925Y-135227978D01*
X99734890Y-135210160D01*
X99937726Y-135186972D01*
X100123502Y-135158574D01*
X100289285Y-135125123D01*
X100334983Y-135114267D01*
X100375512Y-135101961D01*
X100402539Y-135086687D01*
X100418798Y-135064348D01*
X100427025Y-135030851D01*
X100429955Y-134982101D01*
X100430324Y-134914004D01*
X100430324Y-134763737D01*
X100398091Y-134769363D01*
X100392836Y-134770235D01*
X100363311Y-134774744D01*
X100317463Y-134781456D01*
X100260483Y-134789617D01*
X100197565Y-134798474D01*
X100168987Y-134802222D01*
X100037117Y-134819517D01*
X99625261Y-134860911D01*
X99214379Y-134883656D01*
X98801453Y-134887742D01*
X98383462Y-134873154D01*
X97957385Y-134839883D01*
X97670209Y-134805747D01*
X99975268Y-134805747D01*
X99984916Y-134810036D01*
X99991121Y-134809190D01*
X99992730Y-134802222D01*
X99991012Y-134800819D01*
X99977102Y-134802222D01*
X99975268Y-134805747D01*
X97670209Y-134805747D01*
X97520202Y-134787916D01*
X97288390Y-134755883D01*
X97022969Y-134755883D01*
X97023408Y-134739488D01*
X97026373Y-134678988D01*
X97031159Y-134633970D01*
X97038730Y-134600274D01*
X97050050Y-134573740D01*
X97066082Y-134550209D01*
X97087790Y-134525520D01*
X97116015Y-134503608D01*
X97164316Y-134480631D01*
X97219796Y-134464491D01*
X97273568Y-134458398D01*
X97312465Y-134458398D01*
X97312697Y-133834240D01*
X97312716Y-133808960D01*
X97313068Y-133683722D01*
X97313825Y-133565218D01*
X97314947Y-133455834D01*
X97315291Y-133432551D01*
X97338412Y-133432551D01*
X97339815Y-133446461D01*
X97343340Y-133448295D01*
X97347629Y-133438647D01*
X97346783Y-133432442D01*
X97339815Y-133430833D01*
X97338412Y-133432551D01*
X97315291Y-133432551D01*
X97315634Y-133409344D01*
X97335908Y-133409344D01*
X97341768Y-133415204D01*
X97347629Y-133409344D01*
X97341768Y-133403483D01*
X97335908Y-133409344D01*
X97315634Y-133409344D01*
X97316393Y-133357958D01*
X97316568Y-133349457D01*
X97337749Y-133349457D01*
X97340548Y-133365145D01*
X97344549Y-133364963D01*
X97346704Y-133349761D01*
X97344827Y-133338239D01*
X97339622Y-133342679D01*
X97337749Y-133349457D01*
X97316568Y-133349457D01*
X97318123Y-133273975D01*
X97318619Y-133256967D01*
X97335908Y-133256967D01*
X97341768Y-133262828D01*
X97347629Y-133256967D01*
X97341768Y-133251107D01*
X97335908Y-133256967D01*
X97318619Y-133256967D01*
X97320096Y-133206275D01*
X97322272Y-133157242D01*
X97323214Y-133145985D01*
X97570333Y-133145985D01*
X97570333Y-133256967D01*
X97570333Y-133349761D01*
X97570333Y-133409344D01*
X97570333Y-133438647D01*
X97570333Y-133825364D01*
X97570333Y-134504743D01*
X97596706Y-134521213D01*
X97602237Y-134523765D01*
X97630891Y-134531493D01*
X97676367Y-134540114D01*
X97733943Y-134548800D01*
X97798898Y-134556721D01*
X97876476Y-134564955D01*
X97936786Y-134570773D01*
X97980156Y-134573914D01*
X98009808Y-134574430D01*
X98028960Y-134572373D01*
X98040834Y-134567795D01*
X98048649Y-134560748D01*
X98051801Y-134546586D01*
X98054881Y-134509023D01*
X98057653Y-134448567D01*
X98060108Y-134365502D01*
X98062239Y-134260109D01*
X98064037Y-134132673D01*
X98064526Y-134082553D01*
X98297052Y-134082553D01*
X98297052Y-134586791D01*
X98323425Y-134603688D01*
X98332506Y-134607801D01*
X98362781Y-134614825D01*
X98411917Y-134621289D01*
X98481441Y-134627374D01*
X98572880Y-134633261D01*
X98743154Y-134640566D01*
X98992806Y-134642739D01*
X99251876Y-134634907D01*
X99526207Y-134616972D01*
X99540236Y-134615955D01*
X99573329Y-134614150D01*
X99600868Y-134612108D01*
X99623342Y-134607897D01*
X99641245Y-134599583D01*
X99655069Y-134585231D01*
X99665304Y-134562909D01*
X99672444Y-134530682D01*
X99676981Y-134486617D01*
X99679405Y-134428781D01*
X99680210Y-134355239D01*
X99679887Y-134264058D01*
X99678928Y-134153304D01*
X99677825Y-134021045D01*
X99677312Y-133948973D01*
X99676423Y-133833989D01*
X99675749Y-133764563D01*
X99914588Y-133764563D01*
X99914588Y-134135694D01*
X99914847Y-134228146D01*
X99915858Y-134327106D01*
X99916461Y-134355239D01*
X99917593Y-134408084D01*
X99920010Y-134469718D01*
X99923067Y-134510643D01*
X99926722Y-134529496D01*
X99929242Y-134533737D01*
X99942265Y-134545043D01*
X99965646Y-134550081D01*
X100005840Y-134550572D01*
X100024953Y-134550027D01*
X100074018Y-134546950D01*
X100106546Y-134540798D01*
X100127802Y-134530152D01*
X100143050Y-134513594D01*
X100146346Y-134507572D01*
X100150437Y-134494003D01*
X100153697Y-134472813D01*
X100156214Y-134441743D01*
X100158076Y-134398533D01*
X100159371Y-134340922D01*
X100160187Y-134266650D01*
X100160613Y-134173457D01*
X100160735Y-134059083D01*
X100160687Y-133950907D01*
X100160462Y-133859454D01*
X100159941Y-133786844D01*
X100159008Y-133730733D01*
X100157543Y-133688778D01*
X100155429Y-133658638D01*
X100152549Y-133637969D01*
X100148784Y-133624429D01*
X100144018Y-133615676D01*
X100138132Y-133609366D01*
X100136461Y-133607885D01*
X100117583Y-133596566D01*
X100096992Y-133596847D01*
X100071440Y-133610389D01*
X100037676Y-133638857D01*
X99992449Y-133683913D01*
X99914588Y-133764563D01*
X99675749Y-133764563D01*
X99675500Y-133738922D01*
X99674430Y-133661492D01*
X99673097Y-133599421D01*
X99671388Y-133550428D01*
X99669187Y-133512235D01*
X99666381Y-133482562D01*
X99662854Y-133459130D01*
X99658493Y-133439659D01*
X99653183Y-133421870D01*
X99646809Y-133403483D01*
X99618915Y-133335254D01*
X99554592Y-133222557D01*
X99539191Y-133204031D01*
X99915027Y-133204031D01*
X99918174Y-133216502D01*
X99924710Y-133227139D01*
X99933880Y-133237766D01*
X99944933Y-133250207D01*
X99956654Y-133262510D01*
X99992892Y-133283639D01*
X100029652Y-133282865D01*
X100063360Y-133259898D01*
X100063523Y-133259713D01*
X100073982Y-133243913D01*
X100094592Y-133209414D01*
X100124341Y-133158051D01*
X100162216Y-133091659D01*
X100207205Y-133012072D01*
X100258296Y-132921126D01*
X100314477Y-132820654D01*
X100374734Y-132712492D01*
X100438057Y-132598475D01*
X100503432Y-132480437D01*
X100569846Y-132360213D01*
X100636289Y-132239638D01*
X100701746Y-132120546D01*
X100765207Y-132004773D01*
X100785507Y-131967627D01*
X100805405Y-131967627D01*
X100811265Y-131973488D01*
X100817126Y-131967627D01*
X100811265Y-131961767D01*
X100805405Y-131967627D01*
X100785507Y-131967627D01*
X100825658Y-131894154D01*
X100882088Y-131790522D01*
X100933483Y-131695713D01*
X100978832Y-131611561D01*
X101017123Y-131539902D01*
X101047342Y-131482570D01*
X101068477Y-131441400D01*
X101079517Y-131418226D01*
X101095821Y-131365794D01*
X101094637Y-131328190D01*
X101075765Y-131305788D01*
X101031583Y-131293661D01*
X100985622Y-131303786D01*
X100940106Y-131336071D01*
X100901055Y-131384088D01*
X100896316Y-131389915D01*
X100894026Y-131393436D01*
X100873880Y-131426319D01*
X100844215Y-131476882D01*
X100806447Y-131542604D01*
X100761994Y-131620964D01*
X100712273Y-131709443D01*
X100658702Y-131805521D01*
X100602697Y-131906677D01*
X100545675Y-132010391D01*
X100489055Y-132114143D01*
X100465866Y-132156694D01*
X100431379Y-132219787D01*
X100389294Y-132296643D01*
X100341552Y-132383724D01*
X100290093Y-132477487D01*
X100236860Y-132574394D01*
X100183792Y-132670904D01*
X100163256Y-132708215D01*
X100102065Y-132819294D01*
X100051032Y-132912120D01*
X100009404Y-132988516D01*
X99976429Y-133050306D01*
X99951356Y-133099315D01*
X99933431Y-133137368D01*
X99921903Y-133166288D01*
X99916019Y-133187901D01*
X99915027Y-133204031D01*
X99539191Y-133204031D01*
X99473849Y-133125433D01*
X99378108Y-133045200D01*
X99268788Y-132983173D01*
X99147312Y-132940669D01*
X99110800Y-132933258D01*
X99035983Y-132925406D01*
X98955013Y-132923959D01*
X98877456Y-132928927D01*
X98812877Y-132940321D01*
X98722631Y-132971961D01*
X98617212Y-133029854D01*
X98522878Y-133105569D01*
X98443027Y-133196284D01*
X98381057Y-133299174D01*
X98368881Y-133324907D01*
X98351996Y-133363115D01*
X98337977Y-133400039D01*
X98326560Y-133438152D01*
X98320082Y-133467950D01*
X98317479Y-133479926D01*
X98313228Y-133508975D01*
X98310469Y-133527833D01*
X98305264Y-133584348D01*
X98301601Y-133651941D01*
X98299213Y-133733085D01*
X98297836Y-133830254D01*
X98297204Y-133945919D01*
X98297052Y-134082553D01*
X98064526Y-134082553D01*
X98065493Y-133983475D01*
X98065999Y-133921166D01*
X98067050Y-133801260D01*
X98068115Y-133701488D01*
X98069300Y-133619581D01*
X98070712Y-133553272D01*
X98072458Y-133500290D01*
X98072492Y-133499629D01*
X98088480Y-133499629D01*
X98090028Y-133523626D01*
X98094098Y-133525615D01*
X98095940Y-133508975D01*
X98094306Y-133492851D01*
X98090028Y-133494323D01*
X98088480Y-133499629D01*
X98072492Y-133499629D01*
X98074144Y-133467950D01*
X98086069Y-133467950D01*
X98091930Y-133473811D01*
X98097791Y-133467950D01*
X98091930Y-133462090D01*
X98086069Y-133467950D01*
X98074144Y-133467950D01*
X98074644Y-133458368D01*
X98077375Y-133425237D01*
X98080759Y-133398628D01*
X98084902Y-133376274D01*
X98089910Y-133355905D01*
X98095890Y-133335254D01*
X98116884Y-133273911D01*
X98161390Y-133172984D01*
X98215318Y-133076832D01*
X98275033Y-132991662D01*
X98336900Y-132923680D01*
X98346030Y-132914766D01*
X98358369Y-132896792D01*
X98352854Y-132885766D01*
X98351439Y-132884958D01*
X98325647Y-132878981D01*
X98282942Y-132876917D01*
X98228941Y-132878607D01*
X98169258Y-132883894D01*
X98109512Y-132892618D01*
X98056276Y-132904505D01*
X97983260Y-132926061D01*
X97905306Y-132953576D01*
X97827018Y-132985067D01*
X97752998Y-133018550D01*
X97687848Y-133052041D01*
X97636170Y-133083557D01*
X97602567Y-133111114D01*
X97570333Y-133145985D01*
X97323214Y-133145985D01*
X97324612Y-133129265D01*
X97324930Y-133127092D01*
X97342498Y-133051614D01*
X97372661Y-132984929D01*
X97417551Y-132924698D01*
X97477560Y-132870165D01*
X98086069Y-132870165D01*
X98091930Y-132876026D01*
X98097791Y-132870165D01*
X98091930Y-132864305D01*
X98086069Y-132870165D01*
X97477560Y-132870165D01*
X97479303Y-132868581D01*
X97560049Y-132814237D01*
X97661923Y-132759327D01*
X97674368Y-132753228D01*
X97758023Y-132714610D01*
X97847486Y-132676780D01*
X97936148Y-132642325D01*
X98007086Y-132617448D01*
X99038328Y-132617448D01*
X99039361Y-132624995D01*
X99042839Y-132630290D01*
X99047863Y-132635229D01*
X99048579Y-132635861D01*
X99067831Y-132645338D01*
X99104489Y-132658332D01*
X99153578Y-132673215D01*
X99210121Y-132688357D01*
X99268171Y-132703693D01*
X99330713Y-132721695D01*
X99385387Y-132738889D01*
X99424711Y-132753018D01*
X99487085Y-132783750D01*
X99557397Y-132827639D01*
X99614492Y-132870165D01*
X99624562Y-132877665D01*
X99645605Y-132896792D01*
X99679532Y-132927631D01*
X99693987Y-132942153D01*
X99716206Y-132962009D01*
X99728773Y-132969796D01*
X99730121Y-132969638D01*
X99733383Y-132967729D01*
X99738179Y-132962270D01*
X99745471Y-132951555D01*
X99756219Y-132933875D01*
X99771382Y-132907522D01*
X99791922Y-132870789D01*
X99818798Y-132821968D01*
X99852970Y-132759350D01*
X99895400Y-132681229D01*
X99947048Y-132585895D01*
X100008873Y-132471642D01*
X100025496Y-132440914D01*
X100077970Y-132343938D01*
X100131766Y-132244539D01*
X100184391Y-132147325D01*
X100233349Y-132056905D01*
X100276145Y-131977887D01*
X100310285Y-131914881D01*
X100370609Y-131803541D01*
X100428615Y-131696343D01*
X100476682Y-131607332D01*
X100515490Y-131535238D01*
X100545718Y-131478792D01*
X100568045Y-131436723D01*
X100583152Y-131407762D01*
X100591718Y-131390640D01*
X100594422Y-131384088D01*
X100587140Y-131382021D01*
X100560737Y-131378922D01*
X100519570Y-131375623D01*
X100468418Y-131372561D01*
X100421845Y-131369143D01*
X100293413Y-131347492D01*
X100172206Y-131307243D01*
X100054411Y-131246906D01*
X99936216Y-131164996D01*
X99912134Y-131146413D01*
X99883477Y-131125897D01*
X99865487Y-131117115D01*
X99853447Y-131118155D01*
X99842638Y-131127107D01*
X99838200Y-131133149D01*
X99822485Y-131158560D01*
X99798012Y-131200516D01*
X99766270Y-131256387D01*
X99728745Y-131323543D01*
X99686925Y-131399355D01*
X99651886Y-131463612D01*
X99642299Y-131481194D01*
X99637685Y-131489703D01*
X99582756Y-131590986D01*
X99520448Y-131705853D01*
X99454242Y-131827882D01*
X99387623Y-131950655D01*
X99324074Y-132067751D01*
X99267078Y-132172749D01*
X99225932Y-132248534D01*
X99175052Y-132342339D01*
X99133807Y-132418727D01*
X99101297Y-132479593D01*
X99076624Y-132526833D01*
X99058889Y-132562343D01*
X99047194Y-132588018D01*
X99040640Y-132605755D01*
X99038328Y-132617448D01*
X98007086Y-132617448D01*
X98017400Y-132613831D01*
X98084632Y-132593885D01*
X98103498Y-132589137D01*
X98120311Y-132583917D01*
X98135145Y-132576354D01*
X98149654Y-132564170D01*
X98165494Y-132545089D01*
X98171028Y-132536783D01*
X98499677Y-132536783D01*
X98500605Y-132561239D01*
X98513914Y-132577257D01*
X98540023Y-132587571D01*
X98579352Y-132594915D01*
X98632317Y-132602022D01*
X98669210Y-132606765D01*
X98731378Y-132613745D01*
X98775872Y-132616673D01*
X98806363Y-132615533D01*
X98826523Y-132610305D01*
X98840023Y-132600970D01*
X98845612Y-132593601D01*
X98862140Y-132567024D01*
X98885764Y-132525976D01*
X98914222Y-132474430D01*
X98945247Y-132416360D01*
X98954795Y-132398206D01*
X98981951Y-132346602D01*
X99017999Y-132278124D01*
X99061567Y-132195378D01*
X99111283Y-132100969D01*
X99165775Y-131997501D01*
X99223672Y-131887579D01*
X99283601Y-131773808D01*
X99344192Y-131658793D01*
X99387380Y-131576579D01*
X99441931Y-131472017D01*
X99446279Y-131463612D01*
X99621556Y-131463612D01*
X99627417Y-131469473D01*
X99633277Y-131463612D01*
X99627417Y-131457752D01*
X99621556Y-131463612D01*
X99446279Y-131463612D01*
X99492178Y-131374896D01*
X99537164Y-131287109D01*
X99575931Y-131210551D01*
X99607522Y-131147114D01*
X99630979Y-131098694D01*
X99645346Y-131067184D01*
X99649664Y-131054479D01*
X99649169Y-131053646D01*
X99633971Y-131043654D01*
X99601548Y-131028291D01*
X99556271Y-131009496D01*
X99502509Y-130989206D01*
X99483592Y-130982440D01*
X99424544Y-130962464D01*
X99383216Y-130950891D01*
X99356609Y-130946990D01*
X99341727Y-130950031D01*
X99327523Y-130964579D01*
X99306338Y-130993957D01*
X99283592Y-131031106D01*
X99275803Y-131045178D01*
X99255429Y-131082767D01*
X99226147Y-131137314D01*
X99189182Y-131206507D01*
X99145758Y-131288035D01*
X99097099Y-131379584D01*
X99044428Y-131478845D01*
X98988970Y-131583503D01*
X98931949Y-131691249D01*
X98874589Y-131799768D01*
X98818113Y-131906750D01*
X98763746Y-132009883D01*
X98712713Y-132106854D01*
X98666236Y-132195352D01*
X98625540Y-132273065D01*
X98591849Y-132337680D01*
X98567002Y-132385458D01*
X98533294Y-132451626D01*
X98510713Y-132501157D01*
X98499677Y-132536783D01*
X98171028Y-132536783D01*
X98184319Y-132516833D01*
X98207785Y-132477126D01*
X98237546Y-132423689D01*
X98275259Y-132354246D01*
X98322578Y-132266520D01*
X98336122Y-132241419D01*
X98426111Y-132074709D01*
X98514514Y-131911057D01*
X98600138Y-131752663D01*
X98681794Y-131601723D01*
X98758293Y-131460437D01*
X98828444Y-131331002D01*
X98891056Y-131215617D01*
X98944941Y-131116478D01*
X98988907Y-131035786D01*
X99030781Y-130957979D01*
X99065679Y-130890237D01*
X99088687Y-130841482D01*
X99100039Y-130811215D01*
X99099969Y-130798937D01*
X99089192Y-130794220D01*
X99058488Y-130781890D01*
X99010693Y-130763145D01*
X98948398Y-130738989D01*
X98874199Y-130710427D01*
X98790686Y-130678465D01*
X98700453Y-130644107D01*
X98643339Y-130622399D01*
X98544677Y-130584840D01*
X98448157Y-130548026D01*
X98357734Y-130513470D01*
X98277365Y-130482685D01*
X98211005Y-130457184D01*
X98162611Y-130438477D01*
X98147017Y-130432466D01*
X98090874Y-130411644D01*
X98042150Y-130394793D01*
X98005618Y-130383510D01*
X97986054Y-130379395D01*
X97979936Y-130380253D01*
X97954262Y-130392828D01*
X97949319Y-130396977D01*
X97927095Y-130415632D01*
X97922011Y-130420419D01*
X97902879Y-130438433D01*
X97855887Y-130469653D01*
X97796683Y-130493711D01*
X97719690Y-130513230D01*
X97640600Y-130526387D01*
X97561183Y-130532434D01*
X97477358Y-130531056D01*
X97384763Y-130521993D01*
X97279033Y-130504985D01*
X97155805Y-130479776D01*
X97083095Y-130463850D01*
X96972939Y-130440222D01*
X96882744Y-130421645D01*
X96876374Y-130420419D01*
X97886808Y-130420419D01*
X97892668Y-130426280D01*
X97898529Y-130420419D01*
X97892668Y-130414558D01*
X97886808Y-130420419D01*
X96876374Y-130420419D01*
X96810723Y-130407783D01*
X96755091Y-130398299D01*
X96745127Y-130396977D01*
X97910250Y-130396977D01*
X97916111Y-130402837D01*
X97921972Y-130396977D01*
X97916111Y-130391116D01*
X97910250Y-130396977D01*
X96745127Y-130396977D01*
X96714060Y-130392855D01*
X96685845Y-130391116D01*
X96683920Y-130391149D01*
X96672315Y-130393021D01*
X96658663Y-130398918D01*
X96641181Y-130410441D01*
X96618086Y-130429191D01*
X96587595Y-130456771D01*
X96547926Y-130494782D01*
X96497294Y-130544826D01*
X96433918Y-130608504D01*
X96356013Y-130687419D01*
X96338071Y-130705657D01*
X96246008Y-130800190D01*
X96169042Y-130881104D01*
X96105395Y-130950371D01*
X96053287Y-131009965D01*
X96010939Y-131061857D01*
X95976572Y-131108019D01*
X95956752Y-131135417D01*
X95942668Y-131154885D01*
X95908909Y-131197409D01*
X95885303Y-131221064D01*
X95871080Y-131226716D01*
X95867363Y-131225575D01*
X95859232Y-131224493D01*
X95870749Y-131233762D01*
X95886543Y-131241262D01*
X95916250Y-131246589D01*
X95917646Y-131246769D01*
X95933076Y-131248759D01*
X95974231Y-131266117D01*
X96014614Y-131296360D01*
X96046201Y-131334084D01*
X96065387Y-131369693D01*
X96096488Y-131452854D01*
X96120196Y-131553264D01*
X96136231Y-131667556D01*
X96144312Y-131792362D01*
X96144248Y-131847240D01*
X96144158Y-131924315D01*
X96135489Y-132060047D01*
X96118024Y-132196192D01*
X96110554Y-132236577D01*
X96098192Y-132293203D01*
X96083446Y-132353860D01*
X96067754Y-132413154D01*
X96052552Y-132465688D01*
X96039278Y-132506068D01*
X96029371Y-132528899D01*
X96028963Y-132529554D01*
X96015645Y-132559023D01*
X96005340Y-132594715D01*
X96004543Y-132598492D01*
X95996285Y-132628710D01*
X95988042Y-132647461D01*
X95981321Y-132659203D01*
X95971242Y-132684869D01*
X95969807Y-132689144D01*
X95955505Y-132721668D01*
X95931554Y-132768405D01*
X95900567Y-132824796D01*
X95865161Y-132886280D01*
X95827951Y-132948298D01*
X95791551Y-133006290D01*
X95758577Y-133055696D01*
X95652873Y-133194699D01*
X95505575Y-133354320D01*
X95342992Y-133496270D01*
X95165649Y-133620099D01*
X94974071Y-133725362D01*
X94970487Y-133727090D01*
X94794351Y-133804324D01*
X94622210Y-133863673D01*
X94446354Y-133907428D01*
X94259074Y-133937880D01*
X94251108Y-133938851D01*
X94166173Y-133946488D01*
X94068691Y-133951325D01*
X93965819Y-133953312D01*
X93864716Y-133952400D01*
X93772541Y-133948541D01*
X93696452Y-133941688D01*
X93666284Y-133937842D01*
X93597090Y-133928977D01*
X93545185Y-133922182D01*
X93506190Y-133916808D01*
X93475723Y-133912205D01*
X93449406Y-133907724D01*
X93422858Y-133902716D01*
X93391699Y-133896533D01*
X93377488Y-133893723D01*
X93324424Y-133883588D01*
X93274487Y-133874470D01*
X93270112Y-133873669D01*
X93231459Y-133865466D01*
X93177380Y-133852781D01*
X93113339Y-133837021D01*
X93044800Y-133819591D01*
X92977227Y-133801900D01*
X92916083Y-133785352D01*
X92866832Y-133771356D01*
X92834939Y-133761317D01*
X92830543Y-133759766D01*
X92789218Y-133745713D01*
X92747029Y-133732009D01*
X92674476Y-133706275D01*
X92571210Y-133660588D01*
X92558679Y-133654732D01*
X92528991Y-133642664D01*
X92510766Y-133637876D01*
X92506829Y-133637008D01*
X92484524Y-133627984D01*
X92448103Y-133611056D01*
X92402188Y-133588580D01*
X92351402Y-133562912D01*
X92300368Y-133536406D01*
X92253708Y-133511421D01*
X92216047Y-133490310D01*
X92192006Y-133475431D01*
X92191685Y-133475206D01*
X92166492Y-133458650D01*
X92149233Y-133449109D01*
X92141135Y-133444518D01*
X92116457Y-133428536D01*
X92080501Y-133404239D01*
X92037881Y-133374709D01*
X91999662Y-133346164D01*
X91934063Y-133291475D01*
X91863189Y-133227018D01*
X91791861Y-133157540D01*
X91724898Y-133087790D01*
X91667122Y-133022513D01*
X91623351Y-132966457D01*
X91552122Y-132854051D01*
X91477158Y-132698257D01*
X91424137Y-132535153D01*
X91393354Y-132365992D01*
X91385265Y-132195473D01*
X91541001Y-132195473D01*
X91547346Y-132352605D01*
X91576303Y-132505374D01*
X91627571Y-132653192D01*
X91700850Y-132795469D01*
X91795838Y-132931615D01*
X91912234Y-133061041D01*
X92049738Y-133183158D01*
X92208048Y-133297375D01*
X92270661Y-133335991D01*
X92383127Y-133397481D01*
X92507974Y-133457985D01*
X92638657Y-133514565D01*
X92768633Y-133564282D01*
X92891355Y-133604197D01*
X92956586Y-133622561D01*
X93036537Y-133643957D01*
X93123810Y-133666442D01*
X93214126Y-133688980D01*
X93303210Y-133710537D01*
X93386782Y-133730079D01*
X93460566Y-133746572D01*
X93520283Y-133758982D01*
X93561658Y-133766274D01*
X93602736Y-133771493D01*
X93687424Y-133779725D01*
X93781988Y-133786507D01*
X93878157Y-133791368D01*
X93967661Y-133793843D01*
X94042230Y-133793462D01*
X94105289Y-133790634D01*
X94319608Y-133767021D01*
X94530667Y-133721546D01*
X94740372Y-133653724D01*
X94950629Y-133563071D01*
X95013733Y-133531172D01*
X95115278Y-133472472D01*
X95209890Y-133406731D01*
X95303732Y-133329499D01*
X95402969Y-133236322D01*
X95489493Y-133145480D01*
X95622744Y-132979874D01*
X95736970Y-132802591D01*
X95831319Y-132615414D01*
X95904941Y-132420129D01*
X95956984Y-132218519D01*
X95986599Y-132012370D01*
X95991219Y-131943740D01*
X95993431Y-131847240D01*
X95991006Y-131753449D01*
X95984360Y-131665322D01*
X95973907Y-131585811D01*
X95960064Y-131517868D01*
X95943244Y-131464445D01*
X95923863Y-131428497D01*
X95902336Y-131412974D01*
X95889043Y-131414494D01*
X95862017Y-131426726D01*
X95833017Y-131445982D01*
X95809875Y-131466821D01*
X95800421Y-131483802D01*
X95804299Y-131499991D01*
X95814898Y-131531289D01*
X95829862Y-131570529D01*
X95846495Y-131617613D01*
X95849956Y-131629340D01*
X95864202Y-131677610D01*
X95877982Y-131734439D01*
X95880538Y-131746937D01*
X95888495Y-131791855D01*
X95890756Y-131825812D01*
X95887337Y-131858434D01*
X95878254Y-131899345D01*
X95867007Y-131938817D01*
X95851902Y-131976288D01*
X95831240Y-132012101D01*
X95802779Y-132048817D01*
X95779491Y-132073119D01*
X95764275Y-132088998D01*
X95713485Y-132135205D01*
X95661747Y-132178610D01*
X95648168Y-132190002D01*
X95566080Y-132255950D01*
X95562409Y-132258863D01*
X95493868Y-132313428D01*
X95441331Y-132355935D01*
X95432170Y-132363650D01*
X95402456Y-132388675D01*
X95374905Y-132413940D01*
X95356337Y-132434022D01*
X95344414Y-132451213D01*
X95336796Y-132467805D01*
X95331143Y-132486089D01*
X95330501Y-132488387D01*
X95317256Y-132528389D01*
X95298062Y-132578471D01*
X95277624Y-132626519D01*
X95276844Y-132628353D01*
X95270348Y-132642424D01*
X95198446Y-132767841D01*
X95107768Y-132880431D01*
X94999528Y-132979470D01*
X94874942Y-133064237D01*
X94735225Y-133134009D01*
X94721671Y-133138778D01*
X94581592Y-133188064D01*
X94415259Y-133225680D01*
X94237441Y-133246134D01*
X94218055Y-133247647D01*
X94151084Y-133255599D01*
X94110960Y-133262065D01*
X94078500Y-133267296D01*
X94012927Y-133280790D01*
X94010074Y-133281467D01*
X93962816Y-133292131D01*
X93928574Y-133299858D01*
X93865321Y-133311573D01*
X93816278Y-133316814D01*
X93777407Y-133315781D01*
X93744672Y-133308677D01*
X93714034Y-133295702D01*
X93707349Y-133292131D01*
X93749198Y-133292131D01*
X93755059Y-133297992D01*
X93760919Y-133292131D01*
X93755059Y-133286270D01*
X93749198Y-133292131D01*
X93707349Y-133292131D01*
X93705073Y-133290915D01*
X93665193Y-133260764D01*
X93651816Y-133240149D01*
X93670023Y-133240149D01*
X93673010Y-133251107D01*
X93675418Y-133254576D01*
X93686115Y-133262828D01*
X93687718Y-133262065D01*
X93684731Y-133251107D01*
X93682323Y-133247637D01*
X93671626Y-133239385D01*
X93670023Y-133240149D01*
X93651816Y-133240149D01*
X93638456Y-133219561D01*
X93614458Y-133181338D01*
X93585710Y-133162981D01*
X93567471Y-133157720D01*
X93540954Y-133147971D01*
X93518718Y-133138474D01*
X93610384Y-133138474D01*
X93613182Y-133154162D01*
X93617184Y-133153980D01*
X93619339Y-133138778D01*
X93617462Y-133127256D01*
X93612257Y-133131696D01*
X93610384Y-133138474D01*
X93518718Y-133138474D01*
X93505480Y-133132820D01*
X93457059Y-133110547D01*
X93391699Y-133079433D01*
X93314809Y-133040924D01*
X93233193Y-132994484D01*
X93161373Y-132945469D01*
X93092241Y-132888933D01*
X93018688Y-132819931D01*
X92959600Y-132757282D01*
X92883401Y-132657762D01*
X92827082Y-132557393D01*
X92791148Y-132457730D01*
X92776102Y-132360326D01*
X92782447Y-132266733D01*
X92810688Y-132178504D01*
X92813969Y-132171583D01*
X92845434Y-132115964D01*
X92882920Y-132063848D01*
X92921579Y-132021345D01*
X92956563Y-131994569D01*
X92971283Y-131987320D01*
X92973983Y-131990593D01*
X92962282Y-132009836D01*
X92939915Y-132059208D01*
X92924288Y-132125420D01*
X92916180Y-132201433D01*
X92915929Y-132280882D01*
X92923871Y-132357407D01*
X92940342Y-132424644D01*
X92977537Y-132512228D01*
X93045801Y-132621831D01*
X93134718Y-132723142D01*
X93243226Y-132815159D01*
X93370264Y-132896881D01*
X93514773Y-132967305D01*
X93562193Y-132987187D01*
X93601766Y-133003075D01*
X93627282Y-133011656D01*
X93642812Y-133013953D01*
X93652425Y-133010984D01*
X93660192Y-133003771D01*
X93660212Y-133003749D01*
X93668129Y-132992862D01*
X93943712Y-132992862D01*
X93945510Y-133009824D01*
X93953163Y-133014470D01*
X93968752Y-133014664D01*
X93985386Y-133010460D01*
X94619489Y-133010460D01*
X94621585Y-133015405D01*
X94640997Y-133009820D01*
X94678758Y-132993373D01*
X94735902Y-132965736D01*
X94748121Y-132959601D01*
X94855880Y-132897805D01*
X94944360Y-132831104D01*
X95017273Y-132756741D01*
X95038344Y-132731254D01*
X95074392Y-132685430D01*
X95099914Y-132649697D01*
X95113214Y-132626519D01*
X95112594Y-132618361D01*
X95104122Y-132623646D01*
X95079822Y-132641470D01*
X95042810Y-132669613D01*
X94996061Y-132705729D01*
X94942551Y-132747470D01*
X94885258Y-132792489D01*
X94827158Y-132838438D01*
X94771226Y-132882971D01*
X94720439Y-132923739D01*
X94677774Y-132958396D01*
X94646206Y-132984594D01*
X94628712Y-132999986D01*
X94619489Y-133010460D01*
X93985386Y-133010460D01*
X93995840Y-133007818D01*
X94039528Y-132993018D01*
X94084355Y-132976346D01*
X94130797Y-132956822D01*
X94176075Y-132934657D01*
X94222536Y-132908248D01*
X94272526Y-132875990D01*
X94328395Y-132836282D01*
X94392489Y-132787520D01*
X94467155Y-132728099D01*
X94554742Y-132656418D01*
X94657597Y-132570872D01*
X94727346Y-132512674D01*
X94811087Y-132443032D01*
X94888842Y-132378564D01*
X95378455Y-132378564D01*
X95378569Y-132380202D01*
X95385354Y-132382783D01*
X95397156Y-132370200D01*
X95400008Y-132363650D01*
X95391987Y-132365031D01*
X95386781Y-132368649D01*
X95378455Y-132378564D01*
X94888842Y-132378564D01*
X94895342Y-132373175D01*
X94975493Y-132306926D01*
X95046923Y-132248105D01*
X95105016Y-132200536D01*
X95131752Y-132178610D01*
X95624602Y-132178610D01*
X95630463Y-132184471D01*
X95636323Y-132178610D01*
X95630463Y-132172749D01*
X95624602Y-132178610D01*
X95131752Y-132178610D01*
X95156406Y-132158391D01*
X95219896Y-132104925D01*
X95255340Y-132073119D01*
X95753536Y-132073119D01*
X95759397Y-132078979D01*
X95765257Y-132073119D01*
X95759397Y-132067258D01*
X95753536Y-132073119D01*
X95255340Y-132073119D01*
X95269716Y-132060218D01*
X95308831Y-132020971D01*
X95340203Y-131983884D01*
X95366796Y-131945657D01*
X95391572Y-131902991D01*
X95417495Y-131852586D01*
X95451196Y-131779104D01*
X95479272Y-131698790D01*
X95492013Y-131629340D01*
X95490205Y-131567669D01*
X95488543Y-131556659D01*
X95484426Y-131532407D01*
X95479095Y-131510268D01*
X95471148Y-131488249D01*
X95459181Y-131464356D01*
X95441794Y-131436597D01*
X95417583Y-131402979D01*
X95385146Y-131361510D01*
X95343081Y-131310197D01*
X95289986Y-131247047D01*
X95284560Y-131240673D01*
X95826368Y-131240673D01*
X95827771Y-131254583D01*
X95831296Y-131256417D01*
X95835585Y-131246769D01*
X95834739Y-131240564D01*
X95827771Y-131238955D01*
X95826368Y-131240673D01*
X95284560Y-131240673D01*
X95224458Y-131170067D01*
X95194826Y-131135417D01*
X95214357Y-131135417D01*
X95220218Y-131141277D01*
X95226079Y-131135417D01*
X95220218Y-131129556D01*
X95214357Y-131135417D01*
X95194826Y-131135417D01*
X95145095Y-131077265D01*
X95111735Y-131037773D01*
X95073233Y-130990750D01*
X95042613Y-130951662D01*
X95022395Y-130923746D01*
X95015096Y-130910237D01*
X95010930Y-130896421D01*
X94997672Y-130897240D01*
X94978690Y-130914147D01*
X94957472Y-130945036D01*
X94946511Y-130963525D01*
X94887951Y-131046962D01*
X94814353Y-131133434D01*
X94730876Y-131217647D01*
X94642678Y-131294307D01*
X94554918Y-131358121D01*
X94521427Y-131380473D01*
X94485295Y-131407075D01*
X94466485Y-131424791D01*
X94465966Y-131432633D01*
X94484708Y-131429615D01*
X94493649Y-131430624D01*
X94515923Y-131443064D01*
X94530321Y-131454041D01*
X94550456Y-131469391D01*
X94577896Y-131492916D01*
X94598558Y-131510630D01*
X94661537Y-131567804D01*
X94701856Y-131605301D01*
X94759091Y-131659948D01*
X94801542Y-131703082D01*
X94831165Y-131737030D01*
X94849919Y-131764121D01*
X94859759Y-131786682D01*
X94862642Y-131807042D01*
X94854398Y-131845538D01*
X94828987Y-131896664D01*
X94787942Y-131955906D01*
X94785701Y-131958769D01*
X94778492Y-131967627D01*
X94760951Y-131989180D01*
X94723322Y-132034101D01*
X94675144Y-132090843D01*
X94618745Y-132156715D01*
X94556454Y-132229027D01*
X94490600Y-132305087D01*
X94423511Y-132382206D01*
X94357515Y-132457694D01*
X94294942Y-132528859D01*
X94238120Y-132593012D01*
X94189379Y-132647461D01*
X94146047Y-132696139D01*
X94137442Y-132706067D01*
X94098253Y-132751280D01*
X94056139Y-132801371D01*
X94023110Y-132842353D01*
X94002572Y-132870165D01*
X93998733Y-132876038D01*
X93988427Y-132893608D01*
X93972339Y-132921035D01*
X93953327Y-132961621D01*
X93943712Y-132992862D01*
X93668129Y-132992862D01*
X93671930Y-132987635D01*
X93692732Y-132955980D01*
X93719682Y-132913348D01*
X93731824Y-132893608D01*
X93749198Y-132893608D01*
X93755059Y-132899468D01*
X93760919Y-132893608D01*
X93755059Y-132887747D01*
X93749198Y-132893608D01*
X93731824Y-132893608D01*
X93749847Y-132864305D01*
X93750154Y-132863799D01*
X93831801Y-132731622D01*
X93848265Y-132706067D01*
X93866411Y-132706067D01*
X93872271Y-132711928D01*
X93878132Y-132706067D01*
X93872271Y-132700207D01*
X93866411Y-132706067D01*
X93848265Y-132706067D01*
X93904271Y-132619137D01*
X93967391Y-132526577D01*
X94020988Y-132454178D01*
X94064888Y-132402174D01*
X94098917Y-132370800D01*
X94122902Y-132360290D01*
X94124870Y-132359939D01*
X94143055Y-132350024D01*
X94171961Y-132329700D01*
X94206086Y-132303338D01*
X94239926Y-132275309D01*
X94267979Y-132249984D01*
X94284744Y-132231732D01*
X94288236Y-132226213D01*
X94298537Y-132199549D01*
X94305688Y-132159056D01*
X94310630Y-132099944D01*
X94313006Y-132091841D01*
X94326168Y-132065467D01*
X94348181Y-132028290D01*
X94376008Y-131985617D01*
X94388083Y-131967627D01*
X94405589Y-131967627D01*
X94411450Y-131973488D01*
X94417311Y-131967627D01*
X94411450Y-131961767D01*
X94405589Y-131967627D01*
X94388083Y-131967627D01*
X94408065Y-131937858D01*
X94442447Y-131882892D01*
X94464263Y-131840143D01*
X94474486Y-131805830D01*
X94474083Y-131776174D01*
X94464026Y-131747395D01*
X94445284Y-131715713D01*
X94437138Y-131703954D01*
X94423267Y-131687644D01*
X94405742Y-131673322D01*
X94381427Y-131659539D01*
X94347188Y-131644844D01*
X94299890Y-131627788D01*
X94236400Y-131606921D01*
X94153582Y-131580793D01*
X94137231Y-131575621D01*
X94069737Y-131552285D01*
X94022546Y-131531531D01*
X93993380Y-131511912D01*
X93980596Y-131492916D01*
X94429032Y-131492916D01*
X94429373Y-131495717D01*
X94440753Y-131504637D01*
X94443555Y-131504296D01*
X94452475Y-131492916D01*
X94452134Y-131490114D01*
X94440753Y-131481194D01*
X94437952Y-131481535D01*
X94429032Y-131492916D01*
X93980596Y-131492916D01*
X93979963Y-131491976D01*
X93979990Y-131481194D01*
X94358704Y-131481194D01*
X94361725Y-131489196D01*
X94376959Y-131492865D01*
X94397459Y-131485687D01*
X94414591Y-131469473D01*
X94421631Y-131454041D01*
X94417410Y-131446031D01*
X94414523Y-131446387D01*
X94405589Y-131457752D01*
X94401194Y-131464564D01*
X94382147Y-131469473D01*
X94368521Y-131471671D01*
X94358704Y-131481194D01*
X93979990Y-131481194D01*
X93980018Y-131470275D01*
X93984655Y-131457313D01*
X93999297Y-131437763D01*
X94025494Y-131420323D01*
X94067055Y-131402737D01*
X94127784Y-131382751D01*
X94239400Y-131343867D01*
X94396045Y-131270981D01*
X94536045Y-131182196D01*
X94658837Y-131078182D01*
X94763860Y-130959605D01*
X94836733Y-130848246D01*
X95020956Y-130848246D01*
X95023362Y-130851753D01*
X95033369Y-130859967D01*
X95034539Y-130859662D01*
X95038538Y-130848246D01*
X95038061Y-130845033D01*
X95026125Y-130836524D01*
X95021886Y-130837445D01*
X95020956Y-130848246D01*
X94836733Y-130848246D01*
X94850550Y-130827132D01*
X94859815Y-130807221D01*
X95050259Y-130807221D01*
X95056120Y-130813082D01*
X95061981Y-130807221D01*
X95056120Y-130801360D01*
X95050259Y-130807221D01*
X94859815Y-130807221D01*
X94879226Y-130765505D01*
X95050259Y-130765505D01*
X95051470Y-130771997D01*
X95063317Y-130783877D01*
X95077928Y-130781506D01*
X95081110Y-130777857D01*
X95084007Y-130761674D01*
X95067841Y-130754475D01*
X95059764Y-130755716D01*
X95050259Y-130765505D01*
X94879226Y-130765505D01*
X94908902Y-130701730D01*
X95085423Y-130701730D01*
X95086746Y-130709818D01*
X95097145Y-130719312D01*
X95102537Y-130717328D01*
X95108866Y-130701730D01*
X95107543Y-130693641D01*
X95097145Y-130684148D01*
X95091752Y-130686131D01*
X95085423Y-130701730D01*
X94908902Y-130701730D01*
X94918347Y-130681432D01*
X94935228Y-130626166D01*
X95096486Y-130626166D01*
X95147701Y-130701730D01*
X95188329Y-130761674D01*
X95191073Y-130765723D01*
X95200374Y-130779332D01*
X95220175Y-130807221D01*
X95238124Y-130832501D01*
X95249986Y-130848246D01*
X95274215Y-130880405D01*
X95304944Y-130918247D01*
X95326605Y-130941230D01*
X95339177Y-130951705D01*
X95365037Y-130969810D01*
X95381793Y-130976802D01*
X95389601Y-130975121D01*
X95417448Y-130966450D01*
X95460664Y-130951712D01*
X95515252Y-130932385D01*
X95577212Y-130909947D01*
X95642544Y-130885875D01*
X95707249Y-130861648D01*
X95767328Y-130838744D01*
X95818781Y-130818641D01*
X95857610Y-130802817D01*
X95879813Y-130792750D01*
X95883242Y-130790650D01*
X95905002Y-130773428D01*
X95938658Y-130743516D01*
X95981582Y-130703534D01*
X96031147Y-130656101D01*
X96084724Y-130603836D01*
X96139684Y-130549360D01*
X96193400Y-130495293D01*
X96243243Y-130444254D01*
X96286584Y-130398862D01*
X96320797Y-130361738D01*
X96343252Y-130335501D01*
X96351321Y-130322772D01*
X96348247Y-130315912D01*
X96331695Y-130294285D01*
X96304029Y-130263392D01*
X96268915Y-130227469D01*
X96230166Y-130187477D01*
X96195029Y-130144268D01*
X96165619Y-130097011D01*
X96135544Y-130036552D01*
X96116637Y-129997720D01*
X96080526Y-129936045D01*
X96045296Y-129894486D01*
X96009013Y-129871030D01*
X95969746Y-129863659D01*
X95961075Y-129864141D01*
X95944624Y-129868299D01*
X95924919Y-129878412D01*
X95899202Y-129896508D01*
X95864715Y-129924614D01*
X95818698Y-129964757D01*
X95758393Y-130018965D01*
X95758388Y-130018970D01*
X95728199Y-130046030D01*
X95701630Y-130069846D01*
X95682837Y-130086363D01*
X95647053Y-130117812D01*
X95615471Y-130144969D01*
X95598425Y-130159627D01*
X95559514Y-130192053D01*
X95534089Y-130211848D01*
X95483728Y-130241524D01*
X95431152Y-130257169D01*
X95374689Y-130256801D01*
X95309982Y-130240362D01*
X95232676Y-130207792D01*
X95209148Y-130196852D01*
X95181138Y-130184813D01*
X95167035Y-130180133D01*
X95164047Y-130187448D01*
X95159976Y-130213889D01*
X95155981Y-130255091D01*
X95152608Y-130306277D01*
X95150566Y-130336054D01*
X95143151Y-130405247D01*
X95132844Y-130473393D01*
X95121220Y-130529293D01*
X95096486Y-130626166D01*
X94935228Y-130626166D01*
X94966688Y-130523170D01*
X94995012Y-130353015D01*
X95000273Y-130278037D01*
X94995706Y-130144969D01*
X95155751Y-130144969D01*
X95156092Y-130147771D01*
X95167472Y-130156690D01*
X95170274Y-130156350D01*
X95179193Y-130144969D01*
X95178853Y-130142167D01*
X95167472Y-130133248D01*
X95164671Y-130133588D01*
X95155751Y-130144969D01*
X94995706Y-130144969D01*
X94994784Y-130118112D01*
X94989039Y-130086363D01*
X95149890Y-130086363D01*
X95152296Y-130089871D01*
X95162303Y-130098084D01*
X95163473Y-130097779D01*
X95167472Y-130086363D01*
X95166995Y-130083150D01*
X95155059Y-130074641D01*
X95150820Y-130075562D01*
X95149890Y-130086363D01*
X94989039Y-130086363D01*
X94980429Y-130038786D01*
X95144030Y-130038786D01*
X95144477Y-130042074D01*
X95155751Y-130057060D01*
X95161790Y-130058162D01*
X95167472Y-130046030D01*
X95166038Y-130037297D01*
X95155751Y-130027756D01*
X95152970Y-130028072D01*
X95144030Y-130038786D01*
X94980429Y-130038786D01*
X94966611Y-129962431D01*
X94943460Y-129893571D01*
X95110677Y-129893571D01*
X95114937Y-129904919D01*
X95130497Y-129919713D01*
X95139676Y-129919543D01*
X95142219Y-129904074D01*
X95137959Y-129892725D01*
X95122398Y-129877932D01*
X95113219Y-129878102D01*
X95110677Y-129893571D01*
X94943460Y-129893571D01*
X94916217Y-129812537D01*
X94844062Y-129669970D01*
X94817649Y-129632183D01*
X95006103Y-129632183D01*
X95007738Y-129644393D01*
X95018377Y-129670103D01*
X95038529Y-129713160D01*
X95038918Y-129713983D01*
X95056447Y-129753143D01*
X95068932Y-129784913D01*
X95073693Y-129802484D01*
X95081567Y-129811687D01*
X95106816Y-129829041D01*
X95145316Y-129851266D01*
X95192806Y-129875742D01*
X95254781Y-129904074D01*
X95256997Y-129905087D01*
X95316217Y-129925884D01*
X95364604Y-129933794D01*
X95406379Y-129929448D01*
X95445760Y-129913474D01*
X95462850Y-129902226D01*
X95499976Y-129873342D01*
X95552336Y-129829487D01*
X95619025Y-129771453D01*
X95699140Y-129700029D01*
X95757207Y-129647360D01*
X96308298Y-129647360D01*
X96308355Y-129680287D01*
X96313906Y-129718485D01*
X96341517Y-129802912D01*
X96388058Y-129883952D01*
X96450729Y-129956181D01*
X96455927Y-129961061D01*
X96484445Y-129986194D01*
X96513900Y-130008431D01*
X96546722Y-130028694D01*
X96585343Y-130047904D01*
X96632193Y-130066981D01*
X96689703Y-130086845D01*
X96760304Y-130108418D01*
X96846426Y-130132620D01*
X96950502Y-130160372D01*
X97074960Y-130192594D01*
X97083970Y-130194901D01*
X97153872Y-130212494D01*
X97216568Y-130227750D01*
X97268188Y-130239765D01*
X97304868Y-130247636D01*
X97322739Y-130250461D01*
X97345129Y-130244568D01*
X97372334Y-130228353D01*
X97374227Y-130226819D01*
X97388506Y-130213715D01*
X97393768Y-130200349D01*
X97390667Y-130179356D01*
X97379852Y-130143373D01*
X97375113Y-130126917D01*
X97363606Y-130079137D01*
X97351753Y-130021462D01*
X97341482Y-129962959D01*
X97322896Y-129845416D01*
X97324075Y-129836027D01*
X97441878Y-129836027D01*
X97444817Y-129860288D01*
X97456600Y-129879708D01*
X97480213Y-129903357D01*
X97481630Y-129904700D01*
X97488735Y-129911520D01*
X97495641Y-129917876D01*
X97503401Y-129924188D01*
X97513068Y-129930872D01*
X97525695Y-129938346D01*
X97542337Y-129947030D01*
X97564045Y-129957340D01*
X97591873Y-129969695D01*
X97626875Y-129984512D01*
X97670103Y-130002211D01*
X97722611Y-130023208D01*
X97785452Y-130047923D01*
X97859679Y-130076772D01*
X97946345Y-130110174D01*
X98046504Y-130148547D01*
X98161209Y-130192309D01*
X98291513Y-130241879D01*
X98438469Y-130297673D01*
X98504661Y-130322772D01*
X98603130Y-130360110D01*
X98786550Y-130429609D01*
X98989782Y-130506586D01*
X99213879Y-130591461D01*
X99238441Y-130600753D01*
X99332536Y-130636152D01*
X99419520Y-130668566D01*
X99496930Y-130697100D01*
X99562300Y-130720856D01*
X99613166Y-130738935D01*
X99647062Y-130750441D01*
X99661526Y-130754475D01*
X99670219Y-130753809D01*
X99681262Y-130747069D01*
X99684245Y-130729859D01*
X99679361Y-130698261D01*
X99666807Y-130648361D01*
X99665235Y-130642439D01*
X99652404Y-130580231D01*
X99645269Y-130510829D01*
X99644378Y-130477994D01*
X99887019Y-130477994D01*
X99904076Y-130591973D01*
X99940035Y-130701103D01*
X99993609Y-130802784D01*
X100063510Y-130894421D01*
X100148450Y-130973417D01*
X100247143Y-131037175D01*
X100289029Y-131054479D01*
X100358301Y-131083097D01*
X100371128Y-131086766D01*
X100444537Y-131100034D01*
X100526873Y-131104989D01*
X100607930Y-131101436D01*
X100677504Y-131089182D01*
X100701766Y-131081687D01*
X100790835Y-131041896D01*
X100879109Y-130985274D01*
X100961049Y-130916317D01*
X101031118Y-130839521D01*
X101083776Y-130759381D01*
X101122982Y-130668565D01*
X101151327Y-130552699D01*
X101158040Y-130435151D01*
X101143536Y-130318838D01*
X101108227Y-130206677D01*
X101052530Y-130101588D01*
X100976858Y-130006487D01*
X100887978Y-129927173D01*
X100785517Y-129862612D01*
X100677004Y-129818849D01*
X100564625Y-129796310D01*
X100450569Y-129795420D01*
X100337021Y-129816607D01*
X100226171Y-129860296D01*
X100162137Y-129900703D01*
X100090078Y-129964114D01*
X100023710Y-130040699D01*
X99967624Y-130125075D01*
X99926409Y-130211859D01*
X99914759Y-130245871D01*
X99890151Y-130361761D01*
X99887019Y-130477994D01*
X99644378Y-130477994D01*
X99642975Y-130426280D01*
X99644127Y-130366612D01*
X99653174Y-130269683D01*
X99672771Y-130178567D01*
X99704772Y-130085651D01*
X99751036Y-129983325D01*
X99776095Y-129934618D01*
X99810615Y-129876975D01*
X99848916Y-129826058D01*
X99897412Y-129772633D01*
X99925670Y-129742440D01*
X99953995Y-129709724D01*
X99971716Y-129686098D01*
X99975830Y-129675288D01*
X99974939Y-129674837D01*
X99958116Y-129668214D01*
X99921507Y-129654434D01*
X99866933Y-129634159D01*
X99796213Y-129608051D01*
X99711169Y-129576775D01*
X99613619Y-129540991D01*
X99505384Y-129501363D01*
X99388284Y-129458553D01*
X99264139Y-129413225D01*
X99134770Y-129366040D01*
X99001995Y-129317661D01*
X98867636Y-129268751D01*
X98733512Y-129219972D01*
X98601444Y-129171988D01*
X98473251Y-129125460D01*
X98350754Y-129081051D01*
X98235772Y-129039425D01*
X98130126Y-129001243D01*
X98035636Y-128967168D01*
X97954122Y-128937864D01*
X97887404Y-128913991D01*
X97837302Y-128896214D01*
X97805636Y-128885195D01*
X97754038Y-128869460D01*
X97688054Y-128857492D01*
X97637356Y-128861182D01*
X97600067Y-128881194D01*
X97574317Y-128918193D01*
X97558229Y-128972842D01*
X97557585Y-128976399D01*
X97552240Y-129009446D01*
X97544447Y-129061351D01*
X97534722Y-129128381D01*
X97523578Y-129206803D01*
X97511528Y-129292883D01*
X97499086Y-129382887D01*
X97486765Y-129473084D01*
X97475079Y-129559738D01*
X97464542Y-129639118D01*
X97455667Y-129707489D01*
X97448967Y-129761118D01*
X97444957Y-129796271D01*
X97444797Y-129797855D01*
X97441878Y-129836027D01*
X97324075Y-129836027D01*
X97388379Y-129324150D01*
X97392295Y-129292993D01*
X97410870Y-129145687D01*
X97426917Y-129019585D01*
X97440695Y-128912955D01*
X97449061Y-128849768D01*
X97769595Y-128849768D01*
X97775456Y-128855629D01*
X97781316Y-128849768D01*
X97775456Y-128843908D01*
X97769595Y-128849768D01*
X97449061Y-128849768D01*
X97452464Y-128824069D01*
X97462484Y-128751193D01*
X97471013Y-128692599D01*
X97478313Y-128646554D01*
X97483921Y-128615343D01*
X97500006Y-128615343D01*
X97505866Y-128621204D01*
X97511727Y-128615343D01*
X97505866Y-128609482D01*
X97500006Y-128615343D01*
X97483921Y-128615343D01*
X97484642Y-128611329D01*
X97490260Y-128585192D01*
X97495428Y-128566413D01*
X97500405Y-128553261D01*
X97505450Y-128544006D01*
X97515232Y-128532041D01*
X97538842Y-128515693D01*
X97574954Y-128502485D01*
X97595172Y-128498130D01*
X97746152Y-128498130D01*
X97752013Y-128503991D01*
X97757874Y-128498130D01*
X97752013Y-128492270D01*
X97746152Y-128498130D01*
X97595172Y-128498130D01*
X97627214Y-128491228D01*
X97699267Y-128480731D01*
X97712029Y-128479106D01*
X97781712Y-128469592D01*
X97829099Y-128461774D01*
X97855120Y-128455480D01*
X97860703Y-128450536D01*
X97858847Y-128449530D01*
X97838463Y-128444368D01*
X97798681Y-128436895D01*
X97742499Y-128427536D01*
X97672918Y-128416713D01*
X97592935Y-128404850D01*
X97505549Y-128392369D01*
X97413761Y-128379694D01*
X97320567Y-128367248D01*
X97228968Y-128355453D01*
X97141962Y-128344734D01*
X97062548Y-128335512D01*
X96993726Y-128328213D01*
X96979563Y-128326877D01*
X96866922Y-128322334D01*
X96770537Y-128331054D01*
X96687086Y-128353909D01*
X96662071Y-128366734D01*
X96613247Y-128391766D01*
X96545700Y-128445497D01*
X96526228Y-128464222D01*
X96503686Y-128487787D01*
X96484525Y-128511811D01*
X96468130Y-128538576D01*
X96453887Y-128570364D01*
X96441184Y-128609456D01*
X96429406Y-128658136D01*
X96417939Y-128718686D01*
X96408367Y-128779441D01*
X96406170Y-128793387D01*
X96404848Y-128802883D01*
X96393485Y-128884521D01*
X96393432Y-128884932D01*
X96379270Y-128994371D01*
X96362913Y-129125218D01*
X96358621Y-129159969D01*
X96342041Y-129298113D01*
X96328649Y-129416634D01*
X96318515Y-129514823D01*
X96311708Y-129591968D01*
X96308298Y-129647360D01*
X95757207Y-129647360D01*
X95791774Y-129616006D01*
X95896024Y-129520173D01*
X95933251Y-129485492D01*
X95976112Y-129444170D01*
X96005592Y-129413062D01*
X96024299Y-129389088D01*
X96034838Y-129369165D01*
X96039816Y-129350215D01*
X96040434Y-129345921D01*
X96043934Y-129317275D01*
X96049295Y-129269603D01*
X96056159Y-129206235D01*
X96064171Y-129130502D01*
X96072971Y-129045734D01*
X96082204Y-128955260D01*
X96089439Y-128884932D01*
X96105174Y-128884932D01*
X96111035Y-128890793D01*
X96116895Y-128884932D01*
X96111035Y-128879072D01*
X96105174Y-128884932D01*
X96089439Y-128884932D01*
X96091686Y-128863094D01*
X96098298Y-128802883D01*
X96374763Y-128802883D01*
X96380624Y-128808744D01*
X96386485Y-128802883D01*
X96380624Y-128797023D01*
X96374763Y-128802883D01*
X96098298Y-128802883D01*
X96100872Y-128779441D01*
X96116895Y-128779441D01*
X96122756Y-128785301D01*
X96128617Y-128779441D01*
X96122756Y-128773580D01*
X96116895Y-128779441D01*
X96100872Y-128779441D01*
X96102875Y-128761199D01*
X96113285Y-128678005D01*
X96123562Y-128610869D01*
X96134352Y-128557147D01*
X96146301Y-128514198D01*
X96160055Y-128479378D01*
X96176260Y-128450045D01*
X96195563Y-128423556D01*
X96218608Y-128397268D01*
X96246959Y-128366734D01*
X96156963Y-128352216D01*
X96134801Y-128348945D01*
X96065448Y-128344623D01*
X96010001Y-128353272D01*
X95963213Y-128376284D01*
X95919837Y-128415049D01*
X95903879Y-128436060D01*
X95876167Y-128480013D01*
X95839403Y-128543806D01*
X95794022Y-128626658D01*
X95740459Y-128727791D01*
X95679147Y-128846426D01*
X95657572Y-128888621D01*
X95609124Y-128983210D01*
X95568639Y-129061060D01*
X95534030Y-129125068D01*
X95503210Y-129178134D01*
X95474095Y-129223156D01*
X95444598Y-129263033D01*
X95412632Y-129300665D01*
X95376112Y-129338948D01*
X95332951Y-129380783D01*
X95281063Y-129429068D01*
X95267328Y-129441693D01*
X95229825Y-129476165D01*
X95218362Y-129486702D01*
X95175243Y-129526072D01*
X95158754Y-129540714D01*
X95124390Y-129571228D01*
X95086458Y-129602778D01*
X95059218Y-129622434D01*
X95040440Y-129631907D01*
X95027891Y-129632910D01*
X95027805Y-129632888D01*
X95012962Y-129629630D01*
X95006103Y-129632183D01*
X94817649Y-129632183D01*
X94750608Y-129536273D01*
X94745159Y-129530211D01*
X94946579Y-129530211D01*
X94950839Y-129541560D01*
X94966400Y-129556354D01*
X94975579Y-129556183D01*
X94978121Y-129540714D01*
X94973861Y-129529366D01*
X94958300Y-129514572D01*
X94949121Y-129514743D01*
X94946579Y-129530211D01*
X94745159Y-129530211D01*
X94703086Y-129483409D01*
X94909604Y-129483409D01*
X94909909Y-129484579D01*
X94921325Y-129488578D01*
X94924538Y-129488101D01*
X94933047Y-129476165D01*
X94932126Y-129471925D01*
X94921325Y-129470996D01*
X94917818Y-129473402D01*
X94909604Y-129483409D01*
X94703086Y-129483409D01*
X94671015Y-129447732D01*
X94879198Y-129447732D01*
X94891331Y-129453414D01*
X94900064Y-129451979D01*
X94909604Y-129441693D01*
X94909288Y-129438912D01*
X94898575Y-129429971D01*
X94895286Y-129430419D01*
X94880301Y-129441693D01*
X94879198Y-129447732D01*
X94671015Y-129447732D01*
X94667844Y-129444204D01*
X94543250Y-129335778D01*
X94403626Y-129244461D01*
X94250437Y-129171175D01*
X94085148Y-129116846D01*
X94071964Y-129113446D01*
X94020925Y-129101459D01*
X93974935Y-129093483D01*
X93926877Y-129088759D01*
X93869632Y-129086530D01*
X93796083Y-129086036D01*
X93758291Y-129086395D01*
X93628863Y-129093549D01*
X93513707Y-129111039D01*
X93406806Y-129140412D01*
X93302145Y-129183218D01*
X93193708Y-129241002D01*
X93149336Y-129269715D01*
X93077521Y-129324593D01*
X93002470Y-129390056D01*
X92929888Y-129460750D01*
X92865480Y-129531322D01*
X92814952Y-129596417D01*
X92783445Y-129643121D01*
X92749105Y-129698204D01*
X92729625Y-129737014D01*
X92724893Y-129760568D01*
X92734798Y-129769884D01*
X92759228Y-129765981D01*
X92798071Y-129749874D01*
X92839911Y-129732880D01*
X92918625Y-129715109D01*
X92994392Y-129715320D01*
X93061593Y-129733854D01*
X93063986Y-129734954D01*
X93130044Y-129774896D01*
X93184589Y-129829093D01*
X93228946Y-129899633D01*
X93264435Y-129988601D01*
X93292379Y-130098084D01*
X93303017Y-130146919D01*
X93327619Y-130236260D01*
X93356576Y-130308230D01*
X93392158Y-130366954D01*
X93436634Y-130416555D01*
X93492277Y-130461158D01*
X93506604Y-130471449D01*
X93553359Y-130511257D01*
X93581458Y-130550089D01*
X93592658Y-130589301D01*
X93593771Y-130593198D01*
X93593168Y-130645834D01*
X93582438Y-130689733D01*
X93576090Y-130715704D01*
X93536996Y-130787193D01*
X93478349Y-130853125D01*
X93402083Y-130912022D01*
X93310136Y-130962408D01*
X93204445Y-131002808D01*
X93086946Y-131031744D01*
X93041056Y-131038615D01*
X92957038Y-131045684D01*
X92865433Y-131048195D01*
X92773896Y-131046195D01*
X92690081Y-131039732D01*
X92621644Y-131028853D01*
X92580197Y-131019551D01*
X92531347Y-131009677D01*
X92494085Y-131005777D01*
X92461876Y-131008705D01*
X92428187Y-131019317D01*
X92386483Y-131038470D01*
X92330232Y-131067019D01*
X92279429Y-131093742D01*
X92215103Y-131129371D01*
X92155265Y-131164252D01*
X92108220Y-131193648D01*
X92106570Y-131194746D01*
X92062984Y-131227127D01*
X92011114Y-131270645D01*
X91954738Y-131321589D01*
X91897632Y-131376251D01*
X91843572Y-131430920D01*
X91796336Y-131481886D01*
X91759700Y-131525439D01*
X91737441Y-131557869D01*
X91724624Y-131581384D01*
X91700449Y-131625042D01*
X91675910Y-131668735D01*
X91670845Y-131678061D01*
X91646099Y-131732542D01*
X91620257Y-131801602D01*
X91595608Y-131878237D01*
X91574440Y-131955448D01*
X91559041Y-132026234D01*
X91557570Y-132034569D01*
X91541001Y-132195473D01*
X91385265Y-132195473D01*
X91385102Y-132192027D01*
X91399677Y-132014512D01*
X91400142Y-132011433D01*
X91407222Y-131973844D01*
X91417930Y-131925879D01*
X91430577Y-131874202D01*
X91443475Y-131825476D01*
X91454936Y-131786365D01*
X91463271Y-131763533D01*
X91471688Y-131745279D01*
X91484128Y-131715620D01*
X91530827Y-131610212D01*
X91600658Y-131487784D01*
X91686097Y-131372027D01*
X91790853Y-131257402D01*
X91821339Y-131227766D01*
X91867570Y-131185356D01*
X91915359Y-131143838D01*
X91960988Y-131106254D01*
X92000734Y-131075644D01*
X92030877Y-131055048D01*
X92047697Y-131047507D01*
X92063033Y-131041203D01*
X92086157Y-131025495D01*
X92108953Y-131009987D01*
X92145800Y-130987935D01*
X92187369Y-130965098D01*
X92190099Y-130963661D01*
X92225720Y-130943719D01*
X92250991Y-130927416D01*
X92260596Y-130918159D01*
X92260348Y-130917291D01*
X92248547Y-130905547D01*
X92222584Y-130885660D01*
X92187338Y-130861411D01*
X92147295Y-130832841D01*
X92073628Y-130763225D01*
X92020235Y-130684148D01*
X92013263Y-130668037D01*
X92001790Y-130624773D01*
X91995226Y-130575270D01*
X91994157Y-130534810D01*
X92143387Y-130534810D01*
X92145684Y-130567034D01*
X92153601Y-130603224D01*
X92166486Y-130636596D01*
X92172971Y-130647965D01*
X92201151Y-130685685D01*
X92233883Y-130718528D01*
X92245871Y-130727789D01*
X92291372Y-130757256D01*
X92346477Y-130787543D01*
X92401845Y-130813750D01*
X92448137Y-130830976D01*
X92469436Y-130838440D01*
X92489161Y-130848632D01*
X92493098Y-130851115D01*
X92519475Y-130861258D01*
X92560883Y-130872747D01*
X92610980Y-130884103D01*
X92663421Y-130893849D01*
X92711865Y-130900508D01*
X92844990Y-130909052D01*
X92984970Y-130904734D01*
X93110859Y-130885685D01*
X93221399Y-130852193D01*
X93315335Y-130804552D01*
X93391410Y-130743051D01*
X93398253Y-130735922D01*
X93422261Y-130706777D01*
X93427497Y-130689733D01*
X93413496Y-130684545D01*
X93379791Y-130690971D01*
X93325918Y-130708765D01*
X93317055Y-130711966D01*
X93219301Y-130742133D01*
X93122700Y-130761276D01*
X93019475Y-130770537D01*
X92901850Y-130771059D01*
X92894363Y-130770848D01*
X92837855Y-130768773D01*
X92790447Y-130766217D01*
X92756917Y-130763484D01*
X92742046Y-130760879D01*
X92741481Y-130760574D01*
X92723945Y-130755823D01*
X92690474Y-130749472D01*
X92647779Y-130742808D01*
X92610875Y-130736635D01*
X92528114Y-130715107D01*
X92444656Y-130681701D01*
X92355771Y-130634338D01*
X92256731Y-130570940D01*
X92233880Y-130555576D01*
X92196166Y-130531295D01*
X92167985Y-130514562D01*
X92154170Y-130508329D01*
X92147361Y-130513334D01*
X92143387Y-130534810D01*
X91994157Y-130534810D01*
X91993944Y-130526726D01*
X91998316Y-130486339D01*
X92008713Y-130461306D01*
X92012780Y-130455824D01*
X92019543Y-130433135D01*
X92015979Y-130412099D01*
X92003065Y-130402837D01*
X92002943Y-130402834D01*
X91989285Y-130394524D01*
X91964088Y-130372980D01*
X91931452Y-130342277D01*
X91895478Y-130306494D01*
X91860268Y-130269708D01*
X91829922Y-130235996D01*
X91808542Y-130209436D01*
X91797397Y-130193982D01*
X91777548Y-130166789D01*
X91765561Y-130150830D01*
X91733329Y-130104919D01*
X91699270Y-130045268D01*
X91674662Y-129989626D01*
X91667418Y-129970043D01*
X91655295Y-129940943D01*
X91647147Y-129926136D01*
X91643638Y-129914885D01*
X91640555Y-129885879D01*
X91639393Y-129847639D01*
X91792377Y-129847639D01*
X91798900Y-129893310D01*
X91819835Y-129948613D01*
X91853909Y-130011071D01*
X91899851Y-130078210D01*
X91956387Y-130147553D01*
X92022244Y-130216624D01*
X92099387Y-130285600D01*
X92226767Y-130378753D01*
X92362537Y-130455898D01*
X92500882Y-130513430D01*
X92533422Y-130523970D01*
X92643117Y-130554265D01*
X92759540Y-130579710D01*
X92873447Y-130598452D01*
X92975594Y-130608635D01*
X93000812Y-130610088D01*
X93050992Y-130613108D01*
X93091813Y-130615731D01*
X93116249Y-130617513D01*
X93159342Y-130619362D01*
X93210866Y-130618478D01*
X93264466Y-130615261D01*
X93315039Y-130610223D01*
X93357482Y-130603876D01*
X93386690Y-130596731D01*
X93397560Y-130589301D01*
X93395133Y-130583426D01*
X93379602Y-130564365D01*
X93354461Y-130540204D01*
X93350858Y-130536938D01*
X93322098Y-130506101D01*
X93288794Y-130464433D01*
X93257442Y-130419986D01*
X93236367Y-130386122D01*
X93214984Y-130345929D01*
X93196402Y-130301990D01*
X93178849Y-130249478D01*
X93160553Y-130183569D01*
X93139742Y-130099437D01*
X93137103Y-130088740D01*
X93122026Y-130036105D01*
X93105230Y-129987889D01*
X93089885Y-129953375D01*
X93068640Y-129922389D01*
X93032747Y-129886643D01*
X92994046Y-129861500D01*
X92959209Y-129852129D01*
X92944577Y-129855036D01*
X92911177Y-129865845D01*
X92866344Y-129882764D01*
X92815627Y-129903794D01*
X92780203Y-129918526D01*
X92721972Y-129940619D01*
X92668521Y-129958588D01*
X92628086Y-129969546D01*
X92531266Y-129981748D01*
X92409087Y-129978989D01*
X92278967Y-129958725D01*
X92144326Y-129921517D01*
X92008589Y-129867928D01*
X91996360Y-129862354D01*
X91934349Y-129834183D01*
X91889758Y-129814438D01*
X91859221Y-129802037D01*
X91839371Y-129795901D01*
X91826840Y-129794949D01*
X91818261Y-129798100D01*
X91810267Y-129804272D01*
X91801540Y-129814076D01*
X91792377Y-129847639D01*
X91639393Y-129847639D01*
X91639369Y-129846844D01*
X91644507Y-129792921D01*
X91667097Y-129733190D01*
X91706687Y-129689182D01*
X91762198Y-129661983D01*
X91832552Y-129652676D01*
X91850426Y-129653014D01*
X91882698Y-129657112D01*
X91914509Y-129668258D01*
X91955843Y-129689429D01*
X91979198Y-129701487D01*
X92019064Y-129720992D01*
X92066081Y-129743348D01*
X92112717Y-129764979D01*
X92151441Y-129782308D01*
X92194450Y-129798042D01*
X92254261Y-129815543D01*
X92320731Y-129831823D01*
X92385375Y-129844622D01*
X92426555Y-129847422D01*
X92467271Y-129843038D01*
X92499120Y-129832739D01*
X92514909Y-129818005D01*
X92523829Y-129793327D01*
X92555949Y-129722950D01*
X92599790Y-129643188D01*
X92652002Y-129559257D01*
X92709234Y-129476375D01*
X92768134Y-129399760D01*
X92825353Y-129334629D01*
X92858245Y-129301712D01*
X92901509Y-129261177D01*
X92946977Y-129220803D01*
X92990826Y-129183806D01*
X93029233Y-129153400D01*
X93058374Y-129132800D01*
X93074426Y-129125218D01*
X93084748Y-129120961D01*
X93109894Y-129107063D01*
X93143185Y-129086858D01*
X93156581Y-129078652D01*
X93251466Y-129029906D01*
X93359967Y-128987694D01*
X93473748Y-128955331D01*
X93496741Y-128950836D01*
X93544244Y-128943663D01*
X93602100Y-128936436D01*
X93663602Y-128929855D01*
X93722041Y-128924619D01*
X93770708Y-128921430D01*
X93802896Y-128920986D01*
X93850310Y-128923729D01*
X93942619Y-128930735D01*
X94015834Y-128939126D01*
X94072969Y-128949293D01*
X94117032Y-128961623D01*
X94145782Y-128970965D01*
X94182698Y-128980762D01*
X94207194Y-128984563D01*
X94207655Y-128984566D01*
X94235998Y-128989535D01*
X94269023Y-129001147D01*
X94332613Y-129030168D01*
X94429228Y-129077015D01*
X94510710Y-129121220D01*
X94581615Y-129165741D01*
X94646495Y-129213535D01*
X94709904Y-129267563D01*
X94776395Y-129330781D01*
X94871750Y-129425107D01*
X94975657Y-129339045D01*
X95015287Y-129306390D01*
X95064001Y-129266398D01*
X95104470Y-129232466D01*
X95138429Y-129202153D01*
X95167615Y-129173020D01*
X95193761Y-129142625D01*
X95218603Y-129108529D01*
X95243877Y-129068290D01*
X95271316Y-129019469D01*
X95302657Y-128959624D01*
X95339634Y-128886317D01*
X95383983Y-128797105D01*
X95437439Y-128689549D01*
X95461678Y-128641023D01*
X95508582Y-128547728D01*
X95552446Y-128461252D01*
X95592048Y-128383961D01*
X95626162Y-128318221D01*
X95653567Y-128266399D01*
X95673037Y-128230863D01*
X95683349Y-128213978D01*
X95736227Y-128164213D01*
X95806591Y-128126072D01*
X95889619Y-128102169D01*
X95981258Y-128094133D01*
X95994483Y-128094510D01*
X96043010Y-128098417D01*
X96105397Y-128105873D01*
X96175018Y-128116027D01*
X96245246Y-128128029D01*
X96281304Y-128134517D01*
X96341150Y-128144431D01*
X96391244Y-128151651D01*
X96427168Y-128155566D01*
X96444508Y-128155566D01*
X96463852Y-128148607D01*
X96497825Y-128135838D01*
X96538861Y-128120097D01*
X96569264Y-128109143D01*
X96612801Y-128097856D01*
X96659946Y-128092383D01*
X96720541Y-128091155D01*
X96763608Y-128093092D01*
X96828370Y-128098735D01*
X96908734Y-128107572D01*
X97000842Y-128119095D01*
X97100838Y-128132797D01*
X97204866Y-128148169D01*
X97309070Y-128164704D01*
X97409592Y-128181895D01*
X97425865Y-128184756D01*
X97479699Y-128193949D01*
X97546894Y-128205162D01*
X97620460Y-128217232D01*
X97693407Y-128229001D01*
X97726080Y-128234294D01*
X97796398Y-128246141D01*
X97862001Y-128257756D01*
X97916738Y-128268035D01*
X97954455Y-128275873D01*
X97976428Y-128281246D01*
X98055855Y-128308292D01*
X98115045Y-128344039D01*
X98155385Y-128390608D01*
X98178262Y-128450118D01*
X98178300Y-128450536D01*
X98182639Y-128498130D01*
G37*
D12*
%TO.C,REF\u002A\u002A*%
X92756406Y-143752949D02*
X92782127Y-143768647D01*
X92808778Y-143790227D01*
X92808778Y-144437684D01*
X92782127Y-144459264D01*
X92750767Y-144476739D01*
X92714966Y-144477575D01*
X92683528Y-144457082D01*
X92679652Y-144452416D01*
X92674186Y-144442949D01*
X92669979Y-144429267D01*
X92666867Y-144408748D01*
X92664687Y-144378768D01*
X92663276Y-144336704D01*
X92662471Y-144279932D01*
X92662107Y-144205830D01*
X92662022Y-144111773D01*
X92662022Y-143790227D01*
X92688673Y-143768647D01*
X92712386Y-143753877D01*
X92735400Y-143747067D01*
X92756406Y-143752949D01*
G36*
X92756406Y-143752949D02*
G01*
X92782127Y-143768647D01*
X92808778Y-143790227D01*
X92808778Y-144437684D01*
X92782127Y-144459264D01*
X92750767Y-144476739D01*
X92714966Y-144477575D01*
X92683528Y-144457082D01*
X92679652Y-144452416D01*
X92674186Y-144442949D01*
X92669979Y-144429267D01*
X92666867Y-144408748D01*
X92664687Y-144378768D01*
X92663276Y-144336704D01*
X92662471Y-144279932D01*
X92662107Y-144205830D01*
X92662022Y-144111773D01*
X92662022Y-143790227D01*
X92688673Y-143768647D01*
X92712386Y-143753877D01*
X92735400Y-143747067D01*
X92756406Y-143752949D01*
G37*
X99887137Y-143751463D02*
X99921291Y-143774776D01*
X99949000Y-143802485D01*
X99949000Y-144115537D01*
X99948959Y-144199567D01*
X99948701Y-144273789D01*
X99948030Y-144330541D01*
X99946752Y-144372512D01*
X99944673Y-144402389D01*
X99941599Y-144422861D01*
X99937334Y-144436614D01*
X99931684Y-144446337D01*
X99924455Y-144454717D01*
X99892991Y-144476181D01*
X99857826Y-144477947D01*
X99824822Y-144458267D01*
X99819516Y-144452398D01*
X99814066Y-144443314D01*
X99809900Y-144429973D01*
X99806846Y-144409757D01*
X99804732Y-144380049D01*
X99803386Y-144338232D01*
X99802638Y-144281689D01*
X99802314Y-144207802D01*
X99802245Y-144113956D01*
X99802284Y-144038294D01*
X99802539Y-143960385D01*
X99803183Y-143900375D01*
X99804387Y-143855648D01*
X99806324Y-143823585D01*
X99809164Y-143801571D01*
X99813079Y-143786987D01*
X99818242Y-143777218D01*
X99824822Y-143769645D01*
X99854006Y-143750623D01*
X99887137Y-143751463D01*
G36*
X99887137Y-143751463D02*
G01*
X99921291Y-143774776D01*
X99949000Y-143802485D01*
X99949000Y-144115537D01*
X99948959Y-144199567D01*
X99948701Y-144273789D01*
X99948030Y-144330541D01*
X99946752Y-144372512D01*
X99944673Y-144402389D01*
X99941599Y-144422861D01*
X99937334Y-144436614D01*
X99931684Y-144446337D01*
X99924455Y-144454717D01*
X99892991Y-144476181D01*
X99857826Y-144477947D01*
X99824822Y-144458267D01*
X99819516Y-144452398D01*
X99814066Y-144443314D01*
X99809900Y-144429973D01*
X99806846Y-144409757D01*
X99804732Y-144380049D01*
X99803386Y-144338232D01*
X99802638Y-144281689D01*
X99802314Y-144207802D01*
X99802245Y-144113956D01*
X99802284Y-144038294D01*
X99802539Y-143960385D01*
X99803183Y-143900375D01*
X99804387Y-143855648D01*
X99806324Y-143823585D01*
X99809164Y-143801571D01*
X99813079Y-143786987D01*
X99818242Y-143777218D01*
X99824822Y-143769645D01*
X99854006Y-143750623D01*
X99887137Y-143751463D01*
G37*
X99355562Y-138510850D02*
X99438313Y-138538053D01*
X99513406Y-138583484D01*
X99585298Y-138649302D01*
X99623846Y-138693567D01*
X99663256Y-138751961D01*
X99688446Y-138812586D01*
X99701861Y-138881865D01*
X99705948Y-138966222D01*
X99705669Y-139012307D01*
X99703460Y-139053450D01*
X99697894Y-139085582D01*
X99687586Y-139116122D01*
X99671148Y-139152489D01*
X99657200Y-139179728D01*
X99598665Y-139265429D01*
X99526619Y-139334617D01*
X99442947Y-139385741D01*
X99349531Y-139417250D01*
X99316434Y-139424225D01*
X99275960Y-139431094D01*
X99242999Y-139432919D01*
X99208698Y-139429947D01*
X99164200Y-139422426D01*
X99112934Y-139410002D01*
X99022434Y-139372112D01*
X98943345Y-139317836D01*
X98877528Y-139249770D01*
X98826840Y-139170511D01*
X98793140Y-139082654D01*
X98778286Y-138988795D01*
X98784136Y-138891530D01*
X98810399Y-138795220D01*
X98855418Y-138706494D01*
X98916373Y-138631419D01*
X98991184Y-138571641D01*
X99077768Y-138528809D01*
X99174043Y-138504571D01*
X99277928Y-138500576D01*
X99355562Y-138510850D01*
G36*
X99355562Y-138510850D02*
G01*
X99438313Y-138538053D01*
X99513406Y-138583484D01*
X99585298Y-138649302D01*
X99623846Y-138693567D01*
X99663256Y-138751961D01*
X99688446Y-138812586D01*
X99701861Y-138881865D01*
X99705948Y-138966222D01*
X99705669Y-139012307D01*
X99703460Y-139053450D01*
X99697894Y-139085582D01*
X99687586Y-139116122D01*
X99671148Y-139152489D01*
X99657200Y-139179728D01*
X99598665Y-139265429D01*
X99526619Y-139334617D01*
X99442947Y-139385741D01*
X99349531Y-139417250D01*
X99316434Y-139424225D01*
X99275960Y-139431094D01*
X99242999Y-139432919D01*
X99208698Y-139429947D01*
X99164200Y-139422426D01*
X99112934Y-139410002D01*
X99022434Y-139372112D01*
X98943345Y-139317836D01*
X98877528Y-139249770D01*
X98826840Y-139170511D01*
X98793140Y-139082654D01*
X98778286Y-138988795D01*
X98784136Y-138891530D01*
X98810399Y-138795220D01*
X98855418Y-138706494D01*
X98916373Y-138631419D01*
X98991184Y-138571641D01*
X99077768Y-138528809D01*
X99174043Y-138504571D01*
X99277928Y-138500576D01*
X99355562Y-138510850D01*
G37*
X92056767Y-143747068D02*
X92150890Y-143747158D01*
X92225405Y-143747498D01*
X92282811Y-143748239D01*
X92325611Y-143749535D01*
X92356304Y-143751537D01*
X92377391Y-143754396D01*
X92391373Y-143758266D01*
X92400750Y-143763298D01*
X92408022Y-143769645D01*
X92426828Y-143802362D01*
X92428275Y-143839939D01*
X92411917Y-143873178D01*
X92410557Y-143874631D01*
X92399354Y-143882992D01*
X92382252Y-143888547D01*
X92355082Y-143891840D01*
X92313678Y-143893418D01*
X92253873Y-143893822D01*
X92114511Y-143893822D01*
X92114511Y-144157589D01*
X92114436Y-144233417D01*
X92114028Y-144300083D01*
X92113046Y-144349867D01*
X92111250Y-144385784D01*
X92108399Y-144410850D01*
X92104253Y-144428081D01*
X92098571Y-144440492D01*
X92091114Y-144451100D01*
X92088824Y-144453906D01*
X92057646Y-144476548D01*
X92023266Y-144478112D01*
X91990334Y-144458267D01*
X91983355Y-144450191D01*
X91977883Y-144439593D01*
X91973863Y-144423749D01*
X91971072Y-144399773D01*
X91969288Y-144364774D01*
X91968289Y-144315864D01*
X91967852Y-144250154D01*
X91967756Y-144164756D01*
X91967756Y-143893822D01*
X91821820Y-143893822D01*
X91810720Y-143893821D01*
X91754202Y-143893596D01*
X91715358Y-143892457D01*
X91689965Y-143889657D01*
X91673804Y-143884450D01*
X91662652Y-143876089D01*
X91652289Y-143863826D01*
X91636441Y-143833138D01*
X91639543Y-143799358D01*
X91665187Y-143766822D01*
X91670129Y-143763105D01*
X91680338Y-143758269D01*
X91695764Y-143754506D01*
X91718886Y-143751683D01*
X91752183Y-143749670D01*
X91798137Y-143748333D01*
X91859228Y-143747542D01*
X91937935Y-143747163D01*
X92036740Y-143747067D01*
X92056767Y-143747068D01*
G36*
X92056767Y-143747068D02*
G01*
X92150890Y-143747158D01*
X92225405Y-143747498D01*
X92282811Y-143748239D01*
X92325611Y-143749535D01*
X92356304Y-143751537D01*
X92377391Y-143754396D01*
X92391373Y-143758266D01*
X92400750Y-143763298D01*
X92408022Y-143769645D01*
X92426828Y-143802362D01*
X92428275Y-143839939D01*
X92411917Y-143873178D01*
X92410557Y-143874631D01*
X92399354Y-143882992D01*
X92382252Y-143888547D01*
X92355082Y-143891840D01*
X92313678Y-143893418D01*
X92253873Y-143893822D01*
X92114511Y-143893822D01*
X92114511Y-144157589D01*
X92114436Y-144233417D01*
X92114028Y-144300083D01*
X92113046Y-144349867D01*
X92111250Y-144385784D01*
X92108399Y-144410850D01*
X92104253Y-144428081D01*
X92098571Y-144440492D01*
X92091114Y-144451100D01*
X92088824Y-144453906D01*
X92057646Y-144476548D01*
X92023266Y-144478112D01*
X91990334Y-144458267D01*
X91983355Y-144450191D01*
X91977883Y-144439593D01*
X91973863Y-144423749D01*
X91971072Y-144399773D01*
X91969288Y-144364774D01*
X91968289Y-144315864D01*
X91967852Y-144250154D01*
X91967756Y-144164756D01*
X91967756Y-143893822D01*
X91821820Y-143893822D01*
X91810720Y-143893821D01*
X91754202Y-143893596D01*
X91715358Y-143892457D01*
X91689965Y-143889657D01*
X91673804Y-143884450D01*
X91662652Y-143876089D01*
X91652289Y-143863826D01*
X91636441Y-143833138D01*
X91639543Y-143799358D01*
X91665187Y-143766822D01*
X91670129Y-143763105D01*
X91680338Y-143758269D01*
X91695764Y-143754506D01*
X91718886Y-143751683D01*
X91752183Y-143749670D01*
X91798137Y-143748333D01*
X91859228Y-143747542D01*
X91937935Y-143747163D01*
X92036740Y-143747067D01*
X92056767Y-143747068D01*
G37*
X91380734Y-143769645D02*
X91386366Y-143775835D01*
X91391456Y-143784041D01*
X91395543Y-143795817D01*
X91398721Y-143813276D01*
X91401087Y-143838530D01*
X91402738Y-143873690D01*
X91403769Y-143920869D01*
X91404277Y-143982177D01*
X91404359Y-144059727D01*
X91404109Y-144155631D01*
X91403625Y-144272000D01*
X91403557Y-144286175D01*
X91402971Y-144347937D01*
X91401648Y-144391620D01*
X91399103Y-144421001D01*
X91394848Y-144439855D01*
X91388396Y-144451959D01*
X91379262Y-144461089D01*
X91345804Y-144478506D01*
X91310856Y-144475604D01*
X91279953Y-144451100D01*
X91270944Y-144437897D01*
X91263492Y-144419361D01*
X91259124Y-144393333D01*
X91257069Y-144354787D01*
X91256556Y-144298700D01*
X91256556Y-144176045D01*
X90759845Y-144176045D01*
X90759845Y-144310871D01*
X90759772Y-144346662D01*
X90759009Y-144392992D01*
X90756833Y-144423526D01*
X90752536Y-144442557D01*
X90745412Y-144454374D01*
X90734755Y-144463271D01*
X90702504Y-144478341D01*
X90667217Y-144475673D01*
X90636486Y-144451100D01*
X90631831Y-144444845D01*
X90625895Y-144434321D01*
X90621364Y-144420391D01*
X90618048Y-144400317D01*
X90615759Y-144371360D01*
X90614308Y-144330780D01*
X90613505Y-144275840D01*
X90613162Y-144203799D01*
X90613089Y-144111920D01*
X90613089Y-143802485D01*
X90640798Y-143774776D01*
X90672177Y-143752533D01*
X90705406Y-143749844D01*
X90737267Y-143769645D01*
X90745553Y-143779415D01*
X90752965Y-143795307D01*
X90757302Y-143819275D01*
X90759338Y-143856148D01*
X90759845Y-143910756D01*
X90759845Y-144029289D01*
X91256556Y-144029289D01*
X91256556Y-143913776D01*
X91256994Y-143862078D01*
X91258958Y-143827554D01*
X91263474Y-143804978D01*
X91271567Y-143789126D01*
X91284265Y-143774776D01*
X91315643Y-143752533D01*
X91348872Y-143749844D01*
X91380734Y-143769645D01*
G36*
X91380734Y-143769645D02*
G01*
X91386366Y-143775835D01*
X91391456Y-143784041D01*
X91395543Y-143795817D01*
X91398721Y-143813276D01*
X91401087Y-143838530D01*
X91402738Y-143873690D01*
X91403769Y-143920869D01*
X91404277Y-143982177D01*
X91404359Y-144059727D01*
X91404109Y-144155631D01*
X91403625Y-144272000D01*
X91403557Y-144286175D01*
X91402971Y-144347937D01*
X91401648Y-144391620D01*
X91399103Y-144421001D01*
X91394848Y-144439855D01*
X91388396Y-144451959D01*
X91379262Y-144461089D01*
X91345804Y-144478506D01*
X91310856Y-144475604D01*
X91279953Y-144451100D01*
X91270944Y-144437897D01*
X91263492Y-144419361D01*
X91259124Y-144393333D01*
X91257069Y-144354787D01*
X91256556Y-144298700D01*
X91256556Y-144176045D01*
X90759845Y-144176045D01*
X90759845Y-144310871D01*
X90759772Y-144346662D01*
X90759009Y-144392992D01*
X90756833Y-144423526D01*
X90752536Y-144442557D01*
X90745412Y-144454374D01*
X90734755Y-144463271D01*
X90702504Y-144478341D01*
X90667217Y-144475673D01*
X90636486Y-144451100D01*
X90631831Y-144444845D01*
X90625895Y-144434321D01*
X90621364Y-144420391D01*
X90618048Y-144400317D01*
X90615759Y-144371360D01*
X90614308Y-144330780D01*
X90613505Y-144275840D01*
X90613162Y-144203799D01*
X90613089Y-144111920D01*
X90613089Y-143802485D01*
X90640798Y-143774776D01*
X90672177Y-143752533D01*
X90705406Y-143749844D01*
X90737267Y-143769645D01*
X90745553Y-143779415D01*
X90752965Y-143795307D01*
X90757302Y-143819275D01*
X90759338Y-143856148D01*
X90759845Y-143910756D01*
X90759845Y-144029289D01*
X91256556Y-144029289D01*
X91256556Y-143913776D01*
X91256994Y-143862078D01*
X91258958Y-143827554D01*
X91263474Y-143804978D01*
X91271567Y-143789126D01*
X91284265Y-143774776D01*
X91315643Y-143752533D01*
X91348872Y-143749844D01*
X91380734Y-143769645D01*
G37*
X96086133Y-144358396D02*
X96084163Y-144391175D01*
X96081235Y-144414095D01*
X96077158Y-144429897D01*
X96071743Y-144441319D01*
X96064803Y-144451100D01*
X96041406Y-144480845D01*
X95875714Y-144480251D01*
X95840918Y-144479953D01*
X95742435Y-144476522D01*
X95661473Y-144468839D01*
X95594379Y-144456282D01*
X95537496Y-144438227D01*
X95487169Y-144414052D01*
X95483810Y-144412135D01*
X95425998Y-144375417D01*
X95383644Y-144338451D01*
X95350828Y-144294966D01*
X95321628Y-144238689D01*
X95317346Y-144229073D01*
X95294769Y-144165887D01*
X95289034Y-144120333D01*
X95438279Y-144120333D01*
X95443892Y-144145061D01*
X95449618Y-144160939D01*
X95482548Y-144220847D01*
X95529886Y-144266600D01*
X95593652Y-144299736D01*
X95675861Y-144321790D01*
X95678655Y-144322292D01*
X95724940Y-144328255D01*
X95781336Y-144332483D01*
X95836274Y-144334089D01*
X95930156Y-144334089D01*
X95930156Y-143893822D01*
X95842667Y-143894270D01*
X95775747Y-143896746D01*
X95683349Y-143907998D01*
X95604034Y-143927537D01*
X95542060Y-143954511D01*
X95511120Y-143975240D01*
X95483000Y-144005006D01*
X95459660Y-144047434D01*
X95452533Y-144063400D01*
X95440709Y-144095902D01*
X95438279Y-144120333D01*
X95289034Y-144120333D01*
X95287797Y-144110509D01*
X95296399Y-144055483D01*
X95320541Y-143993351D01*
X95321337Y-143991658D01*
X95361788Y-143922236D01*
X95412473Y-143865638D01*
X95475198Y-143821070D01*
X95551774Y-143787741D01*
X95644009Y-143764861D01*
X95753712Y-143751636D01*
X95882691Y-143747275D01*
X95886263Y-143747270D01*
X95946283Y-143747410D01*
X95988214Y-143748446D01*
X96016328Y-143751040D01*
X96034897Y-143755853D01*
X96048194Y-143763544D01*
X96060491Y-143774776D01*
X96088200Y-143802485D01*
X96088200Y-144111920D01*
X96088175Y-144173526D01*
X96087950Y-144252311D01*
X96087332Y-144313021D01*
X96086775Y-144334089D01*
X96086133Y-144358396D01*
G36*
X96086133Y-144358396D02*
G01*
X96084163Y-144391175D01*
X96081235Y-144414095D01*
X96077158Y-144429897D01*
X96071743Y-144441319D01*
X96064803Y-144451100D01*
X96041406Y-144480845D01*
X95875714Y-144480251D01*
X95840918Y-144479953D01*
X95742435Y-144476522D01*
X95661473Y-144468839D01*
X95594379Y-144456282D01*
X95537496Y-144438227D01*
X95487169Y-144414052D01*
X95483810Y-144412135D01*
X95425998Y-144375417D01*
X95383644Y-144338451D01*
X95350828Y-144294966D01*
X95321628Y-144238689D01*
X95317346Y-144229073D01*
X95294769Y-144165887D01*
X95289034Y-144120333D01*
X95438279Y-144120333D01*
X95443892Y-144145061D01*
X95449618Y-144160939D01*
X95482548Y-144220847D01*
X95529886Y-144266600D01*
X95593652Y-144299736D01*
X95675861Y-144321790D01*
X95678655Y-144322292D01*
X95724940Y-144328255D01*
X95781336Y-144332483D01*
X95836274Y-144334089D01*
X95930156Y-144334089D01*
X95930156Y-143893822D01*
X95842667Y-143894270D01*
X95775747Y-143896746D01*
X95683349Y-143907998D01*
X95604034Y-143927537D01*
X95542060Y-143954511D01*
X95511120Y-143975240D01*
X95483000Y-144005006D01*
X95459660Y-144047434D01*
X95452533Y-144063400D01*
X95440709Y-144095902D01*
X95438279Y-144120333D01*
X95289034Y-144120333D01*
X95287797Y-144110509D01*
X95296399Y-144055483D01*
X95320541Y-143993351D01*
X95321337Y-143991658D01*
X95361788Y-143922236D01*
X95412473Y-143865638D01*
X95475198Y-143821070D01*
X95551774Y-143787741D01*
X95644009Y-143764861D01*
X95753712Y-143751636D01*
X95882691Y-143747275D01*
X95886263Y-143747270D01*
X95946283Y-143747410D01*
X95988214Y-143748446D01*
X96016328Y-143751040D01*
X96034897Y-143755853D01*
X96048194Y-143763544D01*
X96060491Y-143774776D01*
X96088200Y-143802485D01*
X96088200Y-144111920D01*
X96088175Y-144173526D01*
X96087950Y-144252311D01*
X96087332Y-144313021D01*
X96086775Y-144334089D01*
X96086133Y-144358396D01*
G37*
X103177817Y-143932427D02*
X103177870Y-144013041D01*
X103177622Y-144113956D01*
X103177583Y-144189617D01*
X103177328Y-144267526D01*
X103176684Y-144327536D01*
X103175480Y-144372264D01*
X103173543Y-144404326D01*
X103170703Y-144426340D01*
X103166788Y-144440924D01*
X103161626Y-144450694D01*
X103155045Y-144458267D01*
X103148077Y-144464501D01*
X103135079Y-144471801D01*
X103115931Y-144476554D01*
X103086528Y-144479292D01*
X103042762Y-144480545D01*
X102980528Y-144480845D01*
X102931582Y-144480469D01*
X102824722Y-144476041D01*
X102735494Y-144465953D01*
X102660696Y-144449365D01*
X102597125Y-144425435D01*
X102541579Y-144393321D01*
X102490854Y-144352182D01*
X102484866Y-144346330D01*
X102447999Y-144297821D01*
X102416899Y-144237013D01*
X102395417Y-144172769D01*
X102390136Y-144134026D01*
X102537353Y-144134026D01*
X102555635Y-144184961D01*
X102585305Y-144230878D01*
X102632002Y-144273287D01*
X102693392Y-144303090D01*
X102772538Y-144322226D01*
X102774028Y-144322464D01*
X102822999Y-144328256D01*
X102881693Y-144332396D01*
X102937734Y-144334004D01*
X103030867Y-144334089D01*
X103030867Y-143893822D01*
X102954667Y-143893808D01*
X102951639Y-143893817D01*
X102900519Y-143895782D01*
X102840416Y-143900507D01*
X102783708Y-143907035D01*
X102733750Y-143916331D01*
X102658998Y-143942600D01*
X102601489Y-143981899D01*
X102559988Y-144034933D01*
X102538771Y-144086200D01*
X102537353Y-144134026D01*
X102390136Y-144134026D01*
X102387400Y-144113956D01*
X102388679Y-144092739D01*
X102400991Y-144035323D01*
X102423520Y-143975413D01*
X102452750Y-143921363D01*
X102485167Y-143881532D01*
X102504708Y-143864510D01*
X102559420Y-143825322D01*
X102619723Y-143795193D01*
X102688919Y-143773232D01*
X102770311Y-143758550D01*
X102867200Y-143750259D01*
X102982889Y-143747467D01*
X103022371Y-143747066D01*
X103068082Y-143746653D01*
X103103883Y-143748457D01*
X103130974Y-143754739D01*
X103150556Y-143767759D01*
X103163830Y-143789778D01*
X103171998Y-143823055D01*
X103176260Y-143869851D01*
X103176857Y-143893822D01*
X103177817Y-143932427D01*
G36*
X103177817Y-143932427D02*
G01*
X103177870Y-144013041D01*
X103177622Y-144113956D01*
X103177583Y-144189617D01*
X103177328Y-144267526D01*
X103176684Y-144327536D01*
X103175480Y-144372264D01*
X103173543Y-144404326D01*
X103170703Y-144426340D01*
X103166788Y-144440924D01*
X103161626Y-144450694D01*
X103155045Y-144458267D01*
X103148077Y-144464501D01*
X103135079Y-144471801D01*
X103115931Y-144476554D01*
X103086528Y-144479292D01*
X103042762Y-144480545D01*
X102980528Y-144480845D01*
X102931582Y-144480469D01*
X102824722Y-144476041D01*
X102735494Y-144465953D01*
X102660696Y-144449365D01*
X102597125Y-144425435D01*
X102541579Y-144393321D01*
X102490854Y-144352182D01*
X102484866Y-144346330D01*
X102447999Y-144297821D01*
X102416899Y-144237013D01*
X102395417Y-144172769D01*
X102390136Y-144134026D01*
X102537353Y-144134026D01*
X102555635Y-144184961D01*
X102585305Y-144230878D01*
X102632002Y-144273287D01*
X102693392Y-144303090D01*
X102772538Y-144322226D01*
X102774028Y-144322464D01*
X102822999Y-144328256D01*
X102881693Y-144332396D01*
X102937734Y-144334004D01*
X103030867Y-144334089D01*
X103030867Y-143893822D01*
X102954667Y-143893808D01*
X102951639Y-143893817D01*
X102900519Y-143895782D01*
X102840416Y-143900507D01*
X102783708Y-143907035D01*
X102733750Y-143916331D01*
X102658998Y-143942600D01*
X102601489Y-143981899D01*
X102559988Y-144034933D01*
X102538771Y-144086200D01*
X102537353Y-144134026D01*
X102390136Y-144134026D01*
X102387400Y-144113956D01*
X102388679Y-144092739D01*
X102400991Y-144035323D01*
X102423520Y-143975413D01*
X102452750Y-143921363D01*
X102485167Y-143881532D01*
X102504708Y-143864510D01*
X102559420Y-143825322D01*
X102619723Y-143795193D01*
X102688919Y-143773232D01*
X102770311Y-143758550D01*
X102867200Y-143750259D01*
X102982889Y-143747467D01*
X103022371Y-143747066D01*
X103068082Y-143746653D01*
X103103883Y-143748457D01*
X103130974Y-143754739D01*
X103150556Y-143767759D01*
X103163830Y-143789778D01*
X103171998Y-143823055D01*
X103176260Y-143869851D01*
X103176857Y-143893822D01*
X103177817Y-143932427D01*
G37*
X98232893Y-143745892D02*
X98244301Y-143752029D01*
X98254850Y-143762691D01*
X98266136Y-143776811D01*
X98270589Y-143782772D01*
X98276588Y-143793268D01*
X98281167Y-143807093D01*
X98284519Y-143826998D01*
X98286833Y-143855732D01*
X98288301Y-143896045D01*
X98289113Y-143950687D01*
X98289460Y-144022407D01*
X98289534Y-144113956D01*
X98289511Y-144172486D01*
X98289292Y-144251573D01*
X98288683Y-144312516D01*
X98287492Y-144358062D01*
X98285529Y-144390963D01*
X98282603Y-144413968D01*
X98278523Y-144429826D01*
X98273097Y-144441286D01*
X98266136Y-144451100D01*
X98235708Y-144475493D01*
X98200765Y-144478372D01*
X98163784Y-144459282D01*
X98159600Y-144455807D01*
X98151424Y-144447279D01*
X98145364Y-144435728D01*
X98140981Y-144417896D01*
X98137839Y-144390524D01*
X98135502Y-144350354D01*
X98133531Y-144294128D01*
X98131489Y-144218589D01*
X98125845Y-143999458D01*
X97860556Y-144240099D01*
X97786722Y-144306875D01*
X97721542Y-144364991D01*
X97669348Y-144409949D01*
X97628273Y-144442871D01*
X97596455Y-144464879D01*
X97572026Y-144477094D01*
X97553124Y-144480639D01*
X97537883Y-144476636D01*
X97524439Y-144466207D01*
X97510927Y-144450474D01*
X97504682Y-144441991D01*
X97499050Y-144431413D01*
X97494839Y-144417255D01*
X97491887Y-144396803D01*
X97490032Y-144367342D01*
X97489113Y-144326161D01*
X97488968Y-144270544D01*
X97489435Y-144197779D01*
X97490352Y-144105151D01*
X97493667Y-143790199D01*
X97520318Y-143768633D01*
X97546383Y-143752441D01*
X97579241Y-143749670D01*
X97613772Y-143768623D01*
X97618084Y-143772208D01*
X97626216Y-143780737D01*
X97632245Y-143792329D01*
X97636606Y-143810235D01*
X97639734Y-143837706D01*
X97642063Y-143877994D01*
X97644029Y-143934351D01*
X97646067Y-144010029D01*
X97651711Y-144229878D01*
X97832334Y-144066084D01*
X97919072Y-143987451D01*
X97994843Y-143919058D01*
X98056980Y-143863708D01*
X98107078Y-143820338D01*
X98146735Y-143787881D01*
X98177548Y-143765273D01*
X98201114Y-143751448D01*
X98219030Y-143745343D01*
X98232893Y-143745892D01*
G36*
X98232893Y-143745892D02*
G01*
X98244301Y-143752029D01*
X98254850Y-143762691D01*
X98266136Y-143776811D01*
X98270589Y-143782772D01*
X98276588Y-143793268D01*
X98281167Y-143807093D01*
X98284519Y-143826998D01*
X98286833Y-143855732D01*
X98288301Y-143896045D01*
X98289113Y-143950687D01*
X98289460Y-144022407D01*
X98289534Y-144113956D01*
X98289511Y-144172486D01*
X98289292Y-144251573D01*
X98288683Y-144312516D01*
X98287492Y-144358062D01*
X98285529Y-144390963D01*
X98282603Y-144413968D01*
X98278523Y-144429826D01*
X98273097Y-144441286D01*
X98266136Y-144451100D01*
X98235708Y-144475493D01*
X98200765Y-144478372D01*
X98163784Y-144459282D01*
X98159600Y-144455807D01*
X98151424Y-144447279D01*
X98145364Y-144435728D01*
X98140981Y-144417896D01*
X98137839Y-144390524D01*
X98135502Y-144350354D01*
X98133531Y-144294128D01*
X98131489Y-144218589D01*
X98125845Y-143999458D01*
X97860556Y-144240099D01*
X97786722Y-144306875D01*
X97721542Y-144364991D01*
X97669348Y-144409949D01*
X97628273Y-144442871D01*
X97596455Y-144464879D01*
X97572026Y-144477094D01*
X97553124Y-144480639D01*
X97537883Y-144476636D01*
X97524439Y-144466207D01*
X97510927Y-144450474D01*
X97504682Y-144441991D01*
X97499050Y-144431413D01*
X97494839Y-144417255D01*
X97491887Y-144396803D01*
X97490032Y-144367342D01*
X97489113Y-144326161D01*
X97488968Y-144270544D01*
X97489435Y-144197779D01*
X97490352Y-144105151D01*
X97493667Y-143790199D01*
X97520318Y-143768633D01*
X97546383Y-143752441D01*
X97579241Y-143749670D01*
X97613772Y-143768623D01*
X97618084Y-143772208D01*
X97626216Y-143780737D01*
X97632245Y-143792329D01*
X97636606Y-143810235D01*
X97639734Y-143837706D01*
X97642063Y-143877994D01*
X97644029Y-143934351D01*
X97646067Y-144010029D01*
X97651711Y-144229878D01*
X97832334Y-144066084D01*
X97919072Y-143987451D01*
X97994843Y-143919058D01*
X98056980Y-143863708D01*
X98107078Y-143820338D01*
X98146735Y-143787881D01*
X98177548Y-143765273D01*
X98201114Y-143751448D01*
X98219030Y-143745343D01*
X98232893Y-143745892D01*
G37*
X99030150Y-143752179D02*
X99136157Y-143768494D01*
X99229969Y-143796545D01*
X99308765Y-143835452D01*
X99369719Y-143884334D01*
X99395789Y-143917195D01*
X99425297Y-143966394D01*
X99450568Y-144020252D01*
X99468218Y-144071419D01*
X99474858Y-144112544D01*
X99473298Y-144132259D01*
X99460357Y-144183592D01*
X99437194Y-144240118D01*
X99407302Y-144294035D01*
X99374173Y-144337539D01*
X99363977Y-144347887D01*
X99296892Y-144399662D01*
X99216766Y-144439554D01*
X99130556Y-144463956D01*
X99075592Y-144472068D01*
X98982139Y-144478673D01*
X98892358Y-144476586D01*
X98809869Y-144466340D01*
X98738286Y-144448470D01*
X98681228Y-144423508D01*
X98642311Y-144391988D01*
X98640936Y-144390012D01*
X98633848Y-144364786D01*
X98629609Y-144317535D01*
X98628200Y-144248071D01*
X98629060Y-144185838D01*
X98633780Y-144138456D01*
X98645470Y-144106353D01*
X98667239Y-144086800D01*
X98702198Y-144077070D01*
X98753456Y-144074433D01*
X98824123Y-144076161D01*
X98872743Y-144079173D01*
X98922939Y-144087366D01*
X98955433Y-144101419D01*
X98972892Y-144122654D01*
X98977983Y-144152394D01*
X98977877Y-144156936D01*
X98969175Y-144191730D01*
X98945165Y-144215147D01*
X98903900Y-144228347D01*
X98843431Y-144232489D01*
X98774956Y-144232489D01*
X98774956Y-144270841D01*
X98775006Y-144279976D01*
X98777227Y-144297227D01*
X98786494Y-144307521D01*
X98807875Y-144314459D01*
X98846436Y-144321641D01*
X98851910Y-144322575D01*
X98948860Y-144332478D01*
X99038852Y-144329559D01*
X99119760Y-144314829D01*
X99189459Y-144289299D01*
X99245824Y-144253978D01*
X99286729Y-144209879D01*
X99310051Y-144158012D01*
X99313663Y-144099388D01*
X99308145Y-144070494D01*
X99281461Y-144014604D01*
X99235273Y-143968945D01*
X99170291Y-143934108D01*
X99087229Y-143910690D01*
X99062555Y-143906241D01*
X98973226Y-143895742D01*
X98893419Y-143896971D01*
X98815326Y-143909906D01*
X98780183Y-143916696D01*
X98734745Y-143917713D01*
X98703430Y-143905182D01*
X98683277Y-143878395D01*
X98676893Y-143850148D01*
X98686379Y-143818924D01*
X98695708Y-143805499D01*
X98729943Y-143781967D01*
X98782565Y-143764095D01*
X98851081Y-143752599D01*
X98933000Y-143748192D01*
X99030150Y-143752179D01*
G36*
X99030150Y-143752179D02*
G01*
X99136157Y-143768494D01*
X99229969Y-143796545D01*
X99308765Y-143835452D01*
X99369719Y-143884334D01*
X99395789Y-143917195D01*
X99425297Y-143966394D01*
X99450568Y-144020252D01*
X99468218Y-144071419D01*
X99474858Y-144112544D01*
X99473298Y-144132259D01*
X99460357Y-144183592D01*
X99437194Y-144240118D01*
X99407302Y-144294035D01*
X99374173Y-144337539D01*
X99363977Y-144347887D01*
X99296892Y-144399662D01*
X99216766Y-144439554D01*
X99130556Y-144463956D01*
X99075592Y-144472068D01*
X98982139Y-144478673D01*
X98892358Y-144476586D01*
X98809869Y-144466340D01*
X98738286Y-144448470D01*
X98681228Y-144423508D01*
X98642311Y-144391988D01*
X98640936Y-144390012D01*
X98633848Y-144364786D01*
X98629609Y-144317535D01*
X98628200Y-144248071D01*
X98629060Y-144185838D01*
X98633780Y-144138456D01*
X98645470Y-144106353D01*
X98667239Y-144086800D01*
X98702198Y-144077070D01*
X98753456Y-144074433D01*
X98824123Y-144076161D01*
X98872743Y-144079173D01*
X98922939Y-144087366D01*
X98955433Y-144101419D01*
X98972892Y-144122654D01*
X98977983Y-144152394D01*
X98977877Y-144156936D01*
X98969175Y-144191730D01*
X98945165Y-144215147D01*
X98903900Y-144228347D01*
X98843431Y-144232489D01*
X98774956Y-144232489D01*
X98774956Y-144270841D01*
X98775006Y-144279976D01*
X98777227Y-144297227D01*
X98786494Y-144307521D01*
X98807875Y-144314459D01*
X98846436Y-144321641D01*
X98851910Y-144322575D01*
X98948860Y-144332478D01*
X99038852Y-144329559D01*
X99119760Y-144314829D01*
X99189459Y-144289299D01*
X99245824Y-144253978D01*
X99286729Y-144209879D01*
X99310051Y-144158012D01*
X99313663Y-144099388D01*
X99308145Y-144070494D01*
X99281461Y-144014604D01*
X99235273Y-143968945D01*
X99170291Y-143934108D01*
X99087229Y-143910690D01*
X99062555Y-143906241D01*
X98973226Y-143895742D01*
X98893419Y-143896971D01*
X98815326Y-143909906D01*
X98780183Y-143916696D01*
X98734745Y-143917713D01*
X98703430Y-143905182D01*
X98683277Y-143878395D01*
X98676893Y-143850148D01*
X98686379Y-143818924D01*
X98695708Y-143805499D01*
X98729943Y-143781967D01*
X98782565Y-143764095D01*
X98851081Y-143752599D01*
X98933000Y-143748192D01*
X99030150Y-143752179D01*
G37*
X97080803Y-143776811D02*
X97085752Y-143783495D01*
X97091596Y-143794066D01*
X97096057Y-143808153D01*
X97099321Y-143828478D01*
X97101574Y-143857765D01*
X97103002Y-143898737D01*
X97103792Y-143954117D01*
X97104129Y-144026628D01*
X97104200Y-144118994D01*
X97104171Y-144184911D01*
X97103939Y-144263228D01*
X97103319Y-144323496D01*
X97102126Y-144368393D01*
X97100179Y-144400602D01*
X97097294Y-144422800D01*
X97093288Y-144437669D01*
X97087979Y-144447889D01*
X97081183Y-144456138D01*
X97076668Y-144460795D01*
X97068438Y-144467282D01*
X97057078Y-144472194D01*
X97039810Y-144475749D01*
X97013855Y-144478167D01*
X96976436Y-144479667D01*
X96924773Y-144480467D01*
X96856089Y-144480787D01*
X96767606Y-144480845D01*
X96747931Y-144480838D01*
X96660906Y-144480572D01*
X96593254Y-144479806D01*
X96542299Y-144478392D01*
X96505367Y-144476180D01*
X96479783Y-144473022D01*
X96462871Y-144468769D01*
X96451957Y-144463271D01*
X96441464Y-144453285D01*
X96428203Y-144422168D01*
X96429386Y-144386280D01*
X96445550Y-144354733D01*
X96447739Y-144352457D01*
X96456427Y-144346189D01*
X96469769Y-144341523D01*
X96490752Y-144338227D01*
X96522363Y-144336068D01*
X96567590Y-144334814D01*
X96629420Y-144334231D01*
X96710839Y-144334089D01*
X96957445Y-144334089D01*
X96957445Y-144176045D01*
X96795006Y-144176045D01*
X96759338Y-144175964D01*
X96703568Y-144175167D01*
X96664430Y-144173162D01*
X96637976Y-144169521D01*
X96620259Y-144163812D01*
X96607329Y-144155607D01*
X96603686Y-144152423D01*
X96585278Y-144121448D01*
X96584644Y-144085112D01*
X96602183Y-144051493D01*
X96602245Y-144051424D01*
X96611916Y-144042798D01*
X96625209Y-144036742D01*
X96645917Y-144032811D01*
X96677828Y-144030556D01*
X96724734Y-144029531D01*
X96790424Y-144029289D01*
X96958571Y-144029289D01*
X96955186Y-143964378D01*
X96951800Y-143899467D01*
X96709723Y-143896414D01*
X96684707Y-143896086D01*
X96603087Y-143894606D01*
X96540768Y-143892222D01*
X96495154Y-143888227D01*
X96463652Y-143881913D01*
X96443667Y-143872574D01*
X96432604Y-143859503D01*
X96427869Y-143841992D01*
X96426867Y-143819335D01*
X96426873Y-143816970D01*
X96428027Y-143796939D01*
X96432824Y-143781146D01*
X96443632Y-143769090D01*
X96462817Y-143760267D01*
X96492745Y-143754175D01*
X96535783Y-143750311D01*
X96594299Y-143748174D01*
X96670657Y-143747260D01*
X96767226Y-143747067D01*
X97057406Y-143747067D01*
X97080803Y-143776811D01*
G36*
X97080803Y-143776811D02*
G01*
X97085752Y-143783495D01*
X97091596Y-143794066D01*
X97096057Y-143808153D01*
X97099321Y-143828478D01*
X97101574Y-143857765D01*
X97103002Y-143898737D01*
X97103792Y-143954117D01*
X97104129Y-144026628D01*
X97104200Y-144118994D01*
X97104171Y-144184911D01*
X97103939Y-144263228D01*
X97103319Y-144323496D01*
X97102126Y-144368393D01*
X97100179Y-144400602D01*
X97097294Y-144422800D01*
X97093288Y-144437669D01*
X97087979Y-144447889D01*
X97081183Y-144456138D01*
X97076668Y-144460795D01*
X97068438Y-144467282D01*
X97057078Y-144472194D01*
X97039810Y-144475749D01*
X97013855Y-144478167D01*
X96976436Y-144479667D01*
X96924773Y-144480467D01*
X96856089Y-144480787D01*
X96767606Y-144480845D01*
X96747931Y-144480838D01*
X96660906Y-144480572D01*
X96593254Y-144479806D01*
X96542299Y-144478392D01*
X96505367Y-144476180D01*
X96479783Y-144473022D01*
X96462871Y-144468769D01*
X96451957Y-144463271D01*
X96441464Y-144453285D01*
X96428203Y-144422168D01*
X96429386Y-144386280D01*
X96445550Y-144354733D01*
X96447739Y-144352457D01*
X96456427Y-144346189D01*
X96469769Y-144341523D01*
X96490752Y-144338227D01*
X96522363Y-144336068D01*
X96567590Y-144334814D01*
X96629420Y-144334231D01*
X96710839Y-144334089D01*
X96957445Y-144334089D01*
X96957445Y-144176045D01*
X96795006Y-144176045D01*
X96759338Y-144175964D01*
X96703568Y-144175167D01*
X96664430Y-144173162D01*
X96637976Y-144169521D01*
X96620259Y-144163812D01*
X96607329Y-144155607D01*
X96603686Y-144152423D01*
X96585278Y-144121448D01*
X96584644Y-144085112D01*
X96602183Y-144051493D01*
X96602245Y-144051424D01*
X96611916Y-144042798D01*
X96625209Y-144036742D01*
X96645917Y-144032811D01*
X96677828Y-144030556D01*
X96724734Y-144029531D01*
X96790424Y-144029289D01*
X96958571Y-144029289D01*
X96955186Y-143964378D01*
X96951800Y-143899467D01*
X96709723Y-143896414D01*
X96684707Y-143896086D01*
X96603087Y-143894606D01*
X96540768Y-143892222D01*
X96495154Y-143888227D01*
X96463652Y-143881913D01*
X96443667Y-143872574D01*
X96432604Y-143859503D01*
X96427869Y-143841992D01*
X96426867Y-143819335D01*
X96426873Y-143816970D01*
X96428027Y-143796939D01*
X96432824Y-143781146D01*
X96443632Y-143769090D01*
X96462817Y-143760267D01*
X96492745Y-143754175D01*
X96535783Y-143750311D01*
X96594299Y-143748174D01*
X96670657Y-143747260D01*
X96767226Y-143747067D01*
X97057406Y-143747067D01*
X97080803Y-143776811D01*
G37*
X101757734Y-143747083D02*
X101834831Y-143747275D01*
X101893777Y-143747860D01*
X101937364Y-143749051D01*
X101968383Y-143751064D01*
X101989625Y-143754112D01*
X102003882Y-143758409D01*
X102013945Y-143764172D01*
X102022606Y-143771612D01*
X102024391Y-143773293D01*
X102031635Y-143780832D01*
X102037277Y-143789850D01*
X102041517Y-143802984D01*
X102044556Y-143822872D01*
X102046594Y-143852151D01*
X102047830Y-143893458D01*
X102048465Y-143949431D01*
X102048700Y-144022707D01*
X102048734Y-144115923D01*
X102048697Y-144188713D01*
X102048448Y-144266889D01*
X102047812Y-144327103D01*
X102046615Y-144371982D01*
X102044684Y-144404152D01*
X102041846Y-144426239D01*
X102037927Y-144440870D01*
X102032755Y-144450670D01*
X102026156Y-144458267D01*
X102022822Y-144461444D01*
X102014300Y-144467554D01*
X102002298Y-144472229D01*
X101984087Y-144475659D01*
X101956940Y-144478036D01*
X101918129Y-144479552D01*
X101864924Y-144480398D01*
X101794598Y-144480765D01*
X101704422Y-144480845D01*
X101662314Y-144480833D01*
X101581167Y-144480651D01*
X101518675Y-144480098D01*
X101472109Y-144478982D01*
X101438741Y-144477113D01*
X101415844Y-144474298D01*
X101400688Y-144470346D01*
X101390546Y-144465066D01*
X101382689Y-144458267D01*
X101367963Y-144436667D01*
X101360111Y-144407467D01*
X101365610Y-144383560D01*
X101382689Y-144356667D01*
X101387668Y-144352059D01*
X101397443Y-144345772D01*
X101411559Y-144341146D01*
X101433054Y-144337930D01*
X101464968Y-144335870D01*
X101510342Y-144334712D01*
X101572213Y-144334202D01*
X101653622Y-144334089D01*
X101901978Y-144334089D01*
X101901978Y-144176045D01*
X101740801Y-144176045D01*
X101704983Y-144175899D01*
X101639359Y-144174176D01*
X101592118Y-144169741D01*
X101560383Y-144161637D01*
X101541277Y-144148906D01*
X101531923Y-144130592D01*
X101529445Y-144105738D01*
X101530242Y-144085482D01*
X101535494Y-144063656D01*
X101548288Y-144048304D01*
X101571628Y-144038309D01*
X101608517Y-144032553D01*
X101661959Y-144029919D01*
X101734958Y-144029289D01*
X101903105Y-144029289D01*
X101899719Y-143964378D01*
X101896334Y-143899467D01*
X101648617Y-143896418D01*
X101586026Y-143895539D01*
X101517565Y-143894095D01*
X101466661Y-143892164D01*
X101430408Y-143889514D01*
X101405901Y-143885910D01*
X101390235Y-143881121D01*
X101380506Y-143874913D01*
X101374491Y-143868510D01*
X101361482Y-143836828D01*
X101365043Y-143801142D01*
X101384818Y-143770084D01*
X101388069Y-143767161D01*
X101397049Y-143760810D01*
X101409153Y-143755957D01*
X101427159Y-143752403D01*
X101453847Y-143749946D01*
X101491997Y-143748385D01*
X101544386Y-143747518D01*
X101613794Y-143747146D01*
X101703001Y-143747067D01*
X101757734Y-143747083D01*
G36*
X101757734Y-143747083D02*
G01*
X101834831Y-143747275D01*
X101893777Y-143747860D01*
X101937364Y-143749051D01*
X101968383Y-143751064D01*
X101989625Y-143754112D01*
X102003882Y-143758409D01*
X102013945Y-143764172D01*
X102022606Y-143771612D01*
X102024391Y-143773293D01*
X102031635Y-143780832D01*
X102037277Y-143789850D01*
X102041517Y-143802984D01*
X102044556Y-143822872D01*
X102046594Y-143852151D01*
X102047830Y-143893458D01*
X102048465Y-143949431D01*
X102048700Y-144022707D01*
X102048734Y-144115923D01*
X102048697Y-144188713D01*
X102048448Y-144266889D01*
X102047812Y-144327103D01*
X102046615Y-144371982D01*
X102044684Y-144404152D01*
X102041846Y-144426239D01*
X102037927Y-144440870D01*
X102032755Y-144450670D01*
X102026156Y-144458267D01*
X102022822Y-144461444D01*
X102014300Y-144467554D01*
X102002298Y-144472229D01*
X101984087Y-144475659D01*
X101956940Y-144478036D01*
X101918129Y-144479552D01*
X101864924Y-144480398D01*
X101794598Y-144480765D01*
X101704422Y-144480845D01*
X101662314Y-144480833D01*
X101581167Y-144480651D01*
X101518675Y-144480098D01*
X101472109Y-144478982D01*
X101438741Y-144477113D01*
X101415844Y-144474298D01*
X101400688Y-144470346D01*
X101390546Y-144465066D01*
X101382689Y-144458267D01*
X101367963Y-144436667D01*
X101360111Y-144407467D01*
X101365610Y-144383560D01*
X101382689Y-144356667D01*
X101387668Y-144352059D01*
X101397443Y-144345772D01*
X101411559Y-144341146D01*
X101433054Y-144337930D01*
X101464968Y-144335870D01*
X101510342Y-144334712D01*
X101572213Y-144334202D01*
X101653622Y-144334089D01*
X101901978Y-144334089D01*
X101901978Y-144176045D01*
X101740801Y-144176045D01*
X101704983Y-144175899D01*
X101639359Y-144174176D01*
X101592118Y-144169741D01*
X101560383Y-144161637D01*
X101541277Y-144148906D01*
X101531923Y-144130592D01*
X101529445Y-144105738D01*
X101530242Y-144085482D01*
X101535494Y-144063656D01*
X101548288Y-144048304D01*
X101571628Y-144038309D01*
X101608517Y-144032553D01*
X101661959Y-144029919D01*
X101734958Y-144029289D01*
X101903105Y-144029289D01*
X101899719Y-143964378D01*
X101896334Y-143899467D01*
X101648617Y-143896418D01*
X101586026Y-143895539D01*
X101517565Y-143894095D01*
X101466661Y-143892164D01*
X101430408Y-143889514D01*
X101405901Y-143885910D01*
X101390235Y-143881121D01*
X101380506Y-143874913D01*
X101374491Y-143868510D01*
X101361482Y-143836828D01*
X101365043Y-143801142D01*
X101384818Y-143770084D01*
X101388069Y-143767161D01*
X101397049Y-143760810D01*
X101409153Y-143755957D01*
X101427159Y-143752403D01*
X101453847Y-143749946D01*
X101491997Y-143748385D01*
X101544386Y-143747518D01*
X101613794Y-143747146D01*
X101703001Y-143747067D01*
X101757734Y-143747083D01*
G37*
X93190702Y-143756478D02*
X93208663Y-143774989D01*
X93229263Y-143806071D01*
X93254095Y-143851756D01*
X93284750Y-143914078D01*
X93322820Y-143995071D01*
X93337454Y-144026454D01*
X93367203Y-144089638D01*
X93393297Y-144144244D01*
X93414292Y-144187290D01*
X93428739Y-144215793D01*
X93435191Y-144226770D01*
X93436550Y-144226189D01*
X93446542Y-144212242D01*
X93463833Y-144182704D01*
X93486430Y-144141087D01*
X93512338Y-144090903D01*
X93528311Y-144059414D01*
X93557261Y-144004061D01*
X93579749Y-143965044D01*
X93597965Y-143939566D01*
X93614096Y-143924831D01*
X93630330Y-143918042D01*
X93648857Y-143916400D01*
X93659360Y-143916875D01*
X93675476Y-143921082D01*
X93690790Y-143931946D01*
X93707388Y-143952219D01*
X93727357Y-143984654D01*
X93752783Y-144032004D01*
X93785752Y-144097022D01*
X93795485Y-144116277D01*
X93819943Y-144162946D01*
X93840178Y-144199109D01*
X93854311Y-144221497D01*
X93860460Y-144226845D01*
X93861827Y-144223573D01*
X93871202Y-144202664D01*
X93888062Y-144165725D01*
X93910979Y-144115874D01*
X93938520Y-144056226D01*
X93969255Y-143989898D01*
X93995970Y-143932677D01*
X94025593Y-143870688D01*
X94048664Y-143824949D01*
X94066643Y-143792908D01*
X94080990Y-143772014D01*
X94093166Y-143759718D01*
X94104632Y-143753466D01*
X94114042Y-143750574D01*
X94139147Y-143750425D01*
X94166290Y-143765768D01*
X94167590Y-143766753D01*
X94189674Y-143789388D01*
X94200723Y-143811613D01*
X94200769Y-143812253D01*
X94196228Y-143829915D01*
X94183364Y-143864481D01*
X94163605Y-143912826D01*
X94138381Y-143971825D01*
X94109119Y-144038355D01*
X94077250Y-144109291D01*
X94044201Y-144181507D01*
X94011401Y-144251880D01*
X93980280Y-144317285D01*
X93952265Y-144374597D01*
X93928786Y-144420692D01*
X93911272Y-144452446D01*
X93901151Y-144466733D01*
X93866743Y-144480102D01*
X93825046Y-144473741D01*
X93819681Y-144469044D01*
X93803852Y-144446893D01*
X93781650Y-144410132D01*
X93755233Y-144362415D01*
X93726760Y-144307393D01*
X93646986Y-144148150D01*
X93573799Y-144294742D01*
X93564103Y-144314032D01*
X93537125Y-144366380D01*
X93513096Y-144411170D01*
X93494332Y-144444154D01*
X93483146Y-144461089D01*
X93482000Y-144462332D01*
X93453879Y-144477619D01*
X93418817Y-144479302D01*
X93387776Y-144466733D01*
X93385350Y-144463884D01*
X93373090Y-144443259D01*
X93353352Y-144405708D01*
X93327448Y-144353880D01*
X93296685Y-144290423D01*
X93262375Y-144217985D01*
X93225825Y-144139216D01*
X93205585Y-144095093D01*
X93168812Y-144014365D01*
X93140355Y-143950687D01*
X93119331Y-143901752D01*
X93104854Y-143865257D01*
X93096039Y-143838895D01*
X93092004Y-143820361D01*
X93091862Y-143807352D01*
X93094730Y-143797561D01*
X93109387Y-143776678D01*
X93135990Y-143756377D01*
X93136745Y-143756035D01*
X93156335Y-143749034D01*
X93173790Y-143748504D01*
X93190702Y-143756478D01*
G36*
X93190702Y-143756478D02*
G01*
X93208663Y-143774989D01*
X93229263Y-143806071D01*
X93254095Y-143851756D01*
X93284750Y-143914078D01*
X93322820Y-143995071D01*
X93337454Y-144026454D01*
X93367203Y-144089638D01*
X93393297Y-144144244D01*
X93414292Y-144187290D01*
X93428739Y-144215793D01*
X93435191Y-144226770D01*
X93436550Y-144226189D01*
X93446542Y-144212242D01*
X93463833Y-144182704D01*
X93486430Y-144141087D01*
X93512338Y-144090903D01*
X93528311Y-144059414D01*
X93557261Y-144004061D01*
X93579749Y-143965044D01*
X93597965Y-143939566D01*
X93614096Y-143924831D01*
X93630330Y-143918042D01*
X93648857Y-143916400D01*
X93659360Y-143916875D01*
X93675476Y-143921082D01*
X93690790Y-143931946D01*
X93707388Y-143952219D01*
X93727357Y-143984654D01*
X93752783Y-144032004D01*
X93785752Y-144097022D01*
X93795485Y-144116277D01*
X93819943Y-144162946D01*
X93840178Y-144199109D01*
X93854311Y-144221497D01*
X93860460Y-144226845D01*
X93861827Y-144223573D01*
X93871202Y-144202664D01*
X93888062Y-144165725D01*
X93910979Y-144115874D01*
X93938520Y-144056226D01*
X93969255Y-143989898D01*
X93995970Y-143932677D01*
X94025593Y-143870688D01*
X94048664Y-143824949D01*
X94066643Y-143792908D01*
X94080990Y-143772014D01*
X94093166Y-143759718D01*
X94104632Y-143753466D01*
X94114042Y-143750574D01*
X94139147Y-143750425D01*
X94166290Y-143765768D01*
X94167590Y-143766753D01*
X94189674Y-143789388D01*
X94200723Y-143811613D01*
X94200769Y-143812253D01*
X94196228Y-143829915D01*
X94183364Y-143864481D01*
X94163605Y-143912826D01*
X94138381Y-143971825D01*
X94109119Y-144038355D01*
X94077250Y-144109291D01*
X94044201Y-144181507D01*
X94011401Y-144251880D01*
X93980280Y-144317285D01*
X93952265Y-144374597D01*
X93928786Y-144420692D01*
X93911272Y-144452446D01*
X93901151Y-144466733D01*
X93866743Y-144480102D01*
X93825046Y-144473741D01*
X93819681Y-144469044D01*
X93803852Y-144446893D01*
X93781650Y-144410132D01*
X93755233Y-144362415D01*
X93726760Y-144307393D01*
X93646986Y-144148150D01*
X93573799Y-144294742D01*
X93564103Y-144314032D01*
X93537125Y-144366380D01*
X93513096Y-144411170D01*
X93494332Y-144444154D01*
X93483146Y-144461089D01*
X93482000Y-144462332D01*
X93453879Y-144477619D01*
X93418817Y-144479302D01*
X93387776Y-144466733D01*
X93385350Y-144463884D01*
X93373090Y-144443259D01*
X93353352Y-144405708D01*
X93327448Y-144353880D01*
X93296685Y-144290423D01*
X93262375Y-144217985D01*
X93225825Y-144139216D01*
X93205585Y-144095093D01*
X93168812Y-144014365D01*
X93140355Y-143950687D01*
X93119331Y-143901752D01*
X93104854Y-143865257D01*
X93096039Y-143838895D01*
X93092004Y-143820361D01*
X93091862Y-143807352D01*
X93094730Y-143797561D01*
X93109387Y-143776678D01*
X93135990Y-143756377D01*
X93136745Y-143756035D01*
X93156335Y-143749034D01*
X93173790Y-143748504D01*
X93190702Y-143756478D01*
G37*
X100741853Y-143747936D02*
X100808100Y-143753366D01*
X100863400Y-143762964D01*
X100914283Y-143777825D01*
X100985595Y-143810958D01*
X101036752Y-143853640D01*
X101067575Y-143905705D01*
X101077889Y-143966983D01*
X101076952Y-143998232D01*
X101071160Y-144023029D01*
X101056353Y-144044699D01*
X101028380Y-144072049D01*
X101020402Y-144079378D01*
X100996692Y-144100281D01*
X100974298Y-144117251D01*
X100950265Y-144131205D01*
X100921637Y-144143056D01*
X100885460Y-144153720D01*
X100838780Y-144164111D01*
X100778641Y-144175146D01*
X100702090Y-144187738D01*
X100606171Y-144202804D01*
X100587808Y-144205838D01*
X100525478Y-144219458D01*
X100480260Y-144235192D01*
X100453976Y-144252263D01*
X100448447Y-144269897D01*
X100451068Y-144274168D01*
X100469000Y-144289233D01*
X100497126Y-144305867D01*
X100509926Y-144311857D01*
X100531224Y-144319050D01*
X100557610Y-144323827D01*
X100593454Y-144326646D01*
X100643128Y-144327964D01*
X100711000Y-144328237D01*
X100728785Y-144328164D01*
X100796406Y-144327053D01*
X100861345Y-144324828D01*
X100916970Y-144321762D01*
X100956651Y-144318127D01*
X100992162Y-144314059D01*
X101021415Y-144313276D01*
X101040315Y-144317876D01*
X101055429Y-144328551D01*
X101059085Y-144332144D01*
X101075427Y-144363918D01*
X101074107Y-144399572D01*
X101055150Y-144430190D01*
X101034780Y-144441796D01*
X100998796Y-144454491D01*
X100956372Y-144464541D01*
X100952922Y-144465140D01*
X100910252Y-144470356D01*
X100852866Y-144474730D01*
X100787849Y-144477818D01*
X100722289Y-144479177D01*
X100706057Y-144479218D01*
X100607744Y-144476741D01*
X100527692Y-144468735D01*
X100462513Y-144454203D01*
X100408817Y-144432149D01*
X100363216Y-144401576D01*
X100322323Y-144361486D01*
X100302202Y-144335259D01*
X100290576Y-144305712D01*
X100287667Y-144265995D01*
X100287808Y-144254026D01*
X100291681Y-144221345D01*
X100304065Y-144194819D01*
X100329230Y-144163971D01*
X100350442Y-144141831D01*
X100376838Y-144119285D01*
X100406555Y-144100917D01*
X100442785Y-144085661D01*
X100488717Y-144072449D01*
X100547544Y-144060214D01*
X100622456Y-144047889D01*
X100716645Y-144034406D01*
X100761957Y-144027396D01*
X100829911Y-144012837D01*
X100879047Y-143996337D01*
X100908614Y-143978439D01*
X100917864Y-143959685D01*
X100906048Y-143940615D01*
X100872416Y-143921771D01*
X100869370Y-143920557D01*
X100823011Y-143908479D01*
X100760361Y-143900279D01*
X100686927Y-143896119D01*
X100608217Y-143896161D01*
X100529739Y-143900569D01*
X100457000Y-143909505D01*
X100453073Y-143910154D01*
X100404257Y-143917861D01*
X100372005Y-143921473D01*
X100351008Y-143920876D01*
X100335954Y-143915954D01*
X100321534Y-143906596D01*
X100320364Y-143905725D01*
X100295847Y-143875351D01*
X100291054Y-143839850D01*
X100306860Y-143805269D01*
X100311406Y-143800813D01*
X100341020Y-143785673D01*
X100388002Y-143772550D01*
X100448306Y-143761750D01*
X100517888Y-143753581D01*
X100592703Y-143748351D01*
X100668706Y-143746367D01*
X100741853Y-143747936D01*
G36*
X100741853Y-143747936D02*
G01*
X100808100Y-143753366D01*
X100863400Y-143762964D01*
X100914283Y-143777825D01*
X100985595Y-143810958D01*
X101036752Y-143853640D01*
X101067575Y-143905705D01*
X101077889Y-143966983D01*
X101076952Y-143998232D01*
X101071160Y-144023029D01*
X101056353Y-144044699D01*
X101028380Y-144072049D01*
X101020402Y-144079378D01*
X100996692Y-144100281D01*
X100974298Y-144117251D01*
X100950265Y-144131205D01*
X100921637Y-144143056D01*
X100885460Y-144153720D01*
X100838780Y-144164111D01*
X100778641Y-144175146D01*
X100702090Y-144187738D01*
X100606171Y-144202804D01*
X100587808Y-144205838D01*
X100525478Y-144219458D01*
X100480260Y-144235192D01*
X100453976Y-144252263D01*
X100448447Y-144269897D01*
X100451068Y-144274168D01*
X100469000Y-144289233D01*
X100497126Y-144305867D01*
X100509926Y-144311857D01*
X100531224Y-144319050D01*
X100557610Y-144323827D01*
X100593454Y-144326646D01*
X100643128Y-144327964D01*
X100711000Y-144328237D01*
X100728785Y-144328164D01*
X100796406Y-144327053D01*
X100861345Y-144324828D01*
X100916970Y-144321762D01*
X100956651Y-144318127D01*
X100992162Y-144314059D01*
X101021415Y-144313276D01*
X101040315Y-144317876D01*
X101055429Y-144328551D01*
X101059085Y-144332144D01*
X101075427Y-144363918D01*
X101074107Y-144399572D01*
X101055150Y-144430190D01*
X101034780Y-144441796D01*
X100998796Y-144454491D01*
X100956372Y-144464541D01*
X100952922Y-144465140D01*
X100910252Y-144470356D01*
X100852866Y-144474730D01*
X100787849Y-144477818D01*
X100722289Y-144479177D01*
X100706057Y-144479218D01*
X100607744Y-144476741D01*
X100527692Y-144468735D01*
X100462513Y-144454203D01*
X100408817Y-144432149D01*
X100363216Y-144401576D01*
X100322323Y-144361486D01*
X100302202Y-144335259D01*
X100290576Y-144305712D01*
X100287667Y-144265995D01*
X100287808Y-144254026D01*
X100291681Y-144221345D01*
X100304065Y-144194819D01*
X100329230Y-144163971D01*
X100350442Y-144141831D01*
X100376838Y-144119285D01*
X100406555Y-144100917D01*
X100442785Y-144085661D01*
X100488717Y-144072449D01*
X100547544Y-144060214D01*
X100622456Y-144047889D01*
X100716645Y-144034406D01*
X100761957Y-144027396D01*
X100829911Y-144012837D01*
X100879047Y-143996337D01*
X100908614Y-143978439D01*
X100917864Y-143959685D01*
X100906048Y-143940615D01*
X100872416Y-143921771D01*
X100869370Y-143920557D01*
X100823011Y-143908479D01*
X100760361Y-143900279D01*
X100686927Y-143896119D01*
X100608217Y-143896161D01*
X100529739Y-143900569D01*
X100457000Y-143909505D01*
X100453073Y-143910154D01*
X100404257Y-143917861D01*
X100372005Y-143921473D01*
X100351008Y-143920876D01*
X100335954Y-143915954D01*
X100321534Y-143906596D01*
X100320364Y-143905725D01*
X100295847Y-143875351D01*
X100291054Y-143839850D01*
X100306860Y-143805269D01*
X100311406Y-143800813D01*
X100341020Y-143785673D01*
X100388002Y-143772550D01*
X100448306Y-143761750D01*
X100517888Y-143753581D01*
X100592703Y-143748351D01*
X100668706Y-143746367D01*
X100741853Y-143747936D01*
G37*
X96889711Y-139440033D02*
X96985268Y-139457523D01*
X97149558Y-139502564D01*
X97303589Y-139565656D01*
X97449509Y-139647915D01*
X97589466Y-139750457D01*
X97725608Y-139874399D01*
X97769473Y-139919661D01*
X97881758Y-140051865D01*
X97974972Y-140189832D01*
X98051719Y-140337750D01*
X98114603Y-140499803D01*
X98118420Y-140511391D01*
X98168507Y-140697392D01*
X98201899Y-140893521D01*
X98218584Y-141095568D01*
X98218551Y-141299325D01*
X98201791Y-141500581D01*
X98168292Y-141695128D01*
X98118044Y-141878756D01*
X98074190Y-141996053D01*
X97996348Y-142158951D01*
X97902828Y-142312866D01*
X97795822Y-142454671D01*
X97677519Y-142581239D01*
X97550111Y-142689441D01*
X97472606Y-142742120D01*
X97345725Y-142811750D01*
X97208243Y-142870468D01*
X97066716Y-142915587D01*
X96927702Y-142944422D01*
X96913597Y-142946106D01*
X96870153Y-142949434D01*
X96812723Y-142952275D01*
X96747122Y-142954373D01*
X96679167Y-142955468D01*
X96552378Y-142953140D01*
X96404673Y-142940136D01*
X96266779Y-142915133D01*
X96133014Y-142877318D01*
X96109562Y-142868889D01*
X96061612Y-142849408D01*
X96005140Y-142824473D01*
X95943379Y-142795722D01*
X95879563Y-142764790D01*
X95816926Y-142733315D01*
X95758703Y-142702934D01*
X95708127Y-142675283D01*
X95668433Y-142651999D01*
X95642854Y-142634718D01*
X95634625Y-142625079D01*
X95636076Y-142621984D01*
X95647250Y-142602079D01*
X95668134Y-142566420D01*
X95697265Y-142517459D01*
X95733181Y-142457646D01*
X95774420Y-142389433D01*
X95819517Y-142315271D01*
X96000785Y-142018008D01*
X96047315Y-142062539D01*
X96138723Y-142140865D01*
X96252334Y-142215439D01*
X96370122Y-142269474D01*
X96490559Y-142302290D01*
X96612117Y-142313211D01*
X96653585Y-142311868D01*
X96771080Y-142293612D01*
X96881089Y-142254617D01*
X96982430Y-142195670D01*
X97073921Y-142117557D01*
X97154380Y-142021064D01*
X97222627Y-141906978D01*
X97238908Y-141872724D01*
X97284982Y-141749240D01*
X97320106Y-141610918D01*
X97344197Y-141461561D01*
X97357173Y-141304973D01*
X97358949Y-141144956D01*
X97349443Y-140985314D01*
X97328572Y-140829850D01*
X97296252Y-140682366D01*
X97252399Y-140546667D01*
X97214982Y-140460076D01*
X97150185Y-140346688D01*
X97074772Y-140253070D01*
X96988418Y-140178959D01*
X96890795Y-140124094D01*
X96781577Y-140088212D01*
X96660439Y-140071051D01*
X96591038Y-140069880D01*
X96468168Y-140084141D01*
X96352664Y-140119241D01*
X96245953Y-140174682D01*
X96149464Y-140249964D01*
X96133720Y-140264440D01*
X96103150Y-140290962D01*
X96080809Y-140308138D01*
X96070691Y-140312787D01*
X96068706Y-140310597D01*
X96054241Y-140291721D01*
X96030400Y-140258397D01*
X95999029Y-140213380D01*
X95961974Y-140159425D01*
X95921083Y-140099285D01*
X95878202Y-140035718D01*
X95835178Y-139971476D01*
X95793857Y-139909315D01*
X95756086Y-139851991D01*
X95723712Y-139802257D01*
X95698582Y-139762868D01*
X95682542Y-139736580D01*
X95677439Y-139726147D01*
X95682050Y-139721941D01*
X95701267Y-139716933D01*
X95710838Y-139714386D01*
X95738809Y-139703249D01*
X95780448Y-139684802D01*
X95831995Y-139660725D01*
X95889690Y-139632699D01*
X95900957Y-139627154D01*
X96078687Y-139547889D01*
X96248490Y-139488385D01*
X96412430Y-139448245D01*
X96572571Y-139427071D01*
X96730977Y-139424466D01*
X96889711Y-139440033D01*
G36*
X96889711Y-139440033D02*
G01*
X96985268Y-139457523D01*
X97149558Y-139502564D01*
X97303589Y-139565656D01*
X97449509Y-139647915D01*
X97589466Y-139750457D01*
X97725608Y-139874399D01*
X97769473Y-139919661D01*
X97881758Y-140051865D01*
X97974972Y-140189832D01*
X98051719Y-140337750D01*
X98114603Y-140499803D01*
X98118420Y-140511391D01*
X98168507Y-140697392D01*
X98201899Y-140893521D01*
X98218584Y-141095568D01*
X98218551Y-141299325D01*
X98201791Y-141500581D01*
X98168292Y-141695128D01*
X98118044Y-141878756D01*
X98074190Y-141996053D01*
X97996348Y-142158951D01*
X97902828Y-142312866D01*
X97795822Y-142454671D01*
X97677519Y-142581239D01*
X97550111Y-142689441D01*
X97472606Y-142742120D01*
X97345725Y-142811750D01*
X97208243Y-142870468D01*
X97066716Y-142915587D01*
X96927702Y-142944422D01*
X96913597Y-142946106D01*
X96870153Y-142949434D01*
X96812723Y-142952275D01*
X96747122Y-142954373D01*
X96679167Y-142955468D01*
X96552378Y-142953140D01*
X96404673Y-142940136D01*
X96266779Y-142915133D01*
X96133014Y-142877318D01*
X96109562Y-142868889D01*
X96061612Y-142849408D01*
X96005140Y-142824473D01*
X95943379Y-142795722D01*
X95879563Y-142764790D01*
X95816926Y-142733315D01*
X95758703Y-142702934D01*
X95708127Y-142675283D01*
X95668433Y-142651999D01*
X95642854Y-142634718D01*
X95634625Y-142625079D01*
X95636076Y-142621984D01*
X95647250Y-142602079D01*
X95668134Y-142566420D01*
X95697265Y-142517459D01*
X95733181Y-142457646D01*
X95774420Y-142389433D01*
X95819517Y-142315271D01*
X96000785Y-142018008D01*
X96047315Y-142062539D01*
X96138723Y-142140865D01*
X96252334Y-142215439D01*
X96370122Y-142269474D01*
X96490559Y-142302290D01*
X96612117Y-142313211D01*
X96653585Y-142311868D01*
X96771080Y-142293612D01*
X96881089Y-142254617D01*
X96982430Y-142195670D01*
X97073921Y-142117557D01*
X97154380Y-142021064D01*
X97222627Y-141906978D01*
X97238908Y-141872724D01*
X97284982Y-141749240D01*
X97320106Y-141610918D01*
X97344197Y-141461561D01*
X97357173Y-141304973D01*
X97358949Y-141144956D01*
X97349443Y-140985314D01*
X97328572Y-140829850D01*
X97296252Y-140682366D01*
X97252399Y-140546667D01*
X97214982Y-140460076D01*
X97150185Y-140346688D01*
X97074772Y-140253070D01*
X96988418Y-140178959D01*
X96890795Y-140124094D01*
X96781577Y-140088212D01*
X96660439Y-140071051D01*
X96591038Y-140069880D01*
X96468168Y-140084141D01*
X96352664Y-140119241D01*
X96245953Y-140174682D01*
X96149464Y-140249964D01*
X96133720Y-140264440D01*
X96103150Y-140290962D01*
X96080809Y-140308138D01*
X96070691Y-140312787D01*
X96068706Y-140310597D01*
X96054241Y-140291721D01*
X96030400Y-140258397D01*
X95999029Y-140213380D01*
X95961974Y-140159425D01*
X95921083Y-140099285D01*
X95878202Y-140035718D01*
X95835178Y-139971476D01*
X95793857Y-139909315D01*
X95756086Y-139851991D01*
X95723712Y-139802257D01*
X95698582Y-139762868D01*
X95682542Y-139736580D01*
X95677439Y-139726147D01*
X95682050Y-139721941D01*
X95701267Y-139716933D01*
X95710838Y-139714386D01*
X95738809Y-139703249D01*
X95780448Y-139684802D01*
X95831995Y-139660725D01*
X95889690Y-139632699D01*
X95900957Y-139627154D01*
X96078687Y-139547889D01*
X96248490Y-139488385D01*
X96412430Y-139448245D01*
X96572571Y-139427071D01*
X96730977Y-139424466D01*
X96889711Y-139440033D01*
G37*
X93086994Y-141720711D02*
X93086268Y-141798158D01*
X93077689Y-141949594D01*
X93058833Y-142086283D01*
X93028837Y-142212276D01*
X92986836Y-142331625D01*
X92931969Y-142448381D01*
X92865167Y-142559179D01*
X92774363Y-142672739D01*
X92670708Y-142768211D01*
X92554887Y-142845073D01*
X92427586Y-142902797D01*
X92289489Y-142940858D01*
X92251793Y-142946666D01*
X92172752Y-142952396D01*
X92084629Y-142952583D01*
X91995236Y-142947539D01*
X91912384Y-142937578D01*
X91843887Y-142923012D01*
X91813035Y-142913364D01*
X91735730Y-142883123D01*
X91658679Y-142845617D01*
X91589200Y-142804614D01*
X91534615Y-142763879D01*
X91511916Y-142744505D01*
X91489201Y-142726662D01*
X91477779Y-142719778D01*
X91476537Y-142721424D01*
X91473728Y-142739205D01*
X91471776Y-142772370D01*
X91471045Y-142815733D01*
X91471045Y-142911689D01*
X90612896Y-142911689D01*
X90647161Y-142850974D01*
X90652355Y-142841868D01*
X90660715Y-142827249D01*
X90668288Y-142813173D01*
X90675112Y-142798540D01*
X90681227Y-142782249D01*
X90686673Y-142763198D01*
X90691487Y-142740286D01*
X90695708Y-142712413D01*
X90699377Y-142678478D01*
X90702531Y-142637379D01*
X90705211Y-142588015D01*
X90707454Y-142529286D01*
X90709299Y-142460090D01*
X90710787Y-142379326D01*
X90711955Y-142285894D01*
X90712844Y-142178692D01*
X90713491Y-142056620D01*
X90713936Y-141918576D01*
X90714218Y-141763459D01*
X90714375Y-141590168D01*
X90714448Y-141397603D01*
X90714474Y-141184662D01*
X90714485Y-141048530D01*
X91516200Y-141048530D01*
X91516200Y-142198721D01*
X91586756Y-142245089D01*
X91627417Y-142268791D01*
X91681546Y-142294639D01*
X91730689Y-142312829D01*
X91794165Y-142328551D01*
X91890331Y-142339541D01*
X91974900Y-142331365D01*
X92048219Y-142303805D01*
X92110637Y-142256642D01*
X92162502Y-142189658D01*
X92204160Y-142102633D01*
X92235962Y-141995350D01*
X92238545Y-141983009D01*
X92247000Y-141921772D01*
X92252663Y-141844692D01*
X92255576Y-141757002D01*
X92255783Y-141663934D01*
X92253330Y-141570720D01*
X92248261Y-141482594D01*
X92240619Y-141404788D01*
X92230448Y-141342533D01*
X92229167Y-141336666D01*
X92200126Y-141226121D01*
X92165610Y-141135575D01*
X92124456Y-141062953D01*
X92075499Y-141006181D01*
X92017574Y-140963184D01*
X91985620Y-140947615D01*
X91912784Y-140928722D01*
X91831443Y-140925465D01*
X91746319Y-140937389D01*
X91662133Y-140964040D01*
X91583608Y-141004962D01*
X91516200Y-141048530D01*
X90714485Y-141048530D01*
X90714493Y-140950245D01*
X90714689Y-139265378D01*
X91620017Y-139265378D01*
X91595585Y-139302067D01*
X91589318Y-139311647D01*
X91563208Y-139357981D01*
X91545469Y-139405102D01*
X91533908Y-139460251D01*
X91526331Y-139530667D01*
X91525839Y-139537650D01*
X91524062Y-139575641D01*
X91522444Y-139629576D01*
X91520999Y-139696703D01*
X91519740Y-139774271D01*
X91518680Y-139859528D01*
X91517829Y-139949724D01*
X91517203Y-140042107D01*
X91516812Y-140133925D01*
X91516670Y-140222427D01*
X91516790Y-140304862D01*
X91517183Y-140378479D01*
X91517862Y-140440526D01*
X91518841Y-140488251D01*
X91520132Y-140518904D01*
X91521747Y-140529733D01*
X91529957Y-140525333D01*
X91551647Y-140510362D01*
X91581014Y-140488448D01*
X91629879Y-140454236D01*
X91718125Y-140407714D01*
X91816916Y-140374046D01*
X91929510Y-140352231D01*
X92059164Y-140341265D01*
X92151670Y-140340219D01*
X92273011Y-140350014D01*
X92383099Y-140374174D01*
X92486389Y-140413785D01*
X92587338Y-140469932D01*
X92632503Y-140500883D01*
X92737911Y-140592115D01*
X92829538Y-140701106D01*
X92907332Y-140827726D01*
X92971241Y-140971845D01*
X93021214Y-141133332D01*
X93057198Y-141312059D01*
X93079143Y-141507895D01*
X93084900Y-141663934D01*
X93086994Y-141720711D01*
G36*
X93086994Y-141720711D02*
G01*
X93086268Y-141798158D01*
X93077689Y-141949594D01*
X93058833Y-142086283D01*
X93028837Y-142212276D01*
X92986836Y-142331625D01*
X92931969Y-142448381D01*
X92865167Y-142559179D01*
X92774363Y-142672739D01*
X92670708Y-142768211D01*
X92554887Y-142845073D01*
X92427586Y-142902797D01*
X92289489Y-142940858D01*
X92251793Y-142946666D01*
X92172752Y-142952396D01*
X92084629Y-142952583D01*
X91995236Y-142947539D01*
X91912384Y-142937578D01*
X91843887Y-142923012D01*
X91813035Y-142913364D01*
X91735730Y-142883123D01*
X91658679Y-142845617D01*
X91589200Y-142804614D01*
X91534615Y-142763879D01*
X91511916Y-142744505D01*
X91489201Y-142726662D01*
X91477779Y-142719778D01*
X91476537Y-142721424D01*
X91473728Y-142739205D01*
X91471776Y-142772370D01*
X91471045Y-142815733D01*
X91471045Y-142911689D01*
X90612896Y-142911689D01*
X90647161Y-142850974D01*
X90652355Y-142841868D01*
X90660715Y-142827249D01*
X90668288Y-142813173D01*
X90675112Y-142798540D01*
X90681227Y-142782249D01*
X90686673Y-142763198D01*
X90691487Y-142740286D01*
X90695708Y-142712413D01*
X90699377Y-142678478D01*
X90702531Y-142637379D01*
X90705211Y-142588015D01*
X90707454Y-142529286D01*
X90709299Y-142460090D01*
X90710787Y-142379326D01*
X90711955Y-142285894D01*
X90712844Y-142178692D01*
X90713491Y-142056620D01*
X90713936Y-141918576D01*
X90714218Y-141763459D01*
X90714375Y-141590168D01*
X90714448Y-141397603D01*
X90714474Y-141184662D01*
X90714485Y-141048530D01*
X91516200Y-141048530D01*
X91516200Y-142198721D01*
X91586756Y-142245089D01*
X91627417Y-142268791D01*
X91681546Y-142294639D01*
X91730689Y-142312829D01*
X91794165Y-142328551D01*
X91890331Y-142339541D01*
X91974900Y-142331365D01*
X92048219Y-142303805D01*
X92110637Y-142256642D01*
X92162502Y-142189658D01*
X92204160Y-142102633D01*
X92235962Y-141995350D01*
X92238545Y-141983009D01*
X92247000Y-141921772D01*
X92252663Y-141844692D01*
X92255576Y-141757002D01*
X92255783Y-141663934D01*
X92253330Y-141570720D01*
X92248261Y-141482594D01*
X92240619Y-141404788D01*
X92230448Y-141342533D01*
X92229167Y-141336666D01*
X92200126Y-141226121D01*
X92165610Y-141135575D01*
X92124456Y-141062953D01*
X92075499Y-141006181D01*
X92017574Y-140963184D01*
X91985620Y-140947615D01*
X91912784Y-140928722D01*
X91831443Y-140925465D01*
X91746319Y-140937389D01*
X91662133Y-140964040D01*
X91583608Y-141004962D01*
X91516200Y-141048530D01*
X90714485Y-141048530D01*
X90714493Y-140950245D01*
X90714689Y-139265378D01*
X91620017Y-139265378D01*
X91595585Y-139302067D01*
X91589318Y-139311647D01*
X91563208Y-139357981D01*
X91545469Y-139405102D01*
X91533908Y-139460251D01*
X91526331Y-139530667D01*
X91525839Y-139537650D01*
X91524062Y-139575641D01*
X91522444Y-139629576D01*
X91520999Y-139696703D01*
X91519740Y-139774271D01*
X91518680Y-139859528D01*
X91517829Y-139949724D01*
X91517203Y-140042107D01*
X91516812Y-140133925D01*
X91516670Y-140222427D01*
X91516790Y-140304862D01*
X91517183Y-140378479D01*
X91517862Y-140440526D01*
X91518841Y-140488251D01*
X91520132Y-140518904D01*
X91521747Y-140529733D01*
X91529957Y-140525333D01*
X91551647Y-140510362D01*
X91581014Y-140488448D01*
X91629879Y-140454236D01*
X91718125Y-140407714D01*
X91816916Y-140374046D01*
X91929510Y-140352231D01*
X92059164Y-140341265D01*
X92151670Y-140340219D01*
X92273011Y-140350014D01*
X92383099Y-140374174D01*
X92486389Y-140413785D01*
X92587338Y-140469932D01*
X92632503Y-140500883D01*
X92737911Y-140592115D01*
X92829538Y-140701106D01*
X92907332Y-140827726D01*
X92971241Y-140971845D01*
X93021214Y-141133332D01*
X93057198Y-141312059D01*
X93079143Y-141507895D01*
X93084900Y-141663934D01*
X93086994Y-141720711D01*
G37*
X95628755Y-142121467D02*
X95628261Y-142155363D01*
X95624632Y-142230202D01*
X95617022Y-142292401D01*
X95604688Y-142348984D01*
X95560313Y-142475076D01*
X95497400Y-142589679D01*
X95417238Y-142690568D01*
X95320740Y-142776924D01*
X95208822Y-142847932D01*
X95082397Y-142902776D01*
X94942378Y-142940638D01*
X94906149Y-142946351D01*
X94827155Y-142952313D01*
X94738841Y-142952646D01*
X94649075Y-142947659D01*
X94565722Y-142937666D01*
X94496651Y-142922978D01*
X94410187Y-142892749D01*
X94300286Y-142838057D01*
X94202956Y-142770543D01*
X94140867Y-142719556D01*
X94137605Y-142815622D01*
X94134343Y-142911689D01*
X93711450Y-142911689D01*
X93700543Y-142911686D01*
X93606056Y-142911380D01*
X93519331Y-142910616D01*
X93442837Y-142909451D01*
X93379043Y-142907942D01*
X93330418Y-142906147D01*
X93299433Y-142904121D01*
X93288556Y-142901922D01*
X93288578Y-142901463D01*
X93295614Y-142885910D01*
X93311434Y-142863071D01*
X93315734Y-142857638D01*
X93326777Y-142843606D01*
X93336311Y-142830186D01*
X93344461Y-142815722D01*
X93351352Y-142798556D01*
X93357111Y-142777034D01*
X93361862Y-142749498D01*
X93365731Y-142714292D01*
X93368844Y-142669760D01*
X93371325Y-142614246D01*
X93373300Y-142546093D01*
X93374894Y-142463645D01*
X93376234Y-142365246D01*
X93377444Y-142249239D01*
X93378649Y-142113968D01*
X93379595Y-142002586D01*
X94180378Y-142002586D01*
X94180378Y-142198462D01*
X94225048Y-142254973D01*
X94237785Y-142270212D01*
X94284604Y-142312844D01*
X94345255Y-142348672D01*
X94355897Y-142353850D01*
X94394676Y-142370745D01*
X94429692Y-142380909D01*
X94469722Y-142386325D01*
X94523541Y-142388978D01*
X94541648Y-142389383D01*
X94617011Y-142386540D01*
X94677743Y-142374620D01*
X94729452Y-142352037D01*
X94777746Y-142317211D01*
X94782803Y-142312798D01*
X94831272Y-142257160D01*
X94859459Y-142193333D01*
X94868752Y-142118282D01*
X94861520Y-142046693D01*
X94836796Y-141983645D01*
X94792249Y-141925758D01*
X94737319Y-141878808D01*
X94664894Y-141838961D01*
X94578340Y-141811263D01*
X94475670Y-141795096D01*
X94354894Y-141789842D01*
X94346007Y-141789857D01*
X94290660Y-141790655D01*
X94243736Y-141792488D01*
X94209953Y-141795111D01*
X94194028Y-141798274D01*
X94189943Y-141804741D01*
X94185572Y-141826875D01*
X94182604Y-141865988D01*
X94180914Y-141923939D01*
X94180378Y-142002586D01*
X93379595Y-142002586D01*
X93379975Y-141957778D01*
X93381228Y-141815012D01*
X93382651Y-141669942D01*
X93384176Y-141544027D01*
X93385933Y-141435436D01*
X93388051Y-141342334D01*
X93390660Y-141262891D01*
X93393890Y-141195273D01*
X93397869Y-141137649D01*
X93402728Y-141088185D01*
X93408597Y-141045050D01*
X93415604Y-141006410D01*
X93423880Y-140970434D01*
X93433554Y-140935289D01*
X93444756Y-140899142D01*
X93457616Y-140860161D01*
X93473090Y-140817091D01*
X93515994Y-140724871D01*
X93569735Y-140645099D01*
X93638576Y-140570965D01*
X93716185Y-140507405D01*
X93820761Y-140445725D01*
X93940244Y-140398202D01*
X94075508Y-140364567D01*
X94227426Y-140344552D01*
X94396872Y-140337889D01*
X94454890Y-140338287D01*
X94520398Y-140340335D01*
X94581693Y-140344704D01*
X94643097Y-140352035D01*
X94708932Y-140362969D01*
X94783520Y-140378147D01*
X94871184Y-140398209D01*
X94976245Y-140423797D01*
X95004806Y-140430820D01*
X95080054Y-140448776D01*
X95150388Y-140464820D01*
X95211567Y-140478028D01*
X95259354Y-140487474D01*
X95289511Y-140492231D01*
X95317783Y-140495910D01*
X95344060Y-140501187D01*
X95354059Y-140505942D01*
X95350952Y-140514781D01*
X95340194Y-140542072D01*
X95322864Y-140584906D01*
X95300126Y-140640425D01*
X95273147Y-140705772D01*
X95243090Y-140778089D01*
X95236493Y-140793879D01*
X95197907Y-140884484D01*
X95166768Y-140954217D01*
X95142917Y-141003405D01*
X95126198Y-141032374D01*
X95116454Y-141041452D01*
X95108766Y-141039405D01*
X95082415Y-141029760D01*
X95043982Y-141014190D01*
X94998822Y-140994815D01*
X94904293Y-140956814D01*
X94767480Y-140915780D01*
X94626289Y-140890612D01*
X94588314Y-140886611D01*
X94485059Y-140884447D01*
X94397952Y-140897622D01*
X94326129Y-140926756D01*
X94268731Y-140972466D01*
X94224896Y-141035372D01*
X94193762Y-141116092D01*
X94174470Y-141215245D01*
X94167050Y-141274224D01*
X94328936Y-141267445D01*
X94455495Y-141265813D01*
X94606951Y-141272194D01*
X94755396Y-141286777D01*
X94891578Y-141308882D01*
X94956245Y-141323821D01*
X95088490Y-141366741D01*
X95210762Y-141423340D01*
X95320685Y-141492017D01*
X95415883Y-141571170D01*
X95493980Y-141659196D01*
X95552599Y-141754493D01*
X95576595Y-141806864D01*
X95602232Y-141877590D01*
X95618478Y-141948812D01*
X95626822Y-142027712D01*
X95628690Y-142118282D01*
X95628755Y-142121467D01*
G36*
X95628755Y-142121467D02*
G01*
X95628261Y-142155363D01*
X95624632Y-142230202D01*
X95617022Y-142292401D01*
X95604688Y-142348984D01*
X95560313Y-142475076D01*
X95497400Y-142589679D01*
X95417238Y-142690568D01*
X95320740Y-142776924D01*
X95208822Y-142847932D01*
X95082397Y-142902776D01*
X94942378Y-142940638D01*
X94906149Y-142946351D01*
X94827155Y-142952313D01*
X94738841Y-142952646D01*
X94649075Y-142947659D01*
X94565722Y-142937666D01*
X94496651Y-142922978D01*
X94410187Y-142892749D01*
X94300286Y-142838057D01*
X94202956Y-142770543D01*
X94140867Y-142719556D01*
X94137605Y-142815622D01*
X94134343Y-142911689D01*
X93711450Y-142911689D01*
X93700543Y-142911686D01*
X93606056Y-142911380D01*
X93519331Y-142910616D01*
X93442837Y-142909451D01*
X93379043Y-142907942D01*
X93330418Y-142906147D01*
X93299433Y-142904121D01*
X93288556Y-142901922D01*
X93288578Y-142901463D01*
X93295614Y-142885910D01*
X93311434Y-142863071D01*
X93315734Y-142857638D01*
X93326777Y-142843606D01*
X93336311Y-142830186D01*
X93344461Y-142815722D01*
X93351352Y-142798556D01*
X93357111Y-142777034D01*
X93361862Y-142749498D01*
X93365731Y-142714292D01*
X93368844Y-142669760D01*
X93371325Y-142614246D01*
X93373300Y-142546093D01*
X93374894Y-142463645D01*
X93376234Y-142365246D01*
X93377444Y-142249239D01*
X93378649Y-142113968D01*
X93379595Y-142002586D01*
X94180378Y-142002586D01*
X94180378Y-142198462D01*
X94225048Y-142254973D01*
X94237785Y-142270212D01*
X94284604Y-142312844D01*
X94345255Y-142348672D01*
X94355897Y-142353850D01*
X94394676Y-142370745D01*
X94429692Y-142380909D01*
X94469722Y-142386325D01*
X94523541Y-142388978D01*
X94541648Y-142389383D01*
X94617011Y-142386540D01*
X94677743Y-142374620D01*
X94729452Y-142352037D01*
X94777746Y-142317211D01*
X94782803Y-142312798D01*
X94831272Y-142257160D01*
X94859459Y-142193333D01*
X94868752Y-142118282D01*
X94861520Y-142046693D01*
X94836796Y-141983645D01*
X94792249Y-141925758D01*
X94737319Y-141878808D01*
X94664894Y-141838961D01*
X94578340Y-141811263D01*
X94475670Y-141795096D01*
X94354894Y-141789842D01*
X94346007Y-141789857D01*
X94290660Y-141790655D01*
X94243736Y-141792488D01*
X94209953Y-141795111D01*
X94194028Y-141798274D01*
X94189943Y-141804741D01*
X94185572Y-141826875D01*
X94182604Y-141865988D01*
X94180914Y-141923939D01*
X94180378Y-142002586D01*
X93379595Y-142002586D01*
X93379975Y-141957778D01*
X93381228Y-141815012D01*
X93382651Y-141669942D01*
X93384176Y-141544027D01*
X93385933Y-141435436D01*
X93388051Y-141342334D01*
X93390660Y-141262891D01*
X93393890Y-141195273D01*
X93397869Y-141137649D01*
X93402728Y-141088185D01*
X93408597Y-141045050D01*
X93415604Y-141006410D01*
X93423880Y-140970434D01*
X93433554Y-140935289D01*
X93444756Y-140899142D01*
X93457616Y-140860161D01*
X93473090Y-140817091D01*
X93515994Y-140724871D01*
X93569735Y-140645099D01*
X93638576Y-140570965D01*
X93716185Y-140507405D01*
X93820761Y-140445725D01*
X93940244Y-140398202D01*
X94075508Y-140364567D01*
X94227426Y-140344552D01*
X94396872Y-140337889D01*
X94454890Y-140338287D01*
X94520398Y-140340335D01*
X94581693Y-140344704D01*
X94643097Y-140352035D01*
X94708932Y-140362969D01*
X94783520Y-140378147D01*
X94871184Y-140398209D01*
X94976245Y-140423797D01*
X95004806Y-140430820D01*
X95080054Y-140448776D01*
X95150388Y-140464820D01*
X95211567Y-140478028D01*
X95259354Y-140487474D01*
X95289511Y-140492231D01*
X95317783Y-140495910D01*
X95344060Y-140501187D01*
X95354059Y-140505942D01*
X95350952Y-140514781D01*
X95340194Y-140542072D01*
X95322864Y-140584906D01*
X95300126Y-140640425D01*
X95273147Y-140705772D01*
X95243090Y-140778089D01*
X95236493Y-140793879D01*
X95197907Y-140884484D01*
X95166768Y-140954217D01*
X95142917Y-141003405D01*
X95126198Y-141032374D01*
X95116454Y-141041452D01*
X95108766Y-141039405D01*
X95082415Y-141029760D01*
X95043982Y-141014190D01*
X94998822Y-140994815D01*
X94904293Y-140956814D01*
X94767480Y-140915780D01*
X94626289Y-140890612D01*
X94588314Y-140886611D01*
X94485059Y-140884447D01*
X94397952Y-140897622D01*
X94326129Y-140926756D01*
X94268731Y-140972466D01*
X94224896Y-141035372D01*
X94193762Y-141116092D01*
X94174470Y-141215245D01*
X94167050Y-141274224D01*
X94328936Y-141267445D01*
X94455495Y-141265813D01*
X94606951Y-141272194D01*
X94755396Y-141286777D01*
X94891578Y-141308882D01*
X94956245Y-141323821D01*
X95088490Y-141366741D01*
X95210762Y-141423340D01*
X95320685Y-141492017D01*
X95415883Y-141571170D01*
X95493980Y-141659196D01*
X95552599Y-141754493D01*
X95576595Y-141806864D01*
X95602232Y-141877590D01*
X95618478Y-141948812D01*
X95626822Y-142027712D01*
X95628690Y-142118282D01*
X95628755Y-142121467D01*
G37*
X103176614Y-139589792D02*
X103177059Y-139721011D01*
X103177362Y-139868216D01*
X103177548Y-140032349D01*
X103177642Y-140214352D01*
X103177671Y-140415165D01*
X103177661Y-140635732D01*
X103177636Y-140876992D01*
X103177622Y-141139889D01*
X103177622Y-141182040D01*
X103177646Y-141442668D01*
X103177685Y-141681796D01*
X103177708Y-141900360D01*
X103177687Y-142099295D01*
X103177593Y-142279535D01*
X103177395Y-142442015D01*
X103177063Y-142587670D01*
X103176569Y-142717434D01*
X103175883Y-142832243D01*
X103174976Y-142933030D01*
X103173817Y-143020730D01*
X103172378Y-143096279D01*
X103170629Y-143160611D01*
X103168540Y-143214661D01*
X103166083Y-143259363D01*
X103163227Y-143295652D01*
X103159943Y-143324463D01*
X103156202Y-143346731D01*
X103151974Y-143363390D01*
X103147229Y-143375375D01*
X103141939Y-143383621D01*
X103136073Y-143389062D01*
X103129602Y-143392634D01*
X103122497Y-143395270D01*
X103114728Y-143397906D01*
X103106266Y-143401477D01*
X103101908Y-143403145D01*
X103093395Y-143405111D01*
X103080694Y-143406911D01*
X103062885Y-143408555D01*
X103039049Y-143410047D01*
X103008266Y-143411397D01*
X102969617Y-143412611D01*
X102922182Y-143413697D01*
X102865043Y-143414661D01*
X102797279Y-143415511D01*
X102717971Y-143416253D01*
X102626199Y-143416897D01*
X102521044Y-143417447D01*
X102401587Y-143417913D01*
X102266908Y-143418300D01*
X102116088Y-143418616D01*
X101948206Y-143418869D01*
X101762345Y-143419066D01*
X101557583Y-143419213D01*
X101333002Y-143419318D01*
X101087682Y-143419389D01*
X100820704Y-143419432D01*
X100782321Y-143419437D01*
X100516922Y-143419480D01*
X100273050Y-143419525D01*
X100049783Y-143419548D01*
X99846196Y-143419524D01*
X99661367Y-143419430D01*
X99494373Y-143419243D01*
X99344290Y-143418939D01*
X99210196Y-143418494D01*
X99091166Y-143417885D01*
X98986279Y-143417089D01*
X98894610Y-143416080D01*
X98815237Y-143414837D01*
X98747237Y-143413335D01*
X98689686Y-143411551D01*
X98641662Y-143409461D01*
X98602240Y-143407042D01*
X98570499Y-143404270D01*
X98545514Y-143401121D01*
X98526364Y-143397572D01*
X98512123Y-143393598D01*
X98501871Y-143389178D01*
X98494682Y-143384286D01*
X98489635Y-143378900D01*
X98485805Y-143372996D01*
X98482271Y-143366549D01*
X98478108Y-143359537D01*
X98477025Y-143357687D01*
X98474813Y-143352180D01*
X98472786Y-143343868D01*
X98470938Y-143331809D01*
X98469261Y-143315063D01*
X98467745Y-143292687D01*
X98466383Y-143263740D01*
X98465167Y-143227280D01*
X98464089Y-143182367D01*
X98463140Y-143128057D01*
X98462312Y-143063410D01*
X98461597Y-142987484D01*
X98460987Y-142899338D01*
X98460942Y-142890493D01*
X98752378Y-142890493D01*
X98756260Y-142891765D01*
X98779520Y-142893791D01*
X98821874Y-142895626D01*
X98881132Y-142897227D01*
X98955107Y-142898549D01*
X99041610Y-142899548D01*
X99138452Y-142900180D01*
X99243445Y-142900400D01*
X99941651Y-142900400D01*
X101096090Y-142900400D01*
X101095456Y-142824200D01*
X101096574Y-142782160D01*
X101102304Y-142746334D01*
X101114890Y-142708772D01*
X101136568Y-142660577D01*
X101139789Y-142653897D01*
X101165188Y-142604359D01*
X101191996Y-142556369D01*
X101214917Y-142519466D01*
X101219485Y-142512834D01*
X101241516Y-142481593D01*
X101273693Y-142436654D01*
X101314457Y-142380147D01*
X101362245Y-142314204D01*
X101415498Y-142240957D01*
X101472655Y-142162536D01*
X101532155Y-142081072D01*
X101592437Y-141998698D01*
X101651940Y-141917544D01*
X101709105Y-141839742D01*
X101762370Y-141767423D01*
X101810174Y-141702718D01*
X101850957Y-141647759D01*
X101883158Y-141604676D01*
X101905216Y-141575602D01*
X101915571Y-141562667D01*
X101920044Y-141558351D01*
X101924236Y-141556312D01*
X101927643Y-141558926D01*
X101930325Y-141567986D01*
X101932341Y-141585285D01*
X101933748Y-141612614D01*
X101934605Y-141651765D01*
X101934970Y-141704533D01*
X101934903Y-141772707D01*
X101934460Y-141858082D01*
X101933702Y-141962449D01*
X101932685Y-142087600D01*
X101932308Y-142132300D01*
X101931169Y-142253395D01*
X101929972Y-142354688D01*
X101928636Y-142438262D01*
X101927077Y-142506204D01*
X101925215Y-142560599D01*
X101922966Y-142603532D01*
X101920248Y-142637089D01*
X101916979Y-142663355D01*
X101913078Y-142684416D01*
X101908461Y-142702357D01*
X101900192Y-142728770D01*
X101876583Y-142790772D01*
X101850685Y-142843573D01*
X101825535Y-142880645D01*
X101824339Y-142882075D01*
X101822168Y-142886424D01*
X101824328Y-142890026D01*
X101832644Y-142892951D01*
X101848940Y-142895269D01*
X101875041Y-142897051D01*
X101912771Y-142898367D01*
X101963956Y-142899286D01*
X102030420Y-142899878D01*
X102113987Y-142900215D01*
X102216483Y-142900365D01*
X102339732Y-142900400D01*
X102871296Y-142900400D01*
X102832523Y-142842783D01*
X102826432Y-142833893D01*
X102815976Y-142819069D01*
X102806579Y-142805422D01*
X102798183Y-142791765D01*
X102790733Y-142776911D01*
X102784173Y-142759670D01*
X102778446Y-142738855D01*
X102773495Y-142713280D01*
X102769266Y-142681755D01*
X102765701Y-142643093D01*
X102762744Y-142596107D01*
X102760340Y-142539608D01*
X102758431Y-142472409D01*
X102756962Y-142393322D01*
X102755876Y-142301160D01*
X102755118Y-142194734D01*
X102754630Y-142072857D01*
X102754358Y-141934341D01*
X102754243Y-141777999D01*
X102754231Y-141602642D01*
X102754265Y-141407082D01*
X102754289Y-141190133D01*
X102754280Y-141067513D01*
X102754243Y-140862447D01*
X102754227Y-140678116D01*
X102754288Y-140513334D01*
X102754484Y-140366916D01*
X102754870Y-140237674D01*
X102755505Y-140124422D01*
X102756444Y-140025975D01*
X102757745Y-139941144D01*
X102759464Y-139868744D01*
X102761659Y-139807589D01*
X102764385Y-139756492D01*
X102767701Y-139714267D01*
X102771662Y-139679727D01*
X102776325Y-139651686D01*
X102781747Y-139628958D01*
X102787986Y-139610356D01*
X102795097Y-139594693D01*
X102803138Y-139580784D01*
X102812166Y-139567441D01*
X102822236Y-139553479D01*
X102833407Y-139537711D01*
X102873197Y-139479867D01*
X101813314Y-139479867D01*
X101851311Y-139542966D01*
X101865993Y-139568005D01*
X101880531Y-139595586D01*
X101892627Y-139623700D01*
X101902532Y-139654551D01*
X101910494Y-139690344D01*
X101916761Y-139733283D01*
X101921582Y-139785574D01*
X101925206Y-139849419D01*
X101927881Y-139927025D01*
X101929857Y-140020594D01*
X101931382Y-140132333D01*
X101932704Y-140264445D01*
X101933613Y-140384434D01*
X101934020Y-140501063D01*
X101933767Y-140596531D01*
X101932857Y-140670556D01*
X101931293Y-140722855D01*
X101929079Y-140753149D01*
X101926220Y-140761156D01*
X101923161Y-140757858D01*
X101905006Y-140736408D01*
X101875275Y-140699889D01*
X101835639Y-140650442D01*
X101787771Y-140590207D01*
X101733343Y-140521327D01*
X101674027Y-140445943D01*
X101611495Y-140366196D01*
X101547421Y-140284228D01*
X101483475Y-140202180D01*
X101421331Y-140122194D01*
X101362661Y-140046411D01*
X101309137Y-139976973D01*
X101262430Y-139916021D01*
X101224214Y-139865696D01*
X101196161Y-139828140D01*
X101179943Y-139805495D01*
X101134635Y-139733212D01*
X101094661Y-139653463D01*
X101073130Y-139585188D01*
X101069827Y-139527844D01*
X101075116Y-139479867D01*
X99943356Y-139480117D01*
X99982867Y-139510722D01*
X99992248Y-139518089D01*
X100055183Y-139572438D01*
X100123997Y-139640259D01*
X100200596Y-139723516D01*
X100286888Y-139824178D01*
X100304052Y-139844847D01*
X100344833Y-139894409D01*
X100394588Y-139955326D01*
X100451955Y-140025898D01*
X100515569Y-140104424D01*
X100584069Y-140189204D01*
X100656090Y-140278537D01*
X100730270Y-140370722D01*
X100745517Y-140389702D01*
X100805246Y-140464060D01*
X100879653Y-140556848D01*
X100952131Y-140647388D01*
X101021314Y-140733978D01*
X101085841Y-140814918D01*
X101144347Y-140888506D01*
X101195470Y-140953044D01*
X101237847Y-141006829D01*
X101270115Y-141048162D01*
X101290910Y-141075342D01*
X101298869Y-141086668D01*
X101297111Y-141090771D01*
X101284230Y-141111334D01*
X101259885Y-141147561D01*
X101225247Y-141197824D01*
X101181486Y-141260492D01*
X101129775Y-141333936D01*
X101071284Y-141416527D01*
X101007184Y-141506636D01*
X100938646Y-141602631D01*
X100866843Y-141702885D01*
X100792944Y-141805768D01*
X100718121Y-141909650D01*
X100643545Y-142012901D01*
X100570387Y-142113892D01*
X100499819Y-142210994D01*
X100433011Y-142302577D01*
X100371135Y-142387011D01*
X100315361Y-142462667D01*
X100266862Y-142527916D01*
X100226807Y-142581128D01*
X100196369Y-142620673D01*
X100175944Y-142646026D01*
X100129899Y-142700295D01*
X100079612Y-142756775D01*
X100032815Y-142806669D01*
X99941651Y-142900400D01*
X99243445Y-142900400D01*
X99312356Y-142900349D01*
X99410607Y-142900091D01*
X99500030Y-142899637D01*
X99578333Y-142899010D01*
X99643223Y-142898235D01*
X99692411Y-142897335D01*
X99723604Y-142896334D01*
X99734511Y-142895257D01*
X99733322Y-142892037D01*
X99723176Y-142874452D01*
X99706040Y-142848158D01*
X99697540Y-142835691D01*
X99688329Y-142821622D01*
X99680233Y-142807351D01*
X99673185Y-142791479D01*
X99667117Y-142772609D01*
X99661961Y-142749341D01*
X99657651Y-142720278D01*
X99654119Y-142684021D01*
X99651297Y-142639170D01*
X99649118Y-142584328D01*
X99647514Y-142518097D01*
X99646419Y-142439077D01*
X99645765Y-142345871D01*
X99645484Y-142237079D01*
X99645509Y-142111303D01*
X99645772Y-141967145D01*
X99646206Y-141803207D01*
X99646745Y-141618089D01*
X99647279Y-141439232D01*
X99647805Y-141280374D01*
X99648350Y-141141316D01*
X99648945Y-141020665D01*
X99649619Y-140917028D01*
X99650403Y-140829011D01*
X99651326Y-140755223D01*
X99652419Y-140694269D01*
X99653712Y-140644757D01*
X99655235Y-140605293D01*
X99657019Y-140574484D01*
X99659092Y-140550938D01*
X99661486Y-140533260D01*
X99664230Y-140520059D01*
X99667356Y-140509940D01*
X99670892Y-140501511D01*
X99674791Y-140493375D01*
X99694438Y-140456544D01*
X99713225Y-140426391D01*
X99714272Y-140424908D01*
X99728602Y-140402659D01*
X99734511Y-140389702D01*
X99733504Y-140389249D01*
X99716305Y-140387803D01*
X99679656Y-140386480D01*
X99625962Y-140385316D01*
X99557630Y-140384347D01*
X99477064Y-140383611D01*
X99386670Y-140383142D01*
X99288853Y-140382978D01*
X98843195Y-140382978D01*
X98840120Y-141559845D01*
X98837045Y-142736711D01*
X98810407Y-142795622D01*
X98798485Y-142820183D01*
X98781246Y-142850434D01*
X98768074Y-142867560D01*
X98760076Y-142875591D01*
X98752378Y-142890493D01*
X98460942Y-142890493D01*
X98460474Y-142798029D01*
X98460050Y-142682617D01*
X98459706Y-142552160D01*
X98459434Y-142405716D01*
X98459227Y-142242344D01*
X98459076Y-142061101D01*
X98458972Y-141861048D01*
X98458908Y-141641241D01*
X98458876Y-141400739D01*
X98458867Y-141138602D01*
X98458867Y-138947031D01*
X98497249Y-138908649D01*
X98524355Y-138884911D01*
X98551253Y-138873111D01*
X98587560Y-138870267D01*
X98639489Y-138870267D01*
X98639489Y-138958206D01*
X98641427Y-139008102D01*
X98660199Y-139118523D01*
X98697217Y-139219987D01*
X98750369Y-139311152D01*
X98817546Y-139390673D01*
X98896638Y-139457205D01*
X98985534Y-139509406D01*
X99082125Y-139545930D01*
X99184300Y-139565434D01*
X99289950Y-139566573D01*
X99396964Y-139548005D01*
X99503232Y-139508384D01*
X99600219Y-139450516D01*
X99685293Y-139375684D01*
X99754015Y-139287615D01*
X99804918Y-139188616D01*
X99836535Y-139080993D01*
X99847400Y-138967054D01*
X99847400Y-138870267D01*
X101467753Y-138870267D01*
X101678897Y-138870280D01*
X101883020Y-138870330D01*
X102066686Y-138870430D01*
X102230991Y-138870592D01*
X102377029Y-138870829D01*
X102505894Y-138871153D01*
X102618683Y-138871575D01*
X102716488Y-138872109D01*
X102800404Y-138872767D01*
X102871527Y-138873561D01*
X102930950Y-138874504D01*
X102979768Y-138875608D01*
X103019077Y-138876884D01*
X103049969Y-138878347D01*
X103073541Y-138880007D01*
X103090886Y-138881878D01*
X103103099Y-138883972D01*
X103111275Y-138886300D01*
X103116508Y-138888876D01*
X103122504Y-138892445D01*
X103129279Y-138895978D01*
X103135478Y-138899488D01*
X103141126Y-138903918D01*
X103146247Y-138910208D01*
X103150869Y-138919301D01*
X103155015Y-138932139D01*
X103158713Y-138949662D01*
X103161987Y-138972813D01*
X103164863Y-139002534D01*
X103167367Y-139039765D01*
X103169524Y-139085449D01*
X103171360Y-139140527D01*
X103172900Y-139205941D01*
X103174170Y-139282633D01*
X103175195Y-139371544D01*
X103176001Y-139473617D01*
X103176034Y-139479867D01*
X103176614Y-139589792D01*
G36*
X103176614Y-139589792D02*
G01*
X103177059Y-139721011D01*
X103177362Y-139868216D01*
X103177548Y-140032349D01*
X103177642Y-140214352D01*
X103177671Y-140415165D01*
X103177661Y-140635732D01*
X103177636Y-140876992D01*
X103177622Y-141139889D01*
X103177622Y-141182040D01*
X103177646Y-141442668D01*
X103177685Y-141681796D01*
X103177708Y-141900360D01*
X103177687Y-142099295D01*
X103177593Y-142279535D01*
X103177395Y-142442015D01*
X103177063Y-142587670D01*
X103176569Y-142717434D01*
X103175883Y-142832243D01*
X103174976Y-142933030D01*
X103173817Y-143020730D01*
X103172378Y-143096279D01*
X103170629Y-143160611D01*
X103168540Y-143214661D01*
X103166083Y-143259363D01*
X103163227Y-143295652D01*
X103159943Y-143324463D01*
X103156202Y-143346731D01*
X103151974Y-143363390D01*
X103147229Y-143375375D01*
X103141939Y-143383621D01*
X103136073Y-143389062D01*
X103129602Y-143392634D01*
X103122497Y-143395270D01*
X103114728Y-143397906D01*
X103106266Y-143401477D01*
X103101908Y-143403145D01*
X103093395Y-143405111D01*
X103080694Y-143406911D01*
X103062885Y-143408555D01*
X103039049Y-143410047D01*
X103008266Y-143411397D01*
X102969617Y-143412611D01*
X102922182Y-143413697D01*
X102865043Y-143414661D01*
X102797279Y-143415511D01*
X102717971Y-143416253D01*
X102626199Y-143416897D01*
X102521044Y-143417447D01*
X102401587Y-143417913D01*
X102266908Y-143418300D01*
X102116088Y-143418616D01*
X101948206Y-143418869D01*
X101762345Y-143419066D01*
X101557583Y-143419213D01*
X101333002Y-143419318D01*
X101087682Y-143419389D01*
X100820704Y-143419432D01*
X100782321Y-143419437D01*
X100516922Y-143419480D01*
X100273050Y-143419525D01*
X100049783Y-143419548D01*
X99846196Y-143419524D01*
X99661367Y-143419430D01*
X99494373Y-143419243D01*
X99344290Y-143418939D01*
X99210196Y-143418494D01*
X99091166Y-143417885D01*
X98986279Y-143417089D01*
X98894610Y-143416080D01*
X98815237Y-143414837D01*
X98747237Y-143413335D01*
X98689686Y-143411551D01*
X98641662Y-143409461D01*
X98602240Y-143407042D01*
X98570499Y-143404270D01*
X98545514Y-143401121D01*
X98526364Y-143397572D01*
X98512123Y-143393598D01*
X98501871Y-143389178D01*
X98494682Y-143384286D01*
X98489635Y-143378900D01*
X98485805Y-143372996D01*
X98482271Y-143366549D01*
X98478108Y-143359537D01*
X98477025Y-143357687D01*
X98474813Y-143352180D01*
X98472786Y-143343868D01*
X98470938Y-143331809D01*
X98469261Y-143315063D01*
X98467745Y-143292687D01*
X98466383Y-143263740D01*
X98465167Y-143227280D01*
X98464089Y-143182367D01*
X98463140Y-143128057D01*
X98462312Y-143063410D01*
X98461597Y-142987484D01*
X98460987Y-142899338D01*
X98460942Y-142890493D01*
X98752378Y-142890493D01*
X98756260Y-142891765D01*
X98779520Y-142893791D01*
X98821874Y-142895626D01*
X98881132Y-142897227D01*
X98955107Y-142898549D01*
X99041610Y-142899548D01*
X99138452Y-142900180D01*
X99243445Y-142900400D01*
X99941651Y-142900400D01*
X101096090Y-142900400D01*
X101095456Y-142824200D01*
X101096574Y-142782160D01*
X101102304Y-142746334D01*
X101114890Y-142708772D01*
X101136568Y-142660577D01*
X101139789Y-142653897D01*
X101165188Y-142604359D01*
X101191996Y-142556369D01*
X101214917Y-142519466D01*
X101219485Y-142512834D01*
X101241516Y-142481593D01*
X101273693Y-142436654D01*
X101314457Y-142380147D01*
X101362245Y-142314204D01*
X101415498Y-142240957D01*
X101472655Y-142162536D01*
X101532155Y-142081072D01*
X101592437Y-141998698D01*
X101651940Y-141917544D01*
X101709105Y-141839742D01*
X101762370Y-141767423D01*
X101810174Y-141702718D01*
X101850957Y-141647759D01*
X101883158Y-141604676D01*
X101905216Y-141575602D01*
X101915571Y-141562667D01*
X101920044Y-141558351D01*
X101924236Y-141556312D01*
X101927643Y-141558926D01*
X101930325Y-141567986D01*
X101932341Y-141585285D01*
X101933748Y-141612614D01*
X101934605Y-141651765D01*
X101934970Y-141704533D01*
X101934903Y-141772707D01*
X101934460Y-141858082D01*
X101933702Y-141962449D01*
X101932685Y-142087600D01*
X101932308Y-142132300D01*
X101931169Y-142253395D01*
X101929972Y-142354688D01*
X101928636Y-142438262D01*
X101927077Y-142506204D01*
X101925215Y-142560599D01*
X101922966Y-142603532D01*
X101920248Y-142637089D01*
X101916979Y-142663355D01*
X101913078Y-142684416D01*
X101908461Y-142702357D01*
X101900192Y-142728770D01*
X101876583Y-142790772D01*
X101850685Y-142843573D01*
X101825535Y-142880645D01*
X101824339Y-142882075D01*
X101822168Y-142886424D01*
X101824328Y-142890026D01*
X101832644Y-142892951D01*
X101848940Y-142895269D01*
X101875041Y-142897051D01*
X101912771Y-142898367D01*
X101963956Y-142899286D01*
X102030420Y-142899878D01*
X102113987Y-142900215D01*
X102216483Y-142900365D01*
X102339732Y-142900400D01*
X102871296Y-142900400D01*
X102832523Y-142842783D01*
X102826432Y-142833893D01*
X102815976Y-142819069D01*
X102806579Y-142805422D01*
X102798183Y-142791765D01*
X102790733Y-142776911D01*
X102784173Y-142759670D01*
X102778446Y-142738855D01*
X102773495Y-142713280D01*
X102769266Y-142681755D01*
X102765701Y-142643093D01*
X102762744Y-142596107D01*
X102760340Y-142539608D01*
X102758431Y-142472409D01*
X102756962Y-142393322D01*
X102755876Y-142301160D01*
X102755118Y-142194734D01*
X102754630Y-142072857D01*
X102754358Y-141934341D01*
X102754243Y-141777999D01*
X102754231Y-141602642D01*
X102754265Y-141407082D01*
X102754289Y-141190133D01*
X102754280Y-141067513D01*
X102754243Y-140862447D01*
X102754227Y-140678116D01*
X102754288Y-140513334D01*
X102754484Y-140366916D01*
X102754870Y-140237674D01*
X102755505Y-140124422D01*
X102756444Y-140025975D01*
X102757745Y-139941144D01*
X102759464Y-139868744D01*
X102761659Y-139807589D01*
X102764385Y-139756492D01*
X102767701Y-139714267D01*
X102771662Y-139679727D01*
X102776325Y-139651686D01*
X102781747Y-139628958D01*
X102787986Y-139610356D01*
X102795097Y-139594693D01*
X102803138Y-139580784D01*
X102812166Y-139567441D01*
X102822236Y-139553479D01*
X102833407Y-139537711D01*
X102873197Y-139479867D01*
X101813314Y-139479867D01*
X101851311Y-139542966D01*
X101865993Y-139568005D01*
X101880531Y-139595586D01*
X101892627Y-139623700D01*
X101902532Y-139654551D01*
X101910494Y-139690344D01*
X101916761Y-139733283D01*
X101921582Y-139785574D01*
X101925206Y-139849419D01*
X101927881Y-139927025D01*
X101929857Y-140020594D01*
X101931382Y-140132333D01*
X101932704Y-140264445D01*
X101933613Y-140384434D01*
X101934020Y-140501063D01*
X101933767Y-140596531D01*
X101932857Y-140670556D01*
X101931293Y-140722855D01*
X101929079Y-140753149D01*
X101926220Y-140761156D01*
X101923161Y-140757858D01*
X101905006Y-140736408D01*
X101875275Y-140699889D01*
X101835639Y-140650442D01*
X101787771Y-140590207D01*
X101733343Y-140521327D01*
X101674027Y-140445943D01*
X101611495Y-140366196D01*
X101547421Y-140284228D01*
X101483475Y-140202180D01*
X101421331Y-140122194D01*
X101362661Y-140046411D01*
X101309137Y-139976973D01*
X101262430Y-139916021D01*
X101224214Y-139865696D01*
X101196161Y-139828140D01*
X101179943Y-139805495D01*
X101134635Y-139733212D01*
X101094661Y-139653463D01*
X101073130Y-139585188D01*
X101069827Y-139527844D01*
X101075116Y-139479867D01*
X99943356Y-139480117D01*
X99982867Y-139510722D01*
X99992248Y-139518089D01*
X100055183Y-139572438D01*
X100123997Y-139640259D01*
X100200596Y-139723516D01*
X100286888Y-139824178D01*
X100304052Y-139844847D01*
X100344833Y-139894409D01*
X100394588Y-139955326D01*
X100451955Y-140025898D01*
X100515569Y-140104424D01*
X100584069Y-140189204D01*
X100656090Y-140278537D01*
X100730270Y-140370722D01*
X100745517Y-140389702D01*
X100805246Y-140464060D01*
X100879653Y-140556848D01*
X100952131Y-140647388D01*
X101021314Y-140733978D01*
X101085841Y-140814918D01*
X101144347Y-140888506D01*
X101195470Y-140953044D01*
X101237847Y-141006829D01*
X101270115Y-141048162D01*
X101290910Y-141075342D01*
X101298869Y-141086668D01*
X101297111Y-141090771D01*
X101284230Y-141111334D01*
X101259885Y-141147561D01*
X101225247Y-141197824D01*
X101181486Y-141260492D01*
X101129775Y-141333936D01*
X101071284Y-141416527D01*
X101007184Y-141506636D01*
X100938646Y-141602631D01*
X100866843Y-141702885D01*
X100792944Y-141805768D01*
X100718121Y-141909650D01*
X100643545Y-142012901D01*
X100570387Y-142113892D01*
X100499819Y-142210994D01*
X100433011Y-142302577D01*
X100371135Y-142387011D01*
X100315361Y-142462667D01*
X100266862Y-142527916D01*
X100226807Y-142581128D01*
X100196369Y-142620673D01*
X100175944Y-142646026D01*
X100129899Y-142700295D01*
X100079612Y-142756775D01*
X100032815Y-142806669D01*
X99941651Y-142900400D01*
X99243445Y-142900400D01*
X99312356Y-142900349D01*
X99410607Y-142900091D01*
X99500030Y-142899637D01*
X99578333Y-142899010D01*
X99643223Y-142898235D01*
X99692411Y-142897335D01*
X99723604Y-142896334D01*
X99734511Y-142895257D01*
X99733322Y-142892037D01*
X99723176Y-142874452D01*
X99706040Y-142848158D01*
X99697540Y-142835691D01*
X99688329Y-142821622D01*
X99680233Y-142807351D01*
X99673185Y-142791479D01*
X99667117Y-142772609D01*
X99661961Y-142749341D01*
X99657651Y-142720278D01*
X99654119Y-142684021D01*
X99651297Y-142639170D01*
X99649118Y-142584328D01*
X99647514Y-142518097D01*
X99646419Y-142439077D01*
X99645765Y-142345871D01*
X99645484Y-142237079D01*
X99645509Y-142111303D01*
X99645772Y-141967145D01*
X99646206Y-141803207D01*
X99646745Y-141618089D01*
X99647279Y-141439232D01*
X99647805Y-141280374D01*
X99648350Y-141141316D01*
X99648945Y-141020665D01*
X99649619Y-140917028D01*
X99650403Y-140829011D01*
X99651326Y-140755223D01*
X99652419Y-140694269D01*
X99653712Y-140644757D01*
X99655235Y-140605293D01*
X99657019Y-140574484D01*
X99659092Y-140550938D01*
X99661486Y-140533260D01*
X99664230Y-140520059D01*
X99667356Y-140509940D01*
X99670892Y-140501511D01*
X99674791Y-140493375D01*
X99694438Y-140456544D01*
X99713225Y-140426391D01*
X99714272Y-140424908D01*
X99728602Y-140402659D01*
X99734511Y-140389702D01*
X99733504Y-140389249D01*
X99716305Y-140387803D01*
X99679656Y-140386480D01*
X99625962Y-140385316D01*
X99557630Y-140384347D01*
X99477064Y-140383611D01*
X99386670Y-140383142D01*
X99288853Y-140382978D01*
X98843195Y-140382978D01*
X98840120Y-141559845D01*
X98837045Y-142736711D01*
X98810407Y-142795622D01*
X98798485Y-142820183D01*
X98781246Y-142850434D01*
X98768074Y-142867560D01*
X98760076Y-142875591D01*
X98752378Y-142890493D01*
X98460942Y-142890493D01*
X98460474Y-142798029D01*
X98460050Y-142682617D01*
X98459706Y-142552160D01*
X98459434Y-142405716D01*
X98459227Y-142242344D01*
X98459076Y-142061101D01*
X98458972Y-141861048D01*
X98458908Y-141641241D01*
X98458876Y-141400739D01*
X98458867Y-141138602D01*
X98458867Y-138947031D01*
X98497249Y-138908649D01*
X98524355Y-138884911D01*
X98551253Y-138873111D01*
X98587560Y-138870267D01*
X98639489Y-138870267D01*
X98639489Y-138958206D01*
X98641427Y-139008102D01*
X98660199Y-139118523D01*
X98697217Y-139219987D01*
X98750369Y-139311152D01*
X98817546Y-139390673D01*
X98896638Y-139457205D01*
X98985534Y-139509406D01*
X99082125Y-139545930D01*
X99184300Y-139565434D01*
X99289950Y-139566573D01*
X99396964Y-139548005D01*
X99503232Y-139508384D01*
X99600219Y-139450516D01*
X99685293Y-139375684D01*
X99754015Y-139287615D01*
X99804918Y-139188616D01*
X99836535Y-139080993D01*
X99847400Y-138967054D01*
X99847400Y-138870267D01*
X101467753Y-138870267D01*
X101678897Y-138870280D01*
X101883020Y-138870330D01*
X102066686Y-138870430D01*
X102230991Y-138870592D01*
X102377029Y-138870829D01*
X102505894Y-138871153D01*
X102618683Y-138871575D01*
X102716488Y-138872109D01*
X102800404Y-138872767D01*
X102871527Y-138873561D01*
X102930950Y-138874504D01*
X102979768Y-138875608D01*
X103019077Y-138876884D01*
X103049969Y-138878347D01*
X103073541Y-138880007D01*
X103090886Y-138881878D01*
X103103099Y-138883972D01*
X103111275Y-138886300D01*
X103116508Y-138888876D01*
X103122504Y-138892445D01*
X103129279Y-138895978D01*
X103135478Y-138899488D01*
X103141126Y-138903918D01*
X103146247Y-138910208D01*
X103150869Y-138919301D01*
X103155015Y-138932139D01*
X103158713Y-138949662D01*
X103161987Y-138972813D01*
X103164863Y-139002534D01*
X103167367Y-139039765D01*
X103169524Y-139085449D01*
X103171360Y-139140527D01*
X103172900Y-139205941D01*
X103174170Y-139282633D01*
X103175195Y-139371544D01*
X103176001Y-139473617D01*
X103176034Y-139479867D01*
X103176614Y-139589792D01*
G37*
%TD*%
%LPC*%
D13*
%TO.C,D1*%
X59055000Y-138275000D03*
D14*
X59055000Y-135735000D03*
%TD*%
D15*
%TO.C,SW1*%
X72680000Y-140250000D03*
D16*
X72680000Y-133750000D03*
X77180000Y-140250000D03*
X77180000Y-133750000D03*
%TD*%
D17*
%TO.C,R1*%
X69215000Y-132715000D03*
X69215000Y-140335000D03*
%TD*%
%LPD*%
M02*
