%TF.GenerationSoftware,KiCad,Pcbnew,9.0.2-9.0.2-0~ubuntu24.04.1*%
%TF.CreationDate,2025-07-05T20:41:48+02:00*%
%TF.ProjectId,LED_torch,4c45445f-746f-4726-9368-2e6b69636164,0.1*%
%TF.SameCoordinates,Original*%
%TF.FileFunction,Copper,L1,Top*%
%TF.FilePolarity,Positive*%
%FSLAX46Y46*%
G04 Gerber Fmt 4.6, Leading zero omitted, Abs format (unit mm)*
G04 Created by KiCad (PCBNEW 9.0.2-9.0.2-0~ubuntu24.04.1) date 2025-07-05 20:41:48*
%MOMM*%
%LPD*%
G01*
G04 APERTURE LIST*
%TA.AperFunction,SMDPad,CuDef*%
%ADD10R,2.540000X3.510000*%
%TD*%
%TA.AperFunction,ComponentPad*%
%ADD11R,1.800000X1.800000*%
%TD*%
%TA.AperFunction,ComponentPad*%
%ADD12C,1.800000*%
%TD*%
%TA.AperFunction,ComponentPad*%
%ADD13R,1.700000X1.700000*%
%TD*%
%TA.AperFunction,ComponentPad*%
%ADD14C,1.700000*%
%TD*%
%TA.AperFunction,ComponentPad*%
%ADD15C,1.400000*%
%TD*%
%TA.AperFunction,Conductor*%
%ADD16C,0.200000*%
%TD*%
G04 APERTURE END LIST*
D10*
%TO.P,BT1,1,+*%
%TO.N,/bat_pos*%
X111680000Y-137000000D03*
%TO.P,BT1,2,-*%
%TO.N,/LED_cathode*%
X82320000Y-137000000D03*
%TD*%
D11*
%TO.P,D1,1,K*%
%TO.N,/LED_cathode*%
X59055000Y-138275000D03*
D12*
%TO.P,D1,2,A*%
%TO.N,/LED_anode*%
X59055000Y-135735000D03*
%TD*%
D13*
%TO.P,SW1,1,A*%
%TO.N,Net-(SW1A-A)*%
X72680000Y-140250000D03*
D14*
X72680000Y-133750000D03*
%TO.P,SW1,2,B*%
%TO.N,/bat_pos*%
X77180000Y-140250000D03*
X77180000Y-133750000D03*
%TD*%
D15*
%TO.P,R1,1*%
%TO.N,/LED_anode*%
X69215000Y-132715000D03*
%TO.P,R1,2*%
%TO.N,Net-(SW1A-A)*%
X69215000Y-140335000D03*
%TD*%
D16*
%TO.N,/bat_pos*%
X83924000Y-134470000D02*
X77470000Y-134470000D01*
X77470000Y-133905000D02*
X77470000Y-140405000D01*
X111680000Y-137236068D02*
X86690068Y-137236068D01*
X86690068Y-137236068D02*
X83924000Y-134470000D01*
%TO.N,/LED_cathode*%
X66548000Y-141478000D02*
X78994000Y-141478000D01*
X63500000Y-138430000D02*
X66548000Y-141478000D01*
X82320000Y-138152000D02*
X82320000Y-137000000D01*
X59055000Y-138430000D02*
X63500000Y-138430000D01*
X78994000Y-141478000D02*
X82320000Y-138152000D01*
%TO.N,/LED_anode*%
X65791000Y-133345000D02*
X69000000Y-133345000D01*
X59055000Y-135890000D02*
X63246000Y-135890000D01*
X63246000Y-135890000D02*
X65791000Y-133345000D01*
%TO.N,Net-(SW1A-A)*%
X72970000Y-140970000D02*
X72208000Y-140208000D01*
X72970000Y-140405000D02*
X69560000Y-140405000D01*
X69560000Y-140405000D02*
X69000000Y-140965000D01*
X72970000Y-133905000D02*
X72970000Y-140405000D01*
%TD*%
M02*
